<svg width="790" height="790" viewBox="0 0 790 790" xmlns="http://www.w3.org/2000/svg">
    <title>
        bilva
    </title>
    <g fill="none" fill-rule="evenodd">
        <circle fill="#7B0303" cx="395" cy="395" r="395"/>
        <circle stroke="#FFF" stroke-width="23" cx="394.5" cy="394.5" r="355.5"/>
        <path d="M501.64 690.817c-5.637-.828-20.125-1.082-56.84-.997-14.916.034-32.353-.05-38.748-.187-6.395-.138-27.898-.154-47.784-.037-40.185.237-67.983.063-70.608-.443-.95-.182-1.98-.357-2.29-.388-.99-.1-2.495-5.196-3.155-10.687l-.64-5.33 8.15-4.17c9.37-4.793 10.754-6.347 15.762-17.682a882.733 882.733 0 0 1 6.415-14.15c3.024-6.465 8.878-14.056 12.403-16.082a479.35 479.35 0 0 0 4.835-2.836c1.583-.94 4.42-2.04 6.308-2.44 8.835-1.878 15.14-3.44 15.534-3.847.624-.645-10.22-6.103-18.61-9.367-3.96-1.54-8.257-3.485-9.547-4.32-1.29-.837-4.158-2.353-6.373-3.37-2.216-1.018-4.515-2.417-5.11-3.11-.596-.693-1.908-1.275-2.916-1.295-1.008-.02-3.595-1.135-5.75-2.48-2.154-1.343-4.893-2.92-6.087-3.506-1.195-.585-4.562-2.562-7.482-4.393a721.342 721.342 0 0 0-11.63-7.094c-3.478-2.07-8.534-5.383-11.237-7.36a489.276 489.276 0 0 0-9.705-6.893c-2.636-1.813-8.52-5.946-13.075-9.186s-12.792-9.002-18.304-12.803c-5.512-3.802-10.81-7.606-11.77-8.454-.963-.848-4.107-3.447-6.99-5.775-2.88-2.33-6.223-5.114-7.426-6.19-1.202-1.077-4.148-3.348-6.545-5.048-5.524-3.918-18.028-14.91-27.135-23.857-5.625-5.526-7.712-7.027-10.408-7.484-4.975-.844-9.15-4.846-9.22-8.838-.063-3.573-3.775-8.115-7.304-8.936-2.744-.638-11.827-11.007-18.17-20.742-1.678-2.576-3.26-4.873-3.517-5.105-.256-.232-1.042-1.38-1.746-2.552a491.45 491.45 0 0 0-4.176-6.714c-3.81-6.03-3.12-7.734 3.255-8.057 7.914-.402 17.104-.42 29.026-.052 39.622 1.218 67.233 1.367 73.493.396l5.025-.78-4.913-6.37c-2.703-3.505-6.17-8.87-7.706-11.92-4.313-8.565-6.756-13.807-7.962-17.08-.607-1.647-1.462-3.763-1.9-4.703-.977-2.095-.987-2.227-1.308-17.627-.236-11.35-.06-13.096 1.935-19.302 7.04-21.885 20.113-36.835 40.615-46.452 8.314-3.9 16.03-6.94 19.17-7.557 1.612-.317 3.077-1.037 3.254-1.6.315-1.006-.356-1.743-5.82-6.393-1.49-1.27-2.714-2.534-2.72-2.812-.003-.277-1.53-2.29-3.39-4.474-3.603-4.227-6.49-10.99-8.274-19.382-2.224-10.455-6.047-18.697-11.248-24.247-2.668-2.847-5.412-5.166-6.097-5.154-2.373.04-2.292-2.456.152-4.683 7.125-6.49 16.73-7.883 31.64-4.586 1.903.42 5.79 1.223 8.642 1.783 2.85.56 6.16 1.5 7.354 2.088 1.194.59 2.794 1.063 3.556 1.052.762-.01 3.583 1.106 6.27 2.48 2.685 1.373 5.29 2.49 5.79 2.48 1.428-.024 14.163 8.54 16.022 10.775.922 1.11 2.218 2.45 2.88 2.98 3.598 2.883 9.602 9.39 10.51 11.392 1.408 3.097 1.775 1.684 2.277-8.782.223-4.67.74-9.328 1.15-10.352.408-1.025 2.08-5.567 3.716-10.094 1.636-4.527 4.07-10.24 5.41-12.697 2.407-4.414 12.03-14.57 16.597-17.52 1.297-.837 3.12-2.185 4.054-2.995.933-.81 2.85-1.907 4.262-2.436 1.41-.53 4.68-1.83 7.267-2.89 6.16-2.52 12.55-4.61 13.43-4.39.387.098 3.99-.22 8.005-.707 8.716-1.054 13.07-.946 21.006.522 3.27.606 6.252.906 6.623.667.373-.24.88-2.66 1.13-5.38.912-9.99 3.647-18.943 6.327-20.716.588-.39 2.057-2.08 3.263-3.76 1.206-1.678 3.983-4.826 6.17-6.995 6.924-6.863 10.97-13.176 12.904-20.14 1.72-6.186 1.734-6.694.363-12.84-.785-3.52-1.66-7.46-1.942-8.758-.963-4.416 2.146-3.074 13.952 6.024 4.926 3.796 12.765 13.762 15.826 20.12 3.972 8.25 5.266 14.3 5.554 25.974.243 9.864.066 11.332-2.138 17.687-1.324 3.81-3.655 8.993-5.182 11.515-1.527 2.522-2.77 4.9-2.764 5.288.007.386 3.98.462 8.828.168 9.4-.57 16.99.65 22.478 3.614l8.01 4.325c5.834 3.15 17.33 13.723 18.386 16.91.377 1.138 1.762 3.407 3.076 5.042 2.53 3.143 6.22 12.504 6.385 16.197.054 1.21.408 2.95.786 3.87.663 1.61.746 1.597 2.3-.373.888-1.124 2.738-3.075 4.11-4.337 1.374-1.262 3.28-3.09 4.235-4.06 1.694-1.722 7.6-6.164 10.5-7.897.796-.476 2.9-1.835 4.674-3.022 3.118-2.084 3.714-2.16 17.61-2.272 15.225-.12 21.855.666 27.107 3.22 1.77.86 3.664 1.557 4.207 1.548.542-.01 2.473 1.12 4.29 2.508 1.82 1.388 3.58 2.52 3.912 2.514.332-.006 3.03 2.403 5.995 5.352 8.103 8.06 13.518 19.54 9.824 20.827-.55.19-1.503-.973-2.118-2.588-.802-2.1-2.13-3.4-4.673-4.572-7.4-3.41-15.54-.144-20.02 8.033-2.452 4.474-3.104 6.134-7.085 18.034-2.864 8.56-7.472 17.562-11.83 23.107-3.367 4.284-3.733 5.123-2.578 5.91 8.265 5.616 11.094 7.745 11.108 8.355.007.4 2.01 2.688 4.444 5.09 5.6 5.52 9.885 12.915 11.92 20.568.874 3.287 2.39 7.91 3.368 10.27 2.478 5.98 3.042 26.712 1.028 37.765-1.388 7.614-5.356 17.38-9.277 22.83-1.1 1.527-1.994 3.014-1.99 3.305.018.957-5.6 9.553-7.228 11.06-5.09 4.713-6.126 5.568-7.002 5.778-1.733.417-1.072-1.182 3.908-9.448 11.91-19.77 14.89-28.155 16.43-46.223 1.69-19.854-4.97-41.412-16.772-54.272-2.99-3.257-11.25-9.383-12.622-9.36-.5.01-1.588-.326-2.418-.745-7.752-3.917-18.044-6.147-24.763-5.365-6.294.733-19.554 7.245-19.992 9.818-.15.878.78 2.657 2.065 3.952 1.286 1.296 3.51 4.61 4.94 7.362 2.357 4.532 2.618 5.824 2.75 13.614.188 10.98-2.244 20.183-7.154 27.07-2.854 4.006-3.852 2.358-2.01-3.32 1.804-5.553 3.267-16.968 3.136-24.46-.103-5.895-2.35-12.86-5.006-15.522-.964-.966-3.47-3.555-5.567-5.755-2.1-2.2-5.964-5.202-8.59-6.672l-8.17-4.576c-3.243-1.816-16.504-5.565-21.988-6.218-1.423-.17-4.67-.684-7.213-1.145-2.544-.46-4.925-.646-5.29-.41-.367.235-3.942.643-7.946.907s-8.01.873-8.9 1.352c-.89.48-3.737 1.59-6.326 2.468-10.218 3.462-19.956 9.06-26.242 15.087-3.36 3.223-6.102 6.284-6.093 6.803.01.52 1.4 3.655 3.093 6.97 6.297 12.328 7.206 15.48 7.31 25.32.076 7.406-.353 10.68-2.378 18.123-4.11 15.114-9.637 28.835-13.445 33.382-.805.96-2.528 3.703-3.83 6.093-1.3 2.392-3.846 6.453-5.656 9.026-4.005 5.69-3.557 6.172 5.616 6.03 3.59-.056 6.81.172 7.155.506.347.333 6.592.422 13.88.197 8.152-.253 13.46-.08 13.798.446.303.47.946.602 1.43.292 1.1-.708 23.63-1.047 24.764-.373.46.273 12.38.488 26.49.478 14.112-.01 28.323.32 31.58.738 4.34.556 6.24.487 7.108-.258.756-.65 2.503-.827 4.843-.49 3.394.49 22.147 1.217 26.053 1.012 3.616-.19 22.376-.57 22.378-.452 0 .068 5.62.122 12.486.12 6.866-.002 25.465.08 41.33.186 15.865.104 31.137.187 33.937.183 2.8-.003 5.233.393 5.407.88.174.49-1.504 3.037-3.728 5.662-4.11 4.854-5.553 6.97-8.593 12.61-2.403 4.46-12.676 17.003-13.943 17.025-.58.01-1.715-.95-2.52-2.137-1.24-1.82-1.342-2.91-.656-7.016.446-2.674.977-5.034 1.18-5.244.936-.97 2.327 1 1.88 2.658-1.08 4.008-1.345 9.182-.468 9.166.49-.008.997-1.082 1.124-2.387.137-1.406.96-2.708 2.024-3.196 4.907-2.258 7.227-11.457 3.343-13.258-6.762-3.134-11.673-1.557-14.672 4.713-2.08 4.35-2.202 7.045-.634 14.103.592 2.658 2.1 1.508 2.048-1.558-.053-3.04.686-5.197 1.787-5.216.46-.008.76 1.98.674 4.432-.134 3.737.137 4.636 1.702 5.636 1.984 1.268 1.805 3.634-.277 3.67-1.46.026-6.855 5.865-7.557 8.18-.728 2.4-3.64 5.15-7.62 7.197-1.955 1.005-6.37 4.763-9.814 8.35-7.797 8.124-19.932 19.556-21.288 20.055-.56.206-2.242 1.592-3.74 3.08-8.33 8.275-8.52 8.432-21.047 17.305-2.34 1.656-4.377 3.304-4.53 3.662-.15.358-.686.658-1.19.667-.503.007-2.482 1.324-4.397 2.924-1.915 1.6-5.015 3.845-6.89 4.988-6.626 4.043-12.342 8.097-12.33 8.745.005.36-1.448 1.51-3.23 2.553-1.783 1.043-4.408 3-5.835 4.35-3.357 3.174-7.892 6.76-9.104 7.2-.523.188-1.548.88-2.277 1.534-.73.654-4.372 2.813-8.095 4.796-3.724 1.984-7.94 4.337-9.372 5.23-1.43.893-3.5 1.926-4.596 2.295-1.096.37-4.146 1.977-6.778 3.573-2.632 1.597-7.477 4.013-10.768 5.37-3.29 1.357-7.2 3.407-8.688 4.556-1.488 1.15-2.943 2.094-3.234 2.1-.29.004-2.624 1.4-5.185 3.103-2.56 1.702-5.157 3.104-5.768 3.114-.612.012-1.93.81-2.93 1.774-1 .965-2.124 1.76-2.5 1.77-2.934.068-16.807 7.665-16.076 8.804.22.343 4.21 1.257 8.866 2.03 4.656.774 10.41 2.15 12.787 3.058 5.99 2.29 11.982 8.094 14.936 14.47 1.336 2.883 3.192 6.874 4.124 8.87 3.776 8.08 3.24 7.107 7.465 13.538.96 1.462 5.786 6.752 10.72 11.755 6.178 6.26 8.985 9.728 9.01 11.124.042 2.442-4.012 11.616-5.798 13.12-1.446 1.216-2.783 1.254-9.466.273zm8.23-7.337c.884-1.94 1.083-3.34.55-3.856-.524-.505-6.02-.465-14.584.107-7.56.505-14.36.633-15.113.286-.752-.347-13.155-.597-27.56-.556-14.406.04-26.778-.124-27.492-.367-.714-.243-6.338-.607-12.497-.81-6.16-.2-12.557-.474-14.217-.606-1.66-.132-14.06-.318-27.558-.413-13.498-.096-24.94-.482-25.43-.857-1.187-.913-13.418-.952-19.507-.063-2.68.392-5.35.43-5.93.083-.583-.346-3.23-.546-5.885-.444-8.46.324-10.66.29-19.9-.3-4.98-.316-9.334-.307-9.68.02-.547.523 2.24 9.094 3.285 10.105.72.696 6.897.878 19.495.573 35.397-.856 76.618-1.022 82.607-.333 3.063.352 5.968.32 6.456-.07.49-.39 3.216-.556 6.06-.368 2.845.187 17.955.157 33.577-.068 15.623-.224 28.912-.093 29.532.292.624.388 1.582.328 2.15-.136 1.204-.984 27.368-.984 33.755 0 2.374.365 4.808.7 5.408.746.6.045 1.716-1.288 2.48-2.964zm-2.024-9.176c1.024-1.06-4.315-4.79-7.445-5.2-1.66-.22-11.153-.258-21.094-.088-15.777.27-61.123.35-61.128.11-.003-.204-17.186-.436-40.044-.54-13.497-.06-25.317-.272-26.268-.47-.95-.2-6.77-.672-12.933-1.05-6.162-.38-12.37-.877-13.795-1.105-1.424-.226-4.335-.492-6.467-.59-2.132-.097-6.236-.417-9.12-.71-5.06-.515-5.424-.416-10.458 2.854-2.868 1.862-5.228 3.65-5.244 3.97-.053 1.085 8.903 1.4 37.867 1.33 15.863-.04 33.88.042 40.04.18 6.157.136 18.502.287 27.433.333 8.93.047 16.454.295 16.72.55.264.257.97.047 1.565-.466.734-.63 1.608-.662 2.705-.1 1.553.797 27.6 1.56 42.005 1.23 3.786-.086 9.02.123 11.63.465 5.627.736 33.193.17 34.033-.7zm-76.312-10.297c.607-.628-.13-1.855-2.387-3.97-3.824-3.587-4.52-3.72-5.48-1.052-.394 1.09-1.328 2.51-2.077 3.155-2.113 1.816-1.615 2.556 1.897 2.816 4.73.35 7.057.076 8.047-.95zm54.993-.56c-.012-.67-.17-.722-3.032-1.023-2.732-.287-10.874-4.144-15.562-7.372-3.944-2.716-4.382-2.836-5.38-1.474-.597.816-1.088 2.108-1.09 2.873 0 .766-.76 2.39-1.686 3.61-3.34 4.402-2.804 4.55 15.357 4.233 6.272-.11 11.4-.49 11.393-.845zm-72.314.484c-.01-.546-1.047-2.297-2.306-3.89-2.228-2.817-2.334-2.852-3.977-1.312-2.217 2.078-3.408 4.473-2.74 5.512.773 1.204 9.045.92 9.023-.31zm36.154-.426c-.007-.41-.58-.953-1.274-1.205-.693-.254-2.088-2.014-3.1-3.914-1.978-3.717-3.272-4.32-4.095-1.908-.285.834-1.21 2.557-2.06 3.828-.847 1.272-1.533 2.702-1.525 3.178.008.49 2.615.843 6.04.816 3.315-.027 6.02-.385 6.014-.796zm-109.36-.922c-.008-.47-.562-2.065-1.232-3.545-.67-1.48-1.67-3.75-2.222-5.042-1.15-2.69-2.77-2.926-5.824-.847-1.178.8-5.468 2.716-9.535 4.256s-7.32 3.186-7.23 3.658c.09.472 3.18 1.086 6.865 1.366s9.03.786 11.876 1.127c5.493.657 7.326.413 7.3-.973zm21.958.17c-.01-.502-1.742-2.796-3.852-5.098-3.545-3.866-3.91-4.058-4.78-2.528-.52.91-1.986 2.925-3.26 4.476-3.642 4.427-3.173 4.86 4.812 4.44 4.28-.226 7.09-.738 7.08-1.29zm15.59-.158c.504-1.38-3.027-6.47-4.46-6.428-1.27.037-4.858 5.983-4.214 6.984.86 1.336 8.158.868 8.676-.556zm14.98.51c-.02-1.115-2.954-4.654-3.847-4.638-1.3.023-3.262 3.342-2.592 4.385.54.843 6.454 1.076 6.44.254zm62.33-4.094c2.37-4.646 3.922-9.478 3.382-10.537-.312-.612-1.3-2.266-2.194-3.677-.895-1.41-2.16-4.68-2.81-7.27-.65-2.587-1.59-5.768-2.087-7.07-.507-1.325-.69-4.6-.42-7.456.45-4.685.34-5.136-1.344-5.638-2.436-.727-2.777-.205-1.67 2.558 1.706 4.264.904 18.21-1.45 25.217-1.13 3.36.228 8.31 3.642 13.278 2.516 3.66 3.334 3.76 4.95.595zm37.437-.415c-.09-2.53-2.3-4.547-6.238-5.69-15.435-4.48-22.532-8.693-26.2-15.553-2.15-4.023-2.456-5.46-2.358-11.073.094-5.403-.117-6.49-1.302-6.698-1.05-.183-1.55.644-1.936 3.208-.395 2.618.1 5.26 2.044 10.9 2.247 6.52 3.218 8.097 7.823 12.704 5.798 5.8 7.884 7.024 18.703 10.975 8.568 3.13 9.537 3.254 9.464 1.225zm-91.317-.66c2.276-3.83 2.223-4-1.075-3.406-3.493.63-5.037-.91-7.197-7.17-1.558-4.516-1.47-12.185.14-12.213.386-.007.91-1.164 1.167-2.572 1.04-5.715 10.222-10.19 12.325-6.006 2.52 5.016 2.95 9.672 1.468 15.963-1.93 8.204-.282 8.105 2.688-.16 3.473-9.666 2.658-19.622-1.712-20.925-.94-.28-4.914-.187-8.83.208-6.044.61-7.498 1.073-9.615 3.06-3.582 3.36-4.416 5.496-4.74 12.13-.208 4.304.06 6.326.995 7.52.704.896 1.303 2.21 1.33 2.92.046 1.117 5.35 9.273 8.14 12.518 1.554 1.808 3.075 1.23 4.917-1.87zm18.23-.864c1.264-2.758 1.18-5.42-.228-7.312-.348-.468-.913-1.938-1.256-3.268-.84-3.265-2.246-2.525-4.607 2.426-1.734 3.633-1.837 4.443-.856 6.7 1.367 3.143 3.345 5.146 4.642 4.7.533-.182 1.57-1.643 2.305-3.245zm-70.707-1.562c2.16-3.862 2.466-5.16 1.994-8.43a522.01 522.01 0 0 1-1.118-8.374c-.626-5.038-1.453-5.645-2.864-2.102-.522 1.31-2.46 3.93-4.307 5.822-2.32 2.377-3.346 4.182-3.316 5.845.06 3.44 4.142 11.854 5.737 11.826.727-.013 2.47-2.077 3.874-4.588zm34.633 2.41c2.238-2.7 2.37-4.568.56-7.966-2.423-4.554-3.235-4.784-5.18-1.468-2.11 3.603-2.087 4.563.197 8.117 2.105 3.278 2.66 3.443 4.424 1.317zm54.213-3.96c4.058-9.017 5.535-14.868 5.83-23.105.286-8.018-.712-14.052-2.503-15.116-.51-.303-3.303-.007-6.207.658-6.002 1.375-8.917 3.94-11.868 10.443-2.06 4.542-2.348 16.44-.44 18.282.588.568 1.08 1.664 1.094 2.434.027 1.585 9.5 11.004 11.04 10.977.552-.01 1.925-2.067 3.053-4.573zm-7.047-6.084c-4.984-5.102-4.924-14.674.135-21.84 2.635-3.73 4.068-4.254 6.31-2.304 2.676 2.327 3.62 5.233 3.575 11.02-.045 5.91-1.127 10.176-3.454 13.62-2.106 3.116-3.11 3.04-6.564-.496zm5.487-7.806c1.053-4.598.35-11.95-1.095-11.44-2.107.743-4.326 5.203-4.185 8.41.383 8.77 3.55 10.586 5.28 3.03zm-66.376 12.923c2.52-3.24 5.377-7.494 6.35-9.454 2.262-4.554 4.528-18.37 3.22-19.634-.51-.492-.942-1.744-.96-2.782-.033-1.928-1.716-3.083-4.793-3.293-.948-.064-3.782-.772-6.297-1.572-5.535-1.76-6.35-1.247-10.013 6.318-4.66 9.623-3.456 20.412 3.388 30.364 2.25 3.274 4.19 5.95 4.31 5.95.118-.003 2.276-2.656 4.795-5.896zm-7.035-3.892c-3.46-3.843-3.932-5.477-3.51-12.18.3-4.82.925-7.246 2.5-9.716 2.002-3.145 6.33-7.113 7.782-7.14 1.26-.02 4.496 8.046 5.146 12.832.792 5.822-.68 10.757-4.502 15.11-3.195 3.635-4.9 3.887-7.416 1.094zm6.354-8.596c1.644-4.67 1.643-13.912-.002-15.5-.463-.447-1.774.586-3.195 2.518-2.083 2.83-2.384 3.988-2.215 8.506.21 5.606 1.715 10.357 3.018 9.52.44-.28 1.516-2.55 2.393-5.044zm-52.123 13.623c8.026-2.433 16.924-8.164 21.78-14.028 5.715-6.903 10.262-14.94 10.813-19.115.506-3.827.433-4.02-1.502-3.975-3.15.075-4.01 1.044-5.787 6.52-1.86 5.733-5.173 11.97-8.08 15.218-1.076 1.2-1.952 2.42-1.947 2.71.005.29-2.777 1.816-6.183 3.39-11.394 5.27-15.556 7.872-15.83 9.898-.21 1.55.032 1.777 1.312 1.226.863-.373 3.304-1.202 5.423-1.845zm89.04-1.922a.935.935 0 0 0-.31-1.28c-.437-.26-1.006.11-1.265.822-.51 1.404.79 1.78 1.576.458zm-2.22-10.71c1.073-4.21 1.25-10.49.322-11.387-1.017-.98-3.37.823-5.113 3.92-1.998 3.55-2.66 11.344-1.19 13.98l1.122 2.012 1.998-2.57c1.1-1.413 2.386-4.093 2.86-5.954zm82.166 4.735c-.352-1.06-1.182-2.68-1.844-3.604-.663-.922-1.215-2.274-1.228-3.003-.027-1.537-5.387-9.554-8.738-13.068-2.957-3.1-8.303-5.728-10.143-4.984-1.215.49-1.356 1.518-.913 6.68.7 8.163 2.604 11.696 7.663 14.22 2.22 1.107 5.016 2.63 6.213 3.383 2.38 1.5 4.558 2.138 7.63 2.24 1.69.054 1.9-.232 1.36-1.862zm-164.68-3.308c7.415-3.658 11.602-7.7 15.498-14.96 3.17-5.907 3.664-9.11 1.403-9.072-2.873.05-10.762 4.7-14.328 8.447-4.198 4.41-11.234 18.69-9.192 18.654.226-.005 3.205-1.386 6.62-3.07zm100.116-22.31c.01-.386-1.235-.557-2.767-.382-3.076.35-4.098 2.517-2.22 4.702.957 1.112 1.35.96 3.033-1.17 1.064-1.347 1.943-2.765 1.953-3.15zm-35.93 2.916c2.196-2.06 1.9-3.774-.645-3.73-1.816.032-2.143.44-2.105 2.62.05 2.95.566 3.157 2.75 1.11zM400 613.83c-.726-.702-1.328-1.77-1.34-2.373-.01-.603-.618-2.25-1.352-3.657-1.505-2.89-2.933-8.99-4.177-17.84l-1.448-10.308a1620 1620 0 0 0-1.545-10.598c-.517-3.467-1.26-11.01-1.65-16.76-.39-5.75-1.03-10.79-1.423-11.2-.392-.41-3.456-.892-6.808-1.073-7.047-.38-6.783-.87-4.71 8.74.733 3.4 1.64 10.394 2.014 15.542.374 5.148.854 9.63 1.066 9.96.21.33.617 2.69.9 5.248.91 8.2 2.32 16.02 3.182 17.646.46.87 1.38 4.003 2.044 6.965.664 2.963 1.542 5.586 1.952 5.83.41.243.758 1.13.772 1.97.028 1.603 5.298 3.694 7.288 2.89.576-.232 1.996-.083 3.157.332 2.723.973 3.766.315 2.08-1.312zm17.558.025c.75-2.084 3.623-12.733 5.54-20.545.64-2.616 1.647-5.345 2.235-6.066.587-.72 1.275-2.863 1.528-4.762.253-1.898 1.007-6.173 1.675-9.5.667-3.326 1.344-7.02 1.503-8.205.16-1.187.718-4.102 1.24-6.48.523-2.376 1.113-6.94 1.31-10.138l.36-5.82-6.552.115c-5.63.098-6.562.327-6.622 1.622l-.343 7.54c-.46 10.14-.766 13.58-1.692 18.97-.49 2.85-1.064 6.816-1.276 8.812-.21 1.996-.92 4.09-1.574 4.652-.655.563-1.18 1.673-1.165 2.467.014.793-.316 1.817-.734 2.274-.718.785-3.382 9.83-5.045 17.126-.416 1.825-1.502 4.847-2.415 6.714l-1.658 3.397 6.49-.112c5.94-.104 6.552-.28 7.196-2.063zm13.37-2.216c1.865-.82 3.113-2.036 3.33-3.248 1.245-6.958 3.122-15.033 3.666-15.77.353-.48.84-2.04 1.083-3.464.534-3.145 1.712-8.308 2.958-12.966.51-1.903 1.408-5.793 1.997-8.645 1.044-5.052 1.813-8.383 2.445-10.598.172-.6.334-1.277.362-1.503.027-.225.55-1.91 1.16-3.745.612-1.834 1.22-5.046 1.35-7.138l.236-3.804-3.873.068c-2.13.037-4.933.414-6.228.838-2.1.688-2.347 1.18-2.288 4.548.036 2.077-.297 5.435-.74 7.462-1.307 5.982-4.808 24.655-5.02 26.775-.107 1.077-.673 3.128-1.26 4.558-1.593 3.9-4.952 15.22-4.928 16.613.01.672-1.067 3.512-2.396 6.314-1.33 2.8-2.182 5.32-1.894 5.598.754.73 6.55-.365 10.037-1.893zm-48.476-2.77c-.76-2.235-1.944-5.114-2.628-6.397-.685-1.283-1.163-2.824-1.064-3.425.323-1.953-1.297-10.107-2.006-10.095-.38.007-.708-.86-.732-1.924-.024-1.066-.25-3.484-.5-5.374-.773-5.81-1.732-15.914-2.367-24.927-1.25-17.77-1.37-18.096-7.008-18.778-5.11-.62-7.53-.62-8.122-.01-.528.548 1.103 10.085 3.394 19.853.995 4.245 2.362 11.97 3.037 17.167.674 5.197 1.58 10.334 2.012 11.417.43 1.08.98 3.01 1.22 4.282.24 1.274.926 4.826 1.526 7.893a519.04 519.04 0 0 1 1.564 8.314c.752 4.344 3.36 5.926 9.934 6.02l3.123.047-1.385-4.066zm22.832-7.955c.933-3.344 1.69-6.532 1.68-7.083-.01-.55 1.238-5.21 2.773-10.355 3.29-11.026 4.22-16.13 4.854-26.61.568-9.388.54-11.903-.146-13.604-.554-1.37-6.783-2.242-16.62-2.327l-5.13-.045.203 7.413c.288 10.538 2.52 30.318 4.14 36.72.76 2.99 1.21 5.9 1.006 6.463-.446 1.225 1.032 10.397 2.162 13.416.44 1.176 1.085 2.91 1.432 3.85.633 1.71.633 1.71 1.29-.023.364-.954 1.423-4.47 2.357-7.815zm-37.704 5.59c-.024-1.326-.435-2.79-.914-3.252-.48-.462-1.113-2.907-1.41-5.433-.295-2.525-.734-4.897-.973-5.27-.55-.854-5.285-25.204-5.58-28.68-.443-5.266-1.708-12.952-2.472-15.024-.432-1.177-.985-3.88-1.228-6.006-.79-6.91-1.322-7.307-10.885-8.13l-4.567-.395.588 2.45c.324 1.348 1.125 4.378 1.782 6.734 1.652 5.933 3.008 12.888 4.765 24.454 2.457 16.167 5.85 29.784 7.997 32.103.41.443.765 1.6.79 2.57.07 2.874 1.28 3.94 5.757 5.087 6.07 1.553 6.397 1.49 6.35-1.21zm78.01-.73c8.186-3.633 7.852-3.265 8.388-9.257.27-3.026.83-5.72 1.243-5.984.415-.265.743-1.137.732-1.938-.01-.8.537-2.57 1.22-3.934.68-1.364 1.053-2.766.827-3.117-.226-.35 1.016-5.375 2.76-11.165 1.742-5.79 3.252-11.782 3.353-13.315.102-1.533.46-3.183.794-3.666.334-.485.817-4.625 1.073-9.202l.465-8.322-5.896 1.64c-6.77 1.88-6.153.77-8.7 15.687-1.874 10.967-1.9 11.107-2.513 12.96-.236.713-.827 3.67-1.315 6.57-.734 4.37-3.68 15.24-8.197 30.247-1.614 5.362-.848 5.733 5.766 2.796zm-96.715-9.958c-4.432-10.734-6.172-18.923-7.49-35.237-.183-2.283-1.19-8.217-2.236-13.187-1.048-4.97-1.882-9.605-1.855-10.3.144-3.724-.294-4.063-7.403-5.717-4.323-1.007-7.438-1.344-7.908-.857-.47.486-.377 2.074.24 4.04.56 1.78 1.32 5.364 1.69 7.962.37 2.598.98 5.106 1.36 5.573.376.467.935 2.588 1.24 4.713 1.26 8.767 4.47 25.82 6.22 33.04 1.027 4.243 1.986 8.454 2.13 9.358.29 1.828 11.954 7.944 15.164 7.952 1.85.004 1.832-.11-1.153-7.34zm114.774.783c2.212-1.155 5.073-2.372 6.355-2.704 2.61-.677 4.05-2.904 4.485-6.948.162-1.496 1.03-6.22 1.93-10.497 2.732-13 4.81-24.93 4.74-27.202-.038-1.183.373-5.48.91-9.546 1.408-10.626 1.21-10.853-6.097-6.99-4.152 2.193-4.592 2.72-5.306 6.36-.43 2.182-.97 6.67-1.206 9.976-.234 3.304-.765 7.176-1.18 8.604-.413 1.428-.87 4.27-1.015 6.32-.145 2.046-.694 4.167-1.22 4.712-.527.545-.936 2.212-.91 3.703.04 2.387-.68 5.658-2.185 9.896-.254.714-.592 2.046-.75 2.96-.16.91-.708 2.18-1.22 2.818-.51.64-.704 1.157-.43 1.152.273-.004-.04 1.6-.694 3.565-1.23 3.686-1.492 5.944-.69 5.93.252-.004 2.27-.953 4.483-2.107zm-134.196-4.03c-.007-.357-.42-1.98-.916-3.608-.498-1.627-1.173-5.095-1.502-7.706-.328-2.61-.73-4.957-.896-5.214-.297-.463-3.68-19.32-6.665-37.164-.855-5.11-1.764-9.81-2.02-10.447-.258-.635-2.768-2.282-5.58-3.66l-5.11-2.504-2.065 2.542c-2.082 2.564-2.108 3.303-.314 9.015.86 2.737 4.728 21.762 6.454 31.743 1.848 10.678 5.27 23.017 6.56 23.645 2.876 1.402 9.994 3.995 10.99 4.003.59.005 1.07-.284 1.064-.642zm156.578-6.792c.7-.58 2.495-1.562 3.99-2.183 4.307-1.79 5.088-3.426 6.047-12.653.49-4.743 1.25-9.325 1.683-10.18.433-.856.574-1.888.313-2.295-.26-.407.058-3.012.708-5.79 1.153-4.92 1.367-6.916 2.314-21.62l.457-7.087-2.5-.91c-2-.728-3.012-.622-5.058.53-5.26 2.957-6.35 4.3-6.42 7.896-.037 1.895-.376 5.194-.754 7.332-.723 4.09-1.94 15.01-2.405 21.566-.15 2.133-.816 6.407-1.477 9.496-.66 3.09-1.587 7.562-2.057 9.937-.47 2.376-1.088 5.195-1.373 6.265-.48 1.807-.313 1.902 2.37 1.347 1.59-.33 3.462-1.073 4.162-1.652zm-176.957-3.608c-.266-1.534-1.327-7.81-2.356-13.95-1.977-11.78-3.147-17.57-4.67-23.116-.51-1.86-.746-3.688-.523-4.065.374-.63-1.162-10.07-2.03-12.482-.42-1.168-3.29-.388-9.748 2.647l-3.735 1.755.66 5.315c1.845 14.84 5.565 31.254 8.295 36.592 1.557 3.046 3.104 4.454 7.605 6.923 3.108 1.705 5.95 3.116 6.317 3.135.367.02.45-1.22.183-2.755zm200.882-9.25l5.587-2.923 1.854-12.214c1.02-6.717 1.824-15.115 1.785-18.66l-.07-6.448-4.76-1.406c-2.618-.774-5.46-1.807-6.317-2.296-2.554-1.46-3.193-.168-3.144 6.35.068 8.962-.876 17.71-3.183 29.493-1.117 5.702-2.03 11.055-2.032 11.896-.002 1.705-.772 1.99 10.28-3.792zm-221.534-5.44c-2.384-7.95-4.402-18.226-5.14-26.186-.71-7.635-.72-7.642-8.76-5.152-5.38 1.666-5.26.24-1.248 15.013 4.403 16.212 4.52 16.505 7.204 17.938 1.39.742 3.868 2.158 5.51 3.147 1.64.99 3.25 1.626 3.577 1.416.327-.21-.188-2.99-1.144-6.177zm235.98-3.06c.577-.72 1.373-1.314 1.77-1.32 1.346-.025 8.42-4.847 8.854-6.037.847-2.328 1.966-17.692 1.433-19.67-.356-1.32-1.17-2.004-2.364-1.984-1 .017-3.338-.395-5.193-.916-4.067-1.14-4.917-.48-5.36 4.17-.18 1.866-.652 6.498-1.05 10.293-1.853 17.59-1.832 16.82-.443 16.797.717-.013 1.776-.613 2.353-1.333zm-254.074-9.656c-1.06-3.808-1.943-7.804-1.964-8.882-.022-1.078-.482-3.453-1.023-5.278l-.985-3.32-3.922.608c-4.986.773-6.345 1.93-5.67 4.824 2.888 12.358 3.525 13.835 6.957 16.126 4.947 3.302 7.01 4.224 7.814 3.493.394-.357-.15-3.764-1.208-7.57zm277.236-6.56c2.853-2.21 4.375-4.148 4.998-6.368 1.477-5.26.662-6.018-6.04-5.607l-5.818.355-.458 5.605c-.252 3.082-.535 6.187-.628 6.898-.572 4.383 1.43 4.16 7.946-.885zm-292.39 1.974c-.316-1.178-.85-3.912-1.186-6.075-.7-4.526-2.587-5.714-7.63-4.806-2.983.538-3.445 1.112-3.034 3.77.255 1.65 3.554 5.104 4.85 5.082.546-.01 1.92.934 3.05 2.098 2.745 2.82 4.72 2.785 3.95-.07zm305.404-10.562c3.864-1.917 4.507-3.887 1.25-3.83-3.793.066-5.194.935-5.154 3.196.042 2.435.216 2.463 3.904.634zm-115.595-3.39c.632-.544 1.368-.776 1.637-.517.268.258 2.164-.04 4.214-.665 2.05-.624 4.06-1.058 4.465-.965.408.093 1.178-.19 1.712-.627.535-.437 2.517-1.09 4.404-1.45 3.59-.685 6.19-1.49 14.313-4.43 2.688-.974 5.482-1.554 6.21-1.29.75.274 1.224.055 1.097-.51-.122-.544.55-1.163 1.493-1.375.943-.21 2.3-.92 3.017-1.577 3.16-2.893 11.93-5.256 11.966-3.223.008.44.89 1.052 1.96 1.357 1.072.305 3.197 1.456 4.724 2.558 1.526 1.102 3.318 1.995 3.98 1.983.663-.01 1.49.254 1.84.59.728.705 12.218 3.536 14.794 3.646.948.04 2.007.48 2.354.977.417.598 8.13.772 22.825.516l22.193-.388 3.208-2.543c1.765-1.4 3.02-2.726 2.79-2.95-.23-.222-10.063-.286-21.85-.143-14.76.178-21.81-.043-22.654-.713-.674-.534-3.554-1.24-6.4-1.566-5.765-.66-5.542-.62-7.343-1.32-.715-.28-3.05-.91-5.19-1.404-5.402-1.246-11.185-3.99-12.422-5.896-.57-.88-1.62-1.59-2.336-1.582-.714.01-2.41-.537-3.765-1.214-2.722-1.36-3.436-1.122-9.555 3.176-3.31 2.327-11.468 6.827-15.776 8.704-7.525 3.28-25.29 7.51-31.725 7.554-2.13.015-8.905.358-15.054.762-15.467 1.018-51.72-.75-64.196-3.128-3.563-.68-7.493-1.218-8.733-1.197-1.24.022-4.615-.67-7.5-1.537-2.887-.867-6.342-1.715-7.68-1.885-1.337-.17-3.882-.926-5.656-1.678-1.774-.753-3.62-1.36-4.106-1.353-1.458.026-14.283-4.28-14.758-4.956-.243-.345-2.128-1.05-4.188-1.564-3.157-.79-4.075-.714-5.834.483-2.745 1.868-16.378 7.38-23.41 9.463-6.636 1.967-20.282 4.09-21.528 3.35-.486-.29-1.43-.057-2.095.517-.667.573-3.644 1.084-6.615 1.136-2.972.052-6.074.47-6.895.926a3.306 3.306 0 0 1-3.012.07c-.836-.417-4.933-.872-9.105-1.01l-7.585-.25 2.47 2.384c3.463 3.345 9.877 4.69 19.983 4.188 9.204-.456 24.69-3.338 32.435-6.036 12.333-4.295 19.842-7.238 23.328-9.143 3.596-1.966 3.916-2 7.305-.772 1.95.707 7.832 2.855 13.075 4.773 5.242 1.92 10.5 3.53 11.685 3.576 1.185.048 2.655.39 3.266.763 1.252.76 5.793 1.506 8.394 1.376.946-.047 2.89.27 4.317.702 1.43.434 3.76.84 5.183.906 1.42.064 2.977.392 3.456.73.48.335 3.004.767 5.612.96 2.608.19 4.743.41 4.744.49 0 .077 2.508.296 5.57.487 3.062.19 8.252.81 11.533 1.376 3.28.566 11.826.994 18.992.95 7.165-.043 14.55.155 16.41.44 5.4.828 22.723.1 24.013-1.01zm-8.34-10.283c3.14-.497 8.28-1.176 11.42-1.51 9.5-1.01 27.838-7.49 37.773-13.35 8.497-5.01 9.336-5.25 12.33-3.5 1.414.827 3.518 1.78 4.676 2.118 1.157.34 3.14 1.32 4.41 2.18 2.345 1.59 21.68 6.352 31.866 7.848 5.626.826 15.883.93 36.414.37l11.004-.302 3.38-3.162c1.86-1.74 3.216-3.32 3.016-3.514-.2-.194-2.625.252-5.387.99-2.762.738-7.535 1.657-10.607 2.042-8.44 1.06-34.603 1.09-35.91.045-.614-.492-1.89-.678-2.834-.414-.945.265-1.94.135-2.213-.29-.273-.424-1.384-.756-2.47-.737-3.103.054-19.762-4.037-21.67-5.322-.945-.636-2.553-1.143-3.573-1.125-1.02.017-2.286-.47-2.813-1.083-.527-.613-2.92-1.992-5.315-3.064-4.47-1.998-5.35-1.904-9.49 1.013-.702.494-3.005 1.71-5.12 2.705-2.112.994-4.417 2.165-5.12 2.603-6.08 3.788-26.295 10.37-35.1 11.426-18.39 2.207-35.166 3.36-39.86 2.736-2.443-.324-10.643-.666-18.22-.76-7.58-.095-14.364-.373-15.08-.62-.713-.244-4.987-.955-9.497-1.58-9.238-1.275-14.932-2.6-23.843-5.547-8.027-2.655-20.884-8.45-24.387-10.994-1.527-1.108-3.19-2.007-3.694-2-.504.01-.923-.328-.93-.75-.03-1.702-2.952-1.746-4.673-.072-2.113 2.056-12.46 6.37-16.683 6.957-1.627.227-4.132.96-5.568 1.627-3.68 1.71-22.636 6.392-30.053 7.42-5.303.735-18.61 1.833-21.494 1.773-1.422-.03-4.722-.407-7.334-.838-2.612-.432-6.23-.893-8.043-1.026-1.812-.132-3.74-.67-4.283-1.195-1.364-1.317-4.952-1.137-4.927.248.038 2.193 8.377 5.91 18.222 8.118 10.072 2.26 37.593-1.036 55.416-6.64 3.77-1.183 8.694-2.657 10.945-3.274 2.252-.617 4.366-1.568 4.7-2.115.33-.546 2.176-1.718 4.097-2.604 3.225-1.488 3.743-1.513 6.73-.327 2.096.834 3.018 1.65 2.618 2.322-.415.7-.165.855.767.478 1.388-.56 12.513 1.816 23.17 4.95 3.14.923 6.837 1.83 8.214 2.014 1.378.185 4.06.75 5.964 1.255 5.218 1.387 16.48 3.043 23.738 3.49 3.555.22 7.245.735 8.2 1.146 2.268.978 6.296 1.096 30.883.906 11.293-.087 23.102-.566 26.24-1.063zm-24.292-7.67c1.28-.467 1.812-1.21 1.53-2.144-.467-1.56-1.627-9.104-2.134-13.885-.47-4.413-.772-5.38-2.385-7.6-1.416-1.947-1.592-1.97-6.02-.79-2.51.668-4.997 1.14-5.527 1.047-1.65-.288-3.188 2.466-3.294 5.896-.056 1.805-.368 3.73-.693 4.277-.324.547-.757 3.874-.96 7.393l-.373 6.398 7.227.126c9.516.166 10.324.12 12.63-.72zm-23.9-3.998c.706-6.698 2.185-13.667 3.103-14.618 1.58-1.636.638-8.263-1.17-8.232-1.858.033-5.97-5.555-6.016-8.172-.026-1.482-1.906-1.52-3.31-.067-.577.598-2.478 1.517-4.225 2.04-2.97.892-3.175 1.176-3.154 4.368.033 4.836 1.62 23.694 2.176 25.848.545 2.108 4.723 3.64 9.134 3.346 2.942-.196 3.02-.298 3.464-4.513zm46.69 2.45c.904-.55-.498-18.464-1.703-21.746-.26-.707-1-2.934-1.644-4.95l-1.173-3.664-4.793.615c-5.39.692-8.048-.053-11.495-3.224-2.986-2.746-3.38-2.72-3.13.203.112 1.3-.076 3.267-.417 4.373-.417 1.35-.186 2.477.704 3.43 1.41 1.516 4.578 12.308 5.7 19.427 1.177 7.463 1.273 7.53 9.823 6.684 4.098-.405 7.756-.92 8.127-1.148zm-63.207.557c.516-.644.708-1.394.427-1.666-.28-.27-.607-6.598-.724-14.06-.212-13.47-.82-16.677-3.155-16.636-.67.012-2.278-.93-3.576-2.09-2.73-2.442-3.694-2.608-4.37-.753-.266.732-1.685 1.974-3.153 2.758-1.467.785-2.923 1.837-3.233 2.338-.876 1.413.167 17.888 1.472 23.278 1.09 4.503 1.373 4.87 4.27 5.564 1.707.408 4.466 1.092 6.13 1.52 4.263 1.096 4.85 1.07 5.91-.252zm79.916-3.006c1.156-.988 1.234-16.184.12-23.375-.53-3.428-.893-3.978-2.6-3.948-1.092.02-2.23-.35-2.532-.817-.3-.468-1.257-.84-2.126-.824-.87.016-2.876-1.14-4.46-2.57l-2.882-2.598-1.506 2.03c-1.99 2.684-1.92 3.44.864 9.145 1.99 4.077 2.46 6.398 2.943 14.488.475 7.978.815 9.683 1.98 9.927 2.308.482 9.06-.48 10.2-1.456zm103.764-7.09c.27-2.92.466-7.826.44-10.904-.05-5.38-.13-5.584-2.07-5.32-5.503.753-7.85 1.156-8.028 1.38-.108.135-.327 4.422-.487 9.527-.285 9.155-.26 9.294 1.818 10.338 1.16.582 3.398.884 4.974.672 2.826-.38 2.873-.458 3.354-5.694zm13.9 4.144c.182-.595.462-3.603.62-6.684.16-3.08.703-8.44 1.21-11.907.505-3.47.72-6.8.477-7.4-.243-.602-1.84-1.122-3.546-1.156-1.708-.034-3.857-.45-4.777-.92-.92-.472-2.042-.852-2.493-.844-1.263.022-1.798 4.807-1.682 15.035.058 5.127-.21 10.197-.595 11.266-.447 1.24-.343 2.292.286 2.9 1.375 1.327 10.073 1.088 10.5-.29zm-216.892 3.146c.282-.474.026-3.86-.57-7.523-.595-3.663-1.2-9.37-1.344-12.683l-.262-6.022-3.89-.898c-2.14-.494-5.342-1.727-7.118-2.74l-3.228-1.84-.52 2.24c-.287 1.233-.263 3.102.052 4.154.316 1.053.848 5.396 1.183 9.652.613 7.794 1.136 11.683 1.608 11.962.14.083 1.816.737 3.722 1.454a401.9 401.9 0 0 1 5.634 2.165c2.82 1.12 4.102 1.143 4.734.08zm188.092-5.138c.298-1.196.754-5.876 1.014-10.398l.472-8.223-2.59-1.777c-1.425-.977-2.852-2.745-3.17-3.93-.686-2.54-1.59-2.604-5.985-.43l-3.287 1.626.192 10.97c.105 6.032.526 11.28.935 11.663.85.79 9.838 3.103 11.066 2.845.446-.094 1.055-1.15 1.353-2.347zm42.665.64c1.603-.354 1.858-1.205 2.257-7.525.816-12.94.91-13.997 1.488-16.856.515-2.547.203-3.194-3.067-6.35l-3.64-3.517-2.456 2.72c-1.58 1.753-2.486 3.744-2.54 5.59-.048 1.576-.53 7.714-1.073 13.64-1.39 15.175-1.666 14.01 3.146 13.3 2.243-.33 4.892-.78 5.885-1zm-350.338 4.52c.08-.086-.998-8.64-2.176-17.275-.456-3.342-.612-9.433-.33-12.896.112-1.375-.846-2.007-4.87-3.214-2.753-.826-5.99-2.45-7.19-3.61-1.2-1.16-2.652-1.94-3.227-1.737-1.457.516-1.372 10.348.134 15.75.664 2.383 1.73 7.79 2.365 12.012.636 4.224 1.237 8.166 1.335 8.76.295 1.802 1.67 2.623 4.84 2.892 2.42.205 8.736-.267 9.117-.682zm231.5-4.242c6.165-2.152 7.11-3.415 7.185-9.583.067-5.526-.468-7.215-2.274-7.184-2.235.038-5.103-4.09-5.625-8.095-.397-3.04-.085-4.896 1.315-7.825 1.01-2.112 1.97-3.842 2.138-3.845.168-.003.135 2.907-.07 6.468-.325 5.57-.146 6.72 1.285 8.255 2.38 2.55 5.032 3.288 9.393 2.613 3.475-.538 3.962-.925 5.51-4.373.935-2.08 1.682-4.756 1.66-5.945-.026-1.565.424-2.17 1.634-2.19.92-.016 1.904-.42 2.188-.9 1-1.68 2.137-.872 2.18 1.55.032 1.89.7 2.786 2.944 3.943 4.025 2.078 8.087 1.1 11.766-2.83 2.768-2.96 2.895-3.386 2.71-9.08-.107-3.286.084-5.98.425-5.986.34-.007 1.618.746 2.838 1.672 1.22.926 2.438 1.68 2.706 1.675.784-.014 3.135-5.212 2.398-5.302-.368-.046-7.256-.11-15.307-.143-8.05-.033-15.8-.082-17.22-.11-1.42-.025-6.07.022-10.33.107-22.46.448-61.03.137-62.43-.504-.238-.11-.818-.08-1.29.066-.47.146-9.302.315-19.625.376-20.736.124-20.26.004-22.936 5.797-2.122 4.593-2.014 9.548.255 11.74 2.438 2.353 7.838 2.195 9.978-.294 1.852-2.152 6.266-4.294 8.947-4.34 1.43-.026 1.7.307 1.215 1.484-1.694 4.1-.25 10.552 2.353 10.506.842-.014 2.024.546 2.626 1.246 1.57 1.827 8.567 1.5 10.888-.508 1.855-1.605 3.633-6.666 2.98-8.48-.572-1.585 1.138-2.14 2.328-.756 1.322 1.538 2.73 1.63 2.513.162-.564-3.824 1.374-4.47 2.69-.897 1.125 3.055 4.807 4.567 10.28 4.22 3.142-.197 4.795-.778 5.93-2.085 1.87-2.148 3.165-7.457 2.917-11.95-.19-3.424 1.052-4.25 2.994-1.99 1.373 1.596 2.61 1.62 2.584.047-.012-.66.608-1.454 1.376-1.764 1.207-.488 1.312-.122.775 2.692-1.688 8.824.167 12.997 6.437 14.484 5.475 1.3 10.245-.585 11.002-4.344.706-3.51 3.24-3.055 3.606.647.21 2.112-.29 3.21-2.23 4.9-1.372 1.197-2.89 2.317-3.37 2.49-.573.205-.607 4.658-.1 12.998.87 14.31.47 13.743 7.857 11.163zm-218.323 3.382l2.756-1.016-.704-6.317c-.387-3.475-.73-8.36-.764-10.858-.067-4.935-1.34-8.392-3.08-8.362-1.365.024-5.586-5.195-5.617-6.942-.038-2.254-1.073-2.407-3.61-.533-2.753 2.034-2.754 1.774.036 16.676.707 3.776 1.348 9.127 1.425 11.892.078 2.765.364 5.375.638 5.8.687 1.07 5.6.883 8.92-.34zm350.92-6.684c1.44-1.2 2.008-3.148 2.712-9.284.49-4.27 1.4-10.25 2.025-13.29.625-3.042.976-5.684.78-5.873-.196-.19-1.645.473-3.22 1.47-1.575 1-3.88 1.835-5.125 1.86-2.778.052-4.52 2.053-3.854 4.428.274.977.19 2.82-.187 4.098-.376 1.276-.822 5.907-.99 10.29l-.306 7.97 3.172-.075c1.744-.04 3.99-.758 4.993-1.594zm-382.393 6.658c.225-.38-.386-4.92-1.357-10.093-.972-5.173-2.016-12.4-2.32-16.063-.58-6.99-1.134-8.742-2.49-7.872-1.723 1.108-6.765 1.126-8.265.03-.862-.632-2.242-1.15-3.066-1.15-1.312 0-1.434.67-.978 5.37.287 2.956.564 6.147.616 7.094.052.945.783 5.98 1.624 11.19l1.53 9.47 3.968 1.285c4.38 1.418 10.1 1.81 10.737.737zm46.94-2.835c2.562-.943 2.726-1.232 2.1-3.695-.374-1.47-.793-4.414-.932-6.543-.14-2.13-.58-5.925-.98-8.436-.605-3.798-.964-4.457-2.134-3.92-.772.354-3.128.906-5.233 1.225l-3.827.58.272 4.73c.15 2.602.555 7.535.9 10.962l.63 6.23 3.214-.055c1.767-.03 4.463-.517 5.99-1.08zm261.26-4.66c.193-.597.494-3.217.67-5.825.175-2.607.55-6.933.835-9.612.464-4.37.333-4.965-1.273-5.79-.985-.504-2.59-.903-3.568-.886-.978.017-1.8-.26-1.824-.614-.026-.355-1.202-1.95-2.614-3.543l-2.567-2.9-1.5 3.832c-1.154 2.95-1.452 6.074-1.3 13.613l.2 9.784 3.9 1.504c4.585 1.77 8.547 1.96 9.04.436zm-189.408-4.013c-1.11-11.424-1.167-11.548-4.875-10.734-1.715.376-4.15.64-5.41.586-1.262-.054-2.47.384-2.684.973-.592 1.63 1.36 11.168 2.53 12.368.81.828 9.26 4.182 10.835 4.3.184.015.006-3.358-.396-7.494zm273.396-.037c1.65-1.568 3.735-3.29 4.633-3.824 1.993-1.19 3.856-6.746 3.447-10.284-.277-2.393-.532-2.576-3.17-2.272-1.837.212-3.47-.196-4.544-1.135-.922-.806-1.843-1.294-2.046-1.084-.202.208-.577 3.086-.833 6.393-.256 3.308-.665 6.356-.91 6.775-.71 1.216-.88 8.302-.197 8.29.34-.006 1.97-1.293 3.62-2.86zm-124.923 1.418c.702-.424 2.142-1.163 3.2-1.642 1.615-.732 1.91-1.538 1.848-5.053-.086-4.986-.644-5.724-3.076-4.068-1.008.685-3.397 1.745-5.31 2.354-3.386 1.08-3.488 1.226-3.835 5.53-.197 2.43-.2 4.672-.01 4.982.362.585 4.953-.76 7.183-2.103zm-206.994 4.003c4.548-.933 5.668-2.664 4.926-7.614-.36-2.397-.762-6.1-.894-8.227-.503-8.106-.316-7.7-3.472-7.527-1.74.096-3.96-.565-5.543-1.65-4.205-2.886-5.398-2.405-5.32 2.143.075 4.235 1.814 19.338 2.605 22.614.413 1.71.846 1.926 2.806 1.405 1.274-.34 3.475-.853 4.89-1.144zm230.948-12.704l-.132-7.537-5.382-.055c-2.96-.03-6.414-.428-7.675-.882-1.263-.455-2.524-.59-2.805-.3-.77.798-.378 14.015.414 14 .378-.005 1.05-.377 1.492-.825.843-.854 8.564.667 11.384 2.244.848.473 1.832.867 2.187.875.356.008.587-3.376.515-7.52zm-311.918 7.08c-.317-2.194-.843-7.437-1.168-11.65-.326-4.216-.793-7.977-1.04-8.358-.244-.382-1.86.097-3.59 1.063-1.73.966-3.783 1.768-4.56 1.782-2.464.043-3.402 2.18-2.716 6.193.35 2.06 1.033 4.512 1.515 5.45 1.362 2.65 10.355 10.648 11.296 10.044.478-.31.592-2.254.264-4.527zm96.386 1.024c1.415-.296 3.616-1.085 4.89-1.754 2.29-1.202 2.312-1.3 1.966-9.045-.346-7.726-.385-7.847-2.927-9.097-1.417-.697-3.282-1.978-4.144-2.847-2.206-2.226-4.517-1.922-6.638.874-1.623 2.14-1.74 3.004-1.082 7.983.406 3.07.826 7.337.934 9.478.236 4.673 1.122 6.293 3.02 5.52.774-.316 2.566-.816 3.982-1.112zm27.286-2.108c-.14-.893-.534-3.656-.874-6.138-.538-3.937-.99-4.736-3.54-6.25-1.607-.956-2.993-2.383-3.08-3.17l-.267-2.476c-.29-2.693-2.034-2.846-6.39-.562-3.6 1.888-4.324 2.643-4.014 4.194.208 1.04.688 4.065 1.066 6.723.562 3.945.952 4.76 2.127 4.43 1.76-.494 10.995 2.685 12.457 4.288 1.42 1.558 2.833.975 2.515-1.038zm305.806-12.778c2.54-2.784 3.852-6.802 2.95-9.038-.564-1.394-2.86-1.45-2.834-.067.01.557-1.112 2.03-2.492 3.272-3.196 2.877-4.457 8.75-1.87 8.704.908-.016 2.818-1.308 4.246-2.872zm-71.05-1.374c2.756-2.352 4.046-5.673 3.967-10.21-.033-1.864.23-3.364.587-3.336 1.805.144 5.854 3.207 5.78 4.374-.044.735 1.193 1.994 2.752 2.8 2.64 1.36 3.035 1.363 5.752.014 1.606-.796 3.41-2.402 4.007-3.57 1.343-2.616 1.414-10.588.106-11.85-1.224-1.18-6.957-1.457-32.566-1.567l-20.67-.088-2.435 2.63c-2.115 2.286-2.436 3.333-2.44 7.95-.002 4.668.245 5.476 2.024 6.616 1.114.715 3.012 1.387 4.218 1.494 3.197.285 8.83-2.308 8.8-4.05-.04-2.252 1.725-3.553 4.89-3.61l2.886-.05-.084 5.634c-.095 6.378.468 7.264 5.14 8.084 4.82.846 4.81.848 7.285-1.264zm-375.522 1.224c-.053-3.045-.478-4.112-2.026-5.09-1.078-.68-2.722-2.597-3.654-4.26-.932-1.664-2.088-3.018-2.568-3.01-1.405.025-3.973 2.802-3.947 4.27.024 1.35 10.328 11.978 11.593 11.955.368-.006.64-1.745.603-3.865zm149.764-.897c2.58-1.39 4.297-5.328 4.348-9.965.032-2.896 1.758-5.085 2.77-3.51.357.556 1.618.7 3.075.354 2.34-.556 2.503-.407 3.074 2.804.33 1.865 1.6 4.43 2.822 5.702 1.912 1.992 2.67 2.23 5.504 1.726 5.022-.893 7.26-2.272 8.558-5.27 1.24-2.864 1.292-8.514.124-13.296l-.688-2.82-11.325.414c-6.23.228-12.49.2-13.916-.064-1.425-.263-2.97-.238-3.435.056-.464.294-7.995.676-16.735.848l-15.89.314-1.94 2.98c-1.475 2.267-1.828 3.79-1.473 6.35.572 4.136 1.67 5.492 4.99 6.16 2.01.405 3.227-.006 5.618-1.896 1.678-1.327 3.226-3.132 3.44-4.01.213-.88 1.14-1.61 2.06-1.627.92-.016 1.455.336 1.19.78-1.012 1.705 1.313 1.747 2.716.05 3.14-3.8 5-.85 2.566 4.066-1.75 3.534-.668 6.847 2.988 9.154 3.7 2.333 6.193 2.516 9.558.7zm290.89-7.03c1.854-1.76 2.577-3.296 2.675-5.685.074-1.8.67-3.734 1.322-4.296 1.294-1.113 1.832-.61 4.724 4.4.838 1.45 2.218 2.838 3.068 3.086.85.248 2.225.8 3.055 1.223 1.967 1.007 6.086.927 5.423-.104-.282-.44-.003-1.124.62-1.52 1.96-1.24 3.97-4.936 3.918-7.2-.104-4.387-.56-4.514-16.39-4.57-8.14-.027-15.177-.276-15.64-.55-1.537-.914-21.78-.78-22.863.15-.568.49-1.627 2.787-2.353 5.106-1.555 4.973-.84 6.918 3.258 8.874 2.386 1.14 2.975 1.137 5.118-.02 2.99-1.612 5.052-4.555 5.006-7.148-.052-2.93 2.63-2.494 4.964.81 1.092 1.546 2.007 3.987 2.032 5.424.085 4.892 7.693 6.166 12.063 2.02zm-360.182 2.182c2.38-2.54 2.877-3.73 2.823-6.793-.078-4.558.415-5.145 2.972-3.532 1.332.84 2.177.953 2.54.34.3-.503 1.104-.926 1.786-.938.888-.015 1.26 1.03 1.305 3.68.06 3.408.29 3.776 2.94 4.683 3.677 1.257 6.164 1.2 8.558-.192 1.05-.61 2.015-1.156 2.147-1.212.447-.19 1.084-4.2 1.288-8.103.112-2.133.245-4.173.297-4.533.05-.36.89-.18 1.86.398 1.46.87 1.905.827 2.566-.252 1.674-2.737.885-3.46-3.732-3.413-12.78.13-37.582-.107-46.652-.443-10.473-.388-12.448 0-16.155 3.18-2.064 1.77-3.406 7.457-2.25 9.53 1.016 1.82 5.712 3.78 8.225 3.435 2.486-.342 8.1-5.34 7.545-6.715-.635-1.57 1.756-2.466 3.734-1.4 1.212.654 2.008.43 3.457-.978 1.76-1.707 1.924-1.728 2.497-.31.337.836.187 2.764-.333 4.286-1.992 5.824-.784 10.525 2.967 11.54 4.93 1.337 6.617.94 9.618-2.26zm-70.755-2.84c1.635-1.48 2.195-2.88 2.242-5.595.072-4.16 1.72-5.412 4.234-3.216 1.54 1.345 1.7 1.336 2.754-.16 1.482-2.102 3.41-.938 2.8 1.69-.648 2.78 3.185 5.72 6.36 4.877 4.892-1.296 6.03-2.965 5.96-8.73-.074-5.903-.61-6.593-5.258-6.78-9.175-.37-44.233.243-48.63.85-6.04.833-7.282 2.093-7.19 7.304.053 3.05.467 3.944 2.394 5.158 5.218 3.29 10.96 1.215 11.968-4.327.483-2.654 2.5-3.39 4.36-1.592.775.747 1.22.43 1.85-1.324.83-2.305 2.876-3.098 3.895-1.51.297.46.167 2.288-.29 4.06-1.25 4.852.42 9.292 3.886 10.343 4.315 1.308 6.334 1.064 8.663-1.047zm395.994-14.74c-.325-.807-1.174-1.1-2.284-.788-2.046.572-2.076.686-.777 3.015.878 1.574 1.106 1.614 2.277.4.716-.74 1.07-1.924.784-2.63zm-216.654-1.36c-.412-.396-1.663-.576-2.78-.398-1.474.233-1.953.793-1.745 2.04.687 4.12 1.174 4.37 3.258 1.682 1.116-1.44 1.68-2.923 1.267-3.324zm271.896-5.512c-.062-3.532 1.984-2.697 2.6 1.06.304 1.848.96 2.93 1.774 2.915 1.04-.018 1.267-1.362 1.17-6.908-.22-12.613-3.192-17.5-9.868-16.227-6.71 1.28-9.875 6.26-8.628 13.57.44 2.577.732 5.27.65 5.982-.085.71.237 1.48.715 1.71.487.232.96-1.1 1.08-3.033.243-3.922 1.436-5.796 2.31-3.628 1.018 2.516 2.01 1.503 2.216-2.263.332-6.065 1.896-4.163 2.267 2.76.19 3.547.546 6.974.79 7.615.76 2.004 2.972-.684 2.922-3.553zm-29.824.047a690.6 690.6 0 0 0 .86-7.33c.33-2.943.843-4.103 1.824-4.12 1.177-.02 1.31.92.96 6.793-.315 5.292-.132 7.036.82 7.798 1 .803 1.386.335 2.114-2.568.99-3.952 2.524-3.955 2.593-.005.05 2.944 2.167 4.186 3.962 2.327 1.23-1.273 1.16-1.927-1.603-15.074-.948-4.512-1.45-5.407-3.414-6.087-3.785-1.31-8.795-1.052-11.186.575-4.5 3.063-5.158 4.65-5.057 12.19.052 3.88.474 7.278.94 7.554.903.537 1.98-2.83 1.502-4.694-.158-.618.193-1.31.78-1.537.74-.285 1.088.62 1.128 2.93.057 3.252 1.437 5.724 2.732 4.892.352-.226.822-1.866 1.044-3.643zm-11.503.88c1.466-2.856-.857-13.59-3.594-16.61-.775-.855-2.683-2.06-4.24-2.68-2.41-.957-3.45-.93-6.975.184-5.188 1.64-6.137 3.57-5.347 10.87.49 4.537.713 5.087 1.338 3.32.728-2.06.782-2.072 2.01-.467.693.907 1.28 2.764 1.303 4.126.036 2.077.355 2.428 1.975 2.17 1.757-.282 1.945-.84 2.085-6.182.107-4.11.466-5.772 1.195-5.538.627.202 1.098 2.183 1.185 4.988.19 6.113.326 6.803 1.347 6.785.473-.01.84-1.155.817-2.548-.025-1.392.338-2.777.807-3.078.47-.3.867.276.884 1.282.078 4.483 3.503 6.703 5.21 3.376zm-38.157.422c.355-.597.51-2.194.344-3.547-.19-1.542.037-2.258.606-1.92.5.296.744 1.014.543 1.594-.46 1.33 1.085 3.77 1.87 2.955.323-.332.558-2.18.525-4.106-.085-4.845 1.733-3.978 2.367 1.128.592 4.77 2.066 5.305 2.6.943.494-4.038 1.97-3.96 2.585.134.33 2.202.976 3.325 2.014 3.504 1.372.236 1.458-.247.85-4.74-1.232-9.112-2.547-12.612-5.2-13.84-3.346-1.55-11.396-.4-12.518 1.788-1.022 1.99-.612 14.728.52 16.158 1.067 1.35 2.072 1.333 2.894-.05zm-20.292-5.973c.204-7.23 1.855-6.83 1.983.482.087 5.02.274 5.59 1.82 5.565 1.413-.025 1.756-.694 1.923-3.748.22-4.04 2.167-4.755 2.386-.876.283 5.025 3.363 6.967 4.346 2.74.53-2.28-1.272-12.68-2.637-15.218-2.09-3.886-10.306-5.11-15.827-2.358-3.636 1.812-3.982 2.994-3.493 11.936.313 5.737.624 6.912 1.886 7.13 1.24.214 1.5-.37 1.45-3.245-.06-3.532 1.01-4.688 2.023-2.18.3.743.562 2.223.58 3.29.042 2.36.708 3.1 2.243 2.48.772-.313 1.214-2.324 1.318-6zm-52.47 2.28c-.094-2.064.21-2.614 1.333-2.418.803.14 1.513 1.11 1.585 2.16.17 2.485 2.156 4.816 3.19 3.745.43-.446.81-3.053.84-5.792.036-3.224.45-5.12 1.17-5.373.735-.26 1.067.3.972 1.634-.36 5.05.28 9.472 1.323 9.11.588-.207 1.18-1.218 1.312-2.248.26-2.024 1.83-2.65 1.863-.745.01.637.807 1.845 1.77 2.686 1.71 1.494 1.745 1.473 1.636-.973-.298-6.652-2.433-14.313-4.424-15.868-3.865-3.02-12.66-.893-14.582 3.526-.982 2.258-1.09 11.31-.162 13.606.866 2.145 2.318.107 2.173-3.05zm23.068.523c-.054-3.068 1.08-5.212 2.19-4.14.238.23.483 2.024.545 3.988.18 5.78 2.01 3.577 2.378-2.866.423-7.397 1.99-7.497 2.254-.144.11 3.094.432 5.85.714 6.122 1.14 1.1 3.15-.71 3.113-2.8-.022-1.266.337-2.005.83-1.712.48.285.888 1.463.908 2.618.027 1.548.504 2.093 1.81 2.07 1.62-.028 1.72-.388 1.16-4.11-1.596-10.616-2.484-12.944-5.45-14.29-3.538-1.602-4.167-1.583-7.53.223-4.922 2.646-5.694 4.272-5.564 11.726.096 5.43.372 6.75 1.41 6.73.93-.015 1.274-.972 1.232-3.413zm-75.38 2.478c.274-.757.32-1.655.103-1.994-.218-.34-.55-4.03-.738-8.2-.335-7.432-.395-7.614-3.006-9.198-2.055-1.246-3.63-1.493-6.893-1.082-2.326.292-4.62.937-5.098 1.43-1.384 1.433-3.203 1.08-2.956-.57.152-1.01-.418-1.59-1.714-1.752-2.184-.27-2.53.896-.7 2.36 1.967 1.576 3.283 8.055 2.79 13.735-.307 3.524-.15 5.24.475 5.228.512-.01 1.026-1.47 1.142-3.25.223-3.412 1.707-4.454 2.2-1.544 1.232 7.288 2.58 6.897 3.005-.872.154-2.82.674-5.27 1.156-5.44 1.172-.412 2.285 5.28 1.65 8.436-.317 1.57-.158 2.513.42 2.503.512-.008.916-.79.9-1.737-.017-.956.544-1.73 1.26-1.744.71-.013 1.304.674 1.32 1.526.053 3.113 3.72 4.81 4.683 2.165zm13.098-.09c.248-.683.477-3.496.51-6.252.078-6.736 1.65-6.072 2.314.977.294 3.123.91 5.506 1.386 5.37.895-.254 1.016-.683 1.123-3.958.09-2.827 1.795-1.458 1.847 1.484.042 2.417 2.128 4.138 3.077 2.54.648-1.09-1.3-13.378-2.447-15.433-2.354-4.22-6.617-5.115-12.71-2.665l-3.664 1.473.15 8.49c.087 5.086.492 8.484 1.008 8.475.473-.008.844-.96.824-2.116-.037-2.1 1.313-3.717 2.305-2.76.29.28.638 1.378.775 2.44l.33 2.577c.15 1.153 2.707.635 3.172-.64zm17.5-3c-.074-4.28 2.2-3.957 3.022.43.974 5.212 1.943 4.098 2.308-2.654.508-9.417 2.33-9.643 3.084-.383.296 3.654.79 5.472 1.42 5.244.533-.192.95-1.475.925-2.852-.066-3.702 2.48-3.405 2.73.318.193 2.854.847 4.236 1.625 3.43.224-.232.104-3.63-.267-7.55-.558-5.892-1.06-7.57-2.893-9.673-1.97-2.26-2.625-2.492-5.85-2.07-1.997.26-4.813 1.346-6.26 2.414-2.573 1.9-2.624 2.086-2.502 9.055.068 3.91.376 7.356.684 7.653 1.117 1.08 2.024-.465 1.974-3.362zm-125.933-6.468c-1.278-8.16-1.415-8.485-4.367-10.397-3.854-2.496-7.302-1.92-10.54 1.764-1.787 2.03-2.293 3.425-2.122 5.85.277 3.943 1.38 6.177 3.03 6.148 1.046-.018 1.847 2.666 1.112 3.723-.116.167.343.947 1.02 1.734 2.197 2.555 3.06.996 2.977-5.388-.1-7.866 1.465-8.17 2.174-.423.496 5.412.682 5.833 2.69 6.075 1.186.144 2.523.88 2.97 1.636.714 1.207.91 1.15 1.595-.463.513-1.204.328-4.73-.538-10.258zm-4.085 5.776c-.043-2.44 1.034-3.452 2.027-1.907.637.995-.31 4.46-1.223 4.477-.418.007-.78-1.15-.805-2.57zm18.202-.697c-.21-2.715-.153-6.29.128-7.943.423-2.495.724-2.835 1.768-2 .82.657 1.292 2.697 1.354 5.852.113 5.645.883 8.88 1.95 8.193.416-.266.736-1.656.71-3.087-.057-3.292 1.924-2.92 2.592.486.538 2.745 2.643 4.37 4.625 3.57 1.103-.445 1.183-1.088.447-3.583-.494-1.674-.824-3.53-.734-4.127.09-.596-.166-2.548-.57-4.336-2.13-9.444-14.34-11.842-20.3-3.988-1.53 2.016-1.738 3.302-1.428 8.866.32 5.753.562 6.533 2.088 6.725 1.496.19 1.717-.272 1.66-3.472-.046-2.706.28-3.696 1.228-3.713.74-.013 1.41.896 1.57 2.125.57 4.387 1.25 6.118 2.26 5.748.698-.256.912-1.99.654-5.317zm36.464 3.403c-.38-.822-.974-4.008-1.318-7.08-.937-8.37-3.073-11.184-9.67-12.74-3.74-.88-3.873-.838-6.268 1.99-2.405 2.842-2.436 3.017-1.772 10.198.667 7.208 2.258 11.49 2.37 6.374.1-4.676.234-5.127 1.532-5.15.903-.015 1.39 1.074 1.62 3.63.383 4.27 1.946 4.93 1.96.828.012-3.814.552-8.563 1.153-10.136.837-2.196 1.954 1.528 2.118 7.066.08 2.72.535 4.94 1.008 4.933.474-.01.844-1.016.823-2.24-.045-2.568 1.932-2.488 2.462.1.456 2.232 1.855 3.772 3.4 3.745.896-.016 1.07-.468.583-1.517zm16.81-1.872c-.068-3.817 1.723-3.642 2.98.293 1.41 4.415 2.245 3.127 2.132-3.296-.14-8.023-2.49-12.6-6.847-13.34-3.21-.543-9.725 1.074-9.702 2.41.01.436-.707 1.5-1.59 2.36-1.382 1.352-1.526 2.434-1.04 7.802.31 3.426.9 6.225 1.31 6.218.41-.007.733-.74.718-1.63-.016-.888.544-2.108 1.244-2.71 1.076-.924 1.364-.678 1.857 1.585 1.032 4.732 2.528 3.047 2.427-2.735-.074-4.208.187-5.384 1.197-5.402.995-.017 1.372 1.31 1.647 5.783.313 5.1.56 5.8 2.04 5.775 1.355-.024 1.67-.628 1.627-3.114zM317.77 453c-.165-3.026-.867-7.04-1.56-8.923-1.367-3.718-5.69-7.22-8.844-7.164-2.228.04-7.36 1.76-8.527 2.86-1.16 1.09-.826 17.856.362 18.288 1.593.58 2.482-.676 2.68-3.786.105-1.634.39-3.178.633-3.43.59-.61 2.104 1.79 1.63 2.586-.572.965 1.42 5.357 2.106 4.644.75-.774.792-1.114.83-6.59.023-3.077.353-4.277 1.11-4.04.594.187 1.128.888 1.188 1.558.06.67.19 2.477.29 4.014.19 2.98 1.92 3.946 1.87 1.044-.016-.947.344-1.728.8-1.736.457-.008 1.26.753 1.782 1.69.524.94.73 1.71.46 1.715-.27.004-.05.8.49 1.765 1.832 3.285 3.02 1.31 2.7-4.494zm-50.06 4.818c1.627-2.03-.837-16.285-3.287-19.022-3.57-3.987-12.648-2.176-16.553 3.304-3.46 4.856-2.196 18.648 1.425 15.535.637-.55 1.14-2.145 1.115-3.546-.058-3.33 1.814-2.793 2.924.84 1.406 4.596 2.91 3.265 2.732-2.42-.087-2.806.13-5.4.48-5.764 1.3-1.345 2.74 1.482 2.643 5.19-.112 4.267 1.267 6.01 2.058 2.607.725-3.116 1.605-2.745 2.865 1.207 1.18 3.7 1.94 4.14 3.598 2.07zm7.025-4.064c-.474-3.12-.35-3.49 1.1-3.232.902.16 1.71 1.056 1.8 1.993.296 3.1 1.463 5.63 2.438 5.283.858-.307 1.066-2.165 1.15-10.312.026-2.394 1.5-3.3 2.16-1.33.195.59.64 2.94.988 5.226.577 3.79.737 4.014 1.815 2.55 1.03-1.394 1.298-1.437 2.07-.327.487.702.904 1.954.926 2.782.03 1.097.742 1.494 2.622 1.46l2.582-.044-.11-6.398c-.135-7.64-.8-9.533-4.603-13.125-2.184-2.063-3.653-2.715-6.02-2.674-3.796.067-10.667 4.49-11.373 7.32-.84 3.37-.35 13.16.71 14.184 1.67 1.615 2.315.38 1.748-3.355zm-48.982.94c-.3-1.38-.295-3.59.013-4.916l.56-2.408 1.228 2.13c.675 1.172 1.267 3.615 1.316 5.43.06 2.246.43 3.178 1.157 2.92.697-.245 1.08-2.397 1.096-6.172.014-3.187.26-6.04.55-6.338 1.155-1.196 2.33 1.437 2.577 5.772.157 2.763.69 4.717 1.342 4.92.68.213 1.068-.49 1.043-1.884-.02-1.223.35-2.23.822-2.24.474-.007.877.907.897 2.032.038 2.185 2.29 4.6 3.31 3.545.882-.914.346-7.976-.95-12.497-.612-2.133-2.337-5.14-3.834-6.682-2.37-2.44-3.1-2.726-5.636-2.207-3.123.64-6.72 2.662-8.353 4.694-1.227 1.53-.207 15.8 1.193 16.675 1.56.977 2.242-.154 1.67-2.772zm-73.664-.716c.262-5.5 2.663-5.01 2.76.563.033 1.922 1.512 3.948 2.864 3.925.402-.007.584-3.1.406-6.876-.178-3.775-.086-7.11.203-7.41 1.324-1.37 2.39.978 2.48 5.457.055 2.694.447 5.426.872 6.07 1.003 1.524 2.944.286 2.25-1.433-.618-1.53.113-4.53 1.108-4.547.375-.006 1.057 1.63 1.516 3.633 1 4.365 3.474 5.13 3.3 1.02-.286-6.72-1.882-13.48-3.893-16.484-2.627-3.923-11.633-3.134-15.725 1.377-1.922 2.12-2.03 2.783-1.633 10.15.232 4.334.623 8.193.868 8.575 1.103 1.715 2.446-.346 2.62-4.022zm25.706-.72c.166-1.795.45-3.416.63-3.602.857-.89 2.013.966 2.577 4.14.482 2.71.963 3.44 2.106 3.195 1.242-.265 1.433-1.192 1.187-5.743-.357-6.616 1.555-7.11 2.34-.605.278 2.29.904 4.286 1.393 4.437.54.166.742-1.037.512-3.07-.22-1.944.036-3.612.61-3.98 1.437-.924 1.79-.277 2.38 4.37.597 4.704.75 5.01 2.08 4.158.52-.335.756-1.637.523-2.894-2.22-11.956-2.786-13.816-4.736-15.585-3.64-3.302-10.064-2.34-13.134 1.97-3.12 4.376-2.74 20.577.405 17.32.454-.47.96-2.32 1.126-4.115zm29.823 3.262c.21-.596.356-3.15.327-5.68-.03-2.527.37-5.033.887-5.568.69-.713.98-.64 1.09.273.08.685.237 1.825.346 2.534.11.708.288 3.16.398 5.446.23 4.792 2.25 5.29 2.244.554-.006-3.573 2.11-4.737 2.19-1.206.07 3.004 1.28 4.99 2.546 4.178 2.123-1.364-.376-16.303-3.24-19.357-3.88-4.14-14.114-.232-15.86 6.058-1.093 3.938-.57 12.462.79 12.884.58.18 1.19-1.293 1.497-3.618.647-4.9 2.665-5.33 3.51-.744.818 4.443 1.178 5.36 2.098 5.344.437-.007.967-.5 1.176-1.096zm-72.545-7.99c-.303-3.487-.114-4.302 1-4.322.848-.015 1.393.718 1.422 1.912.025 1.065.383 2.448.795 3.073.564.858.86.672 1.207-.753.596-2.457 1.94-1.612 2.656 1.672.817 3.743 2.315 3.173 1.73-.66-1.103-7.245-2.502-11.396-4.563-13.544-1.95-2.033-2.59-2.204-6.147-1.653-4.628.717-7.915 3.417-7.212 5.925.26.933 1.798 2.668 3.415 3.858 2.05 1.507 2.95 2.86 2.98 4.47.036 2.087 1.403 4.35 2.615 4.33.26-.005.305-1.943.1-4.307zm465.902-10.39c-.007-.415-1.08-.86-2.385-.986-1.85-.18-2.365.128-2.343 1.404.015.9.293 1.89.618 2.205.694.67 4.13-1.52 4.11-2.62zm25.384-.867c-.014-.828-3.734-.996-4.5-.202-.26.27-.268 1.22-.017 2.113.423 1.513.597 1.53 2.493.24 1.12-.763 2.032-1.73 2.025-2.15zm43.483.202c-.428-.666-.924-.708-1.487-.124-.466.482-.557 1.326-.204 1.876.428.666.924.707 1.488.124.465-.482.557-1.326.203-1.876zm-115.286 2.276c1.346-1.394 1.335-1.517-.19-2.042-2.096-.72-2.906-.19-2.87 1.883.036 2.056 1.17 2.115 3.06.158zm93.235-1.325c1.105-1.38.398-2.295-1.74-2.258-1.768.03-2.808 1.383-2.015 2.618.772 1.203 2.648 1.023 3.755-.36zM507.06 439.56c1.342-1.537 1.34-1.676-.026-2.173-1.926-.7-4.646.26-4.622 1.63.045 2.63 2.566 2.924 4.648.542zm21.025-.76c.17-.972-.328-1.43-1.532-1.41-.98.017-1.775.548-1.764 1.18.045 2.635 2.837 2.83 3.295.23zm47.503-.113c-.012-.717-.787-1.278-1.744-1.26-.956.015-1.71.603-1.7 1.32.014.717.79 1.278 1.745 1.26.956-.016 1.71-.603 1.698-1.32zm-91.033.82c2.19-1.723 1.817-2.276-1.495-2.22-3.438.06-4.61 1.307-2.392 2.547 1.956 1.093 2.098 1.08 3.887-.326zm-23.407-.144c2.56-1.43 1.924-2.587-1.393-2.53-1.936.035-3.005.464-2.992 1.2.04 2.34 1.683 2.837 4.385 1.33zm-70.258.095c2.032-1.54.886-3.42-1.59-2.613-2.42.788-2.414.78-1.752 2.418.69 1.706 1.304 1.74 3.342.195zm-46.86-.82l2.053-1.972-2.874-.226c-3.442-.27-3.9.086-3.115 2.418.76 2.256 1.393 2.22 3.934-.22zm95.083-.582c.285-.48-.28-.857-1.255-.84-.975.018-1.765.42-1.757.892.01.474.574.85 1.256.84.682-.013 1.473-.414 1.757-.892zm-70.39-.278c.215-.68-.487-1.068-1.883-1.044-2.172.038-2.815.877-1.584 2.067.9.87 3.076.23 3.468-1.022zm306.457-5.986c.87-2.005.758-2.303-1.13-2.983-2.024-.73-10.085-.828-25.457-.31-7.063.24-37.54.07-62.426-.348-6.632-.11-24.262-.21-39.178-.22-14.918-.012-30.582-.303-34.81-.648-4.28-.35-8.266-.29-8.993.134-.72.42-2.173.447-3.248.06-1.07-.385-8.844-.65-17.276-.59-15.114.11-26.115.024-26.96-.207-.715-.195-17.464-.73-20.244-.646-14.36.435-19.232.38-20.95-.23-1.108-.393-4.788-.355-8.177.086-6.374.83-29.956.906-31.31.1-.422-.25-11.6-.494-24.843-.543-13.242-.05-26.598-.31-29.68-.58-3.083-.27-17.613-.333-32.29-.142-14.676.192-29.01.154-31.857-.082-5.998-.5-34.1-1.284-35.205-.984-1.15.312-22.815.44-27.66.16-2.37-.135-8.573-.365-13.785-.51-5.21-.144-11.803-.484-14.65-.756-2.845-.27-10.25-.506-16.453-.523-6.204-.016-13.956-.227-17.228-.468a2805.4 2805.4 0 0 0-10.69-.764c-8.043-.554-9.695 1.01-5.292 5.013 2.404 2.188 2.41 2.19 16.604 1.778 7.81-.226 15.753-.17 17.652.122 1.9.293 11.98.666 22.4.828 10.42.163 21.466.368 24.546.456 3.08.088 10.053.115 15.498.06 5.445-.054 14.36.238 19.814.65 5.453.41 21.343.7 35.31.645 13.97-.056 32.183.157 40.475.474 30.48 1.162 54.948 1.58 114.112 1.944 9.47.058 26.327.182 37.457.276 33.146.278 46.775.365 66.73.423 10.42.03 32.505.11 49.08.177 16.575.068 32.072.043 34.438-.053 2.366-.096 10.69-.48 18.496-.852 8.187-.39 18.208-.32 23.68.167 5.216.464 12.42.905 16.006.98 6.273.13 6.558.05 7.49-2.093zm-428.12 4.566c-.262-.253-1.432-.57-2.6-.707-2.298-.265-2.84 1.32-1.046 3.055.8.774 1.39.673 2.58-.442.848-.795 1.328-1.652 1.066-1.905zm72.802 1.288c-.008-.422-.58-.974-1.27-1.225-.84-.304-1.09-.045-.755.783.547 1.352 2.046 1.68 2.025.443zm-46.658-.446c1.625-.938 1.763-1.312.78-2.1-1.708-1.367-4.968-.23-4.934 1.72.033 1.875 1.358 1.997 4.154.38zm23.79-1.846c-.53-.828-3.862.016-3.846.973.02 1.128 2.098 1.49 3.23.563.578-.474.856-1.165.617-1.536zm-98.152 1.59c2.963-1.41 2.716-2.194-.884-2.804-3.845-.652-5.013.03-3.793 2.217 1.072 1.92 1.715 2 4.677.588zm-23.504-.875c2.263-2.122 1.89-2.914-1.345-2.857-3.515.06-4.202.68-3.048 2.75 1.097 1.965 2.377 1.996 4.393.106zm49.53-.84c.165-.538-.263-1.182-.952-1.432-1.913-.696-4.848.397-4.824 1.796.026 1.502 5.302 1.17 5.775-.365zm-75.13-.01c3.334-1.59 2.71-3.353-1.166-3.286-3.945.07-4.66.637-3.48 2.757 1.038 1.86 1.698 1.935 4.645.53zm-24.7-2.24c.195-1.11-.312-1.49-1.952-1.462-2.104.037-2.937 1.598-1.56 2.927 1.054 1.018 3.238.108 3.513-1.464zm271.086-12.93c1.357-1.344 4.293-6.142 6.524-10.662 2.23-4.52 6.055-11.663 8.497-15.872 5.063-8.725 7.648-16.115 9.488-27.128.705-4.22 1.588-9.227 1.96-11.128.375-1.906.298-6.587-.17-10.438-.704-5.794-1.525-8.22-4.826-14.272-7.997-14.657-17.38-24.287-29.366-30.138-5.195-2.536-16.612-6.454-23.063-7.915-10.072-2.28-21.402-.288-33.64 5.915-4.772 2.42-15.528 13.32-18.907 19.163-1.107 1.914-4.397 6.95-7.31 11.195-2.915 4.244-5.903 9.05-6.64 10.677-1.72 3.792-2.83 4.49-2.876 1.81-.13-7.456 11.014-31.5 17.328-37.384 3.253-3.034 1.43-7.19-4.187-9.542a422.135 422.135 0 0 1-4.957-2.108c-1.728-.758-2.553-.96-9.943-2.426-8.516-1.69-12.432-1.984-15.735-1.18-1.9.46-5.236 1.04-7.415 1.283-16.92 1.898-43.395 14.626-51.505 24.762-5.49 6.862-7.397 9.786-10.515 16.125-4.62 9.393-6.873 20.135-6.782 32.322.07 9.185.273 10.308 3.39 18.654 1.822 4.884 3.922 9.773 4.665 10.865.743 1.09 1.363 2.482 1.377 3.09.03 1.312 8.244 13.904 12.736 19.526l3.157 3.95 9.697.413c15.343.653 17.578.734 30.804 1.125 6.87.203 13.07.31 13.78.237 2.537-.26 35.818-.328 40.464-.084 12.02.632 21.844.848 42.203.926 12.075.047 22.12.244 22.32.44.202.193 1.855.326 3.674.294 2.443-.042 3.95-.695 5.774-2.5zm23.356-109.566c2.624-5.23 16.72-14.893 27.41-18.794 5.083-1.855 11.953-3.75 15.59-4.298 1.034-.157 2.263-.53 2.73-.83 1.242-.798 15.383-1.1 19.896-.426 5.416.81 16.07 3.345 20.92 4.976 4.05 1.363 4.072 1.36 5.77-.752.937-1.166 2.133-3.484 2.66-5.15.524-1.667 1.597-4.01 2.383-5.208 3.385-5.16 7.606-15.065 10.662-25.024 1.755-5.72 1.835-13.264.223-21.097-1.924-9.344-4.56-16.202-7.35-19.106-1.162-1.212-2.118-2.455-2.124-2.76-.03-1.837-9.72-11.195-14.688-14.187-14.442-8.7-21.12-9.908-38.273-6.923-4.445.773-9.044 1.698-10.222 2.056-3.145.953-14.81 7.412-15.54 8.6-.343.564-.59 3.54-.548 6.618.11 8.074-4.81 18.165-8.89 18.236-1.705.03-1.413-1.585 1.406-7.773 2.264-4.966 2.504-6.257 2.01-10.796-.89-8.172-2.86-12.37-7.888-16.825-6.013-5.33-12.1-7.92-23.127-9.85-9.048-1.583-19.14-1.516-27.695.184-8.105 1.61-23.647 8.587-26.483 11.89-.696.81-2.287 2.157-3.536 2.992-2.59 1.735-8.98 10.123-11.152 14.642-.804 1.672-2.74 7.13-4.305 12.13-2.817 9-2.84 9.21-2.296 21.564.65 14.775 2.366 20.76 11.024 38.435l2.66 5.434 3.547-.625c14.368-2.538 22.013-1.914 36.324 2.963 13.8 4.704 19.928 8.13 27.884 15.592 7.833 7.345 9.148 7.836 11.016 4.114zm111.778-15.02l2.808-8.014c.25-.715-.712.077-2.14 1.76-3.788 4.462-6.158 13.02-3.593 12.977.315-.006 1.632-3.03 2.925-6.724zm-5.502.707c.84-3.354 4.487-10.478 7.37-14.404a78.072 78.072 0 0 0 2.634-3.873c2.216-3.527 7.892-8.658 12.714-11.493 2.578-1.516 6.1-3.736 7.828-4.933 3.46-2.396 7.673-2.505 16.83-.433 5.04 1.14 5.76 2.096 2.205 2.926-3.847.898-8.615 3.243-10.138 4.985-.783.896-1.738 1.634-2.124 1.64-1.025.018-15.187 8.798-18.465 11.45-3.84 3.105-8.6 10.11-8.558 12.596l.036 2.047 5.35-1.827c2.94-1.004 6.15-2.207 7.127-2.672 2.428-1.153 13.362-.548 20.07 1.11 6.993 1.732 10.47 1.028 14.76-2.987 3.956-3.7 7.753-11.648 11.96-25.035 3.648-11.61 5.693-16.205 9.345-20.997 3.32-4.358 9.456-7.592 14.073-7.418 2.626.1 3.226-.175 3.203-1.46-.015-.87-1.108-2.418-2.428-3.44-7.56-5.853-11.567-8.734-12.17-8.752-.375-.01-2.323-.733-4.328-1.604-3.145-1.367-6.75-2.307-17.555-4.576-4.734-.994-19.878.566-24.85 2.56-8.146 3.266-22.23 14.826-25.178 20.667-.65 1.29-1.156 3.946-1.122 5.903.034 1.956-.646 6.54-1.512 10.185-2.653 11.174-4.526 15.178-14.764 31.565-3.664 5.863-3.487 7.022 1.458 9.57 2.27 1.17 4.403 2.143 4.74 2.162.337.02 1.007-1.538 1.488-3.46zm-206.365-1.96c-.546-1.355-2.063-1.755-2.04-.538.014.91.972 1.85 1.87 1.833.38-.007.456-.59.17-1.294zm11.256-1.87c3.86-1.79 4.715-2.57 4.685-4.282-.02-1.15-.69-2.614-1.49-3.25-1.626-1.293-9.18-16.158-9.214-18.132-.012-.697-1.01-2.4-2.218-3.786-1.208-1.386-2.204-2.93-2.213-3.43-.008-.5-.55-1.208-1.202-1.576-.653-.367-1.884-1.974-2.736-3.57-.852-1.598-3.234-4.555-5.292-6.57-2.058-2.017-4.682-4.84-5.83-6.274-1.15-1.434-3.163-3.157-4.477-3.83-1.314-.67-2.4-1.792-2.41-2.49a1.263 1.263 0 0 0-1.272-1.247c-.686.012-1.567-.476-1.956-1.085-1.023-1.6-5.994-4.803-7.416-4.778-.666.012-2.828-.725-4.804-1.638-1.976-.912-3.972-1.653-4.434-1.644-.462.008-1.36-.48-1.998-1.08-1.765-1.673-12.86-4.688-16.983-4.616-2.013.035-4.973-.457-6.576-1.095-4.27-1.697-14.992-2.32-19.18-1.113-4.327 1.247-5.448 3.513-2.615 5.286 8.78 5.495 14.09 14.672 16.797 29.03 2.048 10.858 3.755 14.86 9.162 21.49 4.06 4.976 4.597 5.466 10.234 9.333 3.693 2.532 4.304 2.67 10.47 2.342 6.516-.345 17.135 1.288 21.485 3.302 1.193.553 4.424 1.484 7.18 2.07 2.754.585 5.212 1.382 5.462 1.77.727 1.132 2.075.786 2.052-.526-.048-2.776-8.706-16.696-10.377-16.684-.575.004-1.464-.742-1.975-1.658-1.41-2.526-14.82-12.316-20.608-15.045-4.87-2.296-15.697-5.504-20.18-5.98-3.402-.36-3.038-2.078.957-4.514 5.958-3.634 11.064-3.01 24.62 3.004 4.735 2.1 12.496 7.79 19.2 14.07 6.69 6.268 15.202 19.57 16.47 25.74 1.16 5.632 1.573 5.75 8.682 2.456zm210.745-12.452c3.26-3.192 6.887-6.274 8.06-6.848 4.83-2.364 7.66-4.59 7.64-6.01-.034-2.41-1.94-1.753-8.206 2.826-6.6 4.825-10.53 8.636-10.504 10.184.01.573-.744 1.755-1.676 2.63-1.416 1.326-2.25 3.068-1.454 3.03.12-.004 2.882-2.62 6.14-5.812zm24.584-15.838c.324-.89-.252-1.592-1.74-2.128-2.462-.888-3.792-.404-3.76 1.37.038 2.216 4.734 2.863 5.5.758zm-263.752 1.53c-.023-1.292-6.953-7.804-9.63-9.045-1.192-.554-3.54-1.816-5.214-2.804-4.482-2.646-11.023-4.874-12.527-4.266-.722.292-1.3 1.23-1.285 2.084.02 1.16.958 1.69 3.695 2.093 2.018.298 4.06.827 4.54 1.177.48.35 2.332 1.078 4.116 1.618 1.784.54 4.788 2.185 6.677 3.655 9.093 7.08 9.662 7.403 9.63 5.49zm-33.18-17.63c-.227-1.414-.885-1.92-2.46-1.893-1.577.028-2.217.557-2.394 1.98-.206 1.66.15 1.934 2.46 1.893 2.31-.04 2.658-.327 2.394-1.98zm170.283-52.477c2.284-2.993 5.07-9.41 5.93-13.664 2.09-10.322 1.686-17.196-.914-15.525-.602.387-.748 1.716-.38 3.496 1.007 4.903-3.426 21.628-6.207 23.415-.858.55-.982 3.83-.144 3.815.302-.006 1.074-.697 1.715-1.537zm-1.9-7.35c1.807-4.505 3.37-21.514 2.353-25.59-1.242-4.97-1.122-13.422.207-14.564 1.6-1.377 3.22.266 6.196 6.284 2.723 5.503 4.37 12.755 3.826 16.846-.487 3.66-2.512 15.092-3.227 18.216-.637 2.78.486 3.045 4.25.997 1.344-.73 3.148-1.34 4.01-1.356.87-.015 1.817-.892 2.134-1.975.314-1.07 1.648-3.227 2.965-4.79 1.317-1.565 3.937-6.18 5.824-10.258 3.315-7.166 3.438-7.764 3.68-17.925.21-8.79-.068-11.724-1.693-17.902-3.44-13.073-8.285-21.18-17.35-29.024l-4.566-3.953.172 8.766c.27 13.792-1.6 17.71-15.374 32.187-10.702 11.25-13.902 17.926-14.194 29.613l-.13 5.164 5.367 2.723c3.697 1.876 6.358 4.026 8.556 6.914 3.698 4.856 4.92 4.79 6.994-.375zm8.443-27.203c-.03-.828-.612-2.465-1.292-3.637-1-1.725-1.332-1.87-1.74-.763-.613 1.662.983 5.943 2.207 5.92.485-.007.857-.692.825-1.52z" fill="#FFF"/>
    </g>
</svg>
