<svg width="790" height="790" viewBox="0 0 790 790" xmlns="http://www.w3.org/2000/svg">
    <title>
        conch
    </title>
    <g fill="none" fill-rule="evenodd">
        <circle fill="#7B0303" cx="395" cy="395" r="395"/>
        <circle stroke="#FFF" stroke-width="23" cx="394.5" cy="394.5" r="355.5"/>
        <path d="M471.946 634.52c-.71-.683-22.2-.686-31.473-.005-3.092.227-6.21.128-6.93-.22-.72-.35-16.7-.64-35.51-.65-18.808-.01-36.732-.1-39.83-.2-3.096-.102-14.59-.223-25.544-.268-20.04-.084-31.377-.4-44.178-1.23-3.814-.248-8.88-.46-11.257-.47-4.295-.02-4.337-.047-6.406-4.215-2.546-5.128-3.233-11.01-1.247-10.676.75.126 2.05 2.29 2.98 4.953 2.228 6.392 3.182 7.137 9.326 7.28 2.86.067 5.535.32 5.94.56.74.44 6.536.47 25.557.132 5.618-.1 13.607.008 17.752.24 4.145.23 9.484.356 11.863.28 21.237-.687 63.398-.685 64.554.002.316.188 10.08.39 21.694.45 11.617.058 26.187.192 32.38.296 19.83.335 43.037-.142 43.63-.897 1.278-1.625 2.674-7.476 1.95-8.174-.42-.41-4.657-.903-9.413-1.1-8.177-.34-15.608-.43-55.837-.68-9.287-.057-23.513-.366-31.614-.685-20.63-.814-32.91-1.148-52.405-1.425-37.315-.532-37.056-.513-35.868-2.513.674-1.133 67.507-1.187 96.862-.076 9.14.346 43.4.402 59.308.097 3.095-.06 8.554.215 12.132.61 3.578.394 6.818.397 7.2.006.38-.39-.985-1.99-3.034-3.557l-3.726-2.846-22.133.23c-24.013.25-35.898-.008-53.324-1.156-21.124-1.39-23.242-1.428-73.614-1.263-8.095.027-15.112-.236-15.595-.584-.482-.348-6.14-.782-12.57-.964-6.432-.183-13.45-.51-15.597-.73-3.68-.372-4.144-.168-8.114 3.568-2.315 2.18-4.034 4.13-3.82 4.334.214.204 6.237.542 13.383.75 19.34.567 19.923.623 19.946 1.93.025 1.422-2.907 1.59-14.836.844-4.84-.302-14.087-.628-20.548-.725-11.797-.177-16.715-1.09-12.856-2.39 1.02-.344 2.206-.415 2.637-.16 1.32.784 6.357-1.49 10.682-4.82 4.878-3.754 8.375-9.317 10.28-16.354 2.594-9.57 4.698-15.565 6.28-17.897.87-1.28 1.575-2.574 1.57-2.876-.026-1.433 4.18-6.175 7.61-8.58 4.82-3.384 12.223-5.907 20.62-7.03 7.192-.962 15.734-3.713 16.18-5.21.262-.874-5.358-3.835-14.17-7.464-1.917-.79-7.488-3.27-12.38-5.51-4.89-2.24-9.23-4.067-9.644-4.06-.414.008-3.04-1.31-5.837-2.928-2.796-1.617-5.437-2.935-5.87-2.927-.433.007-5.207-2.746-10.608-6.118-5.4-3.372-11.305-6.775-13.12-7.56-1.813-.788-3.532-2.013-3.82-2.723-.286-.71-1.113-1.28-1.837-1.268-.725.012-3.627-1.496-6.45-3.352-2.823-1.855-5.33-3.37-5.575-3.365-.243.004-1.187-.662-2.097-1.48-.91-.816-2.59-2.157-3.73-2.978-4.883-3.51-10.08-7.404-11.51-8.62-.846-.722-1.895-1.305-2.33-1.298-.438.008-.93-.3-1.096-.684-.556-1.29-17.193-13.63-20.82-15.44-1.972-.985-3.793-2.113-4.046-2.506-.253-.394-2.558-1.868-5.124-3.277-2.565-1.41-6.935-4.668-9.71-7.243-2.774-2.574-5.24-4.677-5.482-4.673-.46.008-3.43-2.61-16.38-14.433-4.35-3.97-9.232-8.366-10.847-9.766-1.614-1.4-4.59-4.173-6.61-6.162-2.797-2.753-4.33-3.604-6.428-3.567-5.502.096-11.325-4.356-12.452-9.52-.492-2.255-7.52-10.285-9.607-10.98-1.5-.498-.79-17.196.733-17.222 1.227-.022 1.327.486 1.698 8.628.39 8.562 3.273 9.31 3.125.812-.095-5.36 1.038-7.563 2.02-3.925.318 1.18.983 2.14 1.478 2.132.495-.01.7-.33.454-.71-.245-.383-.578-3.706-.74-7.385-.263-5.987-.523-6.862-2.477-8.345-3.867-2.934-10.472-1.636-14.368 2.823-1.313 1.503-1.465 2.34-.767 4.215.528 1.417 1.51 2.33 2.493 2.315.893-.013 1.94.748 2.327 1.69.95 2.315 1.19 12.317.31 12.883-.703.45-8.19-12.8-8.208-14.523-.005-.5-.445-1.33-.978-1.845-1.457-1.407-7.876-15.584-8.56-18.905l-.596-2.902 22.352.13c12.293.07 22.685.325 23.093.568.408.242 1.242.01 1.852-.514.704-.605 4.093-.855 9.258-.683 4.48.15 15.164.523 23.74.83 8.577.306 24.167.622 34.645.702 21.776.167 31.878.526 35.302 1.256 4.196.893 2.898-2.122-1.81-4.205-7.405-3.276-20.096-13.706-27.684-22.753-3.866-4.61-11.304-16.357-11.33-17.896-.008-.407-.722-1.236-1.588-1.843-.865-.606-2.66-2.495-3.987-4.196-1.89-2.423-3.18-3.182-5.96-3.506-3.362-.39-8.615-3.977-8.648-5.902-.03-1.676-3.676-5.637-5.095-5.534-.82.06-2.916-.473-4.655-1.184-4.686-1.915-8.217-9.16-8.23-16.89-.018-9.987 3.95-22.375 8.573-26.765 2.746-2.608 8.228-4.86 10.53-4.324 1.467.34 2.71-.477 5.423-3.565 2.02-2.297 4.287-4.02 5.317-4.038 1.2-.02 2.257-1.045 3.187-3.086.765-1.68 1.858-3.062 2.43-3.072.57-.01 1.213-.747 1.43-1.637.497-2.05 7.166-4.53 11.09-4.122 2.626.273 3.196-.102 5.866-3.854 4.19-5.886 5.282-7.125 18.425-20.898 13.187-13.818 16.4-16.622 23.704-20.685 2.797-1.555 5.705-3.41 6.46-4.117.757-.71 1.8-1.296 2.317-1.305.518-.01 1.067-.31 1.22-.67.5-1.186 18.192-9.75 23.466-11.362 2.842-.868 6.436-2.162 7.987-2.875 1.552-.712 3.22-1.303 3.705-1.31.486-.01 2.504-.787 4.485-1.728 6.154-2.924 20.502-4.802 34.895-4.57 13.07.214 24.444 1.268 27.576 2.558.96.395 5.658 1.868 10.442 3.273 13.247 3.892 27.552 11.063 39.59 19.847 3.422 2.498 12.834 10.65 13.917 12.055 4.52 5.862 33.253 31.864 39.89 36.097 3.13 1.996 6.448 4.444 7.373 5.44.924.994 2.157 1.8 2.74 1.79.58-.01 1.5.497 2.042 1.127.542.63 3.7 2.507 7.016 4.172 3.317 1.664 7.515 3.995 9.328 5.18 5.505 3.597 20.904 10.45 25.06 11.15 2.15.364 5.278 1.474 6.95 2.47 1.675.993 3.972 1.8 5.106 1.79 1.134-.01 3.05.728 4.256 1.638 1.206.91 3.167 1.655 4.357 1.655 1.19 0 3.876.742 5.968 1.647 2.09.905 4.35 1.637 5.018 1.625.67-.012 1.9.33 2.734.762 2.35 1.213 13.997 4.66 19.787 5.855 5.248 1.084 16.34 1.177 22.24.188 5.43-.91 5.01 1.375-1.425 7.718-3.123 3.08-5.956 5.603-6.296 5.61-.34.005-2.306 1.4-4.367 3.097-2.06 1.698-4.19 3.1-4.73 3.113-.54.014-1.584.98-2.32 2.148-.736 1.167-2.22 2.42-3.298 2.78-5.645 1.9-8.358 4.807-12.072 12.936-2.026 4.432-4.477 8.933-5.448 10-.97 1.07-1.76 2.21-1.755 2.534.01.57-2.355 3.546-9.955 12.522-1.983 2.343-3.597 4.705-3.588 5.25.01.547-.388 1-.885 1.01-.496.008-2.706 1.728-4.91 3.822-4.332 4.114-11.872 9.465-18.36 13.032-2.236 1.228-4.06 2.526-4.053 2.884.01.574 12.29.962 16.89.534.952-.088 2.897-.24 4.324-.34 4.37-.3 67.81-.244 77.49.07 12.664.41 32.987.005 40.46-.808 6.075-.66 6.267-.622 6.3 1.25.018 1.06-3.018 6.216-6.748 11.457-3.73 5.24-7.015 10.173-7.3 10.96-.288.788-1.514 2.526-2.727 3.864-1.214 1.338-3.534 4.483-5.157 6.99-3.96 6.114-7.348 9.668-9.25 9.7-.864.016-2.455.823-3.536 1.795-1.08.97-2.242 1.77-2.58 1.775-.34.006-1.247 1.752-2.017 3.88-1.085 2.996-2.307 4.418-5.42 6.31-2.21 1.34-4.993 3.46-6.185 4.704-1.193 1.245-2.917 2.905-3.832 3.69-.915.782-2.99 2.923-4.612 4.755-1.62 1.832-3.96 3.972-5.2 4.755-1.24.783-6.045 5.057-10.68 9.498-7.83 7.502-11.887 11.165-20.23 18.267-1.8 1.533-5.105 4.378-7.342 6.322-5.754 5-6.967 5.968-9.867 7.884-1.41.934-2.868 2.226-3.238 2.87-.37.647-1.313 1.187-2.096 1.2-.783.014-2.404.945-3.6 2.07-2.916 2.737-13.163 9.478-14.444 9.5-.562.01-1.015.408-1.007.884.01.476-.438.873-.993.883-1.473.026-13.34 6.03-13.95 7.06-.287.48-2.542 1.88-5.01 3.107-2.47 1.227-5.378 3.095-6.464 4.152-1.085 1.057-4.36 3.207-7.275 4.78-2.917 1.572-6.927 3.937-8.913 5.254-4.117 2.734-12.482 7.235-21.256 11.44-3.305 1.583-6.586 3.352-7.29 3.93-.705.578-2.83 1.532-4.725 2.12-1.896.586-5.566 2.364-8.157 3.95-4.798 2.937-5.698 3.37-13.563 6.528-2.46.99-4.47 2.046-4.464 2.35.012.653 4.54 1.558 7.53 1.506 4.896-.085 12.99 3.283 17.517 7.288 4.156 3.678 10.835 14.145 10.898 17.078.024 1.058.663 2.565 4.915 11.578 1.267 2.687 2.308 5.156 2.314 5.488.005.332.9 1.455 1.99 2.495 1.09 1.04 2.938 3.447 4.107 5.35 3.366 5.475 11.246 12.92 15.524 14.666 3.05 1.245 3.916 2.042 3.943 3.635.063 3.604-2.53 10.184-4.435 11.26-1.806 1.016-34.78 2.245-35.732 1.33zm-29.38-28.822c-.006-.412-.86-1.788-1.895-3.06-1.168-1.433-1.58-2.62-1.087-3.133.494-.51 1.534.14 2.743 1.717 2.428 3.167 3.636 2.733 7.47-2.685 4.433-6.267 4.582-8.673.84-13.622-4.908-6.495-6.823-11.04-7.12-16.905-.146-2.913.015-6.207.358-7.318.735-2.374-1.528-5.323-4.05-5.28-1.86.034-1.932.378-.58 2.8 1.33 2.385 1.258 13.807-.15 23.643-1.238 8.66-1.203 12.375.133 14.08.584.746.504 1.45-.246 2.17-.733.704-.928.726-.572.064.295-.552-.05-1.215-.765-1.476-.716-.26-1.316-1.265-1.333-2.232-.017-.985-.6-1.748-1.33-1.735-.713.012-1.29.452-1.28.977.01.525-1.702 2.935-3.803 5.355-2.1 2.42-3.813 4.73-3.806 5.132.008.403 1.478.95 3.27 1.22 1.79.266 3.646.61 4.125.763 1.892.605 9.094.227 9.082-.477zm45.004-1.033c-.012-.695-2.917-1.707-4.047-1.41-.998.264-10.456-2.452-14.23-4.086-1.68-.727-4.352-2.38-5.94-3.672-1.585-1.293-3.422-2.34-4.08-2.33-.658.012-1.357-.434-1.553-.99-.604-1.714-2.237.058-2.788 3.024-.287 1.548-1.63 4.455-2.984 6.46-1.354 2.007-2.458 3.85-2.454 4.097.005.246 8.576.24 19.048-.015 10.47-.254 19.034-.74 19.028-1.08zm-67.538-.393c-.015-.848-6.212-7.193-6.526-6.683-2.952 4.794-3.1 5.252-2.09 6.428 1.182 1.374 8.64 1.593 8.616.254zm-20.326-.59c.715-1.203-.35-5.14-1.387-5.12-.44.007-1.878.98-3.193 2.16l-2.392 2.144 2.18.834c2.887 1.105 4.127 1.1 4.79-.017zm-68.883-1.294c-.016-.924-.413-1.907-.88-2.186-.47-.278-1.305-2.078-1.86-4-.773-2.688-1.34-3.38-2.455-3-.798.274-3.58 1.277-6.182 2.23-4.975 1.825-17.048 4.017-20.686 3.758-1.403-.1-2.232.346-2.408 1.294-.3 1.617 2.825 2.003 20.093 2.483 5.184.143 9.637.466 9.896.716.26.25 1.382.44 2.492.42 1.423-.024 2.01-.532 1.99-1.715zm19.36.044c-.286-.71-.863-1.284-1.28-1.276-.42.007-1.356-1.34-2.08-2.994-.726-1.654-1.65-3.002-2.056-2.995-.404.007-1.205 1.385-1.778 3.062-.574 1.675-1.408 3.053-1.853 3.06-.445.01-.8.6-.787 1.314.018 1.01 1.174 1.278 5.19 1.208 4.235-.074 5.07-.322 4.644-1.38zm17.84.122c-.02-.238-1.018-1.584-2.216-2.992l-2.178-2.56-2.09 2.634c-1.147 1.45-2.095 2.91-2.106 3.25-.012.34 1.925.5 4.303.358 2.378-.142 4.307-.453 4.286-.69zm17.348.052c-.01-.61-3.356-3.44-5.46-4.618-1.213-.68-1.747-.343-2.784 1.752-.706 1.425-1.28 2.805-1.275 3.067.006.26 2.15.438 4.77.392 2.618-.046 4.756-.313 4.75-.594zm22.074-3.395c2.24-2.42 2.477-3.245 2.312-8.048-.1-2.943-.768-6.677-1.483-8.3l-1.298-2.946-1.52 4.295c-.836 2.364-2.01 4.89-2.61 5.615-1.91 2.31-2.2 5.707-.765 8.98.755 1.722 1.71 3.124 2.12 3.117.412-.007 1.87-1.227 3.244-2.71zm-68.5-1.54c3.288-4.57 3.3-4.615 3.346-13.48.045-8.435-.76-11.22-1.995-6.91-.308 1.077-2.846 4.64-5.638 7.92-4.775 5.605-5.04 6.15-4.424 9.138.64 3.114 3.562 7.947 4.79 7.926.343-.006 2.107-2.074 3.92-4.595zm145.068 1.543c-.005-.247-.99-1.95-2.193-3.78-1.558-2.374-3.008-3.49-5.047-3.885-2.94-.568-8.748-3.55-9.284-4.763-.166-.374-.733-.673-1.26-.664-1.172.02-7.67-6.588-7.69-7.82-.01-.488-.97-1.61-2.134-2.492-2.262-1.717-3.48-6.112-3.463-12.498.01-3.872-1.45-5.85-3.924-5.315-1.154.25-1.492 1.525-1.646 6.205-.423 12.9 7.494 23.068 25.14 32.28 5.042 2.633 11.523 4.173 11.498 2.733zm-124.486-4.158c2.623-3.062 6.155-8.578 7.847-12.258 2.865-6.232 3.072-7.27 3.013-15.093-.066-8.57-.53-9.923-3.62-10.57-.922-.19-3.243-.903-5.16-1.582-5.314-1.882-6.263-1.59-9.442 2.907-4.86 6.875-6.584 13.77-5.893 23.596.322 4.572 1.055 9.28 1.63 10.46 2.434 5 5.27 8.788 6.264 8.36.325-.14 2.738-2.76 5.362-5.82zm-6.102-1.154c-2.778-2.965-3.912-8.824-3.19-16.476.35-3.686 1.196-7.372 1.88-8.19.687-.82 1.47-2.5 1.74-3.738.615-2.82 3.665-6.914 5.17-6.94 2.607-.046 4.202 4.372 4.817 13.335.642 9.355-.35 14.278-3.983 19.77-2.52 3.81-4.363 4.45-6.433 2.24zm4.772-7.05c2.566-6.287 3.593-24.014 1.39-23.975-1.9.033-5.224 9.736-5.73 16.727-.79 10.89 1.377 14.508 4.34 7.247zm15.784 11.353c2.186-3.186 2.16-4.35-.242-10.595-1.83-4.756-3.46-6.543-3.412-3.735.012.7-.733 2.672-1.655 4.384-2.15 3.99-2.068 7.434.243 10.268 2.32 2.847 2.92 2.81 5.067-.322zm20.297-2.37c2.135-2.53 3.874-5.092 3.863-5.695-.01-.603.31-1.102.71-1.11 1.185-.02 4.696-8.057 5.718-13.086 1.85-9.114.352-13.465-4.165-12.084-1.353.414-3.51.57-4.798.347l-2.34-.405 1.923 3.536c2.81 5.168 2.482 16.703-.667 23.5-2.203 4.757-5.048 7.556-6.69 6.58-.468-.278-1.674-2.05-2.68-3.938-2.07-3.892-2.78-13.907-1.204-16.983.516-1.005.924-2.618.907-3.585-.017-.967 1.114-3.11 2.514-4.76 3.497-4.126 3.268-5.536-1.002-6.18-4.772-.72-7.23 1.063-8.406 6.105-2.227 9.543.002 21.81 4.962 27.312 2.053 2.277 5.85 5.073 6.866 5.055.333-.006 2.353-2.08 4.49-4.61zm29.94 2.926c3.99-5.046 5.472-7.31 8.046-12.28 1.626-3.14 3.3-7.72 3.723-10.18 1.097-6.393.98-15.906-.225-18.063l-1.027-1.844-4.49 1.797c-2.47.99-5.577 1.816-6.906 1.84-5.598.098-11.25 5.402-11.283 10.587-.004.714-.293 2.97-.642 5.014-1.14 6.69 2.618 17.18 7.845 21.895 2.918 2.632 3.7 2.827 4.96 1.234zm-3.625-7.297c-3.177-3.82-3.39-4.92-2.412-12.412 1.146-8.772 4.74-17.732 6.81-16.98.76.278 1.513.502 1.673.5.16-.003 1.115 1.277 2.122 2.844 2.267 3.53 2.613 9.607.923 16.244-2.415 9.485-6.092 13.44-9.116 9.805zm4.625-6.34c2.61-6.872 2.53-18.243-.13-18.197-2.543.044-5.6 14.967-4.16 20.305.81 3.004 2.7 2.076 4.29-2.106zm-115.854 10.2c2.912-.782 6.068-1.765 7.013-2.185 5.874-2.61 10.454-5.402 13.28-8.096 3.267-3.117 9.85-13.03 9.462-14.248-.183-.577 1.862-7.623 3.555-12.246.48-1.31.223-1.542-1.41-1.274-1.262.207-2.034.964-2.1 2.06-.363 6.074-7.137 18.974-10.57 20.13-.894.3-2.016 1.307-2.492 2.235-.475.928-1.582 1.7-2.46 1.715-.876.015-2.025.567-2.553 1.225-1.18 1.473-12.658 5.41-13.798 4.73-.454-.268-1.087-.05-1.406.49-.328.55-1.637.784-3.005.535-1.936-.352-2.71.008-3.827 1.78-2.974 4.718.503 5.78 10.31 3.148zm82.383-8.026c2.08-4.363 2.754-16.56 1.006-18.247-3.438-3.32-8.485 14.1-5.932 20.477 1.277 3.19 2.633 2.576 4.926-2.23zm85.984-.78c-.01-.626-.827-2.736-1.814-4.69-.986-1.954-1.8-3.997-1.81-4.54-.01-.542-.814-1.963-1.787-3.157-.975-1.194-1.784-2.898-1.8-3.788-.038-2.24-7.867-9.866-10.83-10.55-2.975-.688-3.085-.58-3.526 3.418-.914 8.285 12.255 23.624 20.935 24.384.357.032.64-.454.63-1.078zm-155.015-7.488c6.184-5.077 13.5-17.328 12.228-20.478-.433-1.07-.923-1.167-2.226-.44-.92.512-2.798.95-4.176.975-4.254.075-14.237 4.254-17.83 7.465-3.713 3.317-9.468 14.206-9.81 18.56-.19 2.437.014 2.623 3.266 2.972 2.847.305 4.515-.22 9.285-2.926 3.2-1.813 7.368-4.57 9.265-6.13zm87.447-12.926c.682-2.737.617-3.257-.405-3.24-1.014.018-2.503 3.6-1.904 4.58.752 1.227 1.824.605 2.31-1.34zm-34.333-4.2c-.498-2.343-2.463-2.183-2.42.197.027 1.64.38 2.07 1.37 1.672.732-.296 1.204-1.136 1.05-1.868zm36.152-4.804c3.868-.785 8.892-2.17 11.163-3.077l4.13-1.65.918-6.11c.506-3.358 1.14-6.478 1.41-6.93.27-.454.633-2.17.808-3.816.176-1.646 1.035-5.708 1.91-9.028 1.92-7.275 4.125-18.08 4.432-21.71.122-1.453.513-3.13.868-3.726.733-1.235 1.923-9.425 2.465-16.96l.365-5.09-2.852.53c-1.568.29-4.53.82-6.58 1.172-4.125.71-4.194.812-4.734 6.98-.208 2.384-.927 7.656-1.597 11.716-.67 4.06-1.202 8.16-1.182 9.11.02.953-.302 2.907-.715 4.342-.413 1.436-.93 3.783-1.15 5.215-.217 1.43-1.27 6.515-2.34 11.295-1.07 4.78-2.42 10.843-3 13.472-1.103 4.998-4.344 11.33-5.81 11.357-1.277.022-1.11-1.175 1.45-10.32 1.287-4.598 2.803-10.706 3.37-13.573.565-2.866 1.332-5.856 1.705-6.642.372-.787 1.2-4.697 1.84-8.69.642-3.993 1.746-10.192 2.454-13.776 1.433-7.254 2.06-16.13 1.3-18.397-.412-1.23-1.193-1.383-4.55-.9-6.85.988-7.69 1.988-8.17 9.726-.822 13.26-3.047 27.77-7.36 47.994-.355 1.673-1.474 5.394-2.484 8.27-1.01 2.874-2.032 5.91-2.27 6.748-.537 1.9-2.817 2.055-2.85.195-.013-.753.868-4.177 1.958-7.61 1.713-5.398 2.903-10.88 6.915-31.867 1.643-8.596 3.217-30.382 2.26-31.305-.41-.397-4.048-.862-8.084-1.033-4.036-.17-9.24-.52-11.56-.776l-4.224-.465.713 12.528c.393 6.89 1.13 14.225 1.64 16.3 3.003 12.224 8.016 41.902 7.285 43.13-.965 1.626-1.877-.63-4.06-10.04-1.088-4.7-2.578-10.244-3.31-12.324-.73-2.08-1.553-5.96-1.827-8.626-.275-2.665-.936-6.62-1.47-8.79-.535-2.17-.89-4.306-.79-4.748.1-.442-.12-2.162-.49-3.822-.37-1.66-.874-7.602-1.12-13.204-.243-5.602-.6-10.298-.79-10.437-1.118-.816-9.506-1.96-11.098-1.514-1.706.478-1.846.942-1.364 4.523.494 3.675 2.377 19.496 3.046 25.592.547 4.98 5.452 27.64 6.73 31.08.706 1.908 1.296 4.086 1.31 4.84.013.753.85 3.258 1.858 5.566 1.68 3.844 2.222 4.316 6.45 5.63 5.87 1.825 6.636 1.787 6.6-.33-.017-.953.36-1.74.835-1.747.475-.01.874.55.886 1.24.057 3.238 4.6 3.355 18.756.483zm-37.372-4.66c-.278-.83-.903-3.253-1.388-5.388-.486-2.134-1.55-6.206-2.365-9.05-4.768-16.638-6.14-24.16-8.24-45.14-1.494-14.933-1.248-14.522-8.864-14.867l-4.76-.216-.004 3.463c-.004 1.904.366 4.43.82 5.613.454 1.182 1.045 4.223 1.314 6.757.268 2.534.872 5.568 1.342 6.743.47 1.175.886 3.883.923 6.018.036 2.135 1.478 9.195 3.203 15.688 1.725 6.494 3.888 15.214 4.808 19.38.92 4.166 2.112 8.153 2.648 8.86 1.044 1.376 6.896 3.616 9.493 3.633 1.112.008 1.426-.432 1.07-1.496zm61.634-3.593c1.26-.33 3.206-1.337 4.326-2.236 1.12-.9 2.546-1.643 3.17-1.654 1.782-.03 3.764-3.64 3.71-6.758-.028-1.564.818-6.85 1.88-11.745 1.06-4.895 2.164-11.13 2.45-13.853.62-5.878 2.162-8.66 3.89-7.012 1.33 1.266-.095 11.463-3.542 25.37-1.126 4.542-2.046 8.552-2.044 8.91.007 1.324 3.205.52 9.26-2.324 5.733-2.695 6.26-3.166 6.658-5.964.628-4.41 5.925-30.395 6.8-33.364.41-1.388.725-3.646.7-5.018-.023-1.372.498-2.712 1.158-2.98.744-.3 1.155-1.694 1.08-3.67-.064-1.753.148-6.666.473-10.92.565-7.41.522-7.702-1.052-7.03-.902.386-3.827 1.5-6.498 2.473-4.672 1.705-4.893 1.928-5.813 5.853-.527 2.244-1.08 5.836-1.23 7.98-.428 6.18-4.564 18.364-6.124 18.044-.72-.147-1.185-.83-1.036-1.52.15-.688.612-3.595 1.03-6.46.415-2.864 1.07-5.992 1.455-6.95 1.314-3.274 2.43-12.053 1.63-12.825-.768-.742-11.032 1.783-12.436 3.06-.38.342-1.197 4.292-1.82 8.777-1.324 9.538-4.1 23.904-5.104 26.403-.385.96-.87 3.5-1.077 5.647-.5 5.16-4.073 21.276-6.632 29.9-.385 1.296-.174 1.526.977 1.06.808-.325 2.5-.862 3.76-1.193zm-76.955-1.335c-.014-.357-.64-2.32-1.39-4.362-.753-2.042-1.138-4.1-.856-4.574.28-.474-.104-2.1-.856-3.617-1.27-2.562-2.135-5.85-5.705-21.71-.747-3.32-1.632-8.953-1.966-12.52-.803-8.58-3.362-22.693-4.28-23.607-.75-.747-10.564-2.888-13.27-2.895-1.912-.005-1.977 4.346-.145 9.682.696 2.03 1.387 6.024 1.536 8.878.15 2.855.384 5.967.523 6.917.77 5.295 4.244 21.705 5.022 23.722.273.71.682 2.446.908 3.86.226 1.414 1.04 3.932 1.805 5.596.767 1.664 1.664 4.372 1.993 6.016.5 2.5 1.094 3.118 3.632 3.776 1.67.433 5 1.823 7.404 3.09 4.665 2.46 5.683 2.775 5.645 1.746zm-19.178-8.15c-.005-.26-.64-1.645-1.41-3.075-.772-1.43-2.2-4.954-3.175-7.83-.975-2.878-2.12-5.65-2.544-6.164-.425-.512-1-2.29-1.28-3.953a341.33 341.33 0 0 0-1.17-6.473c-.366-1.898-.67-4.036-.675-4.75-.006-.714-.377-2.46-.824-3.88-.952-3.026-2.83-15.37-3.74-24.61l-.64-6.483-6-2.74c-6.838-3.12-10.907-3.84-11.56-2.043-.71 1.95-1.566 1.41-2.502-1.572-.626-1.994-1.95-3.358-4.62-4.762l-3.742-1.967-1.726 2.274c-.95 1.252-2.283 2.285-2.962 2.297-1.04.02-1.655 2.203-1.273 4.53.367 2.235 1.192 7.823 1.695 11.48.326 2.376.773 4.6.993 4.94.22.343 1.046 5.65 1.837 11.797 1.328 10.32 2.134 14.495 4.348 22.532.753 2.728 1.58 3.36 8.73 6.66 4.345 2.006 8.147 3.39 8.45 3.077.51-.53-1.836-11.103-3.56-16.037-1.21-3.465-2.663-10.695-3.328-16.56-.34-2.997-.972-7-1.404-8.898-1.48-6.502-2.283-16.843-1.31-16.86 1.375-.024 1.92 1.22 2.328 5.325.204 2.046.815 5.27 1.358 7.165.542 1.895 1.478 6.944 2.08 11.22.6 4.274 1.448 8.545 1.882 9.49.435.944 1.668 5.793 2.742 10.774 1.073 4.98 2.675 10.992 3.56 13.358 1.563 4.184 1.83 4.408 9.84 8.27 8.03 3.87 9.62 4.444 9.602 3.468zm137.86-10.144c.972-.63 3.22-1.636 4.996-2.234 2.17-.73 3.342-1.703 3.578-2.972.81-4.378 1.513-8.95 1.623-10.567.064-.954.57-4.274 1.123-7.38.554-3.104 1.126-6.426 1.27-7.38.6-3.95 3.536-16.872 4.34-19.1.475-1.322 1.045-5.788 1.266-9.926.393-7.367.355-7.553-1.824-8.927-1.707-1.076-2.32-1.146-2.628-.3-.22.608-1.914 1.633-3.762 2.28-5.336 1.864-7.29 3.838-7.59 7.66-.285 3.68-1.365 12.743-2.418 20.307-.366 2.625-1.24 7.12-1.94 9.99-.703 2.87-1.466 6.78-1.695 8.688-.656 5.444-2.645 15.395-3.616 18.088-1.563 4.34-1.22 4.905 2.333 3.857 1.745-.515 3.97-1.453 4.942-2.085zm14.656-6.76c.286-.482 1.276-.888 2.2-.905.924-.016 1.674-.376 1.667-.8-.008-.425 1.492-1.405 3.333-2.18 1.84-.773 4.388-2.406 5.66-3.628 1.274-1.22 3.053-2.47 3.956-2.773 1.754-.59 12.887-7.433 13.595-8.355.23-.304 1.437-1.222 2.677-2.04 1.938-1.28 2.244-2.09 2.18-5.764-.04-2.35.31-5.59.78-7.202.47-1.61 1.066-5.293 1.323-8.185.53-5.955-.022-6.8-4.9-7.507a185.25 185.25 0 0 1-5.86-.965c-1.553-.287-2.846-.186-2.872.226-.863 13.32-1.56 18.17-3.415 23.733-.68 2.045-1.237 4.936-1.234 6.424.006 3.213-2.47 8.757-3.71 8.3-.48-.176-.852-1.685-.827-3.352.057-3.86 2.214-16.148 3.413-19.443.504-1.385.737-2.69.52-2.9-.22-.213.128-1.967.772-3.9.644-1.932 1.14-5.365 1.1-7.628-.068-3.85-.253-4.177-2.903-5.107a140.514 140.514 0 0 1-5.695-2.17c-1.575-.647-3.21-1.17-3.63-1.163-.96.016-1.603 3.152-2.433 11.862-1.008 10.56-1.888 15.55-3.81 21.58-.457 1.436-1.598 6.716-2.535 11.732-.937 5.016-1.896 10-2.13 11.076-.3 1.385-.034 1.948.916 1.932.737-.013 1.575-.417 1.86-.898zm-199.37-7.126c-.385-1.065-.742-2.91-.793-4.1-.052-1.188-.383-2.598-.736-3.132-.354-.534-.906-4.226-1.228-8.204-.32-3.978-.993-9.37-1.492-11.98-.5-2.61-1.217-8.538-1.595-13.174-.507-6.227-.992-8.424-1.853-8.41-.642.012-1.38.38-1.64.82-.262.44-2.026 1.088-3.92 1.443-1.896.354-4.237 1.308-5.204 2.12-1.632 1.368-1.687 1.88-.768 7.08.544 3.082 1.232 7.548 1.528 9.924 1.32 10.587 2.68 19.984 3.09 21.33.244.804 1.305 1.708 2.357 2.008 1.052.3 2.616 1.143 3.476 1.87 1.547 1.313 7.4 4.17 8.768 4.282.39.032.394-.814.01-1.878zm-19.27-11.656c-.226-2.746-1.25-10.162-1.78-12.868-.23-1.187-.915-5.46-1.52-9.497-.608-4.036-1.407-7.64-1.778-8.01-.372-.367-1.73-.246-3.02.27-1.29.517-3.502.96-4.914.984-1.482.026-2.768.596-3.042 1.35-.26.718.46 6.063 1.6 11.877 1.968 10.03 2.236 10.713 5.23 13.33 1.736 1.518 3.628 2.75 4.205 2.74.575-.01 1.553.57 2.17 1.29 1.553 1.805 3.053 1.033 2.848-1.464zM537 496.032c2.462-1.294 4.6-2.695 4.75-3.113.153-.42.828-.77 1.503-.783.674-.012 1.247-.51 1.273-1.104.026-.596.157-1.7.292-2.45.134-.754.457-3.52.717-6.146l.474-4.778-4.69-1.04c-2.58-.57-5.224-.85-5.875-.62-.755.266-1.53 3.066-2.135 7.723-.522 4.018-1.17 8.965-1.44 10.994-.272 2.028-.235 3.683.08 3.678.317-.006 2.59-1.07 5.05-2.363zm-280.012-3.01c-.06-1.31-.635-5.682-1.28-9.718-.91-5.687-1.458-7.263-2.438-7.003-2.605.692-11.74 2.148-14.865 2.37-3.79.27-4.09 1.05-1.237 3.215 2.03 1.54 2.092 1.535 3.18-.275 1.075-1.793 1.143-1.8 2.325-.24.67.883 1.23 2.285 1.245 3.117.025 1.477 10.747 10.956 12.36 10.928.45-.008.77-1.085.71-2.394zm295.796-7.2c4.466-2.585 5.838-3.977 5.957-6.04.09-1.553-.403-1.76-4.024-1.697-3.408.06-4.295.414-5.09 2.036-.837 1.712-1.114 7.596-.357 7.583.15-.002 1.732-.85 3.514-1.88zm-138.237-8.35c1.77-.18 3.577-.56 4.018-.842.44-.284 3.853-.767 7.582-1.075 13.75-1.136 17.247-1.74 33.96-5.863 5.404-1.333 7.065-2.032 20.197-8.493 8.72-4.292 13.295-4.232 23.045.302 4.133 1.922 8.057 3.496 8.718 3.497.66 0 4.127.913 7.7 2.03 3.575 1.115 7.292 2.01 8.26 1.99 1.8-.04 11.757 1.92 16.643 3.276 1.494.414 3.353.496 4.132.18.78-.313 2.487-.182 3.796.293 1.31.473 5.64.965 9.625 1.09 6.788.214 7.41.085 9.875-2.06l2.632-2.29-12.515-.32c-6.883-.176-15.642-.93-19.464-1.675-3.822-.744-9.49-1.834-12.595-2.42-8.402-1.59-13.268-2.934-15.2-4.2-.95-.624-2.648-1.118-3.773-1.098-2.08.036-15.19-6.342-15.74-7.657-.54-1.29-3.634-.707-8.423 1.585-2.582 1.236-5.56 2.264-6.616 2.286-1.057.022-2.94.593-4.182 1.27-1.243.676-5.114 2.134-8.6 3.24-3.49 1.104-7.31 2.38-8.492 2.837-1.183.456-6.417 1.92-11.63 3.256-8.552 2.19-13.703 3.25-22.863 4.708-5.91.942-36.1 1.72-48.49 1.25-8.06-.305-14.928-1.077-19.085-2.146-3.572-.918-9.034-2.06-12.137-2.537-6.525-1.004-34.603-9.54-36.557-11.113-.725-.583-3.082-1.703-5.238-2.488-3.793-1.38-6.117-3.22-6.146-4.862-.023-1.344 7.478.993 14.135 4.404.833.427 2.277.764 3.207.747.93-.016 1.92.326 2.2.76.28.436 1.773 1.035 3.32 1.333 1.548.298 3.99 1.038 5.43 1.645 4.3 1.814 10.648 3.62 14.575 4.15 2.03.273 4.083.775 4.565 1.116.825.582 2.764.966 9.99 1.977 1.672.233 5.97.92 9.55 1.524 9.297 1.57 35.794 1.805 46.76.415 4.99-.632 11.602-1.272 14.695-1.42 6.754-.328 12.125-1.266 17.024-2.973 1.998-.696 4.193-1.063 4.876-.814.683.248 1.492.03 1.798-.483.305-.514 1.623-.953 2.927-.976 1.305-.023 2.737-.393 3.182-.82 1.11-1.07 24.052-8.28 28.61-8.99 2.03-.316 3.894-.914 4.14-1.328.9-1.512 4.852-.753 13.17 2.53 10.557 4.17 13.57 5.127 22.856 7.258 11.295 2.593 19.42 4 20.202 3.496.388-.25 1.23-.034 1.87.48.64.51 6.965 1.14 14.056 1.393 18.533.664 20.803.488 22.994-1.78 1.017-1.054 1.673-2.078 1.458-2.277-.215-.2-3.79.123-7.943.715-6.232.89-9.56.85-19.05-.23-6.326-.72-13.62-1.684-16.212-2.143-2.59-.46-5.61-.917-6.71-1.018-1.098-.102-2.51-.596-3.138-1.1-.628-.502-2.3-.88-3.713-.837-2.83.084-14.262-3.05-15.59-4.274-.46-.424-1.927-.75-3.26-.728-1.333.023-2.43-.347-2.44-.823-.007-.476-.437-.858-.954-.85-.93.017-7.99-4.475-10.256-6.524-1.678-1.515-.48-2.908 2.004-2.33 2.285.53 2.216.807 2.304-9.212.026-2.958-.058-3.03-4.092-3.536-4.212-.527-9.812-3.257-10.518-5.126-1.004-2.658-1.675.97-1.737 9.39-.07 9.88.438 11.012 4.043 9 1.017-.567 2.466-.807 3.22-.533 1.164.424 1.073.823-.606 2.675-1.086 1.197-2.657 2.188-3.493 2.203-.835.015-2.092.622-2.794 1.348-.7.727-1.79 1.343-2.418 1.37-.63.028-2.688.83-4.576 1.782-1.89.953-4.04 1.757-4.783 1.786-.743.03-3.796 1.06-6.785 2.293-2.988 1.23-5.793 2.025-6.23 1.765-.44-.26-1.308-.037-1.93.497-2.096 1.803-13.81 4.852-18.373 4.782-2.49-.038-5.337.38-6.324.932-.986.55-3.807 1.182-6.268 1.403-2.46.22-6.224.628-8.362.906s-10.717.81-19.065 1.184c-8.347.373-15.548.775-16 .894-.454.12-1.803.002-2.998-.26-1.195-.262-5.88-.87-10.413-1.35-7.074-.75-15.738-2.61-22.16-4.755-.96-.32-4.484-1.407-7.835-2.415-3.352-1.007-6.878-2.166-7.838-2.575-2.128-.907-7.096-2.577-17.418-5.855-9.8-3.113-20.625-8.096-19.973-9.194.272-.455 1.14-.574 1.93-.262.792.31 2.613.864 4.048 1.228 1.435.365 3.466.908 4.513 1.208 1.842.527 1.887.378 1.355-4.51-.45-4.147-1.014-5.48-3.132-7.403-3.256-2.96-4.56-6.173-3.89-9.595.744-3.815 1.927-5.14 3.478-3.9.896.717 1.098 2.025.735 4.768-.58 4.39.237 5.686 5.072 8.048 3.67 1.793 7.008 1.452 10.195-1.04 1.512-1.183 2.094-2.672 2.358-6.03.37-4.702.914-5.28 3.04-3.228 2.434 2.35 3.633 27.096 1.35 27.894-1.338.468-2.174-2.265-2.618-8.564-.426-6.047-1.28-7.308-3.948-5.82-1.026.572-3.496.95-5.49.84l-3.624-.202-.438 4.756c-.24 2.615-.2 4.975.092 5.244.29.27 2.29.957 4.443 1.528 8.034 2.13 11.787 3.544 13.073 4.927.728.783 2.628 1.497 4.222 1.586 1.594.09 4.02.718 5.392 1.398 1.372.68 3.417 1.22 4.545 1.2 2.02-.036 2.037-.122 1.277-5.867a458.243 458.243 0 0 1-1.425-12.44l-.652-6.61-3.71-.49c-4.54-.6-7.91-3.794-8.802-8.343-.986-5.037 2-3.874 3.332 1.298.758 2.94 5.463 5.143 9.044 4.234 6.98-1.774 10.22-6.678 9.262-14.022-.357-2.74-.184-3.79.627-3.804.616-.01 1.28.436 1.477.993.596 1.69 2.4-.152 2.36-2.41-.042-2.41 1.708-2.208-19.086-2.208-7.38 0-19.85-.186-27.712-.412-18.262-.526-24.263-.316-25.434.89-3.68 3.79-2.683 11.813 1.887 15.174 4.016 2.954 6.84 2.64 9.702-1.08 3.95-5.13 6.006-3.496 3.25 2.585-1.124 2.48-1.91 3.024-5.133 3.565-2.093.352-3.843 1.083-3.888 1.625-.29 3.46.628 12.403 1.36 13.265.62.73.217 1.67-1.374 3.198-2.1 2.014-4.14 3.15-14.18 7.892-2.125 1.004-4.46 2.132-5.188 2.507-6.86 3.528-33.636 7.812-35.053 5.606-.273-.427-2.112-.667-4.085-.533-3.814.26-5.553.035-19.22-2.476-4.776-.878-9.143-1.96-9.704-2.402-.644-.51-1.2-.497-1.517.034-.567.954 6.756 6.396 10.348 7.69 7.172 2.585 29.654 3.272 38.635 1.18 2.593-.603 6.864-1.33 9.49-1.614 8.2-.888 19.72-4.88 29.206-10.12 4.042-2.234 5.753-2.786 6.458-2.084 1.277 1.272-4.047 6.116-8.564 7.792-1.828.678-4.483 1.747-5.9 2.375-4.4 1.95-8.063 3.35-8.78 3.36-.377.003-1.294.346-2.037.76-.743.416-3.22 1.012-5.504 1.327-2.283.315-5.748.985-7.7 1.49-1.95.505-6.078 1.07-9.17 1.258-3.093.187-6.01.57-6.48.854-1.31.786-12.598.323-16.02-.66-4.404-1.262-5.694-1.138-4.356.417.59.686 1.887 1.49 2.884 1.788.998.297 2.533 1.187 3.41 1.977.88.79 3.692 2.056 6.25 2.814 3.978 1.178 5.707 1.223 11.92.307 3.997-.588 8.04-1.415 8.986-1.835.945-.42 4.434-1.41 7.753-2.2 3.32-.79 9.09-2.47 12.825-3.74 3.734-1.266 7.287-2.312 7.896-2.322.61-.01 1.23-.36 1.382-.776.295-.81 11.318-4.948 16.02-6.014 1.675-.38 3.31-.264 3.994.283 1.127.902 8.356 3.458 14.462 5.114 1.675.454 4.615 1.494 6.534 2.312 5.393 2.298 14.108 4.773 21.753 6.177 3.82.702 8.79 1.646 11.042 2.097 2.25.45 4.488.567 4.97.257.483-.31 3.327-.033 6.32.614 7.614 1.648 26.423 3.753 28.22 3.16.82-.273 2.084-.104 2.807.373.81.535 3.8.604 7.795.18 3.564-.377 7.928-.833 9.697-1.012zM407 460.25c.28-.243.176-4.86-.425-18.824-.252-5.843-.277-5.9-2.438-5.374-6.242 1.517-10.16 1.643-13.815.442-2.123-.697-4.153-1.08-4.51-.85-.358.23-.864 2.263-1.124 4.518-.26 2.255-.794 5.08-1.184 6.278-.39 1.197-.847 4.978-1.015 8.402l-.308 6.226 7.4-.102c4.07-.056 7.586.08 7.815.3.412.4 9.023-.512 9.602-1.015zm-28.025.15c.276-.464.603-3.9.726-7.636s.788-9.434 1.478-12.663c1.544-7.228 1.536-9.146-.046-10.868-2.314-2.518-3.15-7.248-1.77-10 1.195-2.378 1.315-2.422 2.47-.897.67.882 1.24 2.93 1.268 4.55.098 5.638 4.157 9.71 10.798 10.836 6.757 1.145 11.83-4.028 11.693-11.92l-.062-3.645 2.96.5c1.966.335 3.068.15 3.287-.546.6-1.906 2.412.14 2.458 2.774.044 2.478 3.337 6.777 5.168 6.745 2.463-.043 7.02-2.904 6.995-4.39-.015-.906.397-1.797.917-1.98 1.638-.58 1.843-7.956.3-10.816-.93-1.72-1.112-2.882-.548-3.467 1.47-1.522-8.97-1.917-55.44-2.094-10.647-.04-10.74-.024-12.36 2.227-2.374 3.296-2.834 8.923-.955 11.684 1.488 2.188 6.13 4.6 8.76 4.555 1.58-.027 5.9-4.198 6.68-6.448.82-2.368 2.303-.926 2.36 2.294.06 3.416-2.657 6.37-6.657 7.244-1.535.335-3.103 1.245-3.483 2.022-.86 1.756-1.748 11.33-1.898 20.448-.126 7.66-1.456 9.63-2.397 3.554-.653-4.217-.406-23.51.317-24.727.24-.404-1.72-2.83-4.35-5.392l-4.787-4.66-1 2.54c-.55 1.398-1.317 2.547-1.704 2.554-.385.006-.916.732-1.178 1.613-.263.88-1.452 2.145-2.643 2.81-2.163 1.205-2.166 1.225-1.84 12.94.18 6.454.08 12.38-.225 13.17-.304.79-.086 1.715.485 2.055 2.67 1.586 21.83 5.014 32.257 5.77.806.06 1.692-.273 1.968-.737zm41.37-1.198c2.713-.387 4.96-1.147 4.99-1.688.03-.54.207-1.96.393-3.154.186-1.193.483-7.14.66-13.214l.32-11.045-3.885.068c-4.143.073-10.192-1.88-10.217-3.295-.035-2.04-1.84-.535-3.393 2.83-1.798 3.894-2.122 6.474-.868 6.924.422.15 1.33 5.134 2.018 11.074 1.51 13.044 1.486 12.954 3.462 12.538.87-.184 3.804-.65 6.52-1.038zm158.232-2.926c.43-.446.964-3.907 1.185-7.69.22-3.783.757-8.637 1.19-10.788.434-2.15.934-5.86 1.11-8.244.32-4.288.286-4.357-3.24-6.43-1.962-1.152-3.795-2.776-4.075-3.608-.28-.833-.776-1.51-1.1-1.503-1.145.02-5.247 6.08-5.22 7.707.017.907-.318 2.784-.744 4.172-.425 1.388-.947 4.67-1.16 7.292-.683 8.386-2.436 17.8-3.274 17.572-1.214-.33-.733-10.113.94-19.164.476-2.573.84-6.184.807-8.023-.056-3.214-.17-3.34-2.953-3.292-1.808.03-3.503-.597-4.51-1.674-.98-1.045-1.924-1.406-2.397-.915-.43.443-1.04 4.944-1.355 10.002-.316 5.058-.856 9.67-1.2 10.248-.344.58-.8 3.6-1.015 6.716-.32 4.653-.68 5.724-2.025 6.005-1.458.306-1.577-.023-1.09-3 .3-1.84.87-6.078 1.264-9.418.395-3.34.942-7.4 1.216-9.02.49-2.89.45-2.934-1.99-2.302-1.37.354-3.7.637-5.182.628-3.144-.018-4.518 1.36-4.37 4.38.155 3.13-.773 11.31-1.656 14.605-.7 2.605-.57 2.902 1.587 3.68 1.292.466 4.298.982 6.682 1.146 2.384.164 6.677.594 9.54.956 2.864.362 5.62.493 6.122.29.504-.2 1.872.02 3.04.493 2.45.99 12.71.383 13.873-.822zm13.44-1.556c1.15-1.19 2.386-7.212 4.934-24.017.66-4.354.587-6.012-.347-7.786-.652-1.24-1.032-2.71-.844-3.264.77-2.273-1.52-1.87-2.68.472-.69 1.392-2.617 3.207-4.283 4.034-3.914 1.942-4.41 3.082-4.964 11.424-.717 10.8-1.49 17.242-2.212 18.436-.362.602-.462 1.402-.22 1.778.767 1.195 9.254.333 10.617-1.078zm-151.898 1.555l4.044-.594.418-4.508c1.988-21.418 1.89-26.315-.515-25.344-2.013.814-7.11-2.082-8.24-4.68-.585-1.344-1.308-2.432-1.607-2.42-.3.013-1.366 1.882-2.372 4.154-1.38 3.12-1.928 6.567-2.238 14.095a6993.44 6993.44 0 0 1-.616 14.66c-.114 2.584.015 5.045.287 5.468.273.423 1.912.543 3.644.266 1.732-.277 4.97-.77 7.195-1.097zm95.28-9.24c.28-3.457.754-8.522 1.055-11.255.495-4.494.344-5.195-1.576-7.332-1.168-1.3-2.478-3.233-2.912-4.297-.944-2.32-2.915-2.47-4.433-.34-.607.852-2.103 2.21-3.323 3.02-2.102 1.39-2.24 1.966-2.595 10.923-.206 5.2-.612 10.104-.9 10.9-.315.862-.052 1.565.65 1.74.647.162 2.94.876 5.096 1.586 2.155.71 4.933 1.303 6.173 1.316 2.172.024 2.272-.204 2.763-6.26zm-73.175 3.407c3.275-1.613 3.32-1.74 4.59-12.772.33-2.894-.23-4.802-1.406-4.78-1.285.02-7.037-5.343-7.828-7.3-1.01-2.503.54-9.89 2.084-9.917 1.358-.023 1.448.38 1.357 6.09-.08 4.954 1.91 7.514 6.592 8.484 5.947 1.23 12.275-3.33 11.236-8.1-.244-1.122-.736-3.3-1.093-4.842-.638-2.755.115-3.616 1.788-2.046.46.43 2.007.89 3.438 1.022 2.18.2 2.736.742 3.427 3.345 1.57 5.905 9.885 7.15 13.99 2.095 2.91-3.582 2.9-10.538-.014-12.837-1.347-1.063-1.7-1.85-1.11-2.472 1.48-1.564 4.873-.07 6.086 2.68l1.15 2.603 1.412-2.856c.778-1.57 1.153-3.106.835-3.413-.32-.307-10.772-.445-23.23-.307s-28.018.245-34.578.237c-7.53-.01-12.26.33-12.828.917-.494.513-1.073 3.306-1.285 6.21-.373 5.094-.29 5.364 2.465 7.848 3.07 2.77 4.84 3.094 8.177 1.502 1.405-.67 2.362-2.085 2.815-4.162.81-3.71 2.917-4.21 3.433-.813.406 2.678-.9 5.762-3.14 7.41-.996.735-1.464 2.2-1.39 4.354.06 1.786-.11 4.225-.374 5.42-.265 1.195-.55 6.02-.632 10.72l-.15 8.545 5.527-.663c3.042-.365 6.936-1.357 8.655-2.203zm-226.43-8.114c-.683-13.585-.687-13.607-3.246-16.177-1.41-1.415-2.846-3.643-3.193-4.95-.875-3.305-1.524-3.443-4.18-.894l-2.31 2.218.666 11.4c.366 6.27.875 12.37 1.13 13.555.554 2.586-.752 5.168-1.986 3.923-.935-.944-1.636-5.994-2.7-19.488l-.723-9.14-3.837-2.335c-3.32-2.02-4.187-2.206-6.437-1.377-1.43.527-3.137.762-3.794.523-1.854-.676-2.057.55-1.094 6.607.49 3.087 1.136 8.53 1.435 12.096.3 3.566.962 7.955 1.473 9.752 1.215 4.277 3.506 5.156 15.184 5.83 1.914.112 4.26.637 5.215 1.17.954.53 3.387.948 5.406.927l3.672-.038-.683-13.604zm11.497 12.4c1.465.073 3.39-.417 4.275-1.09 1.502-1.138 1.533-1.71.47-8.463-.63-3.984-1.176-9.223-1.218-11.643-.042-2.42-.308-4.623-.59-4.896-.283-.273-1.708.03-3.166.674-1.698.75-3.534.934-5.102.514-1.348-.36-2.656-.31-2.908.114-.7 1.177-.498 13.6.318 19.618.71 5.234 2.01 6.848 4.432 5.498.454-.252 2.023-.4 3.488-.326zm357.154-9.094c3.988-3.245 4.948-4.55 5.32-7.235l.796-5.695c.205-1.466-.083-2.523-.733-2.683-4.108-1.01-8.915-1.928-9.098-1.738-.12.124-.577 3.512-1.014 7.528-.437 4.016-1.135 8.424-1.55 9.796-.735 2.42-.41 4.02.814 3.998.33-.006 2.788-1.793 5.464-3.97zm-86.696-3.27c1.04-15.59 1.093-15.234-2.56-16.89-1.674-.76-4.177-2.5-5.562-3.867l-2.52-2.49-2.122 3.333c-1.79 2.81-2.18 4.707-2.49 12.084-.44 10.417-.89 9.74 9.186 13.85 4.734 1.932 5.596 1.077 6.068-6.02zm-253.65 8.03l3.006-1.49-.436-10.815c-.24-5.947-.623-11.394-.85-12.105-.23-.71-1.373-1.33-2.542-1.376-1.17-.047-3.365-.936-4.88-1.975-2.397-1.645-2.913-1.726-3.98-.622-1.53 1.584-1.567 4.306-.2 14.13.595 4.277 1.125 9.85 1.178 12.387l.095 4.613 2.804-.63c1.542-.344 4.155-1.297 5.807-2.117zm209.91-4.465c6.02-2.26 6.118-2.37 6.21-6.984.045-2.283.284-4.833.53-5.666.795-2.677-.478-3.333-3.394-1.748-1.506.818-3.903 1.75-5.326 2.07-2.467.554-2.603.825-2.928 5.833-.3 4.628-.105 8.112.454 8.102.103-.002 2.107-.725 4.454-1.606zm-270.91-.02c-.357-2.97-.924-8.9-1.26-13.18-1.08-13.808-.908-13.404-5.716-13.32-3.076.053-4.575-.377-5.775-1.657-1.616-1.723-1.604-1.728 3.237-1.244 6.263.624 8.777-.1 9.985-2.878 2.256-5.19-.44-11.574-4.42-10.46-1.104.31-2.555.125-3.223-.41-.826-.66-8.213-.93-23.004-.842-11.983.072-23.434-.034-25.446-.236l-3.658-.368-.907 3.618c-1.884 7.517 1.39 12.783 7.88 12.67 3.288-.058 4.237-.513 6.57-3.15 1.5-1.697 2.96-2.858 3.248-2.58.723.698-.873 5.267-2.257 6.457-.93.8-.932 1.367-.01 3.072 1.11 2.05 5.03 5.506 6.224 5.485.332-.006 1.847 1 3.365 2.233 2.4 1.95 2.797 2.048 3.03.745.505-2.842-.757-5.244-3.32-6.315-2.635-1.102-5.405-5.465-5.46-8.6-.045-2.596 1.5-6.406 2.385-5.88.422.25.98 2.574 1.24 5.163.663 6.59 3.18 9.078 9.104 8.995 3.918-.055 4.505-.322 5.826-2.65 1.05-1.852 1.317-3.644.932-6.293-.295-2.038-.166-4.295.288-5.018 1.348-2.144 4.798 1.808 5.05 5.782.11 1.77.55 6.912.974 11.428 1.143 12.152 1.154 14.067.083 14.456-1.25.454-2.192-3.023-2.712-10.006-.48-6.45-1.223-7.55-4.062-6-1.117.608-2.61 1.388-3.32 1.732-1.866.908-2.092 8.912-.29 10.354.745.598 1.366 1.624 1.377 2.28.012.656.466 1.184 1.01 1.175.544-.01 3.154 1.767 5.8 3.95 4.645 3.83 11.52 6.815 15.814 6.866 2.024.024 2.055-.092 1.417-5.375zm77.583-3.03c3.75-1.953 4.866-2.96 4.518-4.066-.253-.81-.765-4.206-1.137-7.55-.59-5.312-1.053-6.475-3.68-9.242-1.65-1.74-3.317-3.16-3.7-3.153-.384.006-1.476.902-2.427 1.99-.95 1.088-2.65 2.657-3.775 3.487l-2.045 1.51 1.15 10.194c.63 5.608 1.2 10.3 1.263 10.426.296.593 5.332-1.248 9.835-3.595zm340.39-14.23c.422-1.312.584-4.525.36-7.14-.743-8.692-.762-10.02-.166-11.658 1.106-3.042 2.407-.524 3.168 6.132.22 1.914 2.882 3.69 5.462 3.646 3.702-.064 7.24-2.247 8.396-5.178 1.017-2.582 1.4-7.667.634-8.407-.233-.225-13.542-.42-29.574-.436l-29.15-.028-1.67 2.076c-1.804 2.244-2.302 9.77-.71 10.717.482.286.888 1.276.905 2.2.02 1.19.627 1.67 2.085 1.644 3.96-.07 7.6-1.26 8.1-2.647.28-.77 1.196-2.168 2.037-3.106.84-.938 1.52-2.216 1.51-2.84-.012-.624.37-1.142.845-1.15.476-.008.88.787.896 1.767.018.98.418 1.535.89 1.232.47-.303.842-1.306.825-2.23-.02-1.123.566-1.69 1.768-1.71 1.577-.03 1.776.425 1.63 3.72-.215 4.913 1.39 8.423 4.684 10.23 2.36 1.297 2.928 1.317 5.026.186 1.3-.702 2.76-1.795 3.244-2.43 1.195-1.57 2.21-5.943 1.93-8.316-.266-2.258 1.698-2.665 3.386-.7 1.682 1.955.734 8.766-1.574 11.31-1.762 1.942-3.593 9.37-2.557 10.37.842.812 6.87-4.927 7.62-7.255zm-73.185-2.178c1.402-1.515 2.437-3.882 2.768-6.325.577-4.263 1.813-7.394 2.615-6.62.28.27 1.007.062 1.616-.462 1.77-1.52 2.93-.137 2.994 3.572.035 1.995.516 3.57 1.148 3.752 4.21 1.217 5.687 1.103 7.423-.57 2.435-2.35 2.443-9.802.015-12.848-1.544-1.937-2.22-2.055-12.356-2.142-24.968-.217-39.36-.15-40.327.187-1.594.555-3.823 8.66-3.115 11.325.856 3.222 4.814 7.017 7.274 6.974 4.086-.07 10.015-4.757 10.608-8.384.203-1.24 1.037-1.762 3.03-1.897 3.195-.217 4.14 1.237 2.804 4.31-.74 1.703-.55 2.825.987 5.865 2.963 5.856 8.73 7.358 12.518 3.262zm-302.13-.555c3.3-1.447 3.704-2.255 4.296-8.598.215-2.303.596-4.533.847-4.956.918-1.543 3.192.3 5.098 4.134 1.656 3.328 2.516 4.077 5.665 4.928 4.23 1.142 8.334.124 9.273-2.3 1.704-4.405 1.9-6.71.884-10.448-.596-2.195-1.208-4.158-1.36-4.362-.15-.205-7.767-.313-16.923-.24-9.157.07-21.453-.055-27.326-.282-11.422-.442-12.58-.126-14 3.816-.97 2.692 2.045 9.388 4.567 10.14 2.916.87 6.287-.388 8.604-3.21 1.93-2.353 2.316-2.49 4.303-1.526 1.786.866 2.218 1.744 2.375 4.82.14 2.733.758 4.267 2.267 5.618 4.586 4.106 6.666 4.555 11.432 2.465zm328.4-17.378c1.4-2.733.995-3.538-1.762-3.49-2.95.05-2.952.055-1.54 3.016 1.248 2.617 2.137 2.745 3.302.473zm-140.41-1.353c.196-1.945-.1-2.313-1.843-2.282-2.948.05-3.355.838-1.623 3.134 1.878 2.49 3.16 2.174 3.466-.853zm216.82-8.28l.825-6.924c.575-4.827 1.146-6.514 2.212-6.532.602-.01.828 2.496.66 7.317-.218 6.21-.09 7.082.844 5.7.605-.9 1.468-2.653 1.917-3.9.45-1.245 1.384-2.274 2.077-2.286.694-.01 1.988-1.105 2.876-2.43 3.116-4.65-.788-11.397-6.56-11.338-2.897.03-9.8 5.374-9.763 7.558.01.666-.933 1.86-2.1 2.654-1.924 1.31-2.09 1.928-1.79 6.702.214 3.41.733 5.386 1.478 5.62 1.57.493 2.618-1.48 2.575-4.854-.024-1.917.378-2.82 1.263-2.835.975-.017 1.316 1.02 1.37 4.16.064 3.617.717 5.867 1.476 5.082.124-.13.41-1.79.638-3.692zm-24.686-.542c.497-1.933.5-3.735.004-4.622-1.164-2.086-.596-6.5.84-6.524 1.29-.024 1.412.61 1.695 8.696l.185 5.26 4.33.023c4.696.024 4.572.197 4.227-5.94-.55-9.77-2.177-14.955-5.093-16.223-3.55-1.543-9.752.683-13.48 4.838-1.743 1.944-1.897 2.857-1.534 9.11.324 5.576.668 6.945 1.744 6.926.993-.017 1.215-.637.854-2.395-.268-1.305-.232-3.096.08-3.98.985-2.8 3.006.534 2.49 4.108-.397 2.748.12 3.632 2.233 3.832.335.032.976-1.368 1.425-3.11zm5.21.25c-.637-1.956-.467-3.353.507-4.19 1.373-1.182 1.37-1.187 1.62 1.987.112 1.446-.255 2.386-.937 2.398-.617.01-1.153-.078-1.192-.196zm-32.866-1.808c-.057-3.27.242-4.333 1.223-4.35.96-.017 1.314.987 1.365 3.872.067 3.862 1.15 5.137 2.115 2.488.276-.758.465-3.465.42-6.016-.08-4.622 1.158-6.898 2.563-4.712.406.633.553 3.603.326 6.6l-.414 5.447 3.934-.068 3.934-.07-.47-7.367c-.26-4.052-1.085-8.766-1.835-10.477-1.364-3.108-1.37-3.11-5.7-2.52-3.532.48-4.88 1.19-7.286 3.83-2.842 3.122-2.948 3.49-2.836 9.9.064 3.663.38 6.915.704 7.227 1.432 1.383 2.024.236 1.954-3.786zm9.514-.548c-.02-1.163.32-2.344.758-2.624.965-.62 2.167 2.588 1.432 3.825-.953 1.605-2.153.946-2.19-1.2zm-86.138 3.8c.588-1.97-.308-16.565-1.138-18.545-.343-.817-1.984-2.295-3.646-3.282-2.95-1.753-3.117-1.76-6.916-.23-2.14.86-4.957 2.64-6.257 3.956-2.26 2.286-2.352 2.733-2.1 10.11.242 7.017.42 7.716 1.945 7.69 1.265-.023 1.692-.67 1.735-2.63.093-4.317.245-4.89 1.157-4.348.48.286.9 1.568.93 2.85.056 2.472 1.396 5.17 2.17 4.368.254-.263.617-3.547.806-7.297.19-3.75.548-7.03.796-7.286 1.11-1.15 2.115 2.563 2.226 8.24l.122 6.19 3.26.805c4.534 1.12 4.394 1.137 4.91-.59zm-4.955-2.966c-.198-.562-.126-2.194.16-3.628l.52-2.606 1.046 2.42c.576 1.33 1.052 2.74 1.06 3.134.02 1.19-2.398 1.78-2.786.68zm37.428-.042c-.028-1.615.338-2.944.814-2.952.475-.008.885 1.153.91 2.582.028 1.607.492 2.588 1.218 2.576.83-.015 1.293-1.832 1.582-6.19.225-3.395.62-6.388.875-6.654 1.033-1.07 1.504.794 1.556 6.164.055 5.484.137 5.687 2.797 6.956 1.507.72 3.483 1.058 4.39.753 1.49-.502 1.605-1.253 1.182-7.733-.408-6.25-.79-7.586-2.962-10.33-2.273-2.877-2.76-3.1-5.518-2.532-2.865.59-9.61 4.564-9.695 5.713-.285 3.828-.24 13.77.064 14.547.82 2.092 2.835-.008 2.785-2.9zm23.2-.866c.33-5.608 2.304-3.715 2.74 2.627.213 3.09 1.66-.865 2.018-5.514.215-2.804.618-5.332.896-5.62.745-.772 2.087 1.663 1.62 2.944-.22.605.417 1.52 1.415 2.032 1.306.67 1.83 1.78 1.868 3.957.034 1.93.54 3.203 1.397 3.515 1.85.674 2.02.337 2.05-4.088.05-8.174-1.634-13.964-4.494-15.43-3.283-1.685-6.82-.957-9.746 2.004-2.496 2.527-2.78 3.358-2.9 8.492-.17 7.182.456 10.062 1.91 8.812.583-.5 1.134-2.18 1.225-3.732zm-120.436.89c-.02-2.64.225-5.067.544-5.396.927-.96 2.228 1.68 2.294 4.66.087 3.876.906 5.467 2.798 5.434 1.433-.025 1.643-.765 1.674-5.874.02-3.214-.05-6.607-.154-7.54-.306-2.742.532-4.27 1.788-3.264.662.53 1.238 3.674 1.468 8.01.392 7.41.69 8.572 2.182 8.546.512-.01.74-1.538.535-3.61-.23-2.326.025-3.73.72-3.98.927-.333 1.685 3.212 1.29 6.03-.05.36.27.645.713.638 1.882-.033 1.75-14.903-.174-19.57-2.44-5.92-10.153-6.088-15.878-.347l-3.363 3.373.58 6.05c.32 3.328.617 7.316.66 8.863.045 1.734.51 2.804 1.213 2.79.8-.013 1.13-1.452 1.106-4.815zm24.223.532c.17-3.686.548-4.394 1.907-3.587.513.306.96 2.12.994 4.03.048 2.792.346 3.414 1.514 3.168 1.01-.212 1.467-1.234 1.498-3.336.122-8.37.335-10.394 1.095-10.408.457-.008.996 2.97 1.2 6.62.252 4.54.73 6.747 1.515 6.99.632.198 1.066-.168.966-.812-.448-2.888.01-5.995.814-5.517.48.286.887 1.216.902 2.066.03 1.725 3.16 4.87 3.736 3.755.202-.392.235-4.72.073-9.62-.262-7.93-.508-9.112-2.24-10.783-3.037-2.93-9.567-2.416-13.743 1.085l-3.202 2.684-.047 7.7c-.026 4.234.14 8.214.37 8.845.81 2.215 2.498.38 2.65-2.877zm47.612 2.348c.52-.36.954-1.914.964-3.456.038-5.737 2.43-5.787 2.915-.06.46 5.436 2.268 3.75 2.836-2.65.287-3.218.718-6.19.96-6.602.93-1.58 1.975 1.79 2.1 6.766.1 3.954.334 4.828.986 3.663 1.13-2.02 2.186-1.957 2.782.167.298 1.065 1.21 1.71 2.386 1.69 1.827-.032 1.885-.304 1.448-6.735-.63-9.24-2.536-12.84-7.173-13.54-2.87-.433-4.328-.08-8.055 1.954l-4.55 2.483-.202 4.836c-.254 6.1.276 12.19 1.058 12.16.33-.014 1.026-.32 1.545-.677zm-94.055-1.54c-.03-1.64.297-3.204.724-3.478s.558-1.273.293-2.22c-.265-.948-.096-1.73.376-1.738.948-.016 2.01 4.003 2.078 7.864.025 1.37.383 2.483.796 2.476.878-.016 1.733-5.08 1.664-9.842-.033-2.21.303-3.207 1.007-2.986.658.207 1.005 1.775.92 4.168-.165 4.792 1.284 7.492 2.112 3.932.733-3.16 2.4-2.51 3.005 1.17.3 1.817 1.033 3.04 1.918 3.193 1.787.31 1.884-3.365.348-13.178-.895-5.727-1.483-7.23-3.617-9.244-3.114-2.94-5.992-3.018-11.143-.307l-3.828 2.015.025 8.523c.014 4.905-.374 8.935-.916 9.496-1.788 1.852-1.36 2.21 3.64 3.027.36.058.63-1.234.6-2.872zm-39.178-6.583c.03-6.43 2.02-5.58 2.755 1.174.388 3.56.764 4.653 1.238 3.59 1.064-2.387 2.817-1.83 3.456 1.096.357 1.633 1 2.5 1.664 2.244.595-.23.968-.88.828-1.444s-.428-3.432-.642-6.374c-.604-8.294-2.125-12.45-5.093-13.92-3.553-1.758-5.815-1.533-9.96.994l-3.585 2.186v9.565c0 9.107.083 9.563 1.766 9.534.97-.018 1.805-.617 1.852-1.332.047-.716.176-1.692.287-2.17.11-.478.228-2.116.26-3.64.08-3.668 1.684-2.152 1.995 1.883.127 1.658.648 3.785 1.158 4.73.86 1.59.965 1.526 1.463-.893.296-1.433.547-4.684.56-7.224zm17.338 4.957c.255-4.643 1.62-4.784 2.427-.252.37 2.083 1.086 3.444 1.802 3.432.9-.016 1.16-1.58 1.074-6.46-.18-10.377 2.178-9.39 2.838 1.186.213 3.41.663 4.81 1.6 4.974.99.172 1.286-.64 1.238-3.395-.064-3.683 1.588-5.623 2.376-2.79.238.856.43-1.1.43-4.345-.004-8.696-2.183-11.733-8.375-11.674-2.863.028-4.016.577-6.27 2.983-2.707 2.893-2.757 3.1-2.656 11.084.128 10.19.016 9.617 1.805 9.245 1.1-.23 1.563-1.31 1.71-3.99zm-39.682-1.3c-.054-3.078.263-4.282 1.13-4.297 1.563-.027 2.29 1.864 2.365 6.148.057 3.252.196 3.43 2.436 3.134l2.374-.315-.27-6.85c-.32-8.137-1.812-14.224-3.856-15.722-1.81-1.327-7.86-1.357-11.147-.055-1.33.527-3.473 2.22-4.762 3.763-2.17 2.597-2.325 3.32-2.108 9.837.25 7.53 1.177 10.396 2.612 8.075.443-.718.61-2.085.37-3.037-.24-.95-.052-2.32.417-3.043.756-1.168.947-1.17 1.725-.03.48.705.903 2.55.937 4.096.043 1.917.476 2.805 1.36 2.79 1.022-.018 1.278-1.225 1.2-5.65-.053-3.093.25-5.63.676-5.638 1.198-.02 1.865 2.32 1.943 6.82.04 2.26.326 4.356.636 4.655 1.257 1.213 2.033-.638 1.962-4.68zm-65.813 4.74c.94-.618 1.052-2.555.532-9.302-.803-10.42-1.246-13.192-2.247-14.064-.425-.37-2.613-1.085-4.862-1.588-3.563-.797-4.71-.67-8.917.988-2.654 1.047-5.022 2.44-5.26 3.097-.24.657-.033 5.388.46 10.514.707 7.383 1.162 9.315 2.19 9.297.99-.016 1.218-.87.955-3.604-.603-6.262 2.973-6.066 4.11.226.375 2.084 1.06 3.272 1.875 3.258 1.015-.018 1.272-1.38 1.23-6.515-.08-9.56-.005-10.072 1.3-8.81.682.656 1.19 3.77 1.334 8.158.213 6.54.394 7.176 2.306 8.13 2.46 1.224 3.403 1.266 4.995.218zm-4.544-2.89c-.255-.633-.12-1.707.3-2.386.657-1.06.877-1.065 1.57-.027.862 1.288.405 3.535-.723 3.554-.374.008-.89-.505-1.146-1.14zm37.06.082c-.063-3.53 1.56-3.798 2.157-.357 1.09 6.274 4.48 2.75 3.743-3.89-.344-3.09-.16-4.08.754-4.095 1.246-.02 2.352 3.537 2.426 7.807.024 1.34.436 2.67.916 2.957.545.323.766-1.012.588-3.546-.408-5.797 1.588-6.174 2.448-.462.362 2.407.947 4.372 1.3 4.366 1.9-.033 1.487-14.158-.57-19.47-1.27-3.285-4.732-6.813-5.468-5.574-.3.504-1.448.932-2.552.952-2.73.047-7.535 2.24-9.215 4.2-.757.887-1.257 2.584-1.11 3.772.15 1.188.376 5.4.506 9.358.228 6.944.305 7.188 2.18 6.89 1.52-.245 1.93-.875 1.896-2.908zm-24.66.914c-.047-2.664 1.6-3 2.588-.53 1.513 3.78 2.453 1.594 1.87-4.35-.462-4.73-.333-5.633.81-5.652 1.72-.03 2.468 2.194 2.608 7.762.13 5.15 1.972 5.57 2.31.526.117-1.75.59-3.19 1.054-3.198.885-.015 1.185.628 2.124 4.57.326 1.367 1.037 2.27 1.623 2.064 1.28-.452.882-15.583-.5-19.035-2.165-5.407-10.248-6.385-14.696-1.78-2.017 2.09-2.164 2.87-2.227 11.793-.056 7.916.15 9.55 1.2 9.532.696-.012 1.253-.778 1.237-1.702zm-72.62-3.112c.275-5.264 1.924-4.575 2.02.843.045 2.663.453 4.31 1.063 4.3 1.45-.03 2.003-2.185 1.91-7.466-.117-6.748 2.35-6.188 3.05.694l.398 3.863c.064.594.505 1.074.98 1.065.477-.008.838-1.605.805-3.55-.08-4.635 1.81-4.16 2.95.74.85 3.66 1.787 4.528 2.568 2.38.24-.655.04-4.995-.44-9.642-.737-7.147-1.188-8.754-2.924-10.412-3.64-3.48-10.797-3.485-14.663-.012-1.817 1.633-1.913 2.32-1.59 11.404.233 6.53.692 9.873 1.417 10.303 1.607.955 2.232-.192 2.457-4.51zm-13.146.106c-.075-4.343 1.96-4.22 2.446.147.374 3.355 1.575 5.02 2.7 3.74.694-.792-.12-10.344-1.518-17.828-1.218-6.516-8.523-8.538-15.025-4.16-3.887 2.618-4.312 4.21-2.61 9.78.583 1.904.634 4.042.14 5.958-.504 1.96-.453 3.553.15 4.632 1.458 2.616 2.956 1.232 2.888-2.667-.034-1.966.23-3.59.587-3.608.356-.018 1.038-.04 1.514-.05.476-.007.896 1.74.933 3.88.05 2.886.404 3.89 1.366 3.873 1.03-.018 1.276-1.272 1.192-6.08-.058-3.333.242-6.066.667-6.073 1.17-.02 1.865 2.292 1.937 6.46.036 2.064.312 4.362.613 5.108.934 2.312 2.083.54 2.02-3.113zm36.354-.575c-.065-3.715.157-4.35 1.443-4.13 1.15.198 1.603 1.275 1.86 4.416.54 6.64 2.02 4.225 2.234-3.65.108-3.964.408-7.426.668-7.695.872-.903 2.597 4.437 2.844 8.8.34 6.044.438 6.487 1.414 6.47.476-.01.84-1.573.806-3.477-.044-2.5.3-3.47 1.237-3.485.714-.013 1.312.724 1.328 1.637.04 2.186.954 4.384 1.82 4.368.9-.015-.14-13.444-1.322-17.09-1.038-3.2-4.51-5.318-8.603-5.247-2.787.05-7.715 2.266-8.793 3.955-.585.916.244 16.156 1.004 18.476.878 2.68 2.13.645 2.062-3.345zm-64.12-3c.244-5.136.61-6.65 1.614-6.668 1.365-.024 1.438.2 1.745 5.38.176 2.977.29 3.11 1.377 1.622 1.63-2.232 3.04-1.11 3.104 2.463.093 5.333 1.556 3.108 1.584-2.41.04-7.607-.794-10.727-3.655-13.684-2.175-2.25-2.98-2.535-6.15-2.184-2.45.272-4.574 1.243-6.48 2.967-2.782 2.512-2.835 2.7-2.714 9.64.145 8.325.69 10.314 2.42 8.827.65-.558 1.164-1.928 1.144-3.045-.025-1.45.34-1.894 1.272-1.555.73.267 1.324 1.544 1.348 2.907.038 2.19 1.552 3.78 2.646 2.777.234-.215.57-3.382.743-7.038zm-30.69 6.79c1.017-.41 1.34-1.774 1.277-5.39-.1-5.65 1.305-5.272 2.423.65.922 4.885 2.837 5.612 2.923 1.11.036-1.826-.047-4.762-.184-6.524-.275-3.56.44-6.755 1.517-6.774 1.403-.024 2.928 5.135 2.413 8.17-.552 3.258.78 4.297 1.535 1.194.246-1.01.96-1.67 1.59-1.47 1.203.376 1.286.65 1.582 5.185.16 2.463.297 2.608 1.096 1.175.586-1.05.657-3.832.2-7.78-1.25-10.75-3.804-13.967-9.907-12.478-1.537.375-2.974.51-3.192.3-.218-.21-1.74 1.007-3.38 2.706-2.67 2.766-3.007 3.662-3.207 8.555-.19 4.636.854 11.94 1.703 11.926.14-.004.868-.253 1.616-.555zm-18.13-8.02c-.014-8.108.466-10.622 1.868-9.79.496.296.947 4.286 1.03 9.13.12 6.89.398 8.6 1.39 8.582.683-.012 1.494-.87 1.804-1.908l.562-1.886 1.56 1.996 1.562 1.996.432-2.536c.76-4.462.325-15.202-.69-17.107-1.91-3.58-4.442-4.773-9.972-4.696-8.257.113-8.544.56-8.66 13.527l-.096 10.944 4.61-.345 4.612-.345-.012-7.564zm-5.954 4.55c-.904-3.158-.8-6.658.216-7.31 1.22-.784 1.416-.504 2.13 3.027.407 2.004.214 3.58-.57 4.684-1.14 1.602-1.207 1.587-1.776-.402zm11.487-3.092c-.04-2.31 1.225-3.656 2.123-2.26.723 1.126-.22 4.34-1.277 4.358-.444.01-.824-.935-.845-2.097zM643.153 381.3c.786-1.44 2.064-2.63 2.84-2.643.776-.013 1.24-.508 1.03-1.1-.208-.592-.832-1.03-1.387-.97-.554.056-2.553.188-4.44.293-2.333.13-3.305.534-3.034 1.265 2.54 6.844 2.864 7.05 4.992 3.154zm26.933-1.85c1.892-2.696 1.572-3.087-2.682-3.272-4.498-.194-4.866.174-3.078 3.085 1.885 3.066 3.696 3.125 5.76.186zm-96.374 1.74c-.012-.73.556-1.56 1.263-1.844 2.076-.838.535-2.056-2.534-2.002-3.69.064-4.182.69-2.492 3.173 1.56 2.293 3.798 2.694 3.763.673zm21.816-1.652c1.006-.97 1.657-1.792 1.447-1.827-3.265-.545-5.144-.153-5.122 1.07.023 1.3.77 2.54 1.524 2.527.178-.003 1.147-.8 2.152-1.77zm23.764-.82l2.39-2.18-2.74.02c-4 .03-5.345.79-4.807 2.71.63 2.247 2.28 2.07 5.157-.55zm-66.908 1.07c.907-2.492.51-2.917-2.552-2.75-3.428.19-3.412.17-1.913 2.477 1.323 2.04 3.768 2.188 4.465.272zm-49.86-1.505c2.314-2.55 1.69-3.215-2.358-2.518-4.064.7-4.17.835-2.26 2.874 2.027 2.16 2.36 2.135 4.62-.357zm24.222.55c1.584-1.64 1.22-2.26-1.67-2.84-3.265-.658-3.834-.177-2.537 2.148 1.12 2.01 2.687 2.268 4.207.694zm-70.837-.75c2.442-2.693 1.93-3.287-2.7-3.143-4.52.142-4.814.474-2.793 3.15 2.065 2.732 3.008 2.73 5.493-.007zm23.392-.434l2.014-2.223-4.634.245-4.635.245 2.386 1.98c1.313 1.09 2.492 1.98 2.62 1.978.13-.003 1.14-1.004 2.25-2.226zm-69.358.15c4.07-2.412 3.392-3.81-1.493-3.083-4.986.74-4.9.675-3.67 2.882 1.213 2.174 1.792 2.196 5.162.2zm21.148-.44c1.705-1.952 1.04-2.762-2.224-2.705-2.718.048-2.85.28-1.51 2.68 1.153 2.067 1.945 2.072 3.734.025zm-70.013-.395c1.588-1.313 2.69-2.696 2.447-3.073-.644-1.003-10.728-.665-10.71.36.008.475.413.858.9.85.486-.01 1.344.95 1.907 2.13 1.29 2.706 1.898 2.676 5.457-.267zm26.403-.722l2.135-1.73-4.68.062c-4.623.062-4.66.083-3.08 1.767 1.98 2.112 2.92 2.095 5.625-.1zm274.023-4.26c.638-.257 1.387-.114 1.665.32.305.473 1.368.44 2.68-.086 1.414-.566 2.747-.578 3.808-.033 2.46 1.26 3.263 1.033 6.04-1.715 3.24-3.21 3.293-4.8.135-4.13-9.483 2.016-16.284 2.723-20.75 2.157-2.738-.348-10.24-.647-16.668-.665-30.8-.086-61.202.033-70.99.277-20.43.508-22.994.523-46.72.272-13.085-.14-24.39-.514-25.124-.833-.734-.32-2.307-.497-3.496-.392-9.524.838-33.428.762-51.084-.163-12.73-.667-21.948-.755-58.883-.56-19.76.104-42.942.112-51.515.018-26.53-.29-63.455.173-64.067.805-1.027 1.06.54 2.602 1.663 1.636.666-.573 2.312-.61 4.76-.104 2.06.425 5.558.732 7.776.68 10.28-.233 71.41-.393 77.19-.2 3.573.118 10.59.403 15.595.632 5.004.23 17.67.495 28.15.59 10.476.097 25.284.233 32.904.305 7.62.07 19.506.178 26.41.237 24.11.206 47.284.51 58.89.773 6.43.146 16.897.355 23.26.465 6.36.11 11.872.38 12.244.6.373.223 22 .213 48.06-.02 26.06-.234 47.5-.31 47.645-.17.415.404 9.14-.18 10.423-.698zM337.6 376.67c5.06-2.22 3.98-3.72-2.554-3.553-3.094.08-5.624.248-5.62.375.003.226 4.705 4.548 4.942 4.544.065 0 1.52-.616 3.23-1.367zm-141.93-2.69l2.558-2.217-6.76.114c-4.286.072-6.557.427-6.208.97.302.47 1.045.847 1.65.837.606-.01 1.63.93 2.277 2.087 1.296 2.325 1.936 2.148 6.482-1.79zm46.282-1.457c0-.505-7.662.168-8.397.737-.107.083.413.985 1.154 2.006l1.348 1.856 2.947-1.983c1.62-1.092 2.948-2.27 2.947-2.617zM264.026 375c1.437-1.645 1.36-1.708-2.718-2.19-2.31-.274-4.882-.674-5.72-.89-2.364-.608-1.758 1.402.69 2.284 1.198.432 2.185 1.185 2.194 1.672.026 1.526 4.003.898 5.554-.877zm22.62.044c2.383-1.808 1.186-2.39-4.102-1.996l-4.635.346 2.62 1.435c3.242 1.772 4.024 1.8 6.115.214zm26.714-1.06c-.647-1.01-3.856-.937-3.838.085.007.435.503.953 1.102 1.15 1.523.502 3.33-.315 2.736-1.237zm-142.332.062l2.953-2.563-3.037-.42c-10.586-1.468-14.317-.81-9.04 1.595 1.697.773 3.32 1.987 3.607 2.697.768 1.903 2.213 1.56 5.518-1.31zm44.194.845c2.707-1.51 1.886-2.374-2.263-2.385-4.23-.01-4.707.427-2.344 2.157 1.88 1.377 2.493 1.407 4.606.23zm-93.948-.596c1.613-1.275 2.927-2.662 2.92-3.08-.008-.42-1.962-.73-4.342-.69-4.5.08-4.79.408-3.71 4.18.715 2.49 1.548 2.424 5.132-.41zm23.973-1.83c3.068-1.492 2.39-2.917-1.212-2.55-3.424.347-3.78.622-3.074 2.37.65 1.607 1.293 1.634 4.287.18zm105.06-4.56c1.15-1.19-7.8-2.108-18.747-1.92-6.92.117-13.945-.208-15.816-.733-2.5-.7-3.91-.685-5.48.064-1.162.554-2.317.69-2.566.303-.793-1.235-13.623-1.64-63.72-2.013-9.76-.073-21.16-.274-25.333-.448-6.146-.255-7.58-.085-7.564.9.05 2.847 2.353 3.06 32.297 2.998 16.484-.035 30.9.272 32.038.682 1.23.443 2.63.418 3.454-.063.84-.49 2.26-.494 3.596-.012 1.215.44 7.972.76 15.016.712 7.043-.047 13.59.2 14.55.55 1.794.652 37.58-.298 38.275-1.017zm5.865.242c.29-.488-.364-.854-1.478-.827-1.608.038-1.742.207-.686.864 1.63 1.012 1.54 1.014 2.164-.038zm277.046-7.65c15.458-9.56 25.547-18.678 39.106-35.34 5.653-6.948 8.78-11.47 8.373-12.105-.274-.426-.128-.782.325-.79.84-.015 2.12-2.632 1.555-3.178-.17-.166-2.7.908-5.62 2.386-2.92 1.478-5.693 2.694-6.16 2.702a.86.86 0 0 0-.838.88c.008.476-.576.876-1.298.89-2.098.035-8.172 2.232-8.16 2.95.007.36-.837.67-1.874.687-1.854.032-5.09.983-11.044 3.24-1.655.63-6.507 1.67-10.782 2.314-4.274.644-8.937 1.35-10.362 1.57-4.526.698-6.705.735-15.895.27-4.94-.25-9.84-.764-10.887-1.142-1.048-.377-3.3-.662-5.002-.632-1.703.03-3.904-.36-4.89-.867-.99-.508-3.088-.902-4.667-.878-1.58.025-3.996-.517-5.372-1.204-1.376-.688-3.03-1.24-3.672-1.23-.644.012-2.655-.592-4.47-1.34a225.334 225.334 0 0 0-5.043-2.016c-6.082-2.285-14.67-6.486-18.956-9.274-2.75-1.788-5.996-3.61-7.214-4.05-1.218-.438-2.22-1.196-2.23-1.684-.008-.488-.455-.88-.992-.87-.537.01-2.606-1.337-4.597-2.993-5.068-4.214-5.64-4.62-6.5-4.604-.416.007-1.76-1.04-2.987-2.33-3.594-3.775-9.495-8.707-10.4-8.692-.46.008-.845-.485-.856-1.097-.01-.61-1.1-1.736-2.424-2.5-1.323-.764-3.63-2.464-5.127-3.777a127.927 127.927 0 0 0-5.71-4.66 842.73 842.73 0 0 1-8.436-6.563c-2.996-2.36-5.682-4.286-5.97-4.28-.286.004-1.978-1.113-3.76-2.484-11.875-9.136-26.042-10.685-37.948-4.15-17.407 9.558-24.158 20.963-21.232 35.87 1.402 7.14 4.615 10.742 9.508 10.656 2.32-.04 2.622-.34 2.583-2.547-.066-3.796 2.3-6.074 6.812-6.56 4.435-.48 6.744.437 12.277 4.874 4.418 3.542 5.86 5.793 7.635 11.924 1.802 6.228 2.86 19.927 1.72 22.313-.51 1.066-1.475 4.01-2.147 6.54-1.218 4.59-2.997 7.6-7.442 12.59-1.29 1.45-2.718 3.362-3.173 4.25-.456.89-3.025 2.78-5.71 4.2-2.684 1.42-5.024 3.044-5.2 3.607-.304.966 2.13 1.403 6.317 1.136 8.485-.542 52.142-.806 70.987-.43 36.28.726 42.06.884 51.54 1.405 5.482.303 18.912.47 29.845.375 10.933-.096 19.973-.082 20.09.03.117.113 2.47.248 5.232.3 4.52.087 5.63-.28 11.14-3.69zm-201.07.68c5.342-2.343 8.148-5.152 15.393-15.404 7.05-9.976 8.41-14.224 8.218-25.684-.167-9.95-1.68-16.854-3.69-16.82-.644.013-1.436-.964-1.76-2.17-.326-1.204-1.266-2.416-2.09-2.692-.824-.276-2.09-.973-2.815-1.55-.725-.575-2.588-1.294-4.14-1.595-2.193-.426-2.942-.227-3.348.887-.287.79-.073 1.868.476 2.398 1.882 1.816 1.346 9.865-.903 13.57-2.648 4.36-5.712 5.896-11.526 5.773-6.696-.14-7.95-.574-13.908-4.8-4.12-2.923-5.985-5.002-8.108-9.032-5.05-9.58-5.965-26.04-1.903-34.173.704-1.407 1.27-3.214 1.26-4.016-.038-2.685 17.798-24.394 20.073-24.433.6-.01 1.494-.81 1.99-1.78 1.248-2.432 6.21-5.532 12.842-8.024 3.074-1.155 6.105-2.51 6.735-3.012 1.31-1.042 17.625-1.47 20.907-.55 1.196.335 3.8.92 5.784 1.3 1.986.378 6.345 2.022 9.69 3.653 3.343 1.633 6.485 2.96 6.982 2.95.497-.007 2.9 1.51 5.343 3.37 2.443 1.863 4.677 3.383 4.966 3.378.646-.012 5.67 4.784 5.682 5.422.004.253.9 1.4 1.992 2.547 1.092 1.148 2.422 2.603 2.958 3.234.535.633 2.485 2.292 4.334 3.688 1.85 1.396 4.51 3.59 5.91 4.875 1.4 1.285 2.732 2.333 2.96 2.33.226-.005 1.677 1.137 3.223 2.536 1.546 1.4 3.175 2.54 3.62 2.533.446-.005 2.685 1.516 4.977 3.38 2.29 1.865 4.595 3.384 5.12 3.374.524-.01 1.172.526 1.44 1.188.267.662 2.92 2.618 5.893 4.347 2.973 1.728 5.803 3.586 6.29 4.128.485.542 2.65 1.815 4.81 2.83 2.16 1.015 4.52 2.177 5.24 2.582 7.094 3.98 21.545 9.663 27.897 10.968 1.672.344 4.996 1.025 7.385 1.513 15.185 3.107 46.81 2.58 62.752-1.046 4.847-1.102 15.195-5.51 22.774-9.702 1.415-.782 6.717-3.683 11.783-6.447 5.067-2.763 9.08-5.41 8.92-5.885-.162-.473-1.992-.907-4.068-.963-3.99-.11-11.683-1.602-13.883-2.694-.722-.358-2.876-1.008-4.788-1.444-1.913-.437-6.22-1.71-9.573-2.83-3.354-1.12-9.034-2.855-12.623-3.858-3.588-1.002-7.507-2.292-8.707-2.866-1.2-.574-5.324-2.438-9.163-4.142-3.84-1.704-7.663-3.438-8.497-3.852-.835-.415-2.463-.738-3.62-.718-1.157.02-2.24-.267-2.404-.64-.428-.96-8.266-5.234-9.56-5.21-1.17.02-10.65-5.893-11.143-6.95-.165-.354-.838-.634-1.496-.623-.657.012-2.494-1.043-4.08-2.344-1.588-1.3-3.87-3.01-5.076-3.8-8.396-5.51-11.532-7.746-15.896-11.338-6.694-5.51-20.05-17.636-36.072-32.75-7.31-6.896-13.753-12.53-14.317-12.52-.564.01-2.583-1.08-4.486-2.42-4.495-3.17-25.4-13.4-28.553-13.973-.36-.066-.75-.196-.87-.29-.122-.094-.807-.28-1.523-.412-.717-.132-3.407-.828-5.978-1.546-2.572-.718-4.943-1.133-5.27-.923-.326.208-2.165-.13-4.085-.755-3.97-1.29-38.14-1.456-40.105-.194-.633.408-2.068.857-3.187 1-1.12.143-6.858 1.936-12.752 3.985-5.893 2.05-11.38 3.737-12.194 3.75-.813.015-2.084.583-2.824 1.263-.74.68-3.86 2.334-6.93 3.675-7.71 3.367-19.18 9.833-25.175 14.193-2.757 2.005-5.987 4.314-7.177 5.13-1.19.82-2.396 1.83-2.677 2.25-.283.42-2.818 2.606-5.636 4.86-11.06 8.846-23.43 21.672-23.386 24.246.01.487 1.716 1.11 3.794 1.385 3.02.4 4.91 1.51 9.404 5.533 3.094 2.768 5.87 5.04 6.17 5.053.3.01 2.257 2.23 4.35 4.93 2.094 2.703 4.865 6.258 6.16 7.902 1.292 1.644 3.083 4.822 3.978 7.06.896 2.24 2.17 4.507 2.83 5.036.663.53 1.222 2.007 1.244 3.282.022 1.274.42 2.685.887 3.134.465.45 1.08 2.173 1.367 3.83a539.69 539.69 0 0 0 1.508 8.11c.7 3.616.72 5.38.068 6.054-1.137 1.177-1.962.028-3.538-4.926-2.335-7.34-8.394-20.41-10.96-23.64-.89-1.12-1.628-2.593-1.64-3.27-.028-1.615-9.966-15.596-11.103-15.62-.48-.012-1.34-.736-1.907-1.61-2.288-3.526-14.277-8.424-14.23-5.815.007.496.805 1.872 1.77 3.057 7.99 9.8 7.734 57.705-.41 77.007-2.208 5.233-3.14 6.472-5.81 7.733-1.75.826-3.745 1.39-4.435 1.25-.833-.165-1.146.33-.932 1.477.41 2.2 5.965 10.326 9.445 13.817 1.47 1.476 3.27 3.41 4 4.3.728.892 3.494 3.317 6.145 5.392 2.65 2.074 5.22 4.202 5.71 4.73 1.764 1.895 14.747 8.9 18.688 10.08 3.014.903 10.576 1.21 30.003 1.225 14.285.01 26.14.17 26.34.354.755.692 3.428.242 6.454-1.085zM538.26 318.5c1.035-.262 3.61-.867 5.726-1.344 2.114-.478 5.99-1.646 8.612-2.595 2.623-.95 7.675-2.63 11.227-3.732 10.585-3.29 12.384-3.99 14.552-5.666 1.137-.88 3.66-2.03 5.603-2.556 1.945-.526 6.724-3.325 10.62-6.22 3.9-2.897 7.39-5.27 7.763-5.278 1.036-.018 3.825-3.474 3.25-4.028-.583-.564-3.942 1.174-5.616 2.908-.628.65-1.633 1.19-2.234 1.2-.602.01-3.29 1.617-5.975 3.568-2.685 1.952-5.053 3.552-5.262 3.555-.208.005-3.982 1.815-8.386 4.025-4.404 2.21-9.725 4.66-11.824 5.45-5.866 2.2-16.878 4.125-24.547 4.292-3.81.082-7.367.444-7.907.803-.86.57-16.626.22-25.5-.567-4.88-.433-13.222-2.083-14.944-2.957-.86-.436-1.895-.58-2.298-.323-.402.26-1.854-.09-3.225-.774-1.37-.686-2.984-1.24-3.586-1.233-.6.008-1.775-.307-2.61-.698-.832-.393-2.888-1.277-4.567-1.966-10.384-4.264-29.69-14.484-29.71-15.73-.007-.376-1.387-1.307-3.067-2.07-1.68-.76-3.06-1.755-3.07-2.208-.007-.454-.53-.816-1.16-.805-.632.012-2.048-.904-3.148-2.034s-3.734-3.11-5.855-4.4c-2.12-1.29-3.864-2.824-3.875-3.41-.01-.588-.782-1.296-1.715-1.575-.932-.277-2.86-1.536-4.283-2.796-1.424-1.26-4.443-3.817-6.71-5.682-4.946-4.068-11.04-9.794-15.9-14.936-1.962-2.075-4.34-4.348-5.284-5.05-3.146-2.344-16.498-8.23-20.904-9.216-2.39-.535-4.823-1.332-5.405-1.77-.582-.44-4.875-.868-9.54-.954-11.227-.207-17.363 1.806-25.833 8.475-6.523 5.137-16.88 16.08-18.333 19.374-.476 1.08-1.357 1.972-1.956 1.982-.6.01-1.343 1.29-1.65 2.843-.31 1.552-1.258 4.393-2.11 6.312-2.906 6.542-3.353 13.23-1.63 24.37.303 1.955 1.12 4.278 1.814 5.164.695.885 1.286 2.198 1.314 2.916.13 3.35 7.872 8.576 14.255 9.62 6.23 1.018 12.736-2.52 12.66-6.886-.02-1.19-.456-1.453-1.707-1.032-4.89 1.646-14.258-4.258-18.027-11.36-2.385-4.494-2.98-14.58-1.158-19.613 2.014-5.562 6.076-11.606 8.437-12.55 1.077-.432 2.09-1.14 2.252-1.574.31-.835 8.912-7.276 9.736-7.29.266-.005 2.513-1.357 4.993-3.005 4.67-3.102 13.84-6.083 18.26-5.933 3.75.127 8.966 1.84 15.113 4.965 8.072 4.103 8.695 4.475 11.27 6.727 1.3 1.135 4.056 3.103 6.125 4.37 2.07 1.27 3.984 2.854 4.254 3.52.27.668 2.127 2.136 4.127 3.26 2 1.127 5.106 3.33 6.9 4.895 4.86 4.24 5.823 4.966 6.577 4.963.377 0 2.07 1.373 3.762 3.054 1.69 1.68 7.602 6.346 13.136 10.367 5.534 4.02 10.773 7.882 11.642 8.58 3.5 2.817 17.59 10.205 25.576 13.412 6.738 2.706 18.812 5.816 26.424 6.806 4.956.644 9.255 1.42 9.554 1.726.59.603 31.903-.904 34.978-1.683zm-308.663-4.35c1.455-1.406 2.632-3.315 2.615-4.24-.016-.927.504-2.825 1.155-4.22 2.145-4.588 3.214-18.436 2.838-36.76-.63-30.675-2.91-36.976-13.133-36.27-2.315.16-3.67.98-5.77 3.493-3.384 4.05-3.404 4.87-.168 7.09 2.385 1.637 4.023 4.773 5.03 9.63.23 1.105.96 4.42 1.625 7.368 1.15 5.11 1.117 8.33-.234 22.52-.237 2.49-1.534 8.116-2.883 12.5-1.85 6.02-3.12 8.576-5.173 10.434l-2.722 2.46 3.75 3.516c6.124 5.738 9.115 6.306 13.07 2.48zm-19.035-10.36c4.136-3.573 7.25-13.165 7.703-23.726.062-1.43.356-4.746.654-7.37.297-2.625.05-8.074-.55-12.112-1.52-10.24-1.523-10.258-2.198-10.91-.333-.322-.616-1.215-.63-1.985-.026-1.47-4.228-4.297-6.334-4.26-.677.01-2.134 1.017-3.24 2.236l-2.008 2.214 1.926 3.795c1.06 2.087 2.212 5.69 2.56 8.01.693 4.6-.627 16.58-1.98 17.98-1.317 1.364-2.595-1.26-1.58-3.24.892-1.74.936-5.97.136-13.174-.51-4.59-3.427-8.165-6.616-8.11-5.422.095-14.488 9.567-15.8 16.51-.652 3.445.62 3.674 2.192.395 1.637-3.418 4.243-5.444 7.092-5.516 2.453-.062 6.91 2.576 6.625 3.92-.083.39.705 1.084 1.75 1.542 2.538 1.11 3.016 3.324 2.732 12.667-.195 6.436-.54 8.14-1.89 9.312-3.473 3.017-3.902 4.097-2.678 6.742 2.323 5.022 8.975 7.807 12.132 5.08zm-14.39-12.143c2.914-1.982 3.813-5.29 3.243-11.925-.583-6.783-2.202-9.233-5.626-8.517-2.44.51-3.987 3.623-3.513 7.066.48 3.487 2.48 3.294 2.42-.234-.062-3.446 1.12-4.69 3.01-3.174 2.147 1.718 1.693 6.81-.82 9.224-3.57 3.425-7.93 1.314-9.87-4.78-.606-1.9-1.468-3.218-1.916-2.93-2.1 1.35.218 10.246 3.93 15.09 1.72 2.24 2.443 2.572 4.588 2.104 1.4-.306 3.45-1.17 4.555-1.923z" fill="#FFF"/>
    </g>
</svg>
