<svg width="790" height="790" viewBox="0 0 790 790" xmlns="http://www.w3.org/2000/svg">
    <title>
        grass
    </title>
    <g fill="none" fill-rule="evenodd">
        <circle fill="#7B0303" cx="395" cy="395" r="395"/>
        <circle stroke="#FFF" stroke-width="23" cx="394.5" cy="394.5" r="355.5"/>
        <path d="M469.975 623.61c-.215-.21-8.715-.357-18.89-.33-10.172.027-22.02-.108-26.327-.3-4.307-.193-12.524-.227-18.26-.077-5.736.15-19.818.357-31.293.46-11.476.102-33.97.308-49.987.46-40.793.382-38.862.43-39.44-1-.533-1.32-2.356-1.24 50.686-2.227 9.8-.183 26.947-.383 38.104-.446 11.157-.062 20.474-.43 20.704-.818.23-.387 1.662-.533 3.183-.324 1.52.21 11.57.44 22.33.513 10.76.074 24.068.3 29.57.506 10.325.384 12.64.376 29.56-.11 5.498-.158 11.267.057 12.822.477 2.495.674 3.028.5 4.54-1.493.947-1.25 1.688-3.565 1.66-5.19l-.052-2.935-8.907.287c-8.68.28-30.473.174-70.216-.34-10.762-.14-21.33-.317-23.483-.396-2.154-.08-12.52.037-23.037.26-10.517.22-20.785.383-22.818.36l-5.435-.064c-.957-.012-2.424-.026-3.26-.032-.838-.006-8.025.17-15.973.39-9.345.26-14.655.08-15.03-.506-1.37-2.132 3.494-2.69 26.87-3.077 13.357-.22 29.564-.514 36.018-.65 12.325-.262 33.002-.148 51.304.282 5.98.14 15.957.15 22.17.022 14.52-.3 13.606-.296 27.658-.09 10.373.152 12.08-.013 12.513-1.206.327-.897-.594-2.353-2.62-4.147l-3.126-2.766-8.58.56c-9.403.614-47.97 1.154-54.22.76-2.156-.136-8.03-.406-13.054-.6-5.024-.195-12.857-.628-17.406-.962-7.295-.536-26.882-.05-42.152 1.048-2.865.206-11.87-.045-20.007-.558-25.075-1.58-27.375-1.533-31.29.646-6.41 3.564-9.894 6.004-9.88 6.913.01.498.71 1.444 1.56 2.103 1.356 1.053.833 1.174-4.33 1-4.192-.142-5.867.104-5.854.857.043 2.402 3.622 8.828 5.866 10.53l2.41 1.83-2.59.045c-1.424.024-3.234-.642-4.02-1.48-2.07-2.208-5.964-10.954-5.302-11.906.808-1.16 7.82-4.848 9.268-4.873.672-.012 1.216-.34 1.21-.73-.007-.39 1.49-1.59 3.325-2.663 1.835-1.075 4.257-3.243 5.382-4.82 3.077-4.313 7.167-12.895 8.252-17.32 2.708-11.035 9.814-21.748 16.888-25.458 2.637-1.383 14.01-5.136 24.253-8.003 5.44-1.523 4.263-3.275-5.082-7.558-17.418-7.983-40.906-19.76-43.215-21.668-.956-.79-3.23-2.165-5.054-3.056-1.822-.89-4.073-2.43-5.002-3.42-.928-.992-2.034-1.797-2.457-1.79-.712.013-5.852-3.192-6.86-4.277-1.127-1.214-12.95-8.42-13.793-8.404-.52.008-1.184-.567-1.47-1.28-.29-.712-1.063-1.285-1.72-1.274-.66.012-1.92-.75-2.8-1.69-.883-.94-1.96-1.705-2.397-1.697-.436.007-2.09-.943-3.68-2.11-1.587-1.168-3.103-2.12-3.37-2.115-.864.015-18.05-11.625-20.02-13.56-.245-.24-2.224-1.575-4.4-2.97-2.177-1.393-4.156-2.727-4.4-2.963-.243-.236-2.624-2.15-5.29-4.25-8.595-6.776-18.224-15.83-28.376-26.683-1.65-1.766-3.338-3.203-3.75-3.196-.413.007-1.86-.848-3.215-1.9a246.825 246.825 0 0 0-5.396-4.036c-1.612-1.168-5.922-4.957-9.58-8.42-3.656-3.465-7.828-6.677-9.27-7.138-3.792-1.214-4.532-1.95-7.704-7.658-1.57-2.827-3.984-6.306-5.363-7.73-2.276-2.355-2.862-2.538-6.36-1.997-3.766.584-3.91.515-6.444-3.033-1.425-1.996-3.798-5.956-5.273-8.8a1982.388 1982.388 0 0 0-5.87-11.2c-6.55-12.39-8.313-16.882-6.976-17.76.674-.443 2.5-.594 4.062-.336 1.82.3 3.53-.005 4.767-.852 1.062-.726 6.334-6.783 11.717-13.46 7.697-9.548 39.413-43.727 40.594-43.747.142-.003 2.304-2.006 4.805-4.452 6.946-6.795 19.055-17.32 22.032-19.148 1.464-.9 2.656-1.917 2.65-2.26-.006-.346 2.978-3.126 6.63-6.18 3.654-3.053 8.375-7.172 10.492-9.153 2.117-1.98 4.816-4.268 5.998-5.083l2.148-1.48-3.065-1.2c-1.917-.75-5.233-1.064-8.86-.84-4.438.277-6.068.047-6.952-.98-2.507-2.917 39.97-.437 48.87 2.852.723.267 3.08.777 5.237 1.135 6.294 1.043 22.66 5.12 32.81 8.177 2.918.88 5.834 1.588 6.48 1.577.646-.01 1.8.484 2.566 1.1.766.616 6.507 2.704 12.757 4.64 6.25 1.936 15.704 5.52 21.007 7.962 28.72 13.228 34.666 16.176 40.04 19.848 1.286.877 2.598 1.59 2.916 1.585.318-.005 2.304 1.134 4.414 2.532 2.11 1.397 4.254 2.534 4.765 2.525.512-.01.95.277.977.635.025.358 2.202 1.983 4.838 3.61 2.635 1.628 4.8 3.254 4.81 3.612.04 1.467 3.672.405 9.227-2.7 3.24-1.81 6.175-3.72 6.522-4.244.35-.53-.25-1.65-1.35-2.528a1411.69 1411.69 0 0 1-5.818-4.68 2732.64 2732.64 0 0 0-6.614-5.33c-1.526-1.224-4.354-3.048-6.285-4.055-1.93-1.006-6.08-3.326-9.22-5.156-3.14-1.83-6.184-3.325-6.765-3.325-.58 0-4.917-1.85-9.636-4.116-9.103-4.368-21.524-9.268-23.41-9.235-.622.01-1.63-.558-2.236-1.265-.608-.706-1.995-1.27-3.083-1.25-1.088.02-3.697-.91-5.8-2.062-2.1-1.153-4.35-2.092-4.997-2.086-.648.005-3.142-.934-5.542-2.088-2.4-1.155-5.017-2.1-5.815-2.1-.798-.002-2.22-.564-3.16-1.25s-2.65-1.23-3.8-1.21c-1.15.02-3.138-.484-4.418-1.12-3.795-1.887-11.477-4.465-18.94-6.357-11.276-2.86-14.348-4.073-13.84-5.47.5-1.376-.023-1.466 12.915 2.218 11.91 3.392 31.898 10.09 35.92 12.035.93.45 4.445 1.675 7.81 2.72 3.367 1.046 8.55 2.968 11.52 4.272 2.97 1.304 5.667 2.367 5.996 2.36.328-.005 1.84.503 3.357 1.13 1.518.627 5.712 2.176 9.32 3.442 6.43 2.256 21.925 8.872 24.53 10.472.724.446 3.425 1.814 6.002 3.04 2.577 1.225 4.895 2.748 5.152 3.384.256.635.933 1.147 1.503 1.137 1.494-.026 11.942 7.455 12.564 8.996.29.712 2.59 2.567 5.114 4.12 5.33 3.28 7.355 3.166 11.75-.656l2.997-2.608-2.203-1.758c-1.213-.966-3.736-3.142-5.607-4.833-1.87-1.692-4.843-3.804-6.603-4.694-1.76-.89-3.995-2.297-4.966-3.13-2.237-1.917-13.543-8.47-14.582-8.452-.43.008-.787-.377-.795-.855-.01-.48-.395-.863-.858-.855-.464.008-4.115-1.832-8.114-4.09-6.302-3.556-20.283-10.254-31.81-15.24-1.928-.833-7.843-3.5-13.146-5.926-5.303-2.427-9.926-4.335-10.273-4.24-1.222.33-10.143-3.21-11.207-4.45-1.347-1.566-1.55-1.576 6.197.305 10.438 2.535 15.94 4.23 17.806 5.49.96.65 2.24 1.17 2.844 1.16.603-.01 3.568 1.134 6.59 2.542 3.02 1.408 8.447 3.727 12.06 5.153 3.61 1.426 7.943 3.48 9.627 4.565 1.684 1.086 3.59 1.964 4.234 1.953.646-.01 3.218 1.27 5.718 2.848 2.5 1.577 8.887 5.045 14.194 7.708 5.306 2.663 10.77 5.74 12.14 6.84 1.372 1.1 2.758 1.996 3.08 1.99.324-.006 2.574 1.72 5 3.837 2.427 2.116 5.008 4.284 5.734 4.818.727.535 3.2 2.71 5.494 4.836 3.71 3.435 4.39 3.752 6.136 2.854 1.08-.555 2.84-1.27 3.91-1.59 3.863-1.156 2.756-2.873-8.713-13.513-1.702-1.578-5.37-4.32-8.15-6.09-2.78-1.772-5.06-3.548-5.068-3.948-.007-.4-.897-.983-1.98-1.296-1.08-.313-2.56-1.094-3.29-1.736-3.986-3.51-23.48-15.57-25.123-15.54-.3.005-2.304-1.134-4.454-2.53-2.15-1.4-4.322-2.534-4.827-2.526-.504.01-2.096-.94-3.537-2.112-1.44-1.17-3.275-2.118-4.075-2.107-.8.012-3.036-.915-4.97-2.06-1.93-1.144-4.04-2.083-4.683-2.087-.643-.004-2.245-.744-3.56-1.646-1.314-.902-3.486-1.895-4.828-2.206-1.34-.312-4.182-1.456-6.313-2.542-3.85-1.96-14.602-5.763-18.617-6.58-1.154-.237-2.8-.79-3.66-1.23-.858-.44-2.378-.787-3.376-.77-.998.018-6.425-1.228-12.06-2.77-5.635-1.54-13.187-3.216-16.783-3.725-3.595-.508-8.304-1.282-10.463-1.72-2.16-.438-8.398-.966-13.863-1.173-6.117-.233-10.066-.75-10.274-1.348-.187-.534.497-1.205 1.52-1.492 3.24-.908 25.29.552 33.455 2.215 16.215 3.303 33.444 7.573 36.143 8.957.956.49 2.493.878 3.417.862 1.59-.03 9.326 2.548 12.625 4.205.838.42 1.914.757 2.392.75.477-.01 5.398 2.057 10.934 4.59 5.538 2.534 10.335 4.602 10.66 4.596.736-.012 9.183 3.642 13.91 6.018 1.93.97 5.087 2.503 7.016 3.408 1.928.905 4.3 2.332 5.272 3.172.97.84 4.134 2.735 7.03 4.213 2.894 1.478 6.057 3.36 7.028 4.18.97.822 2.356 1.754 3.08 2.07.722.317 2.104 1.05 3.07 1.63 11.114 6.662 17.363 11.606 27.804 21.995l6.667 6.634 3.212-1.05c4.74-1.545 4.806-1.39-5.96-13.973-5.16-6.03-13.163-12.292-20.242-15.84-2.29-1.15-4.17-2.374-4.177-2.724-.005-.35-1.687-1.453-3.737-2.453-2.05-1-4.916-2.66-6.368-3.69-1.453-1.03-3.233-2.125-3.955-2.432-.723-.306-2.895-1.46-4.827-2.563-1.932-1.103-12.983-6.54-24.557-12.08-19.304-9.243-32.834-14.71-47.723-19.29-3.125-.96-6.47-2.068-7.433-2.463-7.308-2.99-29.71-8.847-36.25-9.476-4.67-.45-8.726-1.855-8.747-3.032-.02-1.086 6.12-.6 15.802 1.255l7.546 1.444 4.156-3.578c2.285-1.968 5.767-4.626 7.737-5.906 1.97-1.28 3.826-2.74 4.125-3.242.703-1.184 3.043-1.23 3.064-.06.02 1.104-3.675 4.71-8.95 8.736-4.854 3.704-4.72 5.41.538 6.93 2.157.622 4.527 1.41 5.266 1.753.74.342 2.512.856 3.94 1.144 2.33.47 3.406-.207 10.478-6.592 4.335-3.914 8.404-7.126 9.04-7.137.64-.01 1.526-.373 1.973-.805.447-.432 1.688-1.067 2.758-1.41 1.44-.464 1.95-.272 1.97.736.012.75-.37 1.37-.852 1.38-1.392.023-17.883 13.675-17.932 14.842-.023.58 1.536 1.45 3.467 1.934 1.93.484 5.29 1.607 7.467 2.495l3.96 1.617 7.184-5.978c10.697-8.9 12.577-10.367 14.097-10.997.762-.315 2.116-1.415 3.01-2.443.892-1.03 2.064-1.878 2.603-1.887.837-.015 9.357-4.58 13.405-7.185 2.496-1.606 13.674-6.33 15.034-6.354.756-.013 1.38.32 1.388.74.015.815-8.56 7.21-9.693 7.23-1.147.02-16.29 8.07-21.284 11.314-2.6 1.69-5.752 4.063-7.003 5.275-1.25 1.212-2.7 2.21-3.222 2.22-.52.01-.94.366-.934.792.007.426-.94 1.032-2.102 1.345-1.163.314-3.387 1.787-4.942 3.273l-2.828 2.703 2.476 2.08c1.362 1.146 3.213 2.07 4.115 2.054.9-.016 1.868.33 2.15.768.28.44 1.84 1.21 3.466 1.716 3.272 1.016 4.82.21 13.21-6.88 2.244-1.897 5.626-4.532 7.515-5.856 1.89-1.325 4.594-3.406 6.007-4.626 4.025-3.473 5.04-4.155 11.817-7.943 1.776-.994 3.223-2.125 3.216-2.514-.006-.39.614-.72 1.378-.732 1.234-.022 4.27-1.74 14.982-8.48 4.536-2.855 17.465-9.146 21.337-10.383 1.308-.417 3.06-1.05 3.89-1.404 1.066-.455 1.517-.234 1.534.752.014.77-.427 1.405-.98 1.415-.552.01-2.277 1.024-3.833 2.254-1.555 1.23-4.496 2.99-6.534 3.908-2.04.92-7.3 3.94-11.692 6.71-4.39 2.773-8.594 5.052-9.34 5.065-.746.013-2.383.76-3.636 1.66-1.254.902-2.862 1.91-3.573 2.242-1.356.632-16.262 10.627-26.326 17.653-6.82 4.762-10.15 8.203-9.483 9.8.414.99 3.714 2.88 7.674 4.4.722.276 2.562 1.233 4.088 2.124 2.738 1.6 2.795 1.598 4.264-.083.818-.937 1.855-1.71 2.305-1.717.45-.008 3.965-2.53 7.81-5.605 3.847-3.074 9.318-6.96 12.158-8.632 2.84-1.673 5.37-3.352 5.62-3.73.25-.38 2.38-1.743 4.73-3.03 2.35-1.288 5.696-3.51 7.436-4.94 1.74-1.43 3.696-2.61 4.345-2.622.65-.01 1.546-.38 1.992-.82 1.196-1.178 12.436-7.256 13.453-7.273.48-.01 3.627-1.433 6.994-3.166 3.366-1.73 6.64-3.158 7.27-3.17.634-.01 1.825-.39 2.647-.84 3.143-1.73 7.84-3.69 8.884-3.707.6-.01 3.514-1.43 6.477-3.157 2.963-1.725 5.85-3.145 6.418-3.155.567-.01 2.254-.588 3.75-1.285 3.106-1.45 10.883-4.186 11.95-4.205.393-.007.72.477.73 1.074.008.598-1.83 1.822-4.083 2.72-2.254.9-6.037 2.62-8.407 3.822-2.37 1.203-5.858 2.83-7.75 3.614-1.893.785-4.284 2.246-5.314 3.248-1.028 1-2.213 1.618-2.63 1.37-.418-.25-2.103.174-3.744.938-1.64.764-3.954 1.79-5.14 2.282-1.188.492-3.257 1.463-4.6 2.16-1.34.696-3.14 1.28-4 1.294-2.067.036-7.816 2.58-7.8 3.454.006.377-2.03 1.454-4.524 2.393-2.494.938-5.885 2.81-7.535 4.156-1.65 1.347-4.75 3.16-6.886 4.027-2.136.868-5.297 2.716-7.024 4.107-1.726 1.39-4.506 3.128-6.177 3.86-1.67.733-3.28 1.74-3.576 2.237-.295.498-1.773 1.46-3.282 2.14-1.51.68-4.076 2.49-5.702 4.02-1.626 1.532-5.2 4.282-7.945 6.112-2.89 1.926-4.88 3.86-4.734 4.593.14.697 3.165 2.747 6.72 4.556 6.377 3.242 6.508 3.267 9.375 1.838 1.6-.797 2.9-1.766 2.895-2.152-.012-.678 1.67-1.795 18.48-12.27 4.257-2.654 8.212-5.247 8.788-5.764.576-.517 1.93-1.353 3.01-1.86 1.08-.505 4.675-2.522 7.988-4.482 7.653-4.527 27.24-14.464 34.016-17.257 5.496-2.266 18.848-7.343 21.19-8.057 14.165-4.324 18.21-5.254 18.82-4.33 1.084 1.634.8 2.29-1.006 2.323-.942.015-3.852 1.052-6.466 2.304-2.615 1.25-6.028 2.517-7.585 2.81-1.557.296-3.608.883-4.557 1.306-.95.422-3.205 1.25-5.014 1.84-1.81.587-5.885 2.47-9.057 4.185-3.172 1.713-7.508 3.754-9.636 4.534-7.058 2.588-20.678 9.387-31.91 15.93a717.13 717.13 0 0 1-8.18 4.67c-2.367 1.33-4.496 2.663-4.73 2.963-.233.3-2.17 1.465-4.302 2.587-5.692 2.996-11.43 6.493-12.972 7.906-.743.68-1.74 1.246-2.218 1.254-1.132.02-4.58 3.833-4.56 5.042.02 1.107 11.395 8.755 12.977 8.725.598-.012 1.077-.582 1.065-1.267-.028-1.615 6.98-7.57 8.95-7.605.832-.015 1.685-.732 1.894-1.594.21-.86 2.195-2.714 4.412-4.115 6.113-3.865 20.108-11.27 21.338-11.293.6-.01 1.213-.314 1.367-.676.154-.36 2.994-2.03 6.312-3.708a4824.84 4824.84 0 0 0 9.05-4.587c1.658-.844 9.23-4.1 16.828-7.235 7.597-3.135 15.63-6.465 17.854-7.402 2.222-.936 6.697-2.354 9.944-3.15 3.246-.797 6.583-1.665 7.415-1.93 1.056-.333 1.515 0 1.52 1.102.003 1.456-5.106 4.713-7.46 4.754-2.11.036-16.788 5.557-21.987 8.27-.784.408-4.86 2.15-9.062 3.872-4.2 1.72-9.964 4.34-12.807 5.82-2.844 1.478-7.306 3.63-9.916 4.78-2.61 1.15-8.04 3.875-12.066 6.055-4.027 2.18-9.647 5.207-12.49 6.726-2.843 1.52-6.904 4.197-9.025 5.95-2.123 1.755-5.306 4.185-7.074 5.403-1.77 1.217-3.21 2.695-3.204 3.283.007.587 1.54 1.813 3.404 2.723 1.865.91 4.56 2.605 5.988 3.766l2.597 2.108 3.31-3.14c1.822-1.728 3.728-3.217 4.237-3.31.51-.093 3.216-2.443 6.013-5.222 2.798-2.78 5.38-5.058 5.737-5.064.358-.006 2.313-1.155 4.345-2.554 5.81-4 15.165-9.028 22.224-11.948 3.56-1.473 7.697-3.268 9.192-3.988 1.494-.72 2.953-1.314 3.24-1.32.29-.004 2.536-1.02 4.993-2.26 2.457-1.238 4.967-2.26 5.58-2.27.61-.012 2.385-.596 3.944-1.3 4.653-2.1 13.7-4.866 19.704-6.023 3.098-.598 7.583-1.484 9.965-1.97 9.716-1.98 10.833-2.056 10.856-.747.025 1.506-1.81 2.338-5.29 2.398-1.42.026-3.627.6-4.907 1.275-1.28.676-3.886 1.536-5.792 1.912-1.906.376-4.63 1.235-6.052 1.91-1.423.674-4.34 1.697-6.482 2.273-5.612 1.508-16.16 5.35-21.167 7.71a692.482 692.482 0 0 1-9.92 4.546c-3.085 1.382-8.353 3.88-11.707 5.55-3.354 1.67-6.627 3.047-7.273 3.06-.645.01-5.747 3.23-11.335 7.152-5.59 3.924-10.28 7.136-10.423 7.138-.675.012-8.287 7.837-8.278 8.51.005.42 1.374 2.11 3.04 3.754 6.028 5.948 10.94 11.6 12.288 14.134 3.023 5.69 3.04 5.692 18.943 2.634 7.864-1.513 14.396-2.76 14.515-2.77.12-.01.207-.593.195-1.295-.012-.7-2.288-2.91-5.057-4.91-2.77-2-5.784-4.348-6.7-5.218-.917-.87-3.82-2.52-6.45-3.67-4.23-1.848-4.948-1.94-6.228-.798-.796.71-3.29 2.232-5.54 3.382-2.252 1.148-4.088 2.41-4.08 2.804.005.394-.967.732-2.162.753-2.677.047-2.8-1.66-.252-3.545 8.565-6.34 16.597-11.565 21.68-14.106 3.32-1.658 7.5-3.78 9.292-4.716 1.792-.936 3.614-1.708 4.05-1.715.434-.008 4.03-1.61 7.99-3.558 7.606-3.744 19.518-8.56 29.585-11.96 3.328-1.126 6.828-2.347 7.778-2.716 3.64-1.41 13.2-3.62 18.187-4.203 2.863-.334 6.278-.83 7.588-1.1 1.717-.353 2.39-.135 2.405.78.022 1.25-5.726 3.315-9.404 3.38-.956.016-1.962.41-2.238.872-.557.938 1.386 4.358 2.466 4.34.757-.014 3.393 2.596 9.49 9.398 2.195 2.448 4.987 5.497 6.205 6.775 1.216 1.28 3.214 3.613 4.437 5.187a355.62 355.62 0 0 0 4.63 5.806c1.326 1.62 2.66 3.687 2.966 4.596.306.91.916 1.647 1.355 1.64.896-.017 3.32 5.11 3.98 8.412.56 2.81.5 2.772 4.96 3.22 13.653 1.365 13.847 1.36 13.815-.442-.016-.933-.735-2.442-1.597-3.354-1.285-1.36-5.287-6.896-13.125-18.157-.49-.704-3.08-3.51-5.76-6.233-2.677-2.724-6.865-7.32-9.307-10.21-2.44-2.893-5.183-5.92-6.092-6.726-3.822-3.39-5.74-5.667-5.342-6.338.607-1.02 4.63 1.222 8.244 4.596 4.936 4.61 20.725 21.182 21.627 22.7.45.76 1.92 2.553 3.263 3.983 4.98 5.302 6.124 6.74 6.14 7.715.01.55 1.227 2.583 2.703 4.52 1.928 2.527 2.633 4.323 2.502 6.37-.167 2.62.067 2.9 2.88 3.453 1.684.33 4.242 1.192 5.685 1.912 1.443.72 3.14 1.304 3.774 1.296.633-.01 1.022.67.866 1.512-.24 1.287-1.092 1.496-5.437 1.333-2.834-.105-5.862-.555-6.73-1-.865-.445-3.432-.794-5.7-.776-2.27.018-5.654-.33-7.517-.77-1.865-.442-8.723-1.065-15.24-1.384-14.043-.688-17.018-.988-18.492-1.864-1.162-.69-10.29-.98-11.477-.363-.38.198-4.677.558-9.55.802-23.837 1.192-36.746 2.216-37.678 2.99-.564.47-2.71.794-4.77.722-2.058-.072-5.482.386-7.61 1.02-2.125.63-6.222 1.304-9.102 1.495-2.88.19-6.99.855-9.13 1.477-2.14.62-5.844 1.477-8.227 1.902-11.36 2.023-28.275 8.335-43.644 16.287-13.082 6.767-17.69 9.49-27.817 16.433-6.19 4.245-7.33 5.096-12.288 9.167-1.49 1.224-4.103 2.836-5.806 3.583-1.705.747-3.093 1.698-3.085 2.114.007.415-2.473 2.438-5.512 4.494-3.04 2.057-6.384 4.51-7.434 5.455-1.052.943-3.57 3.013-5.598 4.6-3.855 3.016-5.118 4.934-3.95 5.995.38.346 4.076.77 8.214.943 8.318.347 8.772.166 14.942-5.947 1.858-1.84 3.693-3.352 4.08-3.36.386-.006 1.948-1.246 3.472-2.755 1.523-1.508 5.86-4.935 9.64-7.613 3.78-2.678 8.416-6.026 10.304-7.44 3-2.246 7.118-4.675 17.213-10.155 1.42-.77 6.08-2.807 10.354-4.524 4.275-1.717 10.88-4.372 14.68-5.9 3.8-1.53 8.66-3.26 10.8-3.846 2.143-.586 4.52-1.4 5.284-1.81.764-.41 3.88-1.228 6.924-1.82 3.044-.59 7.68-1.537 10.3-2.106 2.62-.57 7.3-1.368 10.402-1.776 3.1-.408 10.712-1.507 16.912-2.443 14.837-2.24 63.198-3.13 66.41-1.22.33.197 4.697.515 9.7.707 9.265.355 18.012.826 27.375 1.475 2.873.198 6.593.405 8.268.46 1.674.052 3.44.322 3.923.598.483.276 3.432 1.095 6.553 1.82 8.66 2.014 12.644 3.504 12.94 4.84.203.906-.504 1.135-2.81.906-1.693-.168-3.083-.586-3.09-.93-.01-.61-11.4-2.478-17.44-2.86-1.674-.108-5.528-.51-8.563-.893-3.035-.384-6.454-.502-7.598-.263-1.145.24-2.778.158-3.628-.18-.85-.34-5.852-.695-11.114-.79l-19.135-.353c-12.333-.226-24.062-.84-25.463-1.332-.606-.213-2.056-.005-3.222.462s-2.297.574-2.513.237c-.217-.335-3.656-.447-7.643-.247-17.846.896-26.105 1.707-34.586 3.395-11.48 2.285-17.59 3.322-18.403 3.123-.35-.084-2.883.517-5.63 1.338-2.744.82-6.262 1.705-7.816 1.965-1.554.26-3.035.825-3.29 1.255-.256.43-1.763.804-3.35.832-1.586.027-3.327.604-3.87 1.28-.54.677-2.433 1.513-4.203 1.86-1.77.344-5.16 1.567-7.53 2.717a611.816 611.816 0 0 1-15.524 7.25c-5.327 2.393-13.76 7.03-14.03 7.714-.132.34-2.653 1.893-5.6 3.454-2.95 1.562-8.957 5.613-13.352 9.003-4.396 3.39-8.74 6.415-9.654 6.723-.915.308-1.656.915-1.65 1.348.01.434-1.148 1.416-2.57 2.183-4.54 2.45-3.232 3.662 4.493 4.17 6.38.42 7.33.274 10.19-1.568 1.733-1.118 3.438-2.04 3.787-2.05.35-.008 1.185-.83 1.858-1.828 1.948-2.887 26.647-17.558 35.365-21.006.95-.376 3.28-1.302 5.18-2.058 1.9-.757 5.207-1.878 7.348-2.49 2.14-.615 4.54-1.464 5.33-1.89 1.958-1.052 27.997-8.1 32.307-8.743a201.15 201.15 0 0 0 6.502-1.095c1.668-.318 4.806-.722 6.974-.9 4.43-.36 17.687-2.222 25.553-3.588 3.05-.53 21.032-.953 43.457-1.023 21.04-.065 39.037-.172 39.992-.237.954-.064 3.698.233 6.097.66 2.398.43 7.84.915 12.095 1.082 4.254.167 9.154.656 10.888 1.087 1.734.43 4.916.943 7.07 1.14 7.718.7 13.625 2.203 13.298 3.382-.123.446-1.488.748-3.03.672-7.833-.388-12.675-.776-15.434-1.237-1.68-.28-4.714-.613-6.745-.738-2.032-.126-5.808-.455-8.392-.732-2.585-.277-14.623-.51-26.753-.52-12.13-.007-23.816-.155-25.97-.328-10.618-.85-26.245-.76-35.417.203-5.615.59-13.922 1.34-18.46 1.666-4.536.327-10.98 1.075-14.316 1.662-3.338.587-7.435 1.224-9.105 1.415-3.28.375-4.242.562-13.43 2.618-10.023 2.24-17.37 4.32-29.85 8.44-4.97 1.64-5.282 1.76-12.956 5.01-13.055 5.526-37.9 20.007-37.87 22.07.012.672 3.246.963 10.178.915 9.42-.066 10.48-.245 14.52-2.455 4.68-2.558 18.56-8.085 24.232-9.647 1.903-.524 3.827-1.296 4.274-1.716.447-.42 1.634-.778 2.638-.796 1.004-.017 2.19-.35 2.64-.74 1.236-1.08 9.677-4.395 15.5-6.088 2.854-.83 6.993-2.104 9.196-2.83 2.204-.728 4.86-1.337 5.903-1.356 1.044-.018 2.55-.396 3.347-.84.798-.445 3.01-1.078 4.918-1.408 1.907-.33 4.724-1.033 6.26-1.562 1.535-.53 3.15-.75 3.588-.49.438.26 1.25-.094 1.806-.787.554-.694 1.503-1.08 2.11-.86.604.22 3.016-.07 5.358-.644 6.054-1.484 41.322-4.105 49.514-3.68 3.78.198 7.962.3 9.292.227 1.33-.072 3.444.24 4.697.69 1.255.452 8.124 1.305 15.265 1.896 7.142.59 13.656 1.408 14.475 1.818.82.41 4.432 1.125 8.026 1.588 3.595.462 9.676 1.4 13.514 2.082 3.837.682 9.61 1.69 12.827 2.24 3.218.55 6.363 1.394 6.99 1.876.625.482 3.097 1.09 5.493 1.352 6.327.692 14.4 3.157 14.423 4.403.01.59 1.6 2.083 3.536 3.315 2.456 1.565 3.527 2.86 3.552 4.298.04 2.31-2.3 2.91-3.15.81-.287-.714-1.244-1.284-2.125-1.268-.88.015-1.924-.484-2.317-1.11-.68-1.077-3.283-2.384-12.738-6.39-2.275-.962-8.56-2.442-13.97-3.286-5.407-.845-11.208-1.89-12.89-2.32-3.115-.8-5.62-1.26-13.737-2.522-12.202-1.897-15.04-2.262-20.697-2.656-3.35-.234-7.86-.763-10.02-1.176-2.158-.413-6.81-.905-10.337-1.095-3.526-.188-8.12-.63-10.205-.983-2.087-.352-3.964-.464-4.173-.248-.208.215-7.354.652-15.88.97-15.54.58-23.92 1.3-26.337 2.266-.712.284-3.2.728-5.53.987-2.33.258-4.863.81-5.63 1.223-1.21.652-5.818 1.66-11.798 2.58-4.99.768-20.337 4.733-23.37 6.038-1.62.697-5.93 2.303-19.437 7.24-3.09 1.13-8.15 3.018-11.248 4.196-3.098 1.178-6.095 2.15-6.66 2.16-3.37.06-7.54 4.396-4.292 4.464 10.976.23 17.277.457 23.857.855 6.504.392 8.498.213 10.767-.97 1.532-.797 3.313-1.46 3.956-1.47.644-.012 1.165-.34 1.158-.727-.007-.39 1.896-1.58 4.228-2.647 2.332-1.067 4.485-2.352 4.784-2.855.298-.502 1.42-.93 2.49-.947 1.072-.02 2.315-.373 2.762-.787.447-.414 3.73-1.716 7.296-2.893 3.566-1.176 7.065-2.452 7.776-2.835.71-.382 3.437-1.127 6.058-1.654 2.62-.527 7.297-1.58 10.392-2.34 6.224-1.525 12.717-2.415 22.553-3.09 3.582-.245 11.787-.906 18.233-1.468 15.348-1.34 24.392-1.14 36.098.794 13.072 2.16 34.196 7.23 38.164 9.158 1.79.87 4.06 1.568 5.045 1.55 1.64-.028 16.508 6.35 17.538 7.525.243.278 2.29 1.53 4.55 2.783 3.912 2.17 4.67 2.268 15.904 2.07 12.153-.21 13.286.133 10.64 3.225-.656.768-2.598 4.158-4.316 7.536-5.76 11.328-21.054 31.517-24.256 32.02-2.16.34-9.372 7.73-9.346 9.576.015 1.133-6.31 6.6-7.435 6.425-1.94-.302-3.205.63-9.484 6.985-3.725 3.772-8.287 8.134-10.136 9.695-9.93 8.383-17.54 13.912-22.302 16.21-1.92.925-6 3.887-9.065 6.58-3.066 2.695-6.912 5.842-8.547 6.994-1.635 1.153-4.508 3.393-6.383 4.978-6.133 5.184-18.563 14.456-19.397 14.47-.45.01-2.824 1.66-5.277 3.67-2.454 2.01-5.265 3.976-6.247 4.37-2.81 1.123-9.86 6.28-9.844 7.198.008.456-.86 1.253-1.926 1.77-3.102 1.508-6.9 3.797-11.9 7.173-11.69 7.894-13.158 8.834-13.82 8.845-.386.007-2.887 1.464-5.556 3.238-6.77 4.498-33.05 18.303-34.906 18.336-.842.014-1.747.39-2.012.837-.265.446-1.62 1.08-3.01 1.412-1.39.33-2.942 1.12-3.45 1.752-.506.633-2.76 1.872-5.01 2.754-2.25.882-4.363 1.854-4.696 2.16-1.133 1.037.813 2.78 3.423 3.064 4.558.496 12.845 4.848 16.96 8.905 6.166 6.08 6.835 7.195 11.06 18.444 5.025 13.38 8.203 19.654 12.69 25.04 4.235 5.084 12.5 11.472 14.79 11.432.883-.016 1.853.587 2.156 1.34.746 1.85-1.26 10.596-2.717 11.85-1.124.966-29.344 2.27-30.248 1.397zm1.06-27.358c2.684-.268 1.138-1.635-4.167-3.686-2.834-1.096-5.81-2.568-6.615-3.27-.805-.703-2.056-1.268-2.78-1.255-.726.013-2.04-.746-2.922-1.687-.88-.94-1.922-1.706-2.312-1.7-.887.017-4.952 8.9-4.92 10.75.013.75.516 1.535 1.117 1.744.897.31 16.86-.32 22.6-.895zm-52.842-.693c-.012-.706-1.138-2.563-2.502-4.128-2.368-2.717-2.532-2.77-3.687-1.19-.665.912-1.203 2.708-1.196 3.992.01 1.993.43 2.38 2.844 2.63 3.848.4 4.57.192 4.543-1.305zm17.83.342c-.01-.664-.795-2.118-1.742-3.23l-1.72-2.023-1.88 1.916c-2.598 2.65-1.592 4.665 2.295 4.597 2.04-.035 3.062-.458 3.048-1.26zm42.592-.733c-.01-.66-.59-1.655-1.287-2.213-.696-.557-1.542-2.172-1.88-3.59-.586-2.466-3.208-4.563-9.236-7.388-5.102-2.392-7.672-4.346-11.197-8.516-4.393-5.196-5.894-9.657-5.91-17.57-.008-5.023-.23-5.825-1.704-6.183-2.196-.533-3.114.704-4.305 5.81-1.828 7.836 1.052 17.047 7.143 22.838 3.123 2.968 11.152 8.717 12.163 8.707.238-.003 3.236 1.347 6.663 2.998 3.734 1.8 6.42 3.673 6.7 4.674.532 1.9 2.884 2.256 2.852.432zm-78.277-1.4c-.052-2.93-1.267-3.21-3.457-.796-2.28 2.515-1.725 3.91 1.306 3.274 1.59-.333 2.177-1.008 2.152-2.478zm-70.486 2.91c3.126-.68 3.32-1.698.896-4.688-.955-1.18-1.758-2.84-1.784-3.692-.076-2.54-2.42-2.635-6.324-.255-2.02 1.233-5.73 2.953-8.24 3.823-2.51.87-4.42 1.987-4.246 2.483.175.497 2.216 1.03 4.535 1.183 2.32.153 5.825.57 7.79.923 1.967.354 3.82.683 4.12.73.3.047 1.763-.18 3.252-.505zm52.255-1.257c1.092-.75.953-1.14-.914-2.56-2.718-2.066-3.178-2.088-3.87-.186-.344.946.025 1.913.988 2.592 1.833 1.29 2.125 1.302 3.797.153zm13.163-5.464c6.288-8.065 9.72-19.52 8.47-28.276-.947-6.63-1.163-6.788-9.418-6.854-4-.032-9.25-.322-11.668-.645-5.482-.732-6.082-.085-7.193 7.744-1.822 12.844 1.744 24.07 9.744 30.67 2.283 1.882 4.573 3.224 5.09 2.98.516-.243 2.755-2.773 4.976-5.62zm-7.845-2.458c-2.803-1.066-5.972-8.048-6.048-13.324-.082-5.59 1.78-12.263 4.035-14.456 5.39-5.243 9.413-.264 9.71 12.018.15 6.262-.146 8.045-1.952 11.71-2.344 4.758-2.886 5.14-5.745 4.052zm2.187-6.74c1.2-2.76 2.528-16.29 1.78-18.14-.275-.684-1.213-1.23-2.084-1.215-1.884.033-5.045 8.067-4.966 12.62.056 3.166 2.358 9.163 3.51 9.143.395-.007 1.187-1.09 1.76-2.41zm55.747 9.417c3.136-6.555 2.972-8.644-1.166-14.878-2.067-3.112-3.878-5.82-4.026-6.015-.59-.785-1.16.825-3.162 8.913-1.998 8.07-2.024 8.56-.593 11.266 3.53 6.674 6 6.872 8.946.713zm-94.556 5.11c-.015-.877-6.076-6.602-6.443-6.085-1.414 1.995-3.134 5.328-3.12 6.05.008.512 2.08.865 4.795.817 2.63-.046 4.776-.398 4.77-.782zm17.358-.69c-.02-.598-.77-2.005-1.665-3.128l-1.627-2.04-1.396 2.07c-2.162 3.202-1.727 4.296 1.684 4.236 1.865-.032 3.028-.473 3.004-1.14zm56.525-.576c-.006-.372 1.09-1.924 2.434-3.45 3.052-3.458 7.532-18.015 7.616-24.743.033-2.63-.728-7.3-1.692-10.38-2.394-7.654-3.693-8.195-12.26-5.107l-6.572 2.37-2.058 5.252c-1.796 4.588-1.976 6.095-1.422 11.904.71 7.442 3.653 14.78 7.89 19.683a446.154 446.154 0 0 1 3.515 4.104c.99 1.19 2.57 1.417 2.55.367zm-3.81-8.633c-4.203-4.77-5.48-8.137-5.422-14.3.057-6.033 1.187-9.183 5.383-15.004 1.24-1.72 1.292-1.722 3.113-.13 4.848 4.234 6.522 12.393 4.37 21.29-1.435 5.93-2.234 7.433-4.678 8.796-1.047.584-1.842.397-2.765-.65zm3.49-10.06c.906-2.726 1.617-6.65 1.58-8.723-.116-6.708-3.698-8.583-5.995-3.14-2.176 5.158-.48 20.186 1.99 17.63.43-.447 1.52-3.04 2.426-5.767zm-64.378 14.174c4.237-6.554 5.787-10.388 7.487-18.515 1.356-6.485.85-17.287-.96-20.533-1.178-2.113-6.125-4.117-10.682-4.328-3.275-.153-3.665.097-6.297 4.024-3.384 5.05-4.532 10.594-4.48 21.645.03 6.683.407 9.106 1.912 12.356 2.02 4.36 7.196 10.877 8.61 10.844.48-.01 2.463-2.484 4.41-5.496zm-7.402-4.42c-3.318-3.884-4.714-8.213-4.832-14.985-.117-6.703 2.723-13.868 6.645-16.765 3.036-2.242 3.898-1.8 4.883 2.51.272 1.19.893 3.36 1.38 4.82 2.37 7.1-.517 26.474-4.053 27.22-.76.16-2.57-1.1-4.022-2.8zm3.053-3.743c.424-.843 1.19-4.975 1.704-9.18 1.452-11.885-.526-17.338-3.91-10.78-1.66 3.22-3.01 11.3-2.347 14.07 1.712 7.168 3.05 8.898 4.554 5.89zm51.488 11.676c.5-.626 1.357-2.933 1.903-5.128.796-3.192.754-4.793-.206-8.005-.66-2.208-1.493-4.01-1.853-4.003-.78.014-3.332 7.246-3.858 10.936-.4 2.813 1.038 7.372 2.32 7.35.433-.008 1.195-.525 1.696-1.15zm-68.37-2.25c3.36-4.847 3.973-7.9 2.757-13.74-1.114-5.35-1.942-6.4-2.793-3.55-.268.898-2.014 3.246-3.88 5.218-3.79 4.004-4.13 6.1-1.857 11.502 1.768 4.203 3.158 4.34 5.773.57zm34.967-1.225c1.18-2.38 1.136-2.948-.534-6.978-1-2.412-1.83-5.154-1.847-6.092-.052-2.99-1.314-1.82-2.794 2.59-1.678 4.995-1.757 7.354-.336 9.944 2.11 3.842 3.793 4.006 5.51.537zm-65.163 1.596c2.927-.414 9.8-3.924 15.827-8.085 7.937-5.48 12.64-11.76 14.906-19.908 1.406-5.056 1.638-13.063.378-13.04-.947.016-1.793 2.18-1.753 4.483.1 5.68-14.588 24.303-19.355 24.542-.6.03-2.535.862-4.302 1.85-1.767.987-4.51 1.817-6.093 1.845-2.547.044-3.064.478-4.46 3.748-1.705 3.996-.895 6.5 1.745 5.388.755-.317 2.153-.688 3.107-.822zm161.06-13c-.033-1.925-4.014-11.56-5.613-13.585-.89-1.124-1.622-2.4-1.63-2.833-.032-1.87-8.05-9.56-8.97-8.604-.965 1.007-.89 8.085.127 11.642 1.132 3.96 2.946 6.26 8.535 10.815 4.295 3.5 7.587 4.62 7.55 2.566zm-150.204-4.55c2.226-1.902 5.54-5.403 7.368-7.78 3.367-4.386 6.606-11.71 5.605-12.677-.3-.293-2.917.016-5.814.684-4.17.96-6.146 2.032-9.486 5.142-4.395 4.092-9 12.633-9.8 18.172l-.424 2.928 4.253-1.506c2.338-.828 6.072-3.062 8.298-4.964zm89.22-16.863c.445-1.835-.626-3.04-1.948-2.19-.89.57-.154 3.965.857 3.948.366-.006.857-.797 1.09-1.757zm30.64-6.327c.314-1.353-.11-2.17-1.497-2.88-3.05-1.566-3.995.123-2.566 4.587 2.273 7.103 1.98 7.226 4.063-1.707zm-64.87 2.383c-.017-.93-2.553-1.88-3.207-1.204-.27.28-.198 1.6.16 2.93.627 2.324.7 2.352 1.856.71.662-.938 1.198-2.035 1.19-2.437zm33.754-4.247c.4-.52.953-2.513 1.228-4.43 1.24-8.638 1.872-12.533 2.764-17.004.527-2.64 1.473-7.4 2.102-10.577.63-3.177 1.844-11.806 2.7-19.176.858-7.37 1.73-14.298 1.936-15.397.6-3.178 2.077-1.342 2.14 2.658.06 3.882-1.775 21.075-2.947 27.606-1.522 8.48-3.844 24.622-4.34 30.162l-.522 5.835 2.06-.635c1.134-.35 3.327-.89 4.874-1.2 3.287-.658 3.863-2.277 5.655-15.9.61-4.628 1.827-11.56 2.706-15.4.88-3.84 1.945-9.728 2.367-13.083.423-3.355 1.114-8.258 1.537-10.895 2.74-17.086 2.77-17.58 1.142-18.726-.845-.594-2.2-.94-3.01-.77-.813.172-6.847.882-13.41 1.58-6.563.696-11.94 1.5-11.948 1.786-.42 14.796-.735 20.857-1.36 26.194l-1.817 15.482c-.58 4.92-1.3 9.362-1.6 9.87-.898 1.51-5.13 19.844-5.175 22.41-.023 1.383 11.827 1.026 12.917-.39zm-21.377-.993c-.088-.716-1-3.635-2.023-6.486-6.03-16.786-8.347-30.284-9.153-53.313l-.503-14.337-5.47.253c-3.01.14-5.643.43-5.854.65-.21.217.092 3.663.672 7.656.58 3.992 1.997 14.873 3.148 24.178 1.978 15.977 2.88 20.704 6.122 32.063.747 2.618 1.477 5.702 1.623 6.854.203 1.606 1.08 2.334 3.76 3.122 4.54 1.333 7.887 1.055 7.677-.64zm4.816-1.084c.5-1.514.892-3.65.873-4.746-.02-1.095.32-2.22.756-2.5 1.26-.81 5.588-23.696 7.63-40.364 1.224-9.966 1.46-22.152.464-23.704-.372-.58-2.61-.856-5.54-.684-2.703.158-7.356.015-10.34-.32-5.29-.59-5.443-.55-6.226 1.62-.518 1.44-.448 5.182.198 10.57.55 4.587.8 8.68.553 9.095-.422.707.39 6.35 3.945 27.387 1.877 11.107 5.48 26.417 6.213 26.408.312-.004.975-1.247 1.473-2.762zm-21.71-3.454c-.014-.745-1.243-5.908-2.732-11.473-3.42-12.775-4.58-21.01-5.64-40.065-.467-8.36-1.178-16.036-1.58-17.057-.593-1.502-1.92-2.035-6.947-2.793-3.417-.515-6.397-.747-6.622-.514-.224.233.75 7.397 2.165 15.92 1.416 8.522 2.958 18.618 3.427 22.436.468 3.817 1.548 10.254 2.4 14.304.85 4.05 1.846 9.48 2.213 12.065l.666 4.7 5.248 1.85c6.437 2.268 7.43 2.352 7.4.627zm71.337-5.69c.863-.795 1.625-3.42 1.942-6.69.286-2.957 1.016-6.756 1.62-8.44.606-1.684 2.008-8.36 3.116-14.836a3825.887 3825.887 0 0 1 3.568-20.495c2.32-13.036 2.652-16.712 1.563-17.36-.525-.31-4.074-.033-7.886.62-7.937 1.357-7.336.34-7.975 13.513-.296 6.09-1.986 17.132-3.155 20.616-.37 1.104-4.09 28.614-4.84 35.796l-.34 3.242 5.483-2.327c3.016-1.28 6.122-2.916 6.904-3.637zm-88.795-6.223c-1.924-7.21-3.433-15.855-4.525-25.91-.363-3.342-1.05-7.73-1.526-9.75-.99-4.198-2.642-14.22-3.393-20.585-.28-2.38-.794-4.567-1.14-4.86-.347-.294-2.722-.893-5.28-1.33-3.8-.652-4.73-.57-5.1.45-.425 1.167 1.784 19.482 3.75 31.08.484 2.86 1.376 8.517 1.98 12.572.607 4.054 1.54 10.27 2.072 13.81.533 3.543 1.195 6.792 1.47 7.22.5.78 7.078 3.857 10.38 4.857 2.963.898 3.202-.475 1.312-7.555zm102.373-.06c2.654-1.3 4.898-2.425 4.987-2.498.09-.073.748-3.07 1.464-6.657a1550.93 1550.93 0 0 1 2.867-13.942c.862-4.08 2.25-10.95 3.085-15.27l2.704-13.982c.652-3.37 1.275-7.88 1.386-10.022.226-4.372-.067-4.47-7.746-2.633-5.308 1.27-5.99 2.2-6.43 8.782-.74 11.056-5.61 39.872-8.94 52.908-.606 2.37-1.095 4.627-1.088 5.018.022 1.307 2.84.684 7.71-1.704zm-119.416-1.94c-.94-3.12-2.63-15.392-2.217-16.086.207-.348-.474-5.702-1.512-11.896-1.038-6.195-2.336-15.86-2.884-21.482-.548-5.62-1.388-10.92-1.865-11.775-.477-.855-2.9-2.173-5.387-2.928-6.912-2.1-7.143-2-6.363 2.79.37 2.264.985 4.7 1.368 5.413.383.712 1.232 5.197 1.886 9.966.653 4.77 1.32 8.876 1.48 9.126.777 1.215 2.615 16.206 3.023 24.67l.46 9.526 4.24 2.342c2.333 1.287 5.168 2.328 6.3 2.312 1.717-.024 1.96-.35 1.472-1.975zm140.223-8.533c8.217-4.438 8.614-5.096 10.458-17.355 3.725-24.748 4.525-31.64 4.5-38.762l-.027-7.833-2.603.33c-1.43.18-2.905.888-3.274 1.574-.37.686-2.195 1.518-4.058 1.85-4.683.832-5.776 2.51-6.23 9.57-.52 8.113-.99 12.27-1.916 16.99-.424 2.16-1.532 8.44-2.463 13.954-.93 5.516-2.2 12.727-2.82 16.024-.622 3.298-1.124 6.34-1.116 6.758.026 1.495 2.578.667 9.55-3.1zm-154.88.746c-.51-1.903-1.308-5.997-1.772-9.097-.463-3.1-1.494-9.147-2.29-13.437-.795-4.29-1.905-10.728-2.467-14.305l-2.11-13.44c-1.524-9.695-1.82-10.837-2.807-10.82-.48.01-2.524-.988-4.546-2.216l-3.676-2.233-3.717 2.056c-4.625 2.558-5.084 4.35-3.18 12.423.817 3.46 2.392 11.95 3.502 18.865 1.11 6.916 2.38 13.937 2.82 15.603.443 1.666 1.095 4.893 1.45 7.173.71 4.573 2.4 6.01 12.396 10.53 2.66 1.204 5.074 2.56 5.366 3.014 1.202 1.872 1.897-.9 1.032-4.117zm176.704-13.34c5.387-3.248 6.096-4.72 6.853-14.208.268-3.352.78-6.687 1.14-7.41.36-.724.843-5.865 1.075-11.425l.423-10.11-2.5-1.676c-1.373-.923-3.678-2.068-5.12-2.545a117.128 117.128 0 0 1-4.156-1.46c-1.38-.53-1.52.068-1.418 5.98.064 3.613-.247 8.454-.69 10.757-.442 2.302-1.325 9.87-1.962 16.814-.637 6.946-1.335 14.14-1.552 15.986-.36 3.076-.245 3.308 1.38 2.76.973-.327 3.91-1.886 6.527-3.463zm-198.84 3.51c-.303-1.07-1.013-4.09-1.577-6.71-.565-2.62-1.737-7.686-2.606-11.258-.868-3.57-1.522-7.058-1.454-7.75.07-.69-.482-4.592-1.224-8.672-.742-4.08-1.382-8.885-1.422-10.677-.04-1.793-.412-3.254-.828-3.246-1.422.025-11.754 3.738-12.474 4.483-.394.41-.024 4.205.824 8.435.847 4.23 1.895 12.152 2.327 17.604l.786 9.913 3.07 1.634c1.69.898 3.397 2.175 3.793 2.838.81 1.357 8.32 5.303 10.146 5.333.81.015 1.013-.598.637-1.926zM516.2 495.506c1.763-1.108 3.625-3.075 4.138-4.37 1.017-2.573 3.005-18.65 2.565-20.746a36.73 36.73 0 0 1-.35-1.865c-.13-.97-8.905-2.576-9.616-1.76-.37.42-1.253 5.276-1.966 10.788a2475.57 2475.57 0 0 1-2.048 15.5c-.888 6.452-.376 7.8 2.223 5.852 1.017-.762 3.292-2.292 5.055-3.4zm-238.463 1.99c-.445-1.787-1.3-7.35-1.9-12.36-1.186-9.92-2.75-17.35-3.64-17.31-.312.015-2.513.573-4.893 1.24-5.097 1.428-5.036 1.014-2.33 15.778 1.562 8.525 2.003 9.702 4.353 11.61 3.166 2.57 7.9 5.103 8.662 4.635.305-.187.19-1.803-.253-3.592zm-16.245-11.458c-.397-2.98-1.08-6.32-1.52-7.42-.437-1.1-.815-3.124-.84-4.5-.023-1.374-.42-2.723-.884-2.998-.462-.276-3.395-.194-6.518.18-5.666.682-5.677.688-5.63 3.42.06 3.358 3.484 9.995 5.786 11.213.93.492 3.304 1.93 5.273 3.196 1.968 1.264 3.91 2.306 4.317 2.314.405.01.412-2.425.015-5.407zM530.668 485c4.058-2.16 6.77-6.337 6.704-10.326-.047-2.92-.612-3.406-4.41-3.804-1.198-.126-2.707-.547-3.353-.936-.647-.39-1.482-.365-1.856.054-.82.92-1.827 16.868-1.065 16.855.293-.005 2.083-.835 3.978-1.844zm13.486-9.38c2.752-2 2.456-4.09-.523-3.695-1.873.25-2.435.83-2.618 2.712-.266 2.735.432 2.953 3.142.983zm-300.63.892c-.07-4.025-1.568-5.567-5.344-5.5-4.585.08-4.625 2.484-.09 5.482 4.218 2.79 5.482 2.795 5.434.018zm164.102-6.355c4.603-.26 9.54-.716 10.97-1.014 1.428-.3 6.507-.74 11.285-.98 9.67-.488 12.335-.917 22.978-3.704 4.046-1.06 8.137-2.058 9.09-2.218 3.3-.553 16.717-4.825 22.482-7.158 4.786-1.937 6.204-1.854 11.736.685 9.97 4.575 18.556 7.28 25.805 8.126 2.397.28 4.754.79 5.238 1.13 1.855 1.308 21.988 4.276 24.904 3.67 3.393-.702 8.23-4.34 7.428-5.588-.33-.514-3.126-.533-7.315-.05-7.13.824-12.008.61-16.37-.72-1.442-.442-4.228-.915-6.192-1.054-1.963-.14-3.96-.484-4.435-.766-.475-.283-3.972-1.093-7.77-1.8-3.796-.708-8.677-2.05-10.845-2.985-2.168-.934-5.322-2.304-7.01-3.044-1.686-.74-4.578-2.623-6.426-4.185-3.518-2.973-5.01-3.04-9.035-.404-4.378 2.867-26.013 11.115-30.93 11.792-.954.13-4.852.944-8.663 1.807-5.11 1.155-10.923 1.604-22.142 1.71-8.368.08-15.702.213-16.298.298-3.13.445-12.027.48-19.345.073-4.547-.25-11.205-.614-14.795-.806-8.236-.44-18.81-1.49-26.13-2.59-3.116-.47-6.526-.815-7.578-.766-1.05.05-2.16-.3-2.464-.772-.304-.473-.913-.63-1.354-.347-.44.282-1.287.224-1.883-.13-.594-.354-1.676-.71-2.404-.792-3.566-.403-19.526-7.076-24.45-10.223l-5.57-3.562-4.175 2.784c-4.545 3.03-14.688 7.114-17.88 7.2-1.1.028-3.142.67-4.54 1.423-1.397.754-2.544 1.19-2.548.97-.004-.22-2.634.374-5.846 1.322-8.023 2.37-14.76 3.128-31.167 3.51-7.73.18-14.29.574-14.58.874-.29.3.89 1.747 2.623 3.215 3.04 2.577 3.445 2.67 11.596 2.64 20.318-.076 32.202-1.376 38.804-4.245.95-.412 4.452-1.482 7.784-2.378 3.332-.895 8.5-2.987 11.486-4.65 2.986-1.662 6.298-3.11 7.36-3.216 1.062-.106 4.092.957 6.732 2.363 2.64 1.406 6.57 3.025 8.733 3.598 2.16.575 4.717 1.326 5.68 1.67 7.48 2.683 15.576 4.605 22.69 5.387 1.43.158 3.26.482 4.06.722 1.91.568 19.772 2.653 26.448 3.085 16.366 1.06 22.803 1.316 24.244.96.887-.218 5.38-.61 9.984-.868zm152.078-11.375c5.387-.48 8.908-1.232 10.152-2.165 2.184-1.638 2.627-4.074.59-3.252-.728.295-4.997.858-9.485 1.252-6.395.562-10.76.344-20.2-1.01-6.624-.95-12.778-2.103-13.677-2.563-.9-.46-3.06-.954-4.8-1.1-1.743-.147-4.89-.843-6.995-1.55-2.105-.704-4.68-1.267-5.725-1.248-1.044.018-2.667-.528-3.607-1.214-.94-.686-2.39-1.247-3.224-1.248-.833 0-2.016-.775-2.63-1.72-.614-.946-1.552-1.713-2.086-1.703-.533.01-2.854-1.37-5.157-3.066-2.304-1.695-4.433-2.724-4.73-2.286-3.056 4.493-18.626 12.07-28.355 13.8-2.742.486-8.208 1.748-12.145 2.803-6.338 1.7-10.08 1.986-32.568 2.493-13.974.316-26.333.297-27.465-.04-1.132-.338-3.68-.71-5.66-.825-1.982-.117-5.958-.592-8.835-1.057-5.546-.895-22.038-2.39-25.69-2.33-1.196.02-4.334-.464-6.975-1.075a876.68 876.68 0 0 0-9.166-2.063c-8.99-1.96-19.213-6.106-23.654-9.596-2.45-1.925-5.493-4.156-6.763-4.956-2.196-1.385-2.385-1.377-3.88.174-3.13 3.246-7.933 6.458-9.702 6.488-.993.018-2.48.404-3.302.858-10.598 5.858-31.516 9.616-54.81 9.848-11.218.112-17.192-.385-18.722-1.556-1.35-1.034-7.673-1.248-7.964-.27-.5 1.68 3.517 4.712 6.183 4.665.665-.01 1.707.558 2.314 1.264.607.708 2.256 1.266 3.663 1.242 1.407-.025 3.334.353 4.282.84 1.39.71 12.845.837 25.57.28 5.394-.237 26.203-4.44 27.726-5.6 1.037-.79 4.858-1.746 9.41-2.355 1.847-.246 6.493-2.075 10.325-4.064 3.832-1.988 7.548-3.625 8.258-3.637.71-.013 3.883 1.464 7.05 3.28 3.17 1.818 7.68 3.902 10.02 4.633 2.34.73 4.975 1.696 5.853 2.146 1.572.807 10.983 2.92 16.098 3.616 2.94.4 4.27.65 7.415 1.407 1.2.287 4.533.708 7.406.934 2.873.226 8.556.752 12.628 1.168 4.072.416 12.494.957 18.715 1.203 6.22.246 11.703.565 12.184.708.48.144 1.263.15 1.74.013.475-.137 8.49-.48 17.81-.765 18.703-.57 28.956-1.815 38.406-4.664 3.442-1.038 8.983-2.684 12.313-3.658 3.33-.975 7.278-2.375 8.772-3.113 1.494-.738 3.134-1.348 3.645-1.357.51-.01 2.308-.823 3.994-1.81 4.35-2.544 6.85-2.305 10.666 1.024 3.586 3.127 11.99 6.742 17.672 7.6 1.952.295 3.764.872 4.028 1.283.265.41.984.545 1.6.296.614-.247 2.27-.016 3.676.514 1.406.53 3.342 1.08 4.3 1.218 11.677 1.69 17.286 2.677 17.75 3.127.31.297 2.126.302 4.037.01 1.91-.292 7.185-.863 11.72-1.268zm-2.68-11.68c.774-2.214 1.796-9.568 2.27-16.343.642-9.15 1.162-12.326 2.024-12.34 1.662-.03 1.82 15.958.24 24.257-.678 3.553-.916 6.734-.53 7.07 1.07.93 8.265 1.425 10.675.735 1.754-.502 2.298-1.458 3.058-5.376l2.198-11.31c1.65-8.49 1.854-19.344.37-19.81-.597-.188-2.22-1.262-3.606-2.388-1.387-1.125-2.8-2.042-3.14-2.036-.34.006-2.024 1.153-3.742 2.548-3.92 3.185-7.17 3.86-11.998 2.5-3.238-.914-3.97-.88-5.052.24-.695.72-1.257 1.67-1.25 2.115.008.444-.53.817-1.196.828-1.812.032-2.192 2.003-1.184 6.147.605 2.49.62 5.82.05 10.094-.47 3.51-.623 6.738-.34 7.177.28.44.115 1.9-.37 3.245-1.388 3.854-.31 6.246 2.987 6.617 6.215.7 7.033.32 8.536-3.97zm-14.972-3.43c1.427-8.21 1.79-24.478.528-23.667-.56.36-2.852.948-5.093 1.307l-4.075.652-.425 7.39c-.234 4.065-.67 9.955-.968 13.09l-.543 5.698 3.384.808c5.386 1.286 6.147.727 7.192-5.278zm-140.356 4.53c.55-1.843-2.018-18.18-3.444-21.908-1.06-2.772-1.205-2.836-6.42-2.82-9.855.027-14.47-4.417-12.836-12.362 1.32-6.425 2.395-6.153 2.514.636.106 6.088.156 6.216 3.067 7.946 4.263 2.533 9.657 2.266 12.227-.605 2.17-2.427 3.38-7.35 2.47-10.053-.462-1.374-.157-1.7 1.624-1.73 4.175-.072 4.052 8.537-.193 13.484-1.464 1.707-1.422 2.03 1.166 8.956 2.11 5.642 2.712 8.667 2.806 14.077.085 4.888.437 6.91 1.208 6.955.6.036 4.413.017 8.477-.042l7.39-.106.42-2.94c.593-4.124.01-29.18-.693-29.86-.318-.31-2.844-.523-5.612-.474-6.863.12-9.946-1.945-10.03-6.716-.078-4.534 1.057-4.357 2.412.378.928 3.24 1.504 3.902 3.803 4.365 4.712.95 8.468-.35 10.077-3.486 1.79-3.485 1.873-14.465.126-16.5-.998-1.164-4.296-1.33-23.06-1.166-30.947.27-38.19.642-39.566 2.03-.637.64-1.32 3.75-1.52 6.905-.404 6.467.25 7.754 4.875 9.592 2.51.998 3.335.975 5.935-.165 1.66-.73 3.03-1.613 3.04-1.965.01-.353.97-1.83 2.13-3.286 1.63-2.046 2.28-2.38 2.875-1.48 2.124 3.22-3.898 9.76-9.073 9.85-3.584.06-3.85 1.108-4.206 16.583-.244 10.628-.508 12.648-1.682 12.894-1.842.385-2.908-8.984-2.4-21.08l.366-8.695-3.085-3.333-3.084-3.335-1.737 3.554c-1.345 2.753-2.616 3.907-5.644 5.125-2.15.864-3.905 1.884-3.898 2.266.007.383.6 3.35 1.32 6.598.72 3.247 1.427 8.836 1.57 12.42.145 3.584.553 6.8.907 7.144.548.535 6.714 1.303 21.05 2.624 1.676.154 4.52.482 6.316.728l3.27.447-.072-4.057c-.09-5.06 1.267-15.842 2.37-18.852.457-1.242 1.312-2.268 1.9-2.278.806-.014.94 1.407.535 5.715-.98 10.45-.573 17.996 1.042 19.293 1.767 1.42 13.916 2.148 16.61.996 1.058-.454 2.118-1.472 2.354-2.264zm32.903 1.88c1.895.01 3.437-.438 3.63-1.057.186-.59.485-5.577.666-11.08.18-5.502.358-10.787.394-11.744.218-5.777-.17-6.542-4.136-8.16-2.134-.872-4.326-2.385-4.872-3.363-1.23-2.205-2.252-2.22-4.48-.072-1.704 1.645-1.707 1.786-.14 7.596 1.41 5.24 1.496 7.15.745 16.616-.467 5.882-.58 11.11-.254 11.62.353.55 1.524.662 2.873.277 1.253-.358 3.76-.642 5.573-.632zm150.73-4.705c2.245-1.72 4.49-3.463 4.987-3.876.962-.796 3.813-23.335 3.73-29.47-.066-4.728-.895-5.405-3.083-2.52-.975 1.284-2.234 2.355-2.796 2.377-.563.023-2.29 1.13-3.84 2.462l-2.815 2.42-.302 10.87c-.166 5.978-.76 12.638-1.32 14.8-1.04 4.01-.843 6.1.568 6.077.434-.008 2.626-1.42 4.872-3.14zm-135.37 2.562c3.69-.732 7.743-2.774 8.092-4.08.547-2.043 1.555-18.42 1.29-20.957-.12-1.14-.966-2.887-1.883-3.88-2.647-2.866-4.04-7.067-3.464-10.454.93-5.488 2.816-3.434 3.057 3.33.22 6.187 6.145 9.585 12.71 7.29 3.696-1.292 5.5-4.014 6.493-9.793.417-2.432.965-4.77 1.218-5.194.928-1.563 3.244.326 4.89 3.987 2.298 5.115 5.088 6.3 8.646 3.67 3.527-2.605 5.444-6.617 4.786-10.02-1.705-8.822-1.336-8.326-6.237-8.385-2.458-.03-7.204.075-10.55.232-3.344.157-12.536.304-20.426.326-23.404.067-22.454-.15-24.773 5.685-3.802 9.565-.704 18.483 6.143 17.68 3.65-.426 7.833-5.01 8.922-9.776.938-4.102 2.393-4.008 2.833.185.39 3.703-1.99 7.825-6.147 10.655l-2.747 1.87.03 9c.016 4.95-.18 11.027-.437 13.506-.58 5.633.046 6.687 3.542 5.95 1.492-.315 3.298-.688 4.013-.83zm77.47-4.584c.333-1.68.79-7.655 1.018-13.28.364-9.02.23-10.417-1.13-11.87-3.323-3.545-3.438-11.222-.223-14.79 1.572-1.742 2.69-.415 1.425 1.69-2.21 3.683-.87 10.522 2.475 12.632 3.773 2.38 9.57 1.57 12.936-1.81 2.337-2.343 2.793-3.454 2.737-6.655-.06-3.423.125-3.796 1.69-3.415 1.185.287 2.056-.15 2.667-1.343 1.31-2.555 2.73-.77 2.92 3.67.192 4.424 1.73 5.59 6.17 4.678 6.13-1.26 10.55-12.704 6.81-17.634-1.162-1.535-2.263-1.634-13.932-1.244-6.97.233-13.55.417-14.627.41-1.076-.007-9.194.044-18.04.113-8.845.07-16.596-.194-17.224-.584-2.45-1.525-3.706.128-3.05 4.02.835 4.958 1.903 5.86 2.753 2.326 1.257-5.224 2.77-4.182 2.876 1.982.143 8.206.933 10.912 3.575 12.238 1.994 1 2.673.937 5.37-.498 3.827-2.038 4.754-3.178 5.663-6.972 1.132-4.724 2.79-4.452 2.86.47.07 5.046-.448 6.02-4.272 8.013l-2.94 1.532-.005 10.87c-.003 5.977-.093 12.033-.2 13.457-.163 2.192.277 2.815 2.876 4.06 1.688.808 4.227 1.36 5.642 1.227 2.18-.203 2.667-.71 3.18-3.294zM341.2 436.838c-.18-3.95-.488-7.96-.685-8.913-.196-.953-.416-3.395-.488-5.426-.116-3.243-.373-3.69-2.107-3.66-2.315.04-8.54-4.632-8.57-6.434-.012-.683-.374-1.235-.805-1.227-1.49.025-2.76 8.73-2.075 14.227.367 2.948.93 8.094 1.25 11.436.318 3.342.69 6.186.827 6.32.84.83 11.52 2.248 12.18 1.618.44-.418.652-3.993.472-7.942zm128.02 4.707c1.797-.707 3.646-1.678 4.108-2.157.463-.48.865-4.757.893-9.508.04-6.734-.198-8.582-1.08-8.384-.624.14-3.098.333-5.5.43-2.4.095-4.488.613-4.64 1.15-.15.537-.4 5.42-.552 10.854-.313 11.146-.8 10.598 6.773 7.615zm41.837-.73c.29-1.08.683-6.956.873-13.057l.347-11.092-2.37.042c-3.55.062-7.53-4.16-7.597-8.06-.03-1.71-.347-3.104-.706-3.098-.36.007-1.65 1.888-2.867 4.18-1.855 3.493-2.135 4.942-1.722 8.942.27 2.625.196 7.322-.165 10.436-.36 3.115-.51 6.328-.332 7.14.345 1.56 9.966 6.604 12.513 6.56.824-.015 1.736-.91 2.026-1.992zm-288.612 3.517c-.065-1.194-.654-6.075-1.308-10.846-.654-4.77-.97-10.725-.703-13.23.62-5.836-.162-8.653-2.606-9.382-1.07-.32-3.007-1.678-4.303-3.018l-2.357-2.436-1.517 2.407c-.835 1.323-1.51 3.58-1.5 5.016.037 5.007 1.785 26.082 2.444 29.466.606 3.107.934 3.435 3.707 3.702 1.674.162 3.227.47 3.452.688.225.217 1.4.262 2.61.1 1.728-.233 2.176-.763 2.082-2.468zm16.117-11.585c-.492-12.806-.618-13.55-2.552-15.17-1.12-.938-2.684-2.933-3.477-4.435-1.367-2.59-1.587-2.68-4.264-1.75-1.552.54-3.346 1.128-3.985 1.307-.89.25-.995 1.39-.447 4.875.393 2.502.844 5.916 1.002 7.587.787 8.335 1.687 16.35 2.123 18.912l.485 2.856 5.816-.357 5.816-.358-.517-13.468zm14.28 11.075c.41-.426.46-3.243.108-6.262-.352-3.018-.94-8.363-1.307-11.878l-.668-6.392-4.27.486c-2.347.267-4.586.84-4.973 1.273-.388.432-.35 2.932.084 5.554.434 2.623.866 7.526.96 10.895.1 3.65.617 6.567 1.276 7.216 1.183 1.165 7.41.532 8.788-.894zm-46.01-.03c.268-.453.043-3.48-.5-6.73-.543-3.25-1.22-10.013-1.507-15.03-.286-5.015-.555-9.162-.597-9.214-.042-.052-2.272-.282-4.956-.512-2.683-.23-5.565-1.017-6.403-1.75-.836-.73-2.03-1.32-2.65-1.31-1.336.023-1.007 3.198 1.933 18.66 1.087 5.72 1.99 10.67 2.006 11.003.014.33 1.71 1.75 3.767 3.155 3.68 2.51 7.95 3.34 8.908 1.726zm61.946-2.2c.78-.662 1.003-4.897.816-15.58-.14-8.068.06-14.675.45-14.682.387-.006 1.547-.824 2.576-1.817 1.475-1.423 1.854-2.792 1.79-6.456-.143-8.21.07-8.134-23.186-8.343-11-.1-23.03-.296-26.732-.437-6.712-.255-6.734-.25-8.002 2.313-3.21 6.484-.046 13.01 6.543 13.487 3.298.24 3.934-.068 7.01-3.385 4.447-4.79 6.365-4.307 6.102 1.538-.328 7.284.923 8.583 9.568 9.934 2.35.367 3.132.005 5.015-2.313 1.48-1.824 2.167-3.65 2.04-5.437-.314-4.45-.14-4.865 2.07-4.904 1.168-.02 2.378-.467 2.69-.993.746-1.256 1.764-.097 2.517 2.864.415 1.63.277 2.322-.433 2.182-.572-.113-1.77 1.764-2.665 4.17-1.49 4.004-1.534 5.2-.533 14.04.602 5.314.895 10.487.65 11.496-.833 3.427.108 4.042 5.54 3.625 2.806-.216 5.585-.8 6.174-1.3zm55.228-1.678c.238-.98.145-5.51-.206-10.067l-.64-8.285-2.746.565c-3.92.807-4.11.047-.835-3.343 2.58-2.672 2.867-3.478 2.79-7.845-.09-5.24.647-5.913 4.003-3.648 1.66 1.12 1.92 1.108 2.36-.097.69-1.9 2.015-.853 2.733 2.163.334 1.4 1.408 3.53 2.387 4.73 1.46 1.79 2.52 2.17 5.896 2.112 4.515-.08 5.798-.85 8.67-5.205 1.63-2.47 1.85-3.762 1.466-8.5-.25-3.074-.832-5.95-1.296-6.394-2.36-2.257-62.714-2.235-64.896.025-.5.52-1.357 3.035-1.9 5.59-1.536 7.21 1.22 11.128 7.748 11.014 2.43-.043 3.162-.556 4.5-3.145 1.916-3.714 3.463-3.56 3.53.347.045 2.518-.35 3.015-3.402 4.273-1.9.784-3.734 1.848-4.076 2.366-.758 1.144.41 14.542 1.355 15.546.37.393 1.86.073 3.312-.71 3.56-1.92 4.776-1.832 8.85.64 4.705 2.858 6.41 2.763 5.746-.317-.283-1.31-.647-4.12-.81-6.246l-.296-3.862 3.672-.156c3.903-.167 4.484.348 2.408 2.134-.866.744-1.226 2.557-1.104 5.56.324 7.985.946 9.268 5.305 10.944 5.01 1.927 4.96 1.928 5.475-.19zm-21.264-20.677c-2.004-2.085-3.515-8.867-2.633-11.823.95-3.186 1.945-2.03 2.68 3.118.39 2.737 1.47 6.006 2.4 7.265.93 1.26 1.694 2.52 1.7 2.806.02 1.22-2.44.407-4.146-1.366zm299.77 14.452c2.246-1.767 4.185-3.307 4.31-3.423.466-.432 2.634-10.226 2.607-11.775-.015-.886-1.313-2.403-2.884-3.37l-2.856-1.76 3.074-.07c4.383-.096 8.636-3.962 9.283-8.435.424-2.93.905-3.553 3.312-4.29 3.413-1.043 3.64-.857 4.042 3.312.233 2.412 1.005 3.823 2.89 5.28 6.134 4.733 13.407-.042 13.256-8.705-.024-1.335-.422-2.652-.885-2.927-.463-.275-4.58-.557-9.15-.626-4.57-.07-8.57-.378-8.888-.685-.32-.308-4.72-.483-9.778-.39-5.06.094-13.936-.2-19.724-.654-13.233-1.038-14.5-.72-16.23 4.083-2.932 8.138 2.92 15.965 9.096 12.17 2.21-1.36 6.074-6.588 6.046-8.185-.008-.434.867-.78 1.943-.768 1.075.01 2.508-.153 3.182-.365 1.16-.365 1.613.786 3.313 8.432.23 1.04 1.206 2.125 2.166 2.41 2.425.724 2.216 2.135-.32 2.18-2.387.04-2.636 1.087-3.382 14.188-.304 5.34-.145 7.61.53 7.598.532-.01 2.802-1.46 5.047-3.227zm-113.66.145c1.91.222 3.622.145 3.805-.17.182-.318.542-4.797.8-9.955l.468-9.38-3.62.52c-2.36.34-4.53.07-6.232-.772-3.218-1.594-3.987-1.14-5.055 2.983-.906 3.503-.912 19.563-.007 20.437.304.293 1.86-.502 3.46-1.767 2.37-1.874 3.552-2.225 6.38-1.895zm-207.78 4.183c5.916-1.377 6.354-2.482 5.472-13.8-.55-7.038-1.053-9.453-2.108-10.096-.762-.465-2.492-1.715-3.843-2.78-2.447-1.923-2.47-1.925-5.322-.24-1.935 1.142-2.766 2.22-2.56 3.324.168.9.556 6.717.862 12.928.307 6.212.567 11.39.577 11.51.04.46 2.716.133 6.923-.846zm-92.75-10.263c-.348-3.7-.854-8.025-1.126-9.612-.49-2.857-.53-2.878-4.126-2.234-5.125.918-5.908 1.968-5.145 6.893.528 3.41 1.344 4.78 4.71 7.91 5.85 5.443 6.446 5.133 5.687-2.958zm430.943-6.163c1.998-2.21 2.332-3.336 2.258-7.61-.048-2.76-.354-5.275-.68-5.59-.325-.313-2.205 1.174-4.177 3.305-3.064 3.31-3.65 4.57-4.022 8.65-.24 2.625-.198 5.004.094 5.286.805.778 3.903-1.14 6.526-4.04zm7.487-6.924c-.01-.478-.188-.866-.4-.862-.21.003-.617.402-.904.885-.287.484-.108.872.398.864.507-.01.914-.408.906-.886zm-453.62 6.397c.24-3.26-.324-4.89-2.3-6.66-1.13-1.01-2.498-2.59-3.04-3.51-.786-1.343-1.195-1.456-2.06-.57-.592.608-2.173 1.125-3.51 1.148-1.34.024-2.43.28-2.426.568.005.29 1.856 2.115 4.113 4.06 2.258 1.942 4.742 4.173 5.522 4.957 1.88 1.89 3.566 1.893 3.703.008zm8.958-7.982c2.172-2.044 3.707-5.834 3.65-9.017-.044-2.56 1.066-3.415 2.18-1.68.387.602 1.138.402 2.185-.58 1.752-1.642 2.016-1.305 4.075 5.197.76 2.397 1.163 2.608 5.327 2.777 4.237.17 4.583.026 5.808-2.45 1.426-2.878 1.65-11.012.324-11.8-.456-.27-13.754-.456-29.55-.413l-28.724.08-.527 2.27c-.29 1.248-.036 3.81.564 5.69 2.53 7.935 12.18 8.315 14.98.59.713-1.967.846-2.004 2.392-.653 1.55 1.355 1.666 1.31 2.168-.85.357-1.532 1.02-2.196 2.026-2.024 1.16.2 1.613 1.46 2.023 5.632.29 2.955.99 5.818 1.552 6.36.828.8 4.103 1.838 7.38 2.34.285.045 1.26-.616 2.167-1.47zM355 396.563c-.17-1.06-.895-1.916-1.612-1.903-1.672.03-2.14 3.645-.69 5.33.986 1.15 1.194 1.138 1.86-.104.413-.768.612-2.264.442-3.323zm75.295 1.03c.92-2.53.48-3.85-1.278-3.82-.956.018-1.728.586-1.717 1.264.032 1.804 1.02 3.966 1.808 3.953.376-.007.91-.635 1.187-1.396zm206.74-14.042c-.11-4.958-.688-9.857-1.34-11.358-3.006-6.91-12.71-5.363-19.163 3.054-2.303 3.005-2.57 4.003-2.477 9.28.057 3.253.525 6.165 1.04 6.47 1.282.762 1.784.077 2.412-3.293.8-4.287 2.995-3.793 3.405.766.484 5.383 2.484 4.782 3.07-.925 1.3-12.644 4.306-14.82 3.763-2.723-.29 6.465-.162 7.285 1.095 7.025.955-.2 1.493-1.365 1.636-3.553.32-4.91 2.708-3.71 2.798 1.407.04 2.38.836 3.25 2.616 2.863 1.107-.24 1.307-1.81 1.146-9.012zm13.885.85c.36-4.153 1-7.56 1.428-7.566.426-.007.704.477.616 1.076-.087.6.332 2.225.93 3.612.6 1.387.888 3.142.644 3.9-.245.76.416.33 1.47-.957 1.052-1.286 2.685-2.492 3.63-2.68 2.585-.517 3.46-4.255 2.075-8.885-1.01-3.378-1.66-4.108-4.67-5.252-2.433-.925-3.816-1.052-4.553-.418-.583.5-1.254.722-1.492.492-.24-.23-1.55.984-2.916 2.7a438.526 438.526 0 0 1-4.257 5.26c-1.46 1.764-1.742 3.247-1.592 8.4.113 3.892.562 6.377 1.19 6.574.642.202.956-.79.866-2.742-.078-1.682.102-3.31.398-3.616 1.17-1.212 2.416.723 2.47 3.836.03 1.805.33 3.545.665 3.868 1.595 1.54 2.5-.678 3.097-7.6zm-41.916-1.248c-.454-9.247-1.9-11.902-6.668-12.228-3.367-.23-8.81 2.582-10.186 5.264-1.316 2.565-.846 13.884.575 13.86.682-.013 1.482-1.558 1.893-3.66 1.025-5.236 2.854-5.446 2.943-.338.08 4.54 2.19 5.23 2.288.75.155-6.97.242-7.448 1.297-7.12.61.188 1.338 2.42 1.647 5.042.54 4.577.582 4.638 1.56 2.244 1.287-3.152 2.75-2.297 2.818 1.65.036 2.072.403 2.933 1.134 2.664.78-.288.974-2.543.7-8.128zm-63.372 4.58c-.365-3.414.41-6.62 1.45-6.002.47.28.883 2.244.92 4.367.047 2.696.428 3.854 1.262 3.84 1.304-.023 2.21-3.67 2.146-8.624-.04-3.043 1.095-6.16 1.944-5.334.227.22.706 2.733 1.063 5.583.65 5.18 1.463 7.563 1.403 4.108-.018-1.007.357-2.08.834-2.387.894-.575 1.218.033 2.183 4.095.728 3.067 3.616 3.206 4.313.207.744-3.2-1.88-13.46-3.955-15.464-3.376-3.26-11.482-1.455-15.866 3.532-1.968 2.236-2.36 3.488-2.312 7.404.04 3.22.528 5.215 1.543 6.298 2.016 2.15 3.398 1.42 3.072-1.623zm41.055-4.318c-.13-3.704-.767-7.758-1.42-9.01-1.15-2.21-5.14-4.666-6.048-3.724-.25.257-.962.06-1.585-.44-1.635-1.31-6.56 1.344-8.35 4.497-1.605 2.828-1.893 14.883-.355 14.856.478-.008.853-1.286.834-2.84-.02-1.554.338-3.42.797-4.144.74-1.173.93-1.177 1.713-.03.483.708.906 2.56.94 4.113.067 2.968 1.263 3.767 2.12 1.413.276-.76.477-2.89.445-4.733-.072-4.087 1.28-8.132 2.477-7.42.484.287.897 1.48.917 2.653.02 1.17.83 2.786 1.802 3.588.97.802 1.78 2.317 1.798 3.367.052 2.986 1 4.644 2.642 4.615 1.31-.023 1.476-.907 1.273-6.76zm-72.595 2.955c-.115-6.016-1.906-13.5-3.63-15.165-2.208-2.13-6.872-2.563-9.365-.867-4.748 3.23-5.39 4.71-4.914 11.295.247 3.398.48 6.746.52 7.44.14 2.407 1.656-.383 1.885-3.47.258-3.467 1.813-3.808 2.285-.5.596 4.173 2.786 1.832 2.73-2.918-.07-6.113 3.34-5.634 3.53.496.102 3.323.264 3.713.877 2.108 1.325-3.47 3.418-1.86 3.498 2.69.02 1.077.29 2.203.6 2.504 1.155 1.116 2.043-.5 1.984-3.613zm7.483.927c.05-4.567.255-5.576 1.135-5.592.478-.008.896 1.502.928 3.356.034 1.924.623 3.822 1.37 4.422 1.62 1.295 1.91.55 2.328-5.952.33-5.134 1.78-7.674 2.812-4.926.342.91 1.408 2.5 2.37 3.534 1.197 1.285 1.592 2.55 1.253 4.01-.59 2.542 1.595 4.984 2.424 2.706.613-1.683-.38-11.202-1.547-14.83-1.836-5.71-9.55-5.723-14.18-.022-2.283 2.81-2.79 7.632-1.448 13.78.73 3.344 2.517 3.005 2.555-.485zm-29.66 2c.717-1.206-1.302-13.722-2.514-15.59-.592-.913-2.29-2.196-3.77-2.85-2.99-1.323-5.812-.39-8.274 2.736-.702.89-1.9 1.872-2.664 2.18-1.573.633-2.44 4.344-2.34 10.027.056 3.217.322 3.812 1.583 3.54 1.094-.236 1.502-1.164 1.464-3.33-.04-2.168.37-3.096 1.462-3.332 1.245-.268 1.527.307 1.578 3.214.045 2.568.42 3.534 1.366 3.518 1.033-.018 1.282-1.273 1.198-6.056-.1-5.81.84-8.495 1.984-5.66.302.747.58 3.087.617 5.2.072 4.156 1.54 5.288 1.924 1.484.307-3.06 2.38-3.82 2.432-.89.078 4.472 2.572 8.135 3.954 5.808zm-24.15-6.742c.117-5.588-.15-6.902-1.92-9.432-2.865-4.096-7.49-5.104-11.12-2.423-1.432 1.06-3.046 2.785-3.586 3.838-1.01 1.965-1.062 12.513-.068 13.473.885.856 2.13-1.823 2.098-4.51-.047-3.903 2.108-2.312 2.486 1.834.434 4.746 1.984 4.665 1.918-.1-.028-2.033.31-4.288.75-5.013.64-1.05 1.022-.724 1.877 1.597.89 2.412 1.21 2.666 1.85 1.47 1.13-2.1 2.18-1.04 2.927 2.953 1.062 5.675 2.633 3.598 2.787-3.685zm-122.028 2.674c.192-2.395.42-4.55.506-4.792.086-.24.648 1.902 1.248 4.76.984 4.682 1.305 5.195 3.24 5.16 2.04-.035 2.146-.3 2.11-5.253-.06-8.27-1.308-12.305-4.51-14.58-4.712-3.347-11.557-1.754-14.84 3.453-.992 1.574-1.12 3.562-.59 9.157.733 7.747 2.415 9.35 2.766 2.634.375-7.184 3.5-6.62 3.654.658.137 6.526 1.738 3.906 1.88-3.076.182-9.06 1.773-8.686 2.256.532.414 7.907 1.692 8.66 2.28 1.345zm15.512 3.858c.057-.838.19-1.916.29-2.396.104-.48.218-1.753.254-2.83.115-3.398 1.58-2.148 2.265 1.934.847 5.054 2.2 4.2 2.06-1.3-.12-4.78.585-7.893 1.792-7.914.446-.008.862 2.92.925 6.505.066 3.766.48 6.513.983 6.504.478-.008.856-1.09.84-2.405-.015-1.315.304-2.935.71-3.602 1.104-1.812 2.686-.392 2.735 2.455.046 2.64 1.308 4.103 2.217 2.572.296-.498.208-4.057-.196-7.91-.59-5.618-1.166-7.5-2.91-9.502-1.92-2.2-2.743-2.486-6.966-2.412-4.237.074-5.074.4-7.264 2.827-2.23 2.473-2.464 3.33-2.37 8.68.056 3.264.502 6.932.99 8.15 1.005 2.513 3.483 2.95 3.643.645zm37.655-6.776c-.05-8.98-2.124-13.198-7.05-14.332-2.678-.618-3.88-.375-7.34 1.484-3.43 1.84-4.123 2.622-4.044 4.56.533 13.065.76 15.368 1.52 15.354.477-.008.842-1.505.81-3.325-.032-1.82.488-4.08 1.155-5.02 1.142-1.61 1.248-1.62 1.84-.172.344.847.43 2.625.187 3.952-.472 2.596.704 5.307 1.808 4.164.37-.383.77-3.607.886-7.163.205-6.212.957-8.023 2.128-5.125.303.75.576 2.75.605 4.444.044 2.595.248 2.91 1.3 2.005 1.803-1.55 2.765-.602 3.483 3.43.4 2.244 1.022 3.415 1.69 3.18.712-.25 1.048-2.697 1.022-7.435zm7.278-1.616c.897-.016 1.46 1.176 1.805 3.823.442 3.384.814 3.922 3.1 4.487 3.032.75 3.702.24 4.032-3.06.306-3.072 1.877-3.53 2.27-.664.165 1.192.507 2.74.76 3.44.406 1.12.555 1.117 1.248-.022 1.912-3.142-.22-15.535-3.158-18.374-2.505-2.42-8.777-1.424-12.214 1.938-2.412 2.36-2.465 2.61-1.923 9.1.71 8.487 1.95 10.61 2.425 4.143.255-3.482.706-4.794 1.655-4.81zm5.005 5.83c-.71-.686-.844-7.862-.193-10.47.887-3.556 2.043-1.116 2.14 4.52.09 5.16-.595 7.256-1.947 5.95zm16.833 2.05c.382-.008.47-1.72.198-3.804-.317-2.436-.125-4.028.54-4.455 1.77-1.136 3.036 1.097 2.93 5.165-.056 2.145.274 3.894.733 3.886 1.03-.018 1.602-2.63 1.8-8.224.235-6.565 2.29-6.35 2.407.252.05 2.946.477 5.28.96 5.273.48-.01.86-.603.848-1.32-.013-.717.368-1.31.846-1.32.48-.007.88.564.893 1.27.012.706 1.045 1.928 2.295 2.717 1.935 1.22 2.386 1.247 3.032.184.756-1.243.546-3.218-1.26-11.866-1.08-5.17-2.674-6.454-8.325-6.706-3.584-.16-4.06.14-9.058 5.717-2.38 2.658-3.287 5.243-3.218 9.192.072 4.183.67 5.27 2.495 4.533.657-.266 1.506-.488 1.886-.495zm-121.686.238c-.054-3.098-2.018-13.112-3.094-15.775-1.026-2.542-5.127-4.804-8.597-4.743-1.003.017-3.095 1.036-4.65 2.265-2.724 2.155-2.835 2.496-3.16 9.774-.368 8.176-.065 9.835 1.793 9.803.784-.015 1.198-1.02 1.175-2.848-.02-1.554.34-3.418.798-4.144.74-1.172.93-1.175 1.712-.03.483.71.907 2.593.943 4.186.042 1.926.426 2.77 1.144 2.52.686-.24 1.196-2.818 1.398-7.063.175-3.677.708-6.785 1.184-6.907.485-.125 1.13 2.63 1.473 6.29.335 3.58.665 5.66.733 4.622.32-4.894 2.662-5.932 2.744-1.217.042 2.42 1.99 5.193 3.63 5.164.444-.007.792-.862.774-1.898zm6.52-3.064c.11-2.222.438-4.287.73-4.588.938-.973 2.187 1.895 2.258 5.19.038 1.764.465 3.443.948 3.73.536.318.853-.984.812-3.332-.086-4.92.706-9.302 1.685-9.32.418-.007.79 1.725.827 3.848.073 4.142 1.34 5.957 2.068 2.96.654-2.69 2.31-1.164 2.37 2.18.04 2.26.476 2.993 2 3.363 1.072.262 2.276.136 2.676-.278.4-.414.385-4.326-.033-8.694-.922-9.622-2.314-11.833-7.913-12.573-4.15-.55-7.524.775-10.42 4.09-1.405 1.607-1.61 2.958-1.305 8.55.53 9.704 2.888 13.187 3.298 4.875zm-52.165-.558c-1.45-11.414-3.426-14.982-8.925-16.12-2.806-.582-3.97-.35-6.932 1.38-3.5 2.045-3.56 2.166-3.627 7.168-.037 2.798-.235 6.298-.44 7.777-.202 1.48-.048 3.19.345 3.8 1.192 1.855 2.465.178 2.317-3.05-.166-3.622 1.503-5.962 2.82-3.956.464.706.875 2.75.913 4.542.052 2.406.436 3.253 1.464 3.235 1.17-.02 1.342-1.035 1.073-6.322-.442-8.7-.407-8.918 1.202-7.63.922.74 1.35 2.737 1.42 6.604.053 3.115.476 5.536.965 5.527.478-.008.904-.798.947-1.755.043-.958.17-2.134.28-2.614.112-.48.245-1.265.296-1.744.052-.48.485-.878.963-.886.48-.01.9 1.725.938 3.853.048 2.768.505 4.114 1.604 4.73 2.766 1.546 3.075.957 2.377-4.538zm6.645 1.188c.25-5.384 1.834-5.366 2.272.025.288 3.536.534 4.023 1.576 3.127.838-.72 1.205-2.83 1.14-6.554-.084-4.82.852-7.526 2.167-6.257.533.516 1.046 4.227 1.262 9.13.23 5.217 1.903 3.733 1.81-1.605-.108-6.178 1.32-6.1 2.826.156 1.292 5.374 2.63 6.94 3.188 3.736.16-.913-.03-4.54-.422-8.06-1.208-10.844-5.66-13.76-14.766-9.667-2.106.946-4.075 2.397-4.376 3.225-.52 1.427.16 10.77 1.09 14.958.745 3.37 2.032 2.095 2.233-2.213zm-102.617-1.495c-.514-8.574-1.96-14.602-4.016-16.733-3.363-3.486-14.376-1.3-16.12 3.2-.374.962-.485 5.78-.247 10.707.38 7.844.614 8.916 1.89 8.64 1.122-.246 1.377-1.07 1.11-3.592-.33-3.11.813-5.82 2.468-5.85.42-.007.8 2.167.847 4.832.073 4.147.303 4.798 1.6 4.52 1.342-.284 1.464-1.248 1.063-8.34-.377-6.645-.234-8.024.832-8.043 1.51-.026 2.433 4.106 2.576 11.527.066 3.38.405 4.852 1.024 4.455.508-.328.772-2.02.586-3.758-.347-3.243.81-4.798 1.983-2.668.362.656.923 2.68 1.247 4.497.445 2.497.947 3.226 2.055 2.983 1.24-.273 1.41-1.258 1.103-6.378zm6.105 2.595c.328-3.477 2.387-4.086 2.445-.724.05 2.834 1.745 4.75 3.312 3.742.875-.562 1.616-6.246 1.724-13.215.032-2.1.077-2.118 1.34-.51.823 1.052 1.34 3.667 1.4 7.098.05 2.99.49 5.67.973 5.956.483.287.917-.09.963-.835.047-.746.176-1.75.287-2.23.112-.48.245-1.264.296-1.743.192-1.793 1.833-.822 1.867 1.105.052 2.956 2.303 5.626 3.615 4.287 1.547-1.58-.763-16.308-3.04-19.392-3.067-4.15-12.49-3.32-16.3 1.435-1.11 1.387-2.036 16.67-1.098 18.13.862 1.34 1.94-.168 2.216-3.103zm42.918-4.63c-.316-3.636-.61-7.51-.652-8.607-.042-1.098-1.13-2.937-2.414-4.087-4.115-3.682-14.194-2.103-16.604 2.602-1.6 3.122-.795 16.87.985 16.84.9-.016 1.362-1.1 1.49-3.504.104-1.914.373-4.04.6-4.72.703-2.123 2.384.355 3 4.423.92 6.085 2.296 4.226 2.323-3.138.013-3.746.25-7.043.524-7.328 1.106-1.146 1.795 1.02 2.214 6.962.527 7.487 1.61 9.18 2.34 3.657.544-4.118 2.144-4.732 2.212-.847.055 3.17 1.61 5.546 3.21 4.9 1.118-.45 1.25-1.676.773-7.154zm23.595.063c-.595-7.443-1.475-9.97-4.64-13.327-1.476-1.563-2.418-1.826-4.916-1.37-7.59 1.384-9.255 3.32-9.455 10.977-.27 10.392-.328 10.005 1.448 9.974 1.415-.025 1.684-.68 1.69-4.11.008-6.885 2.115-6.98 3.037-.136.942 6.998 2.524 5.414 2.723-2.725.1-4.05.442-7.636.763-7.968 1.573-1.627 2.468 1.09 2.586 7.847.132 7.53 1.606 10.234 1.97 3.61.22-4.005 1.764-5.09 2.222-1.56.547 4.217 1.21 6.064 2.175 6.047.678-.01.798-2.215.395-7.257zm-96.603-.61c-.896-9.293-1.6-11.845-3.94-14.282-2.645-2.756-8.495-2.83-13.49-.17-3.873 2.06-4.96 3.953-3.448 6.007.56.762 1.622 2.666 2.36 4.232.902 1.913 1.846 2.75 2.883 2.557 1.155-.216 1.614.365 1.826 2.315.47 4.32 1.166 6.5 2.065 6.485.47-.008.84-.797.823-1.753-.042-2.46 1.407-2.186 2.104.398.86 3.187 2.297 2.603 2.235-.91-.03-1.672.337-3.048.815-3.056.478-.008.886.935.906 2.096.055 3.042 2.475 5.2 4.185 3.73 1.048-.9 1.182-2.408.677-7.65zm-11.53-1.05c-.793-2.947-.233-5.282 1.273-5.31.704-.01 1.43.692 1.614 1.563.458 2.178-.467 5.81-1.486 5.827-.46.008-1.09-.93-1.4-2.08zm414.84-10.26c1.89-2.333 1.204-3.593-1.924-3.538-3.404.06-4.346 1.604-3.01 4.937.783 1.958 1.087 2.096 2.384 1.08.818-.64 1.966-1.756 2.55-2.48zm71.555.233c3.58-2.746 3.25-4.24-.926-4.168-4.05.07-4.763.906-3.332 3.906 1.278 2.68 1.118 2.67 4.26.262zm-23.13-.248c1.967-2.25 1.13-3.355-2.136-2.817-2.758.455-3.34 1.785-1.54 3.523 1.435 1.386 1.933 1.29 3.676-.705zm50.906-.96c1.108-2.16.4-3.468-1.86-3.43-1.294.024-1.676.637-1.64 2.638.052 3.058 2.1 3.52 3.5.79zm25.516-.528c1.675-2.484.824-4.486-1.575-3.704-2.52.82-2.556.89-1.882 3.39.723 2.682 1.792 2.78 3.456.314zm-192.507-1.81c-.02-1.082-6.72-.94-7.372.156-.278.47.154 2.075.96 3.57l1.465 2.716 2.48-2.814c1.366-1.547 2.476-3.18 2.468-3.63zm20.883.858c-.024-1.357-3.143-1.535-3.922-.224-.29.488-.256 1.69.074 2.67.572 1.7.68 1.712 2.235.254.898-.842 1.624-2.057 1.613-2.7zm21.842 2.766c2.803-1.564 2.006-3.483-1.42-3.423-3.158.056-3.944 1.407-1.943 3.34 1.287 1.242 1.287 1.242 3.363.084zm49.054-.826c.287-.483.13-.872-.347-.863-.478.008-1.104.41-1.39.894-.29.482-.132.87.346.862.48-.008 1.105-.41 1.392-.894zm-142.68.37c3.345-2.833 2.495-4.88-1.993-4.8-1.85.032-3.592.298-3.875.59-.56.582 2.1 6.416 2.897 6.35.27-.02 1.606-.984 2.97-2.14zm-22.04-1.003c2.593-1.446 2.037-3.483-.935-3.43-2.864.05-3.774.98-2.952 3.015.647 1.6 1.582 1.7 3.887.415zm47.25-.453c2.184-.882 1.577-2.977-.85-2.935-2.045.036-2.885 1.63-1.542 2.925.718.693.7.693 2.392.01zm-141.662-.49c-.054-3.092-2.58-2.78-2.885.357-.193 1.997.064 2.407 1.342 2.137 1.025-.216 1.567-1.093 1.543-2.494zm48.09-.174c.196-1.134-.312-1.516-1.973-1.487-1.682.03-2.23.485-2.205 1.838.024 1.367.498 1.724 1.973 1.488 1.068-.172 2.06-1 2.205-1.838zm22.804.217c1.35-1.686-.03-3.307-2.102-2.47-1.467.592-1.878 2.254-.813 3.282.92.89 1.733.663 2.914-.812zm-45.687-.482c-.032-1.863-2.553-1.55-2.886.36-.203 1.164.157 1.512 1.315 1.268.877-.184 1.585-.916 1.572-1.627zm-69.553.673c.85-.88 1.08-1.754.584-2.232-1.086-1.05-5.395.166-5.372 1.514.044 2.525 2.664 2.918 4.788.718zm22.868-.943c.182-1.047-.294-1.506-1.538-1.485-1.244.022-1.792.59-1.77 1.834.038 2.227 2.91 1.924 3.308-.35zm309.82-4.477c19.336-.397 35.615-.45 36.176-.117.56.332 1.4.36 1.867.06.467-.3 7.21-.59 14.988-.645 23.156-.165 22.577-.102 24.745-2.685 1.054-1.256 1.91-2.653 1.902-3.104-.012-.715-10.255-1.203-12.618-.602-1.846.47-39.902.854-54.767.553-8.61-.175-18.197-.165-21.302.022-3.105.185-7.407.313-9.56.28-2.152-.03-8.02.08-13.037.245-12.3.404-24.427.617-48.242.85-10.997.106-20.776.247-21.73.31-3.102.21-28.492-.582-30.37-.947-1.713-.333-27.415-.722-51.827-.786-5.978-.015-11.256.195-11.728.468-.764.44-14.885.462-25.652.04-23.753-.927-66.917-1.464-114.36-1.42-12.912.01-26.805-.14-30.873-.334a740.61 740.61 0 0 0-14.79-.527c-10.55-.25-10.438-.237-10.453-1.073-.018-1.03 4.97-2.26 8.39-2.072 2.365.13 3.09-.347 4.857-3.205 1.142-1.848 5.048-6.15 8.68-9.56 3.63-3.412 10.12-9.883 14.42-14.382 4.302-4.498 8.135-8.184 8.52-8.19.385-.008 4.042-2.915 8.126-6.462 4.084-3.546 9.742-8.228 12.574-10.403 2.83-2.175 7.073-5.764 9.427-7.975 2.354-2.21 5.245-4.727 6.424-5.593 4.206-3.085 11.325-7.792 11.8-7.8.265-.005 2.45-1.743 4.856-3.863 2.405-2.12 5.246-4.335 6.31-4.922 3.147-1.735 2.213-3.063-3.578-5.09-3-1.05-6.44-2.32-7.645-2.825-1.204-.504-2.778-.992-3.496-1.083-.72-.092-1.942-.423-2.717-.735-.88-.355-2.34.236-3.886 1.572-1.36 1.176-3.638 2.763-5.06 3.524-1.42.76-3.588 2.32-4.816 3.467-1.228 1.146-4.312 3.798-6.853 5.893l-10.62 8.763c-3.3 2.725-13.858 12.382-23.462 21.46-19.37 18.312-18.408 17.436-25.884 23.61-8.66 7.155-21.505 20.605-20.962 21.95.51 1.26 4.388 2.25 8.535 2.18 2.986-.054 4.052 1.28 1.958 2.447-.978.547-5.33.62-11.975.2-12.58-.795-21.373-.978-52.51-1.09-13.093-.048-24.07-.245-24.394-.437-.322-.192-1.134.003-1.804.433-1.035.664-.985 1.247.335 3.895.855 1.713 1.883 2.902 2.286 2.643.403-.26.714.934.69 2.65-.06 4.415 2.03 5.564 6.035 3.317 3.35-1.88 3.987-4.05 1.175-4-1.065.018-1.667-.42-1.46-1.062.54-1.688 49.308-1.937 85.41-.435 7.18.298 20.685.66 30.012.805 9.328.145 19.313.554 22.188.91 2.876.357 6.988.61 9.14.563 11.37-.247 65.056 0 72.172.33 4.547.213 11.393.184 15.215-.063 7.145-.462 27.342-.832 40.417-.74 4.065.027 16.192-.08 26.95-.24 10.756-.16 23.667-.215 28.69-.12 15.968.3 32.395.706 39.578.98 3.828.148 20.07.312 36.09.367 16.02.055 30.112.376 31.313.713 1.203.338 2.824.433 3.605.21.78-.222 17.24-.73 36.576-1.127zM116.31 361.41c-.9-1.046-.86-1.29.212-1.307.725-.013 1.553.56 1.84 1.272.288.712.193 1.3-.212 1.308-.404.007-1.232-.566-1.84-1.273zm125.674 7.3c.863-2.374.543-2.982-1.553-2.945-2.685.047-3.296.81-2.208 2.76 1.096 1.967 3.078 2.063 3.762.185zm-70.25-1.094c2.038-1.59 3.71-3.184 3.72-3.543.008-.358-2.136-.614-4.765-.57-4.478.08-4.78.218-4.745 2.187.04 2.327.88 4.838 1.614 4.825.26-.005 2.14-1.31 4.175-2.9zm23.073.595c1.395-1.03 2.394-2.273 2.22-2.762-.17-.49-2.352-1.018-4.844-1.174-3.847-.24-4.527-.058-4.505 1.213.03 1.642 2.48 4.633 3.777 4.61.45-.007 1.958-.856 3.352-1.886zm23.73.887c.75-.303 1.352-1.292 1.337-2.197-.023-1.3-.666-1.634-3.07-1.592-3.158.055-3.944 1.406-1.943 3.338 1.206 1.163 1.75 1.23 3.677.45zm-73.62-2.708c1.905-1.975 1.176-3.405-1.397-2.74-3.005.776-2.96.727-2.276 2.418.675 1.672 2.235 1.808 3.672.32zm407-11.28c2.08-.035 2.493-.403 2.46-2.2-.043-2.537-6.377-15.974-8.196-17.39-1.42-1.104-13.847-.305-13.827.89.007.398 1.525 3.26 3.372 6.363 1.847 3.102 4.012 6.79 4.81 8.196 2.6 4.577 3.614 5.335 6.344 4.74 1.396-.306 3.663-.575 5.037-.6zm81.26-1.812c.27-.743-.46-3.17-1.627-5.39-2.03-3.87-2.376-4.105-8.154-5.546-3.32-.828-6.32-1.19-6.67-.807-.445.488 2.146 12.22 2.84 12.858.027.026 2.99.09 6.585.14 5.223.077 6.635-.176 7.028-1.255zm12.326-.907c.145-.84-.224-1.517-.82-1.507-.594.01-1.708-.51-2.474-1.158-.768-.647-2.28-1.43-3.36-1.74-1.6-.455-1.96-.224-1.936 1.236.075 4.292 7.9 7.18 8.59 3.17zm-126.757 1.465c-.026-1.49-3.304-6.503-6.247-9.553-.978-1.013-1.784-2.168-1.79-2.566-.008-.398-.93-1.122-2.048-1.608-2.406-1.046-11.866 1.49-11.837 3.174.01.56 1.505 3.147 3.322 5.75 1.817 2.602 3.367 4.84 3.444 4.97.342.58 8.128 1.517 11.488 1.382 2.78-.112 3.687-.495 3.668-1.55zm18.654.725c.48-.807-2.567-6.75-7.224-14.088-2.42-3.812-2.832-4.08-6.184-4.022-5.964.104-9.01 1.06-8.978 2.823.015.868.45 1.83.968 2.137.517.307 1.218 1.198 1.558 1.98.34.782 2.223 3.84 4.185 6.794l3.567 5.372 5.82-.102c3.2-.056 6.03-.458 6.288-.894zm38.515-.687c1.277-.105 1.38-2.104.216-4.216-.452-.822-2.242-4.47-3.977-8.107-1.734-3.636-3.878-6.964-4.765-7.396-.887-.43-3.566-.605-5.953-.387-2.387.22-5.416.425-6.73.46-2.78.07-3.18 2.28-.993 5.492.735 1.08 2.31 4.603 3.503 7.83 1.192 3.227 2.577 6.11 3.078 6.406.726.43 9.963.38 15.622-.083zm20.037-.654c1.326-1.656-5.81-16.95-8.316-17.827-1.01-.353-4.533-.863-7.827-1.133-5.504-.45-5.946-.364-5.463 1.058.29.852 1.586 4.464 2.88 8.028 1.297 3.564 2.318 7.263 2.27 8.22-.05.958-.04 1.992.017 2.3.216 1.14 15.49.54 16.438-.647zm18.783.033c.245-.413.057-1.877-.417-3.254a277.613 277.613 0 0 1-2.038-6.282c-1.064-3.414-1.598-3.928-5.55-5.336-4.655-1.66-10.905-2.006-10.88-.605.012.696 3.54 11.467 5.036 15.373.476 1.245 13.114 1.34 13.85.103zM479.05 352.23c-1.323-2.034-5.03-2.25-7.676-.448-3.244 2.207-2.697 2.922 2.395 3.126 5.262.21 6.69-.513 5.28-2.68zm19.7 1.762c-.01-.647-.917-2.137-2.013-3.31a222.523 222.523 0 0 1-3.942-4.36c-1.666-1.9-2.428-2.14-5.246-1.658-3.48.598-5.452 1.75-5.427 3.17.008.47 1.248 2.356 2.755 4.192 2.674 3.258 2.874 3.336 8.316 3.24 4.11-.07 5.572-.406 5.557-1.274zm-154.39-3.08c1.697-1.397 4.892-4.46 7.1-6.81 3.91-4.156 8.552-8.334 15.855-14.268 8.16-6.63 9.576-7.83 11.25-9.533.963-.98 3.492-2.967 5.62-4.415 7.173-4.884 8.45-7.528 4.618-9.567-.964-.513-2.878-1.65-4.254-2.526-2.477-1.577-2.54-1.572-6.082.494-3.307 1.93-13.598 10.355-15.566 12.745-.47.57-2.396 2.207-4.284 3.64a151.412 151.412 0 0 0-6.525 5.294c-1.7 1.48-5.55 4.69-8.555 7.135-7.435 6.046-18.072 17.126-17.634 18.368.476 1.347 3.45 1.93 9.98 1.962 4.717.02 5.774-.293 8.475-2.517zm-52.136 1.63l6.087.036 3.832-4.675c2.107-2.572 4.88-5.457 6.165-6.41 1.283-.954 9.57-8.13 18.415-15.947 16.773-14.823 22.064-19.245 24.237-20.255.71-.33 3.03-1.978 5.152-3.662 2.122-1.683 5.507-3.93 7.52-4.99 3.805-2.007 5.094-5.255 2.083-5.25-.837 0-3.08-1.134-4.98-2.522-1.904-1.388-4-2.515-4.66-2.503-1.24.02-7.888 5.082-14.324 10.9-2.02 1.83-3.93 3.33-4.238 3.336-.31.004-3.5 2.31-7.09 5.122-3.592 2.812-7.738 5.997-9.216 7.077-1.478 1.08-3.095 2.324-3.593 2.766-.498.44-2.62 2.16-4.718 3.82-2.097 1.66-4.666 3.812-5.71 4.786a124.04 124.04 0 0 1-4.28 3.753 741.835 741.835 0 0 0-5.808 4.913c-1.884 1.61-4.778 3.96-6.43 5.222-4.88 3.727-12.953 12.327-12.576 13.397.46 1.302 4.135 2.21 6.317 1.56.952-.283 4.47-.497 7.817-.476zm29.848-2.33c.64-.942 4.48-5.2 8.53-9.466 7.215-7.598 12.453-12.384 26.214-23.952 3.768-3.168 6.976-6.06 7.13-6.43.152-.366.77-.676 1.373-.687.603-.01 1.79-.813 2.64-1.785.848-.97 1.823-1.77 2.167-1.776.344-.006 2.077-1.388 3.85-3.07 3.167-3.004 3.2-3.1 1.737-5.248-.818-1.203-2.29-2.174-3.27-2.157-2.287.04-8.753 3.985-12.722 7.76-1.7 1.62-3.44 2.95-3.863 2.96-.424.01-1.618.913-2.654 2.007-5.112 5.4-22.845 20.06-31.317 25.89-1.66 1.144-3.54 2.728-4.176 3.522-.635.792-1.63 1.45-2.213 1.46-1.732.03-11.835 10.337-11.388 11.62.467 1.338 8.934 2.282 13.76 1.534 1.67-.26 3.56-1.24 4.2-2.183zm-76.418.56c1.216-1.15 3.677-3.997 5.468-6.325 9.233-12 35.755-36.513 45.545-42.096 1.128-.643 2.046-1.484 2.04-1.868-.008-.384 2.132-2.177 4.753-3.984 2.62-1.807 4.975-3.86 5.23-4.562.256-.702 1.182-1.29 2.06-1.304.875-.015 1.81-.395 2.078-.845.267-.45 4.753-3.52 9.97-6.826 6.178-3.915 9.387-6.463 9.205-7.31-.153-.715-3.266-2.514-6.917-3.997-6.49-2.635-6.708-2.662-9.663-1.22-1.663.812-5.302 3.472-8.086 5.912-2.784 2.44-6.22 5.27-7.638 6.29-10.214 7.352-12.054 8.762-12.305 9.43-.156.416-1.438 1.378-2.85 2.14-1.41.76-6.16 4.454-10.552 8.208-4.393 3.753-10.965 9.224-14.604 12.157-3.64 2.932-8.787 7.475-11.44 10.094-6.026 5.953-8.484 8.21-11.393 10.455-4.908 3.79-15.255 13.985-15.237 15.012.03 1.72 1.438 2.15 8.116 2.488 3.445.173 6.36.408 6.478.522.117.113 1.86.097 3.87-.036 2.454-.16 4.387-.93 5.87-2.333zm30.62-1.893c3.907-4.725 11.718-12.65 15.22-15.447 1.63-1.3 5.02-4.42 7.535-6.932 5.392-5.39 20.194-17.33 29.244-23.592 3.524-2.44 7.36-5.343 8.522-6.455 1.163-1.11 2.94-2.512 3.948-3.112 7.036-4.185 9.838-6.58 9.832-8.403-.004-1.095-.534-1.947-1.204-1.935-.66.01-1.673-.533-2.255-1.21-.58-.675-2.208-1.46-3.615-1.744-1.406-.283-2.563-.875-2.57-1.315-.01-.44-.954-.784-2.1-.764-2.076.035-7.78 3.512-15.143 9.23-2.124 1.647-5.613 4.053-7.755 5.345-2.142 1.292-6.637 4.856-9.99 7.92-3.353 3.066-8.3 7.177-10.997 9.137-2.695 1.96-6.496 5.053-8.446 6.873-1.95 1.82-3.817 3.32-4.15 3.333-.335.013-1.56.92-2.723 2.016-1.165 1.097-5.097 4.59-8.74 7.76-9.4 8.186-20.88 20.446-20.847 22.265.024 1.42.96 1.495 11.744.96l11.717-.58 2.77-3.35zM189.743 346c7.282-8.407 15.136-16.51 22.497-23.217 7.7-7.014 11.818-10.968 19.835-19.04 3.383-3.408 8.02-7.793 10.305-9.745 2.285-1.952 6.09-5.442 8.454-7.754 2.365-2.313 4.637-4.21 5.05-4.22 1.05-.017 8.77-6.183 9.587-7.657.372-.67 1.915-1.88 3.432-2.69 1.516-.81 3.74-2.325 4.944-3.365 1.203-1.04 4.788-3.28 7.967-4.982 3.18-1.7 5.647-3.468 5.486-3.925-.163-.458-2.436-1.508-5.053-2.334-2.616-.825-5.642-1.942-6.724-2.48-2.133-1.066-6.306.244-6.276 1.97.008.487-.408.894-.925.903-.517.01-2.548 1.348-4.513 2.976-1.966 1.627-5.03 3.868-6.81 4.978-1.78 1.11-3.623 2.773-4.096 3.695-.473.922-1.35 1.685-1.952 1.695-.6.01-2.804 1.853-4.897 4.094-2.093 2.24-7.662 7.282-12.376 11.203-4.715 3.92-9.07 7.867-9.68 8.768-.608.902-1.445 1.646-1.86 1.653-.414.007-1.896 1.11-3.294 2.45-1.398 1.338-3.964 3.8-5.703 5.468-1.74 1.668-4.768 4.232-6.73 5.697-1.963 1.466-5.63 4.787-8.146 7.38-2.517 2.595-5.02 4.725-5.56 4.735-.54.01-1.948.972-3.128 2.14-16.677 16.496-24.076 24.416-23.728 25.4.29.822 2.02 1.155 5.715 1.098 2.915-.044 5.593.203 5.95.55.36.345 2.095.602 3.858.572 2.858-.05 3.765-.702 8.367-6.015zm-49.934 2.73c11.108-12.902 23.43-25.762 30.943-32.292 1.893-1.644 6.833-6.472 10.98-10.73 4.145-4.256 7.868-7.744 8.273-7.752.405-.007 3.943-3.296 7.862-7.31 7.312-7.488 14.644-14.207 19.352-17.734 1.465-1.098 5.534-4.394 9.043-7.324 3.51-2.93 9.3-7.532 12.87-10.224 6.058-4.567 7.487-6.38 5.815-7.373-.376-.222-3.9-.788-7.83-1.257-5.476-.652-7.606-.6-9.102.226-2.623 1.446-15.27 12.54-21.707 19.04-2.856 2.884-7.45 7.24-10.208 9.678-2.758 2.44-6.406 5.83-8.107 7.532-4.865 4.875-9.322 8.858-9.923 8.868-.303.006-2.334 1.902-4.514 4.214-2.18 2.312-6.082 6.148-8.67 8.525-11.782 10.814-23.337 23.065-36.24 38.426a255.48 255.48 0 0 1-3.725 4.307c-2.464 2.776-1.702 3.547 3.825 3.87 2.393.14 5.245.31 6.336.377 1.305.08 2.923-.97 4.728-3.066zm22.21-1.04c1.18-1.52 6.21-6.885 11.173-11.92 8.44-8.557 12.69-12.7 24.114-23.503 2.522-2.385 5.933-5.61 7.58-7.17 1.646-1.56 6.463-5.778 10.704-9.375 4.24-3.598 9.463-8.152 11.604-10.12 2.14-1.968 6.305-5.577 9.254-8.02 2.95-2.442 6.242-5.238 7.32-6.214 5.846-5.296 15.248-12.004 16.865-12.032.462-.008.834-.358.826-.778-.007-.42 1.172-1.28 2.62-1.91 1.912-.83 2.552-1.633 2.34-2.93-.24-1.457-1.562-2.078-7.122-3.344-7.864-1.79-8.27-1.667-14.755 4.5-2.286 2.17-5.624 5.07-7.42 6.438-3.144 2.4-16.762 15.05-23.08 21.444-1.682 1.703-6.757 6.206-11.276 10.007-4.52 3.8-9.318 7.975-10.663 9.276-8.207 7.937-17.99 16.836-18.862 17.155-.56.206-7.392 6.684-15.182 14.396-9.92 9.823-14.154 14.596-14.13 15.936.032 1.857.264 1.898 7.99 1.42 7.69-.475 8.025-.583 10.102-3.256zm343.023-75.6c2.09-.243 4.172-.828 4.626-1.298.532-.55-1.302-3.25-5.145-7.58-7.302-8.226-11.825-12.352-15.776-14.392l-3.007-1.552-5.677 2.92c-3.122 1.604-5.666 3.186-5.653 3.515.045 1.124 1.332 2.316 3.84 3.556 1.38.68 5.948 4.56 10.15 8.62 6.698 6.47 7.96 7.336 10.242 7.018 1.43-.2 4.31-.562 6.4-.807zm77.463-1.558c-.015-.84-4.35-7.84-7.765-12.54-1.628-2.238-2.963-4.33-2.97-4.65-.005-.322-2.1-2.754-4.658-5.408-2.557-2.653-6.447-6.947-8.644-9.543-2.197-2.595-6.106-6.528-8.686-8.74-3.99-3.42-5.167-3.98-7.89-3.76-4.507.366-10.977 3.09-10.95 4.61.012.7 2.112 3.54 4.668 6.31 6.2 6.723 7.91 8.765 10.334 12.33 1.125 1.653 3.916 5.62 6.202 8.81 2.286 3.194 4.166 6.39 4.18 7.102.036 2.127-2.433 1.512-4.108-1.024-.86-1.3-2.066-2.668-2.682-3.04-.616-.37-1.126-1.043-1.134-1.492-.007-.45-1.913-3.15-4.234-6.003-2.322-2.852-5.102-6.358-6.18-7.79-2.313-3.078-6.76-7.776-11.115-11.748-3.077-2.805-3.18-2.83-6.023-1.485-1.59.753-3.864 1.67-5.053 2.036-3.203.988-6.032 3.123-6.008 4.534.02 1.192 9.172 10.57 10.296 10.55.3-.005 3.28 2.76 6.62 6.143 4.445 4.5 6.226 6.978 6.64 9.23.308 1.694.692 3.488.85 3.987.177.556 3.297.81 8.06.66 4.276-.136 13.03.128 19.452.587 14.032 1.002 20.812 1.11 20.8.335zm-57.535-.138c7.707-.03 8.704-1.142 5.04-5.63-1.583-1.942-4.27-4.686-5.967-6.1-3.084-2.565-11.762-10.337-17.395-15.577-3.33-3.098-3.592-3.163-6.994-1.726-4.56 1.927-6.293 2.906-6.28 3.547.005.354 2.3 2.89 5.097 5.637 7.963 7.818 12.19 12.778 14.52 17.038 1.873 3.427 2.425 3.86 4.312 3.38 1.19-.3 4.64-.557 7.668-.568zM292.37 609.974c-2.416-.5-2.557-.796-.526-1.11.437-.067 1.083-.42 1.435-.785.76-.79 11.242-1.05 14.05-.35 1.08.27 1.972.933 1.982 1.475.02 1.106-12.538 1.675-16.942.768zm-33.087-376.33c-7.54-1.2-23.514-2.748-30.46-2.948-2.617-.076-4.908-.56-5.09-1.075-.393-1.113-6.276-1.175-6.257-.064.02 1.2-3.224 1.81-5.86 1.105l-2.392-.64 2.556-1.07c2.24-.94 18.95-1.078 28.288-.232 1.197.108 4.92.44 8.273.735 3.354.297 8.172.9 10.708 1.34 2.536.443 5.997.908 7.69 1.036 3.488.262 4.253.72 3.453 2.066-.676 1.14-2.444 1.1-10.907-.25zm52.99-2.73c-2.37-.318-6.805-1.415-13.347-3.3-2.3-.662-5.05-1.314-6.112-1.45-1.062-.134-6.052-1.02-11.09-1.97-18.947-3.57-26.89-4.668-36.824-5.086-5.623-.237-10.23-.688-10.234-1.003-.033-1.873 2.243-2.282 9.74-1.75 17.736 1.257 31.514 3.313 49.047 7.32 4.8 1.096 9.71 2.15 10.91 2.344 5.842.94 9.756 2.348 10.565 3.798.49.88.585 1.553.208 1.494-.376-.058-1.665-.238-2.863-.398z" fill="#FFF"/>
    </g>
</svg>
