<svg xmlns="http://www.w3.org/2000/svg" width="439" height="220" viewBox="0 0 439 220">
    <title>
        meditators
    </title>
    <g fill="#fff" fill-rule="evenodd">
        <path d="M41.542 182.848h-1.954l-5.6 17.662h-.13l-4.297-17.662h-1.953L23.05 200.51h-.13l-5.47-17.662h-1.954l6.512 19.102h1.953l4.56-17.402h.13l4.167 17.402H34.9l6.642-19.102zm26.306 0h-1.954l-5.6 17.662h-.13l-4.297-17.662h-1.954l-4.558 17.662h-.13l-5.47-17.662h-1.953l6.512 19.102h1.953l4.558-17.402h.13l4.167 17.402h2.084l6.642-19.102zm26.306 0H92.2l-5.6 17.662h-.13l-4.297-17.662H80.22l-4.56 17.662h-.13l-5.468-17.662h-1.954l6.512 19.102h1.953l4.558-17.402h.13l4.168 17.402h2.084l6.642-19.102zm6.51 18.97v-3.14H97.54v3.14h3.125zm31.256-12.036v12.168h-1.954v-11.906c.087-4.187-1.432-6.193-4.558-6.02-3.125.176-4.948 2.225-5.47 6.15v11.776h-1.822v-11.906c.086-4.187-1.433-6.193-4.558-6.02-3.386.088-5.166 2.182-5.34 6.28v11.646h-1.953v-19.102h1.953v3.794c.955-2.704 2.865-4.1 5.73-4.187 3.386 0 5.34 1.57 5.86 4.71.87-3.053 2.865-4.623 5.99-4.71 4.168-.087 6.208 2.355 6.122 7.327zm5.73 1.832h13.283c-.087-4.885-2.257-7.37-6.512-7.458-4.253.262-6.51 2.747-6.77 7.458zm13.283 4.58l1.953.522c-1.042 3.75-3.82 5.626-8.334 5.626-5.904-.262-8.943-3.49-9.116-9.682.26-6.454 3.255-9.856 8.985-10.205 5.558.175 8.423 3.62 8.596 10.336v.394H137.52c.173 4.884 2.474 7.414 6.9 7.588 3.648 0 5.818-1.526 6.513-4.58zm19.274-2.618v-3.01c-.435-3.662-2.518-5.843-6.25-6.54-4.082.174-6.21 3.052-6.383 8.634 0 5.408 2.127 8.112 6.382 8.112 3.993-.087 6.077-2.486 6.25-7.196zm1.823 8.374h-1.823v-3.664c-1.303 2.704-3.647 4.056-7.033 4.056-4.775-.262-7.25-3.49-7.423-9.682.175-6.542 2.78-9.943 7.815-10.205 3.04.087 5.252 1.483 6.642 4.187v-10.86h1.823v26.168zm4.948 0h1.954v-19.102h-1.954v19.102zm0-23.29h1.954v-2.877h-1.954v2.878zm13.674 22.112l.26.785c-.607.523-1.52.785-2.734.785-2.43.087-3.603-1.22-3.516-3.925v-13.87h-2.995v-1.57h2.995v-5.624l1.953-1.047v6.672h3.907v1.57h-3.907v13.87c-.087 1.83.65 2.66 2.214 2.485.694 0 1.3-.044 1.822-.13zm16.67-6.41v-3.795c-.608 1.047-2.735 1.788-6.382 2.224-4.428.35-6.51 1.833-6.25 4.45-.174 2.442 1.52 3.62 5.078 3.532 4.688-.174 7.206-2.31 7.553-6.41zm-12.112-5.758l-1.823-.654c.78-3.75 3.56-5.582 8.335-5.495 5.21-.174 7.683 2.093 7.423 6.804v8.503c-.087 1.832.26 3.183 1.04 4.056h-1.952c-.695-.786-1.042-1.964-1.042-3.534-1.388 2.617-4.166 3.97-8.333 4.056-3.907-.087-5.904-1.788-5.99-5.103 0-3.49 2.3-5.496 6.9-6.02 4.342-.348 6.816-1.046 7.424-2.092.262-3.576-1.562-5.277-5.468-5.103-3.82-.087-5.99 1.44-6.512 4.58zm25.785 12.168l.26.785c-.607.523-1.52.785-2.734.785-2.43.087-3.602-1.22-3.515-3.925v-13.87h-2.995v-1.57h2.995v-5.624l1.953-1.047v6.672h3.907v1.57h-3.907v13.87c-.087 1.83.65 2.66 2.214 2.485.695 0 1.302-.044 1.823-.13zm10.81-16.616c-4.515.174-6.816 3.053-6.903 8.635.174 5.147 2.474 7.85 6.902 8.113 4.34-.087 6.598-2.835 6.772-8.243-.26-5.32-2.518-8.155-6.772-8.504zm-.13 18.186c-5.644-.35-8.596-3.532-8.857-9.55.26-6.717 3.343-10.162 9.247-10.337 5.382.262 8.204 3.62 8.464 10.074-.087 6.454-3.04 9.725-8.856 9.812zm22.138-17.008l.91-1.832a5.1 5.1 0 0 0-3.515-1.047c-2.43.175-4.08 1.527-4.95 4.056h-.13v-3.532h-1.822v18.972h1.823v-10.336c.173-4.536 1.78-6.935 4.818-7.196 1.215 0 2.17.305 2.865.916zm14.455 2.747l1.823-.653c-.694-3.315-3.124-4.972-7.292-4.972-4.254.175-6.51 1.963-6.772 5.364-.26 2.79 2.17 4.58 7.293 5.364 4.08.61 5.99 1.92 5.73 3.925-.174 2.44-2.084 3.662-5.73 3.662-3.56.087-5.644-1.44-6.252-4.58l-1.823.524c1.042 3.838 3.733 5.713 8.074 5.626 4.948-.087 7.51-1.875 7.683-5.364.173-2.79-2.17-4.58-7.033-5.364-4.427-.698-6.468-1.963-6.12-3.795.086-2.443 1.823-3.664 5.21-3.664 2.864 0 4.6 1.308 5.208 3.925zm14.846-3.924c-4.515.174-6.816 3.053-6.902 8.635.173 5.147 2.474 7.85 6.902 8.113 4.34-.087 6.598-2.835 6.772-8.243-.26-5.32-2.518-8.155-6.772-8.504zm-.13 18.186c-5.644-.35-8.596-3.532-8.856-9.55.26-6.717 3.343-10.162 9.246-10.337 5.383.262 8.205 3.62 8.465 10.074-.088 6.454-3.04 9.725-8.856 9.812zm15.627-21.85v2.356h4.298v1.7h-4.297v17.27h-1.953v-17.27h-3.386v-1.7h3.387v-2.486c-.086-3.315 1.346-4.928 4.298-4.84 1.39.086 2.56.348 3.516.784l-.52 1.308c-.608-.35-1.39-.523-2.344-.523-2.17-.174-3.17.96-2.995 3.403zm10.68 21.327v-3.14h-3.126v3.14h3.125zm5.6.13h1.953v-26.037h-1.954v26.037zm14.324-17.794c-4.514.174-6.815 3.053-6.902 8.635.174 5.147 2.475 7.85 6.902 8.113 4.34-.087 6.598-2.835 6.772-8.243-.26-5.32-2.518-8.155-6.772-8.504zm-.13 18.186c-5.643-.35-8.595-3.532-8.855-9.55.26-6.717 3.34-10.162 9.245-10.337 5.382.262 8.204 3.62 8.464 10.074-.087 6.454-3.04 9.725-8.856 9.812zm28.13-12.56v12.168h-1.824v-11.906c.087-4.1-1.693-6.106-5.34-6.02-3.646.263-5.773 2.313-6.38 6.15v11.776h-1.824v-18.972h1.823v3.926c1.475-2.88 3.776-4.362 6.902-4.45 4.514-.086 6.728 2.356 6.64 7.328zm18.23 3.794v-3.01c-.433-3.662-2.517-5.843-6.25-6.54-4.08.174-6.207 3.052-6.38 8.634 0 5.408 2.126 8.112 6.38 8.112 3.994-.087 6.077-2.486 6.25-7.196zm1.824 8.374h-1.823v-3.664c-1.302 2.704-3.646 4.056-7.032 4.056-4.775-.262-7.25-3.49-7.423-9.682.173-6.542 2.778-9.943 7.813-10.205 3.04.087 5.253 1.483 6.642 4.187v-10.86h1.823v26.168zm12.762-17.794c-4.514.174-6.815 3.053-6.902 8.635.174 5.147 2.475 7.85 6.902 8.113 4.34-.087 6.6-2.835 6.772-8.243-.26-5.32-2.517-8.155-6.772-8.504zm-.13 18.186c-5.643-.35-8.595-3.532-8.855-9.55.26-6.717 3.342-10.162 9.246-10.337 5.384.262 8.205 3.62 8.466 10.074-.087 6.454-3.04 9.725-8.856 9.812zm28.13-12.56v12.168h-1.824v-11.906c.087-4.1-1.693-6.106-5.34-6.02-3.646.263-5.773 2.313-6.38 6.15v11.776h-1.823v-18.972h1.823v3.926c1.476-2.88 3.776-4.362 6.902-4.45 4.514-.086 6.728 2.356 6.64 7.328zM266.492 117.885c-4.247-.356-9.27-.53-15.207-.53-16.662 0-28.84 7.785-50.132 6.392-24.723-1.617-42.98-9.42-57.315-15.473-14.335-6.054-23.813-11.35-23.813-34.81s65.63-25.73 83.635-29.514c18.005-3.783 11.616-15.89 11.616-15.89s-54.014-12.406-76.084-12.406c-20.91 6.054-120.806 43.43-120.806 43.43S9.438 92.47 23.032 128.41c26.136 0 95.832 17.702 102.22 17.702 3.507 0 40.958 12.336 75.86 12.542 5.8.034 11.436-.46 16.778-1.266 5.34.807 10.977 1.3 16.778 1.266 34.9-.206 72.352-12.542 75.86-12.542 6.387 0 76.083-17.702 102.22-17.702 9.474-41.255 4.645-69.325 4.645-69.325s-99.897-37.377-120.806-43.43c-22.07 0-76.084 12.404-76.084 12.404s-6.39 12.107 11.616 15.89c18.004 3.784 83.634 6.054 83.634 29.514s-9.478 28.756-23.813 34.81c-7.34 3.1-15.71 6.66-25.448 9.61z"/>
    </g>
</svg>
