<svg width="790" height="790" viewBox="0 0 790 790" xmlns="http://www.w3.org/2000/svg">
    <title>
        medicine
    </title>
    <g fill="none" fill-rule="evenodd">
        <circle fill="#7B0303" cx="395" cy="395" r="395"/>
        <circle stroke="#FFF" stroke-width="23" cx="394.5" cy="394.5" r="355.5"/>
        <path d="M395.96 622.298a1678.01 1678.01 0 0 0-23.356-.788c-6.39-.162-11.87-.44-12.176-.618-.308-.177-15.615-.336-34.016-.352-18.4-.016-34.12-.37-34.933-.785-.813-.417-6.18-.675-11.926-.575l-10.448.183-1.415-4.478c-2.682-8.49-1.82-10.992 4.443-12.89 7.875-2.384 12.735-7.243 16.875-16.87.932-2.167 3.658-8.528 6.057-14.136 7.916-18.504 18.715-27.14 36.423-29.133 2.825-.318 5.28-1.04 5.454-1.606.176-.565-1.502-1.795-3.727-2.733-2.225-.94-5.702-2.767-7.726-4.064-3.295-2.11-8.45-4.652-20.763-10.237-6.105-2.77-9.946-5.052-11.556-6.866-.808-.913-1.758-1.654-2.11-1.648-.92.016-15.28-9.637-16.192-10.883-.63-.863-12.858-8.598-13.57-8.585-.918.016-13.708-9.473-13.72-10.178-.01-.568-4.525-3.875-8.706-6.378-.778-.466-3.932-2.562-7.01-4.658-3.078-2.096-6.473-4.382-7.545-5.08-3.568-2.325-11.456-8.818-15.038-12.38-1.946-1.935-5.12-4.482-7.05-5.66-1.934-1.18-4.274-2.963-5.202-3.964-.928-1.002-2.145-1.814-2.704-1.804-.56.01-1.983-.98-3.163-2.196-1.178-1.218-4.07-3.58-6.426-5.25-4.603-3.264-16.913-15.002-25.405-24.225l-5.238-5.687 2.57-2.24c1.414-1.233 3.54-4.144 4.726-6.47 2.456-4.82 4.293-5.56 4.112-1.657-.23 4.97.91 10.11 2.607 11.747 1.716 1.658 7.713 2.185 10.777.948 1.668-.674 3.865-4.836 3.823-7.243-.037-2.125 2.195-4.56 3.684-4.02.608.22 1.556 1.537 2.107 2.925.552 1.388 2.23 3.24 3.727 4.115 1.497.875 2.468 1.855 2.157 2.178-.31.322.26.57 1.266.554 1.007-.018 2.048-.397 2.312-.843.265-.444 1.66-1.09 3.098-1.432 4.162-.99 5.417-3.86 4.588-10.5-.624-5.002-.915-5.636-2.59-5.64-11.027-.03-22.558.397-24.023.89-.998.336-2.292.23-2.874-.234-.583-.465-2.037-.825-3.23-.8-5.228.114-18.89-.906-20.884-1.557-1.202-.393-3.736-.41-5.63-.038-3.34.655-3.48.827-4.474 5.46-1.35 6.3-.662 9.645 2.363 11.488l2.414 1.47-2.553-.37c-3.65-.528-4.606-1.843-5.95-8.188-1.206-5.69-4.587-10.348-7.476-10.298-1.5.027-5.232-4.613-7.055-8.77-.756-1.722-1.733-3.343-2.174-3.605-.858-.51-2.146-2.757-9.647-16.823-4.906-9.2-5.446-10.743-4.066-11.63 1.373-.882 3.697.415 2.784 1.555-.553.69-.17 2.148 1.166 4.44 1.94 3.33 2.135 3.425 8.057 3.965 3.34.304 6.558.532 7.155.506 2.824-.122 4.702-.1 12.386.158 19.192.64 48.497.54 50.32-.17 1.086-.424 3.992-.495 6.46-.16 5.232.712 21.266 1.04 50.722 1.04 11.564 0 21.435.245 21.936.542.75.446 17.197 1.247 21.806 1.062 8.01-.32 27.858-.16 28.68.233.24.116 15.49.062 33.888-.12 18.398-.18 42.055-.225 52.572-.098 10.517.127 26.774.208 36.127.18 9.355-.028 17.374.158 17.823.414.448.257 12.938.51 27.755.563 26.424.095 40.225.502 41.497 1.226.352.2 1.423-.074 2.38-.608 1.182-.66 2.264-.7 3.382-.127.903.464 8.635.934 17.18 1.044 21.58.28 32.7.582 40.32 1.098 5.69.386 32.71.164 33.884-.28 1.485-.557 32.576-.278 36.504.33 7.284 1.125 11.297.416 13.23-2.337 2.523-3.592 1.324-5.204-3.413-4.586-2.63.343-4.314.137-5.105-.627-.65-.627-1.412-.9-1.696-.604-.55.567-20.597.696-25.75.166-1.674-.174-14.19-.257-27.81-.186-27.22.14-64.463-.273-65.238-.726-.27-.16-15.33-.288-33.46-.287-18.134.002-33.24-.155-33.572-.35-.33-.193-10.697-.352-23.034-.353-12.337 0-24.585-.16-27.217-.354-11.02-.812-46.01-1.425-72.948-1.28-10.368.058-19.383-.213-20.034-.6-.65-.386-3.955-.534-7.342-.328-12.332.752-22.372.702-22.96-.114-.54-.748-1.48-.846-3.418-.356-.357.09-5.916.217-12.354.28-8.068.08-11.916-.204-12.385-.914-.376-.567-.68-.64-.68-.16.002 1.24-40.812 1.667-52.143.544-5.027-.498-21.974-.776-37.66-.617-20.68-1.137-41.566.004-61.37-.43-12.9-.36-16.562-1.434-16.957-2.41-.433-1.072 47.38.52 66.297.467 19.07-.052 20.89-.464 20.898-2.877 0-.36-.607-.64-1.352-.628-1.723.03-14.657-9.298-19.31-13.926-4.89-4.864-10.19-11.303-10.21-12.403-.008-.502-1.02-3.084-2.25-5.737-3.89-8.397-4.626-13.565-3.242-22.75.668-4.426 2.037-9.72 3.044-11.764 2.314-4.7 7.6-9.625 13.69-12.76 4.227-2.173 5.944-2.498 15.94-3.01 7.14-.365 12.972-.21 16.083.424 9.25 1.888 22.335 4.997 24.08 5.722 2.415 1.002 16.537 5.634 21.85 7.166 2.403.693 5.158 1.717 6.123 2.277.966.558 5.087 1.435 9.16 1.947 4.07.512 9.362 1.243 11.758 1.623 2.397.38 7.098.882 10.447 1.113 3.35.23 7.13.596 8.403.81 1.94.33 3.185-.514 7.73-5.233 5.667-5.887 17.29-14.858 19.295-14.893.642-.01 1.16-.342 1.154-.735-.014-.83 11.095-6.43 12.816-6.46.637-.012 2.62-1.22 4.404-2.684 1.785-1.465 3.523-2.67 3.863-2.675.34-.006 2.335-1.214 4.434-2.684 2.1-1.47 4.154-2.68 4.57-2.688.413-.007.876-.344 1.028-.748.152-.405 2.013-2.105 4.134-3.778 4.614-3.64 5.49-4.472 17.442-16.58 5.12-5.186 11.965-12.996 15.21-17.354 3.243-4.358 6.247-8.06 6.673-8.227.428-.167.768-.825.757-1.462-.01-.637.45-1.324 1.026-1.527.575-.203 1.042-1.48 1.037-2.838-.008-1.964.52-2.65 2.58-3.357 1.427-.487 4.057-2.485 5.847-4.44 9.94-10.854 20.014-16.772 29.775-17.493 8.18-.604 14.905.664 20.984 3.958a47.176 47.176 0 0 0 3.067 1.47c2.47 1.07 12.422 10.638 15 14.425 5.912 8.684 8.623 27.025 5.66 38.3a8810.02 8810.02 0 0 1-1.492 5.674c-.43 1.624-2.83 8.728-3.546 10.49-.687 1.692-2.1 5.547-4.29 11.7-.578 1.623-2.63 5.397-4.56 8.386-1.928 2.99-3.76 6.13-4.07 6.98-.58 1.597-4.887 8.746-9.138 15.172-1.332 2.013-2.418 3.893-2.413 4.177.005.284-1.135 2.156-2.534 4.16-4.085 5.85-3.65 6.516 4.687 7.183 7.884.63 38.76.193 44.958-.637 7.078-.947 29.485-8.05 35.432-11.23 8.34-4.462 14.834-7.626 15.68-7.64.547-.01 1.603-.556 2.346-1.213 1.74-1.537 16.837-7.813 18.88-7.848.858-.015 2.04-.525 2.626-1.132 2.01-2.083 22.11-1.59 27.514.675 1.926.807 4.445 1.723 5.6 2.036 6.312 1.71 16.237 9.453 20.118 15.694 2.25 3.62 4.788 12.41 4.865 16.86.07 3.983-2.024 12.912-3.906 16.654-2.346 4.67-16.347 20.632-18.122 20.663-.396.007-1.102.756-1.57 1.666-.465.91-2.21 2.492-3.878 3.515-4.05 2.486-4.132 5.314-.15 5.165 2.777-.104 29.165.39 41.073.768 11.467.365 20.006 1.11 20.264 1.765.14.36 2.195.436 4.565.166 5.618-.64 5.665.6.282 7.36-4.012 5.035-10.78 15.32-12.9 19.604-1.46 2.946-7.69 10.562-8.655 10.58-1.557.026-11.447 9.267-14.123 13.193-1.99 2.923-3.94 4.554-7.02 5.876-2.77 1.19-6.944 4.455-11.922 9.332-4.212 4.126-10.034 9.304-12.937 11.505-2.904 2.202-6.512 5.132-8.018 6.513-1.507 1.38-5.25 4.238-8.32 6.352-5.61 3.862-27.096 21.283-34.275 27.79-2.117 1.92-5.01 4.243-6.427 5.163-1.418.92-2.77 1.926-3.003 2.236-.233.31-2.045 1.42-4.025 2.467-1.98 1.05-3.843 2.313-4.138 2.81-.296.497-1.788 1.452-3.315 2.122-1.528.67-3.348 1.808-4.043 2.528-.696.72-3.58 2.633-6.41 4.25-2.828 1.62-5.914 3.592-6.856 4.385-2.028 1.71-3.88 2.83-12.468 7.562-3.55 1.956-7.063 4.097-7.806 4.758-.743.66-1.753 1.208-2.244 1.217-1.107.02-25.058 12.628-27.87 14.673-1.13.82-2.665 1.502-3.414 1.515-.748.013-2.895.85-4.77 1.86-4.544 2.447-13.635 6.282-14.946 6.305-1.346.023-5.285 2.69-5.27 3.57.007.367 1.795.905 3.973 1.193 4.75.627 7.465 1.706 12.418 4.934 4.807 3.132 8.04 7.91 11.776 17.4 4.732 12.023 6.856 16.09 12.81 24.52 5.767 8.168 7.216 9.366 16.366 13.533 6.014 2.738 6.732 4.268 4.292 9.15-.69 1.382-1.258 3.098-1.264 3.815-.006.717-.538 2.026-1.183 2.908-1.096 1.5-3.64 1.67-38.814 2.607-20.702.55-41.743 1.23-46.756 1.505-5.014.277-14.4.28-20.856.008zm22.946-4.755c.955-.07 14.245-.39 29.533-.713 15.288-.32 31.9-.673 36.917-.78 5.017-.108 9.806.177 10.642.634 1.74.95 3.204-.326 4.73-4.123 1.74-4.333.96-4.436-31.386-4.13-36.95.35-71.967.127-102.12-.647-3.96-.102-7.39.136-7.623.527-.23.392-5.2.634-11.043.537-5.84-.096-18.41-.267-27.93-.38-9.52-.112-17.737-.458-18.26-.768-.52-.31-5.64-.537-11.377-.504-5.737.034-12.877-.188-15.867-.493-6.307-.643-6.67-.27-5.53 5.7.733 3.824.81 3.898 4.198 3.948 1.9.03 3.65.12 3.89.204 1.12.388 28.462.603 55.622.437 16.487-.1 32.913-.015 36.5.19 12.297.702 38.69 1.23 43.03.86 2.386-.203 5.12-.427 6.074-.497zm70.936-14.274c.276-.286-.828-1.69-2.454-3.117l-2.957-2.598-57.685.966c-57.28.96-62.634.947-66.83-.156-1.2-.315-9.222-.63-17.826-.7-8.605-.068-17.993-.24-20.863-.38-2.87-.14-10.024-.444-15.897-.675-5.873-.233-11.832-.732-13.242-1.11-1.984-.532-3.036-.302-4.655 1.018-1.15.938-2.35 1.71-2.664 1.716-1.014.017-6.46 4.636-6.446 5.464.008.44 1.674.68 3.703.535 2.03-.146 4.964.014 6.523.355 1.932.423 2.83.305 2.818-.37-.01-.543.36-.764.82-.49 1.315.78 31.464.844 76.948.16 22.935-.343 41.922-.518 42.192-.388.27.13 12.187.27 26.48.312 14.296.04 26.07.152 26.168.245.45.43 25.423-.33 25.866-.788zm-8.352-9.64c-.037-2.093-2.42-3.288-8.734-4.377-3.347-.578-8.555-2.202-11.573-3.61-5.84-2.723-11.174-3.325-11.138-1.256.028 1.595-1.78 5.165-3.534 6.983-1.742 1.806-4.887 1.953-5.57.26-.28-.693-1.16-1.46-1.958-1.7-.796-.243-2.162-1.65-3.035-3.127l-1.587-2.685-4.49 4.744c-2.47 2.61-4.377 4.904-4.24 5.1.138.194 8.562.374 18.72.4 10.16.025 18.538.108 18.62.185.082.076 4.287.177 9.345.223 7.446.068 9.192-.15 9.175-1.14zm-94.128-4c1.676-2.722 3.71-5.553 4.52-6.29 1.273-1.16 3.137-4.338 6.48-11.054 3.17-6.364 4.423-14.4 2.977-19.077l-1.077-3.483-5.167.397c-2.842.22-5.453.578-5.803.8-.35.22.125 1.443 1.056 2.716.93 1.272 2.147 4.786 2.705 7.808.888 4.818.8 6.157-.71 10.875-.95 2.96-2.386 6.174-3.194 7.144-.806.97-1.697 2.452-1.977 3.293-.678 2.03-3.62 1.995-5.76-.07-3.692-3.565-4.984-14.49-2.466-20.85.668-1.69 2.813-4.762 4.765-6.827l3.55-3.755-2.57.033c-1.413.02-3.366-.165-4.34-.41-1.12-.28-2.578.306-3.985 1.604-4.304 3.967-5.158 6.345-5.04 14.03.154 10.042 2.206 16.07 7.137 20.97 5.64 5.604 5.328 7.366-.614 3.478l-3.232-2.114-1.317 1.952c-2.693 3.992-1.223 4.888 6.827 4.16 4.032-.364 4.302-.563 7.235-5.33zm29.575 4.56l3.87-.07-4.706-4.25c-4.54-4.107-4.727-4.185-5.415-2.296-.628 1.722-1.852 4.72-2.91 7.124-.196.442.892.52 2.473.174 1.55-.34 4.562-.646 6.69-.683zm-53.98.072c2.482-.043 2.66-1.177.522-3.344-.853-.863-2.015-2.31-2.585-3.214-.976-1.55-1.185-1.466-3.632 1.444-1.43 1.697-2.608 3.392-2.62 3.766-.034.958 3.68 2.266 5.062 1.785.633-.22 2.096-.418 3.25-.438zm37.724-.26c-.024-1.478-3.808-7.274-4.704-7.205-1.55.118-5.974 5.918-5.306 6.958.57.888 10.027 1.123 10.01.248zm-51.743-.478c.297-.307-1.65-2.777-4.326-5.488l-4.865-4.93-1.076 2.54c-.593 1.398-1.943 3.53-3 4.74-2.304 2.63-2.383 3.306-.424 3.647 2.622.458 13.134.067 13.69-.51zm-21.27-.617c-.01-.605-1.02-2.522-2.246-4.26-1.224-1.736-2.237-3.765-2.25-4.507-.013-.77-.77-1.336-1.76-1.318-.957.016-1.732.374-1.725.796.013.775-4.625 2.72-12.51 5.246-2.375.762-6.275 1.38-8.664 1.377-4.18-.006-7.45 1.137-6.335 2.215.295.285 7.524.618 16.064.74 8.54.123 15.692.37 15.894.546.897.79 3.55.163 3.534-.833zm42.72-6.017c.45-3.128-2.3-12.016-3.87-12.51-.52-.162-.933.276-.92.974.012.698-.51 1.726-1.16 2.285-2.54 2.183-2.312 6.124.59 10.186 3.084 4.32 4.64 4.05 5.36-.936zm36.894 1.377c.583-1.2 1.04-3.492 1.02-5.09-.04-3.033-2.54-12.192-3.644-13.35-.627-.655-5.087 10.218-5.05 12.312.01.59.883 2.832 1.94 4.982 2.138 4.35 4.003 4.723 5.735 1.145zm17.78-.086c3.03-2.88 5.75-8.736 8.243-17.736 2.272-8.204 1.61-17.85-1.537-22.376-1.766-2.54-2.292-2.77-5.424-2.387-1.908.235-5.537 1.114-8.066 1.954-4.37 1.453-4.717 1.796-7.047 6.95-2.54 5.62-3.02 10.498-1.482 15.052.465 1.377 1.103 3.91 1.417 5.628.805 4.393 8.36 15.404 10.543 15.366.437-.008 1.946-1.11 3.353-2.45zm-7.79-8.916c-2.403-3.345-2.575-4.106-2.643-11.708-.068-7.55.106-8.396 2.434-11.845 3.032-4.487 6.438-5.456 8.247-2.344 3.645 6.27 4.48 15.85 1.927 22.105-3.387 8.3-6.01 9.3-9.964 3.794zm6-5.762c1.842-5.733 1.352-16.813-.743-16.777-2.12.037-4.654 14.123-3.386 18.826.89 3.295 2.702 2.395 4.13-2.048zm-87.667 13.847c2.353-3.446 2.387-3.684 1.736-12.193-.366-4.773-1.01-9.012-1.43-9.42-.434-.42-1.54.734-2.542 2.65-.975 1.868-3.12 5.135-4.765 7.263-3.315 4.286-3.32 5.79-.045 12.278 2.193 4.344 3.77 4.215 7.045-.58zm109.433-1.617c.448-1.362 1.216-2.484 1.707-2.492 1.305-.022-.022-5.224-1.864-7.31-.852-.965-2.323-3.22-3.27-5.012l-1.72-3.26-1.142 2.853c-2.416 6.04-2.797 10.173-1.168 12.692 3.746 5.797 6.116 6.602 7.456 2.53zm-89.435-.99c2.09-2.475 4.183-5.347 4.65-6.38 2.64-5.834 4.534-12.442 4.608-16.07.108-5.255-1.266-12.494-2.617-13.782-.57-.545-4.132-1.99-7.912-3.206-5.75-1.853-7.052-2.02-7.97-1.023-1.794 1.953-5.408 13.74-5.88 19.18-.457 5.24.99 14.006 2.878 17.442 1.973 3.59 6.162 8.38 7.312 8.36.623-.01 2.843-2.044 4.933-4.52zm-8.93-4.134c-3.177-3.07-4.064-6.64-3.632-14.625.33-6.097 1.81-9.785 5.64-14.058 4.396-4.906 6.887-3.75 8.66 4.024 2.277 9.97.967 19.407-3.35 24.15-1.54 1.69-3.21 3.078-3.715 3.087-.504.008-2.125-1.152-3.602-2.578zm4.858-2.007c1.74-2.28 4.165-10.864 4.13-14.628-.018-2.15-.45-5.433-.96-7.294l-.926-3.383-2.024 2.567c-2.903 3.682-5.655 12.826-4.906 16.3.835 3.866 2.396 7.565 3.188 7.55.36-.005 1.035-.506 1.498-1.11zm124.176 5.936c-.332-.987-.994-1.787-1.47-1.78-.476.01-3.02-.924-5.652-2.073-2.632-1.15-5.088-2.084-5.457-2.077-1.837.032-8.48-5.796-11.1-9.736-3.648-5.49-5.632-14.274-4.204-18.613.775-2.35.69-3.068-.5-4.216-2.738-2.645-3.592.012-3.407 10.607.168 9.616.217 9.836 3.3 14.755 3.685 5.883 7.798 9.196 13.22 10.65 2.16.58 5.7 1.75 7.866 2.6 3.855 1.514 7.132 2.317 7.715 1.89.16-.117.02-1.02-.31-2.006zm-172.46 1.756c4.05-.787 7.977-2.213 10.363-3.762 5.013-3.252 14.897-13.72 16.906-17.904 2.56-5.33 6.118-17.65 5.523-19.123-.806-1.997-2.85.032-3.534 3.508-.85 4.317-6.953 14.568-11.434 19.21-4.14 4.287-17.996 12.053-19.7 11.04-1.49-.886-4.116 1.244-5.058 4.106-1.613 4.9-2.12 4.686 6.935 2.926zm166.178-14.602c-.844-2.694-1.897-5.48-2.34-6.188-.44-.71-2.39-4-4.332-7.31-1.94-3.312-4.762-6.895-6.27-7.962l-2.738-1.94-.878 2.436c-2.104 5.84 2.12 19.093 7.127 22.36 4.62 3.013 10.36 5.398 10.67 4.432.164-.512-.393-3.135-1.238-5.828zm-82.08 1.74c1.75-4.047 2.43-7.025 2.37-10.398-.11-6.313-.7-7.686-2.806-6.512-.9.502-1.63 1.306-1.62 1.786.008.48-.71 1.945-1.598 3.256-2.98 4.4-2.72 17.61.345 17.556.47-.01 1.96-2.568 3.31-5.688zm-78.122-1.5c8.846-5.48 18.63-18.362 18.525-24.388-.02-1.21-.527-2.195-1.124-2.19-.597.007-4.26 1.68-8.14 3.72-5.67 2.98-7.788 4.683-10.776 8.668-3.988 5.32-9.344 16.463-8.525 17.737.765 1.194 4.544-.14 10.04-3.546zm97.27-20.36c.583-2.548-.508-3.188-2.083-1.222-1.03 1.287-.205 5.47.857 4.342.373-.396.925-1.8 1.227-3.12zm-36.257.676c1.57-1.626 1.183-3.323-.752-3.29-1.273.023-1.726.61-1.7 2.203.043 2.372.862 2.735 2.453 1.087zm68.254-2.392c1.383-3.8-1.282-7.298-4.554-5.976-1.167.47-1.09.82.546 2.503 1.045 1.075 1.913 2.614 1.927 3.42.032 1.85 1.414 1.885 2.08.053zm-58.124-5.83c.404-1.11.21-1.894-4.405-17.773-4.28-14.73-4.616-16.992-5.382-36.362-.386-9.768-1-18.046-1.363-18.396-.363-.35-2.813-.717-5.443-.816l-4.783-.178.38 6.51c1.032 17.782 3.895 36.434 8.045 52.433 1.482 5.71 2.91 11.355 3.172 12.545.263 1.19 1.38 2.545 2.485 3.01 2.46 1.037 6.77.463 7.293-.97zm26.634.03c4.66-.59 9.226-1.492 10.146-2.006.92-.513 2.094-2.596 2.607-4.628.513-2.032 1.436-5.66 2.05-8.06 2.332-9.1 5.168-22.474 5.138-24.224-.018-1.003.473-4.203 1.09-7.112 2.592-12.212 3.6-17.776 4.08-22.503.502-4.943.48-5.005-1.712-4.966-1.222.02-2.472.46-2.778.975-.307.516-1.15.723-1.872.46-1.378-.5-8.02 1.292-8.085 2.182-.02.283-.155 4.428-.3 9.21-.36 11.862-1.758 19.307-7.945 42.284-1.1 4.082-1.985 7.897-1.97 8.478.025.84-2.13 6.514-3.043 8.01-.11.18-.76.125-1.444-.124-1.453-.528-1.45-.555 3.365-21.523 1.817-7.917 3.653-16.16 4.08-18.32.427-2.157 1.296-5.887 1.93-8.288 1.635-6.174 3.043-18.836 2.18-19.59-.4-.348-2.73-.82-5.18-1.047-6.993-.65-7.784.357-8.315 10.588-.243 4.684-1.132 12.243-1.975 16.798-.843 4.556-1.897 10.933-2.343 14.17-.445 3.24-1.32 7.165-1.94 8.725-.623 1.56-2.296 6.763-3.718 11.563-2.15 7.255-2.38 8.872-1.372 9.583 1.42 1 5.65.847 17.327-.632zm-40.775-3.205c-.347-1.46-1.377-4.8-2.29-7.42-3.92-11.282-6.52-26.073-7.235-41.167-.384-8.118-.936-16.77-1.228-19.23-.6-5.052-1.062-5.36-10.418-6.95-5.942-1.008-6.942-.362-6.033 3.895 1.01 4.738 2.343 12.073 2.908 16.027.307 2.145 1.557 8.575 2.777 14.29 1.22 5.713 2.42 11.362 2.662 12.553.244 1.19 1.714 6.64 3.268 12.11 1.554 5.468 2.973 11.103 3.154 12.522.4 3.152 5.804 6.427 10.203 6.184 2.728-.15 2.832-.28 2.23-2.813zm61.67-1.184c2.127-.764 4.184-1.34 4.57-1.28 4.386.67 6.59-3.043 8.34-14.058.733-4.596 1.668-9.04 2.08-9.878.413-.837 1.06-3.194 1.44-5.24 2.872-15.51 4.094-21.503 4.848-23.776 1.452-4.377 3.925-16.537 3.5-17.206-.432-.68-9.712-.076-10.44.68-.245.252-.923.285-1.508.072-2.815-1.024-4.243 3.772-6.215 20.864-.375 3.248-.892 6.613-1.15 7.478-.258.865-.617 3.107-.797 4.983-.64 6.663-5.818 26.178-9.09 34.255-1.022 2.524-.93 4.518.205 4.498.194-.003 2.092-.63 4.218-1.394zm-40.766-5.602a523.852 523.852 0 0 1 3.244-11.106c4.746-15.55 9.325-46.743 7.167-48.827-.59-.568-7.356-1.024-17.652-1.188l-6.084-.097.523 12.59c.287 6.926.894 15.323 1.35 18.66 1.3 9.528 5.39 29.383 6.43 31.225.52.918 1.18 2.373 1.465 3.235.822 2.48 2.068.906 3.558-4.492zm-36.96 3.598c-.01-.662-1.032-4.066-2.267-7.564-2.37-6.706-5.673-19.692-6.53-25.667-.28-1.952-.954-5.386-1.498-7.63-.545-2.245-1.466-7.82-2.047-12.392-2.904-22.822-2.405-20.94-5.66-21.342-4.486-.553-15.908-3.652-18.89-5.125a513.65 513.65 0 0 0-6.483-3.13c-1.808-.855-3.295-2.052-3.305-2.66-.026-1.46.072-1.445 5.427.913 5.91 2.6 23.693 7.9 26.357 7.854 1.12-.02 5.007.877 8.636 1.992 3.63 1.115 7.703 1.96 9.05 1.878 1.35-.082 4.81.508 7.692 1.31 2.882.804 6.61 1.522 8.283 1.597 1.676.074 4.222.355 5.66.625 2.916.547 20.027 1.457 22.398 1.19 1.683-.187 5.047-.303 7.382-.253 5.968.128 16.327-.47 21.05-1.212 14.403-2.267 22.838-3.93 23.715-4.68.526-.448 3.1-1.256 5.72-1.795 2.618-.54 7.785-2.034 11.48-3.322 3.698-1.288 7.394-2.357 8.215-2.374.822-.018 2.603-.636 3.96-1.374 1.355-.737 3.124-1.352 3.93-1.366.805-.014 1.93-.51 2.5-1.1 1.9-1.966 9.727-1.377 14.785 1.113 5.55 2.732 14.556 5.487 17.804 5.446 1.282-.017 3.278.31 4.436.728 4.802 1.73 13.103 2.392 31.286 2.494 10.19.058 13.003-.18 13.79-1.162 1.477-1.845.234-2.462-5.222-2.592-2.71-.065-7.21-.182-10.006-.26-2.795-.078-5.258.155-5.475.52-.217.362-1.143.275-2.06-.194-.915-.47-1.972-.777-2.348-.682-1.066.27-9.03-.817-12.703-1.732-3.35-.834-7.104-1.453-11.075-1.826-9.334-.877-14.918-2.538-19.654-5.847-1.45-1.014-3.523-2.106-4.604-2.427-1.08-.32-1.975-1.17-1.988-1.887-.028-1.605 2.75-.943 6.38 1.52 2.767 1.878 16.43 5.63 19.798 5.436 3.496-.202 13.338.798 15.247 1.547 2.328.914 21.37 2.128 31.98 2.038 8.47-.07 11.922-.976 11.885-3.118-.016-.895-3.712-1.086-17.446-.903-9.584.127-17.898-.128-18.475-.568-.578-.44-3.174-1.032-5.77-1.317-2.595-.285-6.91-1.082-9.59-1.77-2.678-.69-6.243-1.543-7.922-1.897-3.904-.822-12.14-3.13-14.41-4.038-.962-.385-3.32-1.14-5.242-1.678-4.54-1.27-8.826-4.755-7.655-6.224 1.216-1.526 3.482-14.2 2.827-15.82-.3-.744-1.114-1.343-1.807-1.33-.694.01-1.023-.38-.732-.872.292-.49.887-.68 1.322-.42 1.185.703 5.82-2.06 7.205-4.294 2.115-3.413 2.414-8.017.74-11.39-2.057-4.147-1.438-5.778 1.217-3.213 2.386 2.304 4.645 1.52 5.07-1.76.24-1.83-.01-1.937-3.717-1.577-2.19.212-4.113-.005-4.282-.484-.263-.75-66.25.052-69.866.85-1.563.343-1.295 2.558.307 2.53 1.08-.02 1.337.972 1.287 4.974-.034 2.75.253 6.11.638 7.472.635 2.243.527 2.422-1.15 1.922-1.34-.4-2.787.227-5.25 2.278l-3.4 2.83.29 15.744c.16 8.66.18 16.527.045 17.485-.222 1.586.263 1.74 5.404 1.717 8.108-.036 8.478-.366 8.784-7.824.142-3.47.69-9.932 1.218-14.357 1.155-9.684.7-11.833-2.788-13.207-1.45-.57-2.643-1.43-2.65-1.908-.01-.532.443-.502 1.166.077.65.52 1.377.747 1.613.502.237-.246 1.857.12 3.6.813 7.29 2.898 12.467.53 14.298-6.538 1.673-6.456 4.814-4.52 5.917 3.647.558 4.14 1.2 5.602 3.29 7.488 1.613 1.457 2.12 2.353 1.34 2.366-.932.017-1.507 2.208-2.232 8.512-.537 4.67-1.143 9.79-1.346 11.38l-.37 2.888 3.35-.625c7.337-1.37 8.868-2.25 9.8-5.648.485-1.768 1.195-5.555 1.577-8.415.59-4.407.465-5.45-.815-6.83-1.428-1.542-1.42-1.686.154-2.636 3.09-1.865 5.61-5.22 6.457-8.602.872-3.48 1.958-4.302 2.83-2.143.705 1.746-.56 5.97-2.678 8.943-2.005 2.81-4.54 18.478-3.203 19.785.446.437 2.257.13 4.296-.727 4.277-1.798 4.353-1.803 4.38-.28.04 2.26-7.79 6.106-21.11 10.37-6.987 2.238-14.026 4-17.723 4.436-1.677.198-4.022.56-5.213.803-6.225 1.276-7.878 1.5-13.87 1.887-3.58.23-10.61.784-15.62 1.23-13.727 1.217-29.898 1.133-38.674-.203-4.313-.658-9.716-1.34-12.008-1.514-2.29-.175-4.934-.712-5.874-1.194-.938-.482-3.38-1.182-5.424-1.556-6.342-1.16-13.77-3.192-16.586-4.536-1.483-.708-3.535-1.272-4.56-1.254-1.026.018-2.242-.294-2.703-.694-.46-.4-2.802-1.21-5.202-1.8-2.4-.59-5.16-1.56-6.135-2.16-.974-.597-3.534-1.67-5.69-2.38-4.2-1.386-14.842-7.948-14.898-9.186-.018-.412 1.31-.52 2.952-.242l2.985.506-.08-6.51c-.045-3.582-.46-6.738-.927-7.015-.466-.277-.87-1.848-.9-3.492-.052-3.032-1.408-3.883-3.212-2.015-.496.514-3.11 1.202-5.81 1.528-5.895.712-6.24 1.472-5.14 11.34.606 5.446 1.02 6.654 2.394 6.988.913.222 1.666.676 1.67 1.008.015.802-4.596 5.356-5.437 5.37-.362.007-2.67.988-5.13 2.182-10.29 4.996-12.605 5.915-13.8 5.48-.69-.25-1.837.143-2.546.877-.708.735-1.47 1.16-1.692.945-.222-.214-2.452.035-4.954.556-5.155 1.072-22.582 2.47-29.13 2.34-2.39-.05-5.72-.42-7.4-.828-3.5-.846-9.37-.373-10.552.85-1.046 1.084 7.562 4.03 15 5.136 11.26 1.673 34.238-1.257 44.033-5.615 1.557-.693 3.8-1.277 4.986-1.298 1.186-.02 2.827-.423 3.65-.894.82-.47 4.207-2.177 7.524-3.792 3.318-1.615 6.323-3.086 6.678-3.27.355-.182.656.276.67 1.018.028 1.626-7.728 6.935-12.486 8.547-1.882.637-4.585 1.672-6.008 2.3-6.437 2.836-11.475 4.492-14.508 4.77-1.81.164-4.045.72-4.97 1.237-.924.515-2.952.988-4.508 1.05-8.46.34-22.31.27-24.774-.128-2.003-.323-2.82-.128-2.79.668.05 1.417 5.52 4.07 8.288 4.023 1.147-.02 2.35.376 2.674.88.325.506 1.148.694 1.83.418 1.86-.75 2.54 1.967.818 3.273-1.396 1.058-1.396 1.22-.002 2.565.817.79 2.09 1.425 2.824 1.412 1.053-.018 1.208-.655.728-2.986-.34-1.658-.235-3.203.24-3.51.467-.3 3.82-.765 7.45-1.035 7.162-.534 30.302-6.677 38.79-10.3 2.836-1.21 5.676-2.21 6.31-2.22.634-.012 1.147-.412 1.138-.89-.008-.478.597-.88 1.346-.893.97-.017 1.294.66 1.127 2.36-.176 1.783-1.18 2.924-4.004 4.542l-3.77 2.16.577 7.03c.317 3.867 1.08 9.564 1.696 12.66 2.103 10.594 3.895 18.616 5.217 23.37.727 2.617 1.577 6.22 1.89 8.01.632 3.628.887 3.908 7.082 7.757 6.182 3.842 9.96 5.23 11.08 4.072.526-.547.585-1.413.14-2.084-.418-.632-1.463-4.07-2.32-7.64-.86-3.568-2.394-9.603-3.41-13.41-1.015-3.804-2.195-10.04-2.623-13.856-.427-3.816-.897-7.72-1.044-8.672-1.316-8.56-1.697-18.472-.734-19.09 1.655-1.064 2.413.886 3.14 8.09 1.22 12.04 3.73 27.326 5.43 33.022 1.78 5.97 5.017 19.104 6.004 24.348.35 1.863 1.21 3.355 2.1 3.647.83.27 2.694 1.246 4.144 2.166 5.177 3.285 5.584 3.455 6.125 2.545.287-.484-.55-3.892-1.863-7.574-1.313-3.68-2.83-9.814-3.374-13.628s-1.62-10.655-2.392-15.203c-1.547-9.113-2.087-23.023-.924-23.77.407-.262 1.008 1.562 1.334 4.053 1.76 13.458 2.944 20.627 4.12 24.965.723 2.658 1.52 6.256 1.775 7.997.252 1.74 1.51 6.293 2.79 10.118 1.283 3.825 2.626 9.122 2.984 11.77l.65 4.815 5.344 2.36c8.33 3.68 10.152 4.056 10.118 2.088zM320.68 466.39c-.303-.472-.138-.866.368-.874.506-.01.927.374.935.852.01.478-.157.872-.368.876-.21.003-.63-.38-.935-.853zm76.74-1.763c-.266-.257-4.944-.61-10.395-.783-8.937-.286-22.03-1.662-27.77-2.92-1.2-.26-2.965-.59-3.924-.728-.957-.14-2.85-.67-4.202-1.183-1.354-.512-6.067-1.706-10.474-2.654s-9.59-2.44-11.517-3.318c-1.927-.877-5.06-1.79-6.96-2.03-1.9-.24-4.257-.933-5.24-1.54-.982-.608-3.245-1.345-5.028-1.64-1.785-.293-5.048-1.633-7.253-2.978-2.204-1.345-4.232-2.44-4.507-2.436-.976.017-4.692-3.847-4.725-4.914-.05-1.565.513-1.397 4.79 1.437 2.108 1.398 4.154 2.544 4.545 2.548.392.003 1.704.754 2.914 1.667 1.21.914 2.89 1.658 3.734 1.654.843-.005 2.218.333 3.055.75.837.416 3.093 1.13 5.012 1.585 1.92.455 6.83 1.743 10.912 2.862 4.082 1.12 11.936 2.984 17.452 4.145 5.516 1.16 11.013 2.465 12.216 2.9 1.202.432 4.926.922 8.274 1.086 3.348.165 9.027.67 12.62 1.126 11.33 1.432 34.18 1.2 44.744-.456 5.243-.82 10.704-1.647 12.134-1.835 4.234-.557 20.636-4.263 22.505-5.084 3.536-1.556 25.184-8.363 26.675-8.39.303-.004.562.6.575 1.342.014.813-1.952 2.255-4.934 3.62a464.666 464.666 0 0 0-8.404 3.95c-1.896.924-5.98 2.182-9.076 2.794-3.096.613-7.183 1.677-9.083 2.364-1.9.687-5.21 1.49-7.355 1.78-2.146.294-7.214 1.198-11.262 2.01-4.048.812-8.725 1.69-10.394 1.95-4.834.75-29.125 1.83-29.657 1.317zm-100.072-15.643c-.013-.753.5-1.06 1.29-.77.722.26 1.314.588 1.317.725.002.135-.58.482-1.29.77-.78.315-1.303.027-1.317-.726zm168.756-27.418c.593-.25 1.57-.268 2.17-.038.603.23.118.436-1.077.457-1.194.02-1.686-.168-1.093-.42zm-13.922 109.52c3.257-1.51 3.815-2.176 4.25-5.078.277-1.836 1.414-7.266 2.528-12.064a858.1 858.1 0 0 0 3.56-16.14c.847-4.076 2.1-9.377 2.784-11.778.685-2.402 1.572-5.546 1.972-6.987 1.203-4.334 2.704-15.23 2.17-15.745-.945-.913-11.34 1.85-12.852 3.418-.916.948-1.498 2.88-1.47 4.88.024 1.822-.307 5.274-.738 7.67-.43 2.398-1.304 7.302-1.94 10.897-.64 3.596-1.575 8.305-2.082 10.464-.888 3.787-3.35 15.022-4.87 22.244a127.362 127.362 0 0 1-1.587 6.54c-.468 1.678-.845 3.395-.838 3.816.018 1.04 4.546-.023 9.112-2.14zm17.49-8.416c2.52-1.474 4.685-3.124 4.81-3.668.126-.544.598-2.364 1.05-4.044 1.843-6.86 5.218-20.954 8.045-33.596 1.524-6.815 2.305-10.202 3.823-16.578 1.233-5.18 1.63-10.89.758-10.875-.248.003-2 1.023-3.896 2.266-1.894 1.243-4.628 2.518-6.075 2.833-1.447.315-3.137 1.408-3.756 2.428-1.305 2.15-2.78 9.367-3.32 16.23-.205 2.633-.59 5.377-.852 6.1-.535 1.468-3.846 14.53-7.52 29.675-3.094 12.743-3.095 13.284-.026 12.508 1.308-.33 4.44-1.807 6.96-3.28zm13.677-7.532c7.13-3.23 12.278-5.966 13.047-6.93.444-.558 1.048-2.583 1.34-4.5.295-1.917 1.74-8.003 3.215-13.525 3.6-13.486 3.937-14.924 4.09-17.45.074-1.197.507-4.112.963-6.478.982-5.093.008-8.313-2.5-8.27-.95.017-3.598-1.11-5.883-2.503-2.285-1.394-4.602-2.527-5.148-2.517-.587.01-1.38 3.132-1.94 7.637-1.306 10.52-2.993 20.246-4.376 25.23-.64 2.307-2.462 9.565-4.05 16.13-1.586 6.564-3.11 12.554-3.385 13.31-.637 1.753.538 1.72 4.626-.134zm23.908-11.757c1.675-.834 3.04-1.835 3.032-2.225-.007-.39.552-.717 1.242-.73.69-.01 2.243-.918 3.45-2.015 3.078-2.794 7.193-20.674 7.253-31.51.012-2.155-.515-2.694-3.923-4.01-2.165-.837-5.208-1.52-6.76-1.52h-2.825l.078 4.5c.043 2.474-.267 5.706-.69 7.18-.423 1.476-1.34 6.408-2.035 10.96-.696 4.553-1.983 10.54-2.862 13.306-2.582 8.127-1.962 9.057 4.04 6.065zm-217.85 3.246c-.407-1.008-2.968-12.622-4.996-22.657l-.876-4.33c-.096-.477-.3-4.602-.453-9.168-.324-9.71-1.48-12.25-4.79-10.537-1.114.576-3.295 1.32-4.846 1.652-3.465.743-4.835 3.142-3.903 6.834.384 1.52.8 4.52.926 6.668.126 2.15.708 6.44 1.294 9.536.586 3.097 1.315 7.418 1.62 9.603.586 4.195.004 3.598 11.39 11.678 2.986 2.118 5.347 2.485 4.634.72zM532.63 487.77c1.64-1.395 3.413-2.545 3.944-2.554.53-.01 1.375-.958 1.875-2.108 1.17-2.692 2.035-16.74 1.065-17.296-.406-.233-3.48-.646-6.833-.917l-6.094-.494-1.908 11.18c-1.05 6.15-2.044 12.828-2.212 14.84l-.305 3.66 3.745-1.885c2.06-1.038 5.085-3.03 6.723-4.425zM268.79 491.1c-.118-.902-.753-6.91-1.412-13.35-.66-6.442-1.557-12.14-1.997-12.662-.857-1.02-4.857-.522-5.58.693-.24.406-1.02.524-1.73.265-.714-.26-1.906.053-2.65.694-1.35 1.16-1.22 5.587.46 15.716.52 3.135 2.935 6.74 4.496 6.712.435-.008 2.165.92 3.844 2.06 3.435 2.333 4.883 2.292 4.568-.128zm280.698-15.004c5.183-4.65 5.436-5.014 5.405-7.766-.024-2.117-.263-2.227-4.8-2.195-4.775.033-4.775.033-5.523 3.194-.41 1.737-.98 4.825-1.263 6.86-.68 4.866.676 4.845 6.182-.094zm-297.395 6.048c.51-1.44-1.236-13.95-2.034-14.58-.34-.27-2.655-.29-5.142-.05-3.495.342-4.635.82-5.02 2.107-.81 2.724.335 4.648 4.6 7.722 2.217 1.6 4.412 3.586 4.876 4.415.99 1.764 2.174 1.932 2.72.387zm145.528-30.642c1.32-.814 1.56-2.098 1.458-7.846-.12-6.82-1.902-15.71-3.846-19.193-.848-1.52-.698-2.074.926-3.43 3.632-3.03 5.58-6.486 6.1-10.828.655-5.475 3.066-6.085 5.16-1.308.89 2.03 2.26 3.412 3.993 4.032 1.45.518 2.643 1.248 2.65 1.62.023 1.312-3.657.724-6.142-.98l-2.512-1.725-.86 3.426c-.497 1.986-1.757 4.04-2.997 4.882-2.506 1.705-2.665 3.915-.556 7.73 1.174 2.127 1.573 5.113 1.75 13.087l.226 10.33 5.98-.16c3.948-.108 6.395-.59 7.195-1.42 1.818-1.88 2.22-32.146.455-34.21-.73-.852-.887-1.584-.382-1.767 2.817-1.016 6.606-4.194 7.3-6.122 1.032-2.86.86-12.584-.25-14.276-.69-1.05-3.484-1.272-14.998-1.197-7.784.05-18.456-.075-23.717-.28-5.26-.203-15.976-.468-23.81-.588l-14.246-.22.58 2.02c.317 1.11.598 2.898.623 3.973.062 2.643 1.638 2.447 2.638-.33.446-1.238 1.448-2.91 2.226-3.716 1.317-1.364 1.377-1.3.88.92-.292 1.31-.732 3.462-.977 4.78l-.81 4.36c-.45 2.43-2.057 2.623-2.098.253-.05-2.885-1.412-1.93-2.21 1.55-.586 2.555-1.682 3.9-5.042 6.185-2.362 1.606-5.078 2.83-6.036 2.72-1.967-.225-1.987.5-.506 17.593.93 10.728 1.647 13.006 4.08 12.964.98-.017 4.02.712 6.756 1.62 2.735.908 5.39 1.644 5.896 1.635.61-.01.858-4.647.73-13.7-.225-15.9.103-25.418.876-25.432.3-.005 1.01.53 1.578 1.19.567.66 1.997 1.425 3.177 1.7 2.526.587 2.905 2.19.527 2.232-1.408.024-1.784 1.12-2.58 7.532-.757 6.098-.674 9.38.444 17.528 1.542 11.235.897 10.473 9.874 11.66l4.12.544-.074-4.225c-.076-4.352 2.838-17.543 5.044-22.83 1.165-2.794 1.107-3.274-.89-7.372-1.173-2.41-2.146-4.87-2.16-5.47-.016-.596-.615-1.074-1.33-1.062-2.106.037-1.534-2.214.85-3.35 2.89-1.38 2.977-1.358 3.013.726.07 3.966 2.21 9.453 4.615 11.83 2.47 2.438 2.7 3.946.48 3.138-1.63-.593-5.415 13.055-5.906 21.3l-.416 6.977 4.7.83c7.036 1.242 7.752 1.312 12.494 1.223 2.406-.046 5.085-.52 5.954-1.056zm-7.74-28.437c-.015-.777.49-1.09 1.288-.8.722.264 1.318.828 1.326 1.254.007.426-.573.785-1.29.798-.717.012-1.313-.55-1.325-1.253zm-27.12-10.416c-.02-1.09.902-1.106 2.605-.047 1.065.663.944.83-.637.867-1.075.026-1.96-.343-1.97-.82zm212.81 33.36c.344-.563.616-2.197.604-3.63-.013-1.434.544-4.572 1.236-6.974 1.553-5.386 3.53-17.402 3.443-20.916-.038-1.574-1.04-3.708-2.534-5.392l-2.47-2.786-1.163 2.265c-1.188 2.318-4.018 4.424-4.856 3.615-.257-.248.316-1.483 1.273-2.745 1.875-2.47 3.133-10.417 2.124-13.414-.338-1.002-1.335-2.192-2.216-2.643-.88-.452-9.172-.898-18.424-.992-9.252-.093-22.163-.28-28.69-.414l-11.87-.244-1.732 2.284c-2.582 3.403-3.74 8.034-3.08 12.3.59 3.81.08 4.637-1.76 2.86-1.4-1.353-8.817 6.63-8.768 9.437.02 1.138-.557 5.01-1.282 8.607-1.42 7.05-.825 9.19 2.537 9.13 1.796-.03 7.93 2.504 8.782 3.63.864 1.142 3.315-3.097 3.27-5.656-.02-1.264.5-5.737 1.156-9.94 1.106-7.07 1.084-7.76-.296-9.233-.82-.875-1.187-1.597-.816-1.603.372-.007.127-.676-.543-1.488-.773-.937-.29-.787 1.322.41 1.397 1.04 3.464 1.873 4.594 1.853 2.316-.04 2.48.54 1.145 4.05-1.122 2.95-3.056 15.276-3.012 19.196.03 2.62 2.19 4.896 4.15 4.374.377-.1 2.245.246 4.15.768 1.908.522 3.745.66 4.085.304 1.547-1.618 4.44-22.83 4.682-34.347.12-5.704 1.223-8.405 2.998-7.35.576.342.627 1.51.146 3.306-1.042 3.89.658 9.145 3.906 12.074 1.466 1.322 3.038 2.398 3.493 2.39.456-.008.614.345.353.785-.26.44-1.95.114-3.752-.724-1.802-.838-3.523-1.366-3.824-1.172-.3.193-.77 3.282-1.043 6.863-.273 3.582-1.01 8.586-1.637 11.12-1.57 6.337-1.428 7.578.953 8.436 3.68 1.326 10.087 1.42 11.093.163 1-1.248 2.04-8.245 2.737-18.39.438-6.383.262-6.778-2.838-6.35-.802.11.106-.71 4.867-4.402 1.365-1.058 1.897-2.636 2.14-6.353.338-5.168 1.58-7.28 2.45-4.168.62 2.21 1.095 2.26 2.503.262 1.435-2.036 1.757-1.53 2.462 3.866.583 4.46-.2 5.906-1.756 3.238-1.182-2.028-5.322 4.58-5.292 8.446.013 1.647-.608 7.603-1.38 13.236-1.692 12.34-1.406 13.075 4.89 12.563l4.27-.347 1.407-8.28c3.025-17.788 3.283-21.12 1.72-22.22-1.928-1.36-1.866-3.222.087-2.64.852.254 2.804.078 4.338-.39 2.992-.915 3.86.165 1.603 1.99-1.1.89-1.78 5.454-4.14 27.754-.3 2.807-.06 3.362 1.712 4.004 2.964 1.072 9.756.83 10.493-.373zm-56.35-30.74c-.02-1.136 7.65-9.262 8.22-8.71.998.963-1.064 5.423-2.97 6.424-1.068.56-2.37 1.463-2.894 2.006-1.126 1.166-2.337 1.31-2.355.28zm68.177 28.947c.912-.81 1.83-3.228 2.144-5.658.302-2.335 1.24-7.385 2.084-11.223.844-3.838 1.505-8.826 1.47-11.084-.065-4.048-.097-4.093-2.28-3.22-2.997 1.2-3.863 1.135-3.357-.256.234-.644 1.67-1.745 3.188-2.445 2.18-1.006 3.01-2.15 3.93-5.423 1.46-5.192 3.91-5.906 3.175-.925-.266 1.797-.767 7.583-1.116 12.858-.348 5.276-1.25 12.247-2.005 15.49-.756 3.246-1.145 6.12-.865 6.39.936.906 10.77-6.37 11.605-8.585.875-2.32 1.946-9.647 1.865-12.754-.04-1.48.61-1.977 3.18-2.433 4.135-.735 7.382-3.872 8.638-8.346.726-2.588 1.565-3.686 3.138-4.11 2.547-.687 2.27-.91 4.118 3.333 1.322 3.038 1.34 3.483.164 4.168-1.582.92-1.74 4.47-.175 3.924.594-.21 1.19-1.23 1.324-2.27.265-2.04 1.797-2.495 3.353-.993 1.296 1.252 6.853-1.488 8.583-4.23 2.388-3.788 3.636-9.81 2.52-12.153-.558-1.17-1.44-2.142-1.96-2.163-.522-.02-13.224.088-28.226.24-23.483.24-27.505.468-28.907 1.646-1.052.884-1.943 3.422-2.517 7.17-.862 5.626-.82 5.892 1.403 8.702 2.185 2.765 2.26 3.182 1.6 8.958-.38 3.332-.81 7.234-.954 8.67-.29 2.906-1.64 11.61-2.443 15.764-.51 2.633-.448 2.693 2.603 2.533 1.72-.09 3.842-.8 4.72-1.576zm13.482-32.192c-1.12-2.007-1.253-4.38-.247-4.397.758-.014 2.812 3.756 2.837 5.205.025 1.44-1.624.925-2.59-.808zm-151.99 34.286c.916-.716 2.35-1.315 3.185-1.33 2.123-.037 2.34-.607 4.08-10.69 2.28-13.223 1.838-18.796-1.592-20.045-.694-.252-3.24.333-5.66 1.3-2.418.968-5.1 1.772-5.96 1.787-1.398.024-1.645 1.498-2.332 13.932-.423 7.648-.53 14.493-.24 15.21.686 1.702 6.28 1.595 8.52-.163zm-213.2-3.43c.77-.8 1.31-.814 2.245-.065 1.617 1.295 9.028.766 10.51-.75.945-.968.958-2.286.07-7.126-.6-3.268-1.268-8.397-1.487-11.4-.22-3.002-.548-5.593-.73-5.757-.182-.164-2.383-.06-4.89.232l-4.558.53.412 10.88c.275 7.283.1 10.99-.533 11.22-1.125.41-3.163-11.505-3.297-19.275-.083-4.816-.312-5.424-2.667-7.102-1.417-1.01-2.717-2.723-2.89-3.806-.378-2.36-3.095-2.887-5.4-1.05-1.31 1.044-1.575 2.4-1.44 7.375.218 8.163 3.156 25.437 4.505 26.5 1.493 1.174 8.908.877 10.148-.407zm97.57-2.56c-1.255-4.46-2.156-13.64-1.83-18.62.18-2.735.085-5.572-.21-6.306-.87-2.152-.722-2.61.897-2.76.84-.08 2.697-.437 4.125-.795 1.956-.492 2.278-.42 1.307.296-.826.61-.91.947-.23.943.58-.004 1.465-.806 1.967-1.784.5-.978 1.222-1.594 1.6-1.37 2.45 1.457 4.62-13.593 2.438-16.913-1.044-1.588-10.288-3.174-13.368-2.292-1.255.36-4.83.383-7.943.052-3.113-.33-6.935-.3-8.493.072-2.69.64-8.478.723-24.843.358-8.53-.19-9.774.656-10.462 7.117-.604 5.68.49 8.304 3.952 9.488 5.564 1.903 9.51.925 13.34-3.308 2.966-3.275 4.02-2.21 4.626 4.68.42 4.764.983 6.61 2.492 8.158 1.39 1.427 1.722 2.376 1.157 3.305-1.383 2.272-.827 10.145.828 11.742 1.792 1.732 8.558 4.592 10.77 4.553 1.44-.025 1.53-.667.988-7.186-.327-3.937-.732-7.31-.9-7.498-.168-.186-2.17-.35-4.452-.362-2.994-.018-4.152-.374-4.168-1.282-.016-.962 1.008-1.22 4.36-1.102 3.37.12 4.668-.212 5.632-1.44 2.1-2.68 4.18-7.04 4.163-8.735-.007-.882.343-2.19.78-2.91.657-1.08 1.288-.816 3.667 1.534 3.57 3.528 4.283 5.86 1.193 3.913-2.006-1.266-2.11-1.207-3.33 1.86-.692 1.74-1.848 3.777-2.57 4.524-1.434 1.485-1.545 7.118-.295 14.923.867 5.413 1.24 5.843 6.824 7.852 6.133 2.206 6.784 2.13 5.986-.71zm-112.924 2.63c.284-.476.038-3.112-.547-5.855-.584-2.743-1.413-9.86-1.842-15.813-.692-9.613-.976-10.923-2.533-11.697-.963-.48-2.842-1.58-4.174-2.443-2.108-1.367-2.768-1.42-5.077-.417-1.462.635-2.975 2.038-3.364 3.118-.78 2.165.113 8.63 2.57 18.588.88 3.57 1.81 7.855 2.068 9.523.727 4.704 2.477 6.04 7.79 5.947 2.526-.044 4.825-.47 5.11-.95zm-15.242-2.292c-.015-.925-.46-2.763-.99-4.085-1.327-3.314-3.41-13.536-4.274-20.964l-.72-6.188-3.228.057c-1.983.033-4.015-.602-5.263-1.647-2.966-2.483-4.226-2.074-4.845 1.575-.73 4.3 3.31 25.28 5.252 27.284 1.426 1.47 10.963 5.595 13.012 5.63.598.01 1.073-.74 1.057-1.664zm56.9-1.05c1.37-1.568 1.5-3.364 1.153-16.096-.232-8.48-.057-14.337.427-14.346.45-.008 1.91-.484 3.246-1.06 4.38-1.883 5.07-1.603 2.215.9l-2.81 2.462.318 11.636c.432 15.862.89 16.466 9.332 12.29l4.68-2.315-.368-11.4c-.36-11.133-.427-11.46-2.85-14.124-2.278-2.505-2.49-3.297-2.602-9.755l-.122-7.027-4.558.225c-2.507.123-7.31.12-10.67-.01-3.36-.127-6.487-.025-6.948.227-.46.253-2.598.362-4.75.24-2.153-.12-4.834-.196-5.956-.17-1.123.024-2.388-.16-2.812-.413-.423-.252-5.89-.427-12.15-.39l-11.382.07-1.624 2.666c-.892 1.466-1.826 4.393-2.075 6.505-.388 3.29-.157 4.1 1.617 5.665 1.138 1.004 3.33 2.068 4.87 2.366 2.44.472 3.2.128 5.896-2.663 1.7-1.76 3.55-3.06 4.11-2.886.558.175 1.258 1.892 1.554 3.818 1.104 7.165 5.63 10.448 12.408 9 3.566-.763 3.91-1.11 6.393-6.48 1.445-3.123 3.096-5.685 3.67-5.695.573-.01 1.598 1.243 2.278 2.785 1.115 2.526 1.09 2.805-.243 2.828-.866.015-2.306 1.65-3.47 3.94-1.74 3.424-1.893 4.54-1.22 8.928.425 2.758.86 5.795.966 6.75.107.953.54 4.367.96 7.586l.764 5.852 4.107-.07c3.006-.054 4.523-.547 5.65-1.838zm-4.94-29.025c-1.582-1.155-1.544-1.222.72-1.288 1.312-.038 2.394.3 2.4.748.028 1.514-1.438 1.768-3.12.54zm13.293-6.44c-.555-2.58.133-9.87.934-9.884.43-.01.83 2.526.883 5.632.054 3.106-.264 5.653-.706 5.66-.443.008-.943-.626-1.11-1.408zm346.393 18.17c4.064-4.343 6.35-10.24 5.54-14.284-.38-1.892-.473-1.823-1.045.776-.82 3.722-5.12 7.534-7.798 6.91-2.135-.495-2.36-.09-3.26 5.88-.95 6.297 1.13 6.524 6.564.718zm-432.7 6.967c-.01-.693-.42-3.13-.906-5.415a298.094 298.094 0 0 1-1.472-7.403c-.56-3.098-.742-3.246-3.92-3.19-2.725.047-3.425.417-3.825 2.02-1.257 5.04-.534 6.975 4.17 11.173 4.85 4.328 5.99 4.867 5.954 2.815zm-13.29-13.944c-.004-.605-1.23-1.815-2.728-2.69-1.497-.875-3.475-2.782-4.395-4.237-1.098-1.737-2.127-2.465-2.99-2.115-2.386.963-1.343 3.148 3.728 7.815 4.858 4.47 6.405 4.768 6.386 1.226zm478.453-20.71c.913-1.782.304-2.624-1.87-2.586-1.973.034-2.535 1.013-1.895 3.298.58 2.066 2.528 1.698 3.764-.712zm-70.536.133c-.172-1.073-.703-1.944-1.18-1.935-.48.008-.98.896-1.113 1.974-.167 1.347.202 1.95 1.18 1.934.98-.017 1.328-.633 1.114-1.975zm42.96-8.78c.66-3.9 1.808-3.937 2.6-.085 1.3 6.312 3.686 3.63 3.973-4.462.324-9.104 2.358-7.86 2.543 1.555.067 3.32.493 5.857.985 5.848.924-.016 1.223-1.77.868-5.1-.294-2.762 1.963-2.028 2.357.767.942 6.67 2.732 4.942 2.83-2.73.092-7.303-1.445-12.468-4.02-13.505-1.085-.438-3.88-.527-6.21-.198-3.28.463-4.774 1.222-6.622 3.365-3.98 4.616-5.467 14.385-2.607 17.147 1.84 1.775 2.672 1.12 3.303-2.6zm38.773-.903c2.282-3.722 2.487-4.64 1.903-8.506-.908-6.008-2.598-8.82-5.673-9.44-4.437-.894-9.264 1.292-12.57 5.69-2.617 3.485-2.973 4.582-2.897 8.936.057 3.286.52 5.31 1.37 5.99 1.983 1.59 3.226.128 2.862-3.363-.245-2.346.003-3.172.96-3.188.71-.013 1.423.757 1.585 1.71.744 4.398 1.288 5.626 2.482 5.605 1.01-.018 1.263-1.3 1.18-5.997-.068-3.938.288-6.31 1.046-6.963 1.82-1.566 2.304-.296 2.42 6.362.156 8.898 1.374 9.62 5.33 3.165zm-94.346 3.54c.92-.95 1.196-2.397.878-4.578a422.887 422.887 0 0 1-1.044-7.966c-.32-2.627-.865-5.208-1.213-5.735-1.02-1.55-7.174-4.397-8.77-4.06-.808.17-2.306.355-3.33.41-1.024.053-3.056 1.253-4.515 2.665-2.62 2.535-2.653 2.678-2.506 11.08.09 5.253.45 8.19.94 7.673.436-.46.894-2.21 1.02-3.885.238-3.225 1.772-4.1 2.244-1.28 1.304 7.775 3.188 7.226 3.64-1.063.252-4.578.643-6.026 1.634-6.043 1.017-.018 1.266.93 1.134 4.325-.092 2.39.062 5.224.344 6.294.838 3.184 2.22 2.184 2.156-1.558-.034-1.91.33-3.482.808-3.49.478-.01.896 1.548.93 3.46.043 2.51.422 3.468 1.363 3.452.717-.013 1.31.368 1.318.845.024 1.29 1.45 1.028 2.97-.548zm8.113.217c.628-.65.77-2.44.388-4.903-.827-5.35 1.496-4.632 2.793.862.516 2.186 1.258 4.28 1.65 4.655 1.118 1.072 2.286-1.593 2.24-5.11-.056-4.133 1.274-4.995 2.123-1.377l.656 2.8.886-2.19c.875-2.16.9-2.144 1.988 1.27 2.538 7.958 5.14 1.032 2.96-7.873-1.61-6.57-3.804-8.637-8.987-8.47-3.52.115-4.675.586-6.675 2.724-3.606 3.857-4.362 5.897-4.264 11.512.107 6.088 1.844 8.586 4.243 6.102zm22.575-2.062c.114-1.16.405-3.09.648-4.287.427-2.11.482-2.126 1.703-.515.693.915 1.283 2.957 1.31 4.538.07 3.975 2.644 3.98 2.69.004.064-5.807.464-10.366.953-10.872 1.057-1.096 1.524.652 1.652 6.193.074 3.155.484 5.944.913 6.2.43.253.76-.71.734-2.144-.066-3.793 1.48-4.18 2.224-.558.458 2.226 1.034 3.015 2.048 2.804 1.11-.232 1.443-1.574 1.566-6.304.25-9.695-2.642-13.585-10.09-13.568-3.215.007-4.105.43-6.156 2.922-3.435 4.174-3.436 4.176-2.877 11.613.34 4.527.834 6.652 1.492 6.423.54-.19 1.075-1.292 1.188-2.45zM517.71 381c-.22-9.428-1.875-12.814-6.716-13.744-4.85-.932-8.72.042-11.552 2.908-1.95 1.975-2.5 3.484-2.886 7.914-.494 5.692.088 9.64 1.42 9.617.426-.007.765-.893.754-1.968-.012-1.076.333-2.537.765-3.248.88-1.446 1.09-1.098 2.23 3.687.402 1.69 1.034 2.342 2.064 2.127 1.204-.252 1.508-1.453 1.614-6.386.17-7.902.614-9.256 2.31-7.034.698.915 1.285 2.52 1.303 3.57.02 1.173.703 2.066 1.78 2.327 1.38.337 1.757 1.156 1.805 3.92.052 2.952.367 3.542 2.02 3.785 1.08.158 2.252.142 2.608-.037.355-.178.57-3.526.48-7.44zm8.794 3.59c-.032-1.855.287-3.595.71-3.866.928-.596 2.073 1.906 1.395 3.047-.74 1.242.54 4.25 1.797 4.228.758-.013 1.25-2.01 1.53-6.213.224-3.406.64-6.432.923-6.725 1.176-1.217 2.242 2.275 1.852 6.064-.246 2.386-.047 4.29.48 4.605.495.293.89-.076.876-.82-.013-.746.563-1.366 1.28-1.378.717-.013 1.316.71 1.33 1.608.032 1.762 2.386 4.124 3.235 3.246.863-.894.334-10.004-.846-14.57-.825-3.192-1.702-4.58-3.436-5.438-4.093-2.027-8.297-1.808-11.72.612l-3.104 2.195.14 8.398c.1 5.936.462 8.506 1.234 8.768 1.844.627 2.385-.248 2.324-3.76zm-116.41-3.583c-.044-3.59.247-6.737.645-6.993.913-.587 1.994 3.82 1.854 7.56-.058 1.558-.053 3.592.012 4.52.114 1.637.15 1.638 1.278.037 1.12-1.59 1.195-1.582 2.207.23.576 1.033 1.816 1.864 2.754 1.847 1.485-.026 1.697-.636 1.626-4.69-.15-8.577-1.686-13.738-4.852-16.303-1.573-1.274-3.368-2.318-3.99-2.32-4.614-.015-11.778 9.18-12.614 16.19-.67 5.602.293 8.514 2.686 8.13 1.585-.253 1.954-.95 2.12-4.003.27-4.908 2.683-5.292 2.768-.44.066 3.797 1.756 6.173 2.888 4.063.384-.715.662-4.237.618-7.826zm-15.018 1.577c.217-9.367-1.27-14.964-4.458-16.772-2.47-1.4-2.715-1.39-5.834.305-1.79.973-4.314 2.807-5.606 4.076-2.243 2.203-2.343 2.682-2.205 10.597.11 6.246.41 8.197 1.224 7.91.594-.21 1.188-1.132 1.32-2.05.56-3.913 1.135-4.25 2.18-1.27 1.357 3.88 3.586 3.965 3.887.15.28-3.555 2.687-3.972 2.788-.484.065 2.235.146 2.284 1.26.76 1.492-2.044 3.05-1.202 3.1 1.677.024 1.367.445 2.05 1.118 1.815.7-.245 1.13-2.612 1.226-6.714zm-8.55-2.12c-.013-.744.372-1.12.855-.832.484.287.885.89.893 1.34.008.45-.377.824-.854.832-.48.008-.88-.594-.894-1.34zm41.07 4.115c.265-3.577 1.837-3.773 2.266-.285.93 7.567 2.71 5.266 3.157-4.087.37-7.733.732-9.124 2.154-8.28.49.292.86 3.127.822 6.3-.09 7.554-.005 8.15 1.074 7.457.5-.322.786-1.425.635-2.452-.15-1.027.047-2.404.44-3.06 1.115-1.866 2.232.454 2.324 4.833.086 4.112-.017 4.018 3.054 2.79 2.174-.87 2.208-1.024 1.613-7.198-.843-8.763-1.123-9.718-3.727-12.704-3.24-3.716-7.62-3.574-12.666.412l-3.71 2.93-.118 7.713c-.065 4.24.116 8.293.403 9.003.785 1.946 2.016.12 2.275-3.374zm54.696.717c.296-1.164.32-3.53.055-5.258-.557-3.63 1.102-5.522 1.87-2.134.274 1.21.788 3.27 1.143 4.578l.644 2.378.286-2.446c.428-3.662 2.294-2.363 2.678 1.864.263 2.898.64 3.61 1.792 3.366 1.24-.26 1.402-1.276 1.084-6.807-.206-3.576-.8-7.77-1.317-9.324-2.608-7.812-16.03-6.524-18.505 1.777-.91 3.055.615 13.975 1.95 13.952 1.38-.024 2.143-1.972 2.085-5.32-.025-1.396.333-2.543.794-2.55 1.024-.02 2.815 3.04 2.65 4.525-.485 4.363 1.752 5.483 2.792 1.397zm-109.09-5.91c-1.08-13.78-3.25-16.51-11.286-14.214-4.824 1.378-7.843 4.917-8.55 10.025-.674 4.86.12 12.223 1.4 12.982 1.204.717 3.18-2.258 3.136-4.723-.02-1.104.356-2.013.834-2.02.478-.01.893 1.058.924 2.372.03 1.313.433 2.965.896 3.67 1.65 2.51 3.037-.764 3.36-7.926.357-7.877 1.945-9.083 2.272-1.724.314 7.078.447 7.632 1.296 5.408 1.175-3.077 2.54-2.342 2.605 1.403.055 3.232 1.274 4.724 3.01 3.686.424-.252.47-4.26.102-8.94zm78.4 6.004c.56-4.214 1.07-5.626 1.857-5.158.468.28.867 1.386.886 2.46.018 1.076.607 2.705 1.308 3.62 2.03 2.652 3.166.464 3.595-6.925.43-7.418 1.503-7.98 2.506-1.316.594 3.95.79 4.26 1.79 2.842 1.274-1.81 1.79-1.044 2.305 3.433.335 2.893 2.7 3.606 3.163.953.552-3.163-1.99-15.784-3.593-17.833-1.247-1.594-2.364-2.02-4.97-1.892-2.848.14-3.955.83-7.282 4.538-3.578 3.99-3.96 4.853-4.32 9.79-.218 2.98-.175 5.963.095 6.63.668 1.654 2.386.917 2.66-1.14zm-103.12-6.287c-.222-5.264-.903-10.053-1.682-11.83-1.12-2.552-1.726-2.978-4.177-2.934-4.025.07-8.517 2.66-10.813 6.228-1.703 2.648-1.904 3.926-1.58 10.02.375 7.055 1.75 9.15 2.488 3.795.47-3.413 2.528-4.51 2.583-1.378.053 2.998.932 4.906 2.25 4.883 1.496-.026 2.105-2.87 2.005-9.376-.046-3.033.3-5.437.786-5.445.512-.01.923 3.025 1 7.37.07 4.06.477 7.377.903 7.37.95-.017 1.793-2.183 1.753-4.498-.018-1.017.36-1.487.925-1.152.526.312.79 1.253.585 2.09-.474 1.95 1.026 4.558 2.342 4.073.7-.258.895-3.075.636-9.217zm-46.04 3.315c-.42-6.578-2.604-14.508-4.586-16.648-1.827-1.97-4.097-1.847-8.692.477-4.447 2.25-4.94 3.378-5.503 12.59-.47 7.672.598 11.238 2.11 7.045.48-1.338.862-3.19.846-4.113-.016-.926.362-1.69.84-1.697.478-.008.897 1.255.93 2.808.035 1.554.442 3.4.905 4.105 1.53 2.33 2.872-.515 2.76-5.856-.11-5.38.865-8.512 2.375-7.615.56.334.85 3.15.734 7.18-.166 5.75.003 6.63 1.268 6.62.802-.01 1.77.284 2.148.65.38.365 1.485.537 2.458.38 1.605-.258 1.735-.807 1.408-5.927zm-5.513 2.248c-.773-.746.224-4.777 1.058-4.28.986.585 1.098 4.698.128 4.715-.398.008-.932-.188-1.187-.434zm13.183 2.47c.55-.687.855-2.745.678-4.574-.24-2.495.005-3.33.982-3.348.947-.017 1.33.976 1.4 3.628.106 4.107.677 5.038 2.61 4.257.98-.396 1.31-1.814 1.248-5.344-.066-3.808.202-4.81 1.294-4.83 1.048-.017 1.345.758 1.24 3.238-.204 4.758.047 6.3 1.024 6.282.478-.008.844-1.416.815-3.128-.07-3.967 1.796-3.61 2.312.445.43 3.375.765 3.88 2.036 3.063 1.197-.768 1.012-5.487-.516-13.242-1.524-7.73-2.47-8.9-7.12-8.82-7.136.126-11.64 7.395-11.474 18.522.076 5.135 1.33 6.525 3.473 3.85zm-70.03-3.31c-.328-1.596-.35-3.583-.047-4.415.88-2.42 2.198.323 2.29 4.773.067 3.114.34 3.697 1.595 3.414 1.104-.25 1.438-1.04 1.23-2.91-.475-4.24.528-11.99 1.437-11.113.76.733 1.166 6.806.755 11.29-.097 1.06.216 2.03.697 2.16.48.132.96-1.718 1.065-4.11.107-2.39.555-4.725.996-5.187.896-.937 1.03-.35 1.263 5.583.13 3.3.425 3.903 1.892 3.877 1.614-.028 1.723-.586 1.533-7.847-.327-12.478-3.25-17.968-8.326-15.634-3.894 1.79-6.705 4.1-7.655 6.285-.5 1.153-.906 5.358-.9 9.346.017 10.26-.058 9.83 1.473 8.514.924-.794 1.127-1.96.703-4.023zm31.052-3.343c.162-7.903 1.804-8.378 2.06-.596.24 7.377.18 7.247 3.3 7.036l2.822-.19-.183-5.646c-.26-7.977-1.344-13.642-2.9-15.146-1.902-1.835-9.806-1.532-12.11.465-3.568 3.09-4.686 5.995-4.914 12.768-.197 5.866-.03 6.707 1.495 7.488 2.443 1.255 3.483.223 3.195-3.17-.137-1.617.04-3.24.396-3.61.86-.89 2.295 1.39 2.353 3.744.076 3.16.96 4.453 2.71 3.963 1.398-.392 1.658-1.433 1.775-7.104zm4.196 1.923c-.02-1.223.32-2.01.758-1.75.437.26.605 1.257.37 2.217-.582 2.4-1.08 2.194-1.127-.467zm-105.13.966c-.036-2.122.325-3.865.802-3.873.478-.01.892 1.277.92 2.858.027 1.58.59 3.586 1.25 4.456 2.152 2.84 3.193.666 2.97-6.203-.116-3.58.023-6.752.31-7.05 1.146-1.186 1.84 1.023 2.26 7.206.295 4.355.764 6.374 1.424 6.136.54-.196.958-1.786.927-3.533-.07-4.038 1.502-3.65 2.26.557.682 3.768 1.205 4.415 2.99 3.694 3.03-1.222.64-21.188-2.783-23.28-.59-.362-2.9-.63-5.132-.6-3.264.047-4.785.632-7.768 2.99-3.095 2.446-3.796 3.575-4.23 6.81-1.01 7.54-.614 12.847 1.026 13.727 2.256 1.21 2.85.378 2.775-3.895zm29.94-2.353c-.06-3.424.2-6.545.578-6.937 1.117-1.16 2.335 1.568 2.266 5.077-.035 1.794.2 3.517.524 3.83.322.31.568-.477.546-1.75-.022-1.275.31-2.324.735-2.33.99-.018 1.868 2.146 1.912 4.71.02 1.096.66 2.495 1.424 3.106 2.078 1.664 2.95-.4 2.797-6.62-.182-7.393-1.143-11.26-3.43-13.786-2.408-2.66-4.827-2.728-9.365-.266-5.785 3.14-6.427 4.47-6.277 13.032.073 4.168.417 7.852.764 8.187.347.335 2.206.465 4.133.29l3.5-.32-.107-6.224zm-4.777.175c-.013-.745.372-1.12.855-.833.483.287.884.89.892 1.34.008.45-.376.823-.854.832-.478.008-.88-.595-.893-1.34zm28.2 4.12c.27-1.08.46-4.015.423-6.524-.092-6.208 1.425-5.798 2.264.613.663 5.07 2.23 7.29 2.157 3.055-.02-1.166.31-2.343.732-2.614.987-.635 1.855 1.525 1.91 4.76.036 1.984.436 2.53 1.843 2.504 1.72-.03 1.766-.334 1.06-7.187-1.498-14.556-1.58-14.815-4.998-15.474-3.906-.754-8.688.6-11.44 3.242-1.846 1.773-2.183 2.95-2.308 8.08-.194 7.972.073 10.78 1.024 10.762.433-.008 1.022-1.973 1.31-4.368.6-5.007 2.07-5.885 2.15-1.284.092 5.322 2.862 8.494 3.874 4.438zm-85.908-10.768c-.602-9.472-.855-10.63-2.624-12.013-3.355-2.622-10.918-.735-14.02 3.5-.864 1.178.13 4.86 1.795 6.645.74.79 1.878 2.908 2.53 4.704 1.786 4.913 3.002 4.53 3.205-1.007.278-7.58 1.858-6.25 2.287 1.928.272 5.17.677 7.12 1.424 6.86.575-.2 1.136-1.997 1.248-3.993.244-4.347 1.82-4.92 1.893-.688.067 3.767.898 5.852 2.042 5.117.578-.37.656-4.246.223-11.053zm7.867 8.003c.54-3.797 1.987-4.794 2.047-1.41.055 3.24.98 4.833 2.782 4.802 1.456-.025 1.633-.722 1.54-6.06-.108-6.15 1.086-8.866 2.155-4.902.326 1.208.383 3.1.127 4.2-.256 1.103-.1 3.153.345 4.557.445 1.404.87 2.16.94 1.68.073-.478.3-2.046.503-3.483.42-2.955 1.875-5.02 2.14-3.036.092.692.22 2.42.284 3.843.134 2.965 2.816 4.118 3.73 1.604.668-1.836-1.266-14.39-2.818-18.296-2.035-5.117-9.328-5.778-14.453-1.31-2.213 1.928-2.542 2.985-3.42 10.984-.82 7.464-.782 8.966.238 9.587 2.34 1.425 3.366.69 3.857-2.76zm523.23-13.064c-.04-2.404-.634-2.92-2.69-2.345-1.296.364-1.55.98-1.13 2.75 1.125 4.772 1.33 5.015 2.642 3.165.666-.94 1.197-2.546 1.18-3.57zm-51.422 1.18c1.555-1.61 1.19-3.324-.7-3.29-2 .034-2.98 1.378-2.275 3.122.616 1.524 1.61 1.58 2.975.167zm25.33-2.548c-.023-1.335-2.26-1.6-3-.354-.26.44-.22 1.426.09 2.193.435 1.08.83 1.164 1.747.376.65-.56 1.175-1.557 1.163-2.215zm-71.73 1.296c2.01-2.083 1.607-3.007-1.293-2.956-1.99.034-2.6.44-2.577 1.71.015.916.52 1.854 1.122 2.084.602.23 1.164.45 1.25.485.086.037.76-.56 1.498-1.323zm22.88-.61c.18-.57-.293-1.025-1.05-1.012a1.38 1.38 0 0 0-1.35 1.4c.026 1.533 1.89 1.234 2.4-.386zm-190.182-4.258c-.016-.93-1.077-1.255-3.93-1.205-3.49.062-3.907.282-3.876 2.048.02 1.088.654 2.83 1.412 3.874l1.377 1.895 2.52-2.67c1.387-1.467 2.51-3.24 2.498-3.94zm47.626 2.832c1.048-1.598 1.9-3.135 1.896-3.416-.016-.878-6.47-.455-7.586.497-.833.71-.733 1.437.464 3.385 1.957 3.184 2.887 3.1 5.226-.467zm47.118.38c1.285-2.504 1.136-2.683-2.187-2.625-3.155.055-3.94 1.405-1.94 3.336 1.548 1.494 3.136 1.22 4.127-.71zm24.185-1.198c.16-1.23-.215-1.884-1.068-1.87-1.69.03-2.553 1.5-1.87 3.19.738 1.83 2.64.976 2.937-1.32zm22.763.757c-.012-.717-.414-1.297-.89-1.288-.48.007-.86.6-.847 1.317.012.717.413 1.296.89 1.288.48-.01.86-.602.847-1.318zm-117.362-2.855c-.025-1.46-.414-1.707-1.977-1.258-1.07.306-3.02.582-4.333.61-2.87.065-3.016 1.134-.472 3.423 1.735 1.56 2.09 1.59 4.352.37 1.518-.82 2.45-2.025 2.43-3.145zm44.325 2.01c.605-1.18.59-1.87-.05-2.25-1.656-.982-3.32.323-2.796 2.193.627 2.237 1.716 2.26 2.846.057zm-93.293.055c1.526-2.084 1.447-2.573-.485-3.043-2.44-.593-3.84.652-3.123 2.78.75 2.23 2.097 2.328 3.608.263zm-71.627.463c2.37-2.22 1.91-3.81-1.084-3.756-2.152.037-2.6.4-2.57 2.072.058 3.385 1.252 3.935 3.653 1.684zm23.85-2.806c-.7-1.738-3.206-.77-3.17 1.225.013.824.3 1.764.635 2.088.988.954 3.13-1.844 2.536-3.314zm23.758.714c-.014-.905-.59-1.635-1.28-1.623-1.626.028-2.337 1.28-1.668 2.937.714 1.768 2.985.755 2.95-1.314zm-93.68 1.16c2.5-2.345 1.907-3.81-1.517-3.75-2.35.04-3.035.408-3.013 1.616.025 1.433 1.578 3.622 2.558 3.605.225-.005 1.113-.667 1.972-1.473zm23.286-1.628c-.008-.45-.6-.807-1.318-.794-1.343.023-1.708 1.055-.712 2.016.706.682 2.05-.126 2.03-1.222zm-115.86.726c4.106-3.248 3.74-4.8-1.115-4.716-4.414.078-5.283 1.135-3.857 4.697 1.137 2.84 1.403 2.84 4.972.02zm47.563-.493c1.718-2.547 1.16-3.118-2.988-3.045-3.982.07-4.597 1.562-1.503 3.65 2.546 1.718 2.96 1.663 4.49-.605zm23.085.21c1.286-1.605.407-3.085-1.81-3.047-1.057.02-1.677.625-1.66 1.622.05 2.845 1.768 3.55 3.47 1.426zm-44.783-.644c1.68-1.033 2.833-2.226 2.56-2.652-.728-1.13-10.825-.803-10.805.35.017.97 3.498 4.126 4.585 4.16.332.01 1.978-.827 3.66-1.86zm-74.815-2.313c1.004-1.654.797-1.95-1.91-2.73-1.66-.48-1.96-.244-1.928 1.518.06 3.516 2.057 4.147 3.837 1.212zm484.766-11.095c1.2-1.704 8.974-10.482 16.187-18.277 4.688-5.068 9.577-14.21 11.35-21.227 1.603-6.336.554-14.947-2.565-21.072-2.22-4.36-3.596-5.796-8.786-9.18-3.385-2.21-7.526-4.24-9.204-4.516-1.677-.276-3.446-.778-3.93-1.117-1.568-1.096-8.966-2.462-12.956-2.393-6.397.112-18.994 3.856-26.696 7.934-2.246 1.19-4.504 2.17-5.017 2.18-.513.008-2.197 1.015-3.742 2.237-1.546 1.222-3.083 2.227-3.416 2.233-.334.005-3.016 1.19-5.962 2.63-10.93 5.344-23.774 9.59-42.3 13.982-4.308 1.022-42.705 1.89-44.204 1-.82-.488-13.382-.285-24.632.397-10.516.637-22.634 4.208-27.398 8.072-1.74 1.41-3.367 2.57-3.617 2.573-1.22.022-7.562 8.07-9.717 12.336-2.462 4.87-6.273 18.786-5.482 20.017.573.893 11.046 1.583 27.444 1.808 7.41.102 15.04.347 16.955.545 1.915.198 12.28.4 23.036.448 10.754.05 21.12.217 23.034.374 1.915.157 14.43.33 27.814.384 48.347.198 68.665.414 69.032.736.206.18 5.614.136 12.018-.098 10.03-.368 11.797-.646 12.753-2.003zm-277-1.863c2.51-.045 4.57.213 4.576.57.006.36 7.34.42 16.295.134 24.55-.78 22.637-.41 25.863-4.997 5.723-8.133 6.85-10.778 7.355-17.246.686-8.79-.635-12.363-6.476-17.517-2.584-2.28-5.784-4.705-7.11-5.387-11.03-5.674-15.214-7.484-18.605-8.047-2.157-.36-7.063-1.396-10.903-2.306-6.072-1.437-16.744-3.007-25.266-3.715-1.436-.12-6.136-.56-10.445-.976-4.31-.417-10.575-.95-13.925-1.185-3.35-.236-7.943-.917-10.208-1.514-2.264-.597-6.97-1.315-10.455-1.594-3.486-.28-7.13-.976-8.095-1.547-.965-.57-3.028-1.248-4.583-1.506-1.555-.258-4.467-1.226-6.47-2.152-2.005-.925-4.962-1.906-6.57-2.18-1.61-.272-3.148-.838-3.417-1.257-.27-.418-1.616-.74-2.993-.717-1.377.024-2.752-.343-3.055-.816-.305-.473-1.655-.84-3.002-.817-1.347.024-2.923-.51-3.503-1.184-.58-.674-1.713-1.212-2.517-1.194-.804.018-3.034-.386-4.955-.898-7.868-2.098-10.958-2.536-21.342-3.025-8.768-.414-11.622-.247-14.757.86-10.592 3.74-14.19 6.454-16.247 12.26-2.193 6.19-3.35 14.627-2.41 17.58.414 1.303 1.288 4.495 1.94 7.093 2.607 10.375 18.39 28.974 30.25 35.642.893.503 2.828 2.13 4.3 3.62 2.6 2.627 2.892 2.7 10.27 2.598 4.178-.058 10.534.24 14.126.665 3.592.424 21.584.657 39.982.52 18.398-.14 34.433-.033 35.632.237 1.2.27 4.63.446 7.622.393 2.992-.053 6.317.21 7.39.586 1.07.375 3.114.325 4.542-.112 1.427-.436 4.65-.83 7.162-.873zm56.02-.43c.446-.73 1.077-.714 2.38.06.973.582 1.913 1.054 2.088 1.05.177-.002.51-2.843.743-6.312.447-6.66 2.33-13.46 5.445-19.66 2.905-5.782 12.997-14.735 20.126-17.854 5.21-2.28 20.57-5.767 30.292-6.876 2.775-.317 2.724-.243 9.692-13.89 1.847-3.616 4.863-9.144 6.702-12.282 7.2-12.29 8.85-15.584 11.615-23.203 3.125-8.61 6.85-20.236 7.15-22.312.104-.718.42-1.896.7-2.618 1.206-3.105 2.072-10.363 1.664-13.95-1.34-11.78-1.56-12.706-4.52-19.02-5.436-11.59-20.106-20.277-32.535-19.267-4.446.36-6.486 1.1-11.365 4.125-6.468 4.008-18.21 15.41-24.283 23.575-2.1 2.827-4.756 6.19-5.9 7.477-1.143 1.286-2.897 3.53-3.896 4.99-4.512 6.585-19.777 22.715-26.415 27.91-2.6 2.037-4.724 4.008-4.717 4.382.012.738-4.52 3.894-9.39 6.535-1.687.915-3.662 2.207-4.388 2.872s-6.34 3.86-12.476 7.1c-12.342 6.516-11.47 5.994-22.296 13.354-7.36 5.005-9.894 7.206-9.87 8.577.014.82 3.957 1.722 8.724 1.993 6.16.35 14.8 1.895 20.14 3.602 2.692.86 5.67 1.55 6.616 1.534.946-.016 1.983.224 2.305.535.32.31 1.662.623 2.98.695 9.775.534 18.346 5.077 28.693 15.21 5.01 4.904 6.902 7.62 8.66 12.424 1.312 3.59 1.382 4.755.497 8.363-1.688 6.882-4.264 12.132-8.034 16.368-1.96 2.2-3.332 4.354-3.053 4.788.72 1.122 5.198.913 5.926-.276z" fill="#FFF"/>
    </g>
</svg>
