<svg width="790" height="790" viewBox="0 0 790 790" xmlns="http://www.w3.org/2000/svg">
    <title>
        mirror
    </title>
    <g fill="none" fill-rule="evenodd">
        <circle fill="#7B0303" cx="395" cy="395" r="395"/>
        <circle stroke="#FFF" stroke-width="23" cx="394.5" cy="394.5" r="355.5"/>
        <path d="M463.777 675.38c-.25-.242-10.71-.398-23.247-.347-12.536.05-31.36.014-41.834-.083-10.472-.096-29.36-.188-41.972-.205-39.535-.05-49.955-.318-61.034-1.562-1.908-.214-4.82-.535-6.47-.712-4.62-.496-5.104-.863-5.764-4.382-.338-1.804-1.233-4.895-1.99-6.867-1.506-3.928-1.126-5.455 1.37-5.498.897-.016 1.832-.37 2.08-.786.247-.416 1.45-.584 2.67-.373 1.222.212 2.88-.165 3.684-.836.804-.672 2.882-1.97 4.616-2.886 4.013-2.118 7.77-6.966 10.78-13.91 12.027-27.74 14.652-31.617 24.948-36.865 3.63-1.85 7.735-3.61 9.124-3.914 1.39-.302 2.72-.88 2.96-1.283.24-.403 1.645-.513 3.123-.244 3.57.65 2.95-1.58-.683-2.46-3.564-.865-33.664-15.568-37.92-18.524-1.197-.832-6.704-4.318-12.237-7.747-5.533-3.428-10.573-6.657-11.2-7.174-.626-.52-2.017-1.38-3.09-1.917-2.976-1.487-11.29-7.416-13.47-9.607-1.066-1.072-2.304-1.943-2.75-1.935-.447.008-3.128-1.6-5.96-3.573a557.065 557.065 0 0 0-9.947-6.75c-4.377-2.884-6.493-4.516-14.46-11.153-1.448-1.207-4.87-3.807-7.602-5.777-9.952-7.176-14.39-10.604-18.023-13.924-2.04-1.863-5.596-4.83-7.903-6.592-5.106-3.9-12.74-10.83-24.212-21.986-12-11.67-14.224-13.26-18.417-13.188-6.064.106-11.962-4.624-12.05-9.663-.063-3.634-3.412-7.985-6.59-8.563-3.195-.58-4.405-1.958-15.03-17.098-4.618-6.582-9.442-13.118-10.72-14.524-1.276-1.405-3.082-3.976-4.01-5.712-.93-1.736-2.09-3.394-2.578-3.684-.488-.29-.894-.943-.903-1.452-.018-1.035 8.406-.364 9.943.792.495.372 1.483.674 2.197.67 4.427-.014 57.708.18 71.183.26 8.927.054 25.338.364 36.47.69 35.296 1.03 38.53.844 37.314-2.162-.29-.722-.08-2.623.467-4.224.87-2.542.747-3.387-.967-6.673-1.238-2.374-1.99-5.367-2.037-8.113l-.076-4.352 3.873-1.217c2.13-.668 3.868-1.453 3.863-1.742-.016-.914-3.856-3.965-6.757-5.367-1.536-.742-4.175-1.326-5.863-1.296-6.138.107-1.964-5.63 4.865-6.686 2.447-.38 4.042-1.07 4.03-1.745-.03-1.67-4.35-4.63-6.7-4.588-1.5.027-2.464-.774-3.54-2.934-1.304-2.614-1.362-3.676-.48-8.86.766-4.498.757-6.743-.038-9.49-.85-2.944-.8-4.232.278-7.066 1.2-3.157 1.19-3.7-.09-6.074-.773-1.433-1.43-4.033-1.46-5.777-.045-2.546.56-3.753 3.07-6.136 3.025-2.868 3.098-3.087 2.246-6.646-.485-2.023-.78-5.92-.654-8.66l.228-4.978 4.462-.066c5.2-.075 8.465 1.25 9.713 3.944 1.005 2.17 2.116 2.38 4.138.778 3.163-2.506-2.342-16.804-7.027-18.255-4.414-1.367-4.934-3.82-.825-3.89 1.192-.022 2.91-.453 3.817-.96 1.245-.693 2.618-.497 5.61.803 2.177.947 4.377 1.453 4.887 1.126.56-.36.723-2.165.413-4.54-.283-2.17-.12-4.945.364-6.168.482-1.223.807-2.635.722-3.14-.086-.503.993-2.055 2.397-3.448 1.403-1.393 2.537-3.385 2.518-4.428-.085-4.897 4.626-10.84 8.65-10.91.734-.014 1.623-1.733 2.242-4.337.89-3.743 1.567-4.66 5.11-6.927 3.44-2.2 4.23-3.228 4.994-6.506 1.59-6.813 6.97-10.355 12.42-8.176 1.207.484 2.247-.048 4.09-2.09 1.36-1.507 4.014-3.184 5.9-3.727 2.68-.772 3.42-1.404 3.398-2.9-.032-2.237 2.102-5.844 4.838-8.176 1.06-.904 2.81-3.412 3.888-5.572 1.434-2.873 3.065-4.533 6.07-6.178 4.513-2.47 5.042-3.197 6.05-8.312.672-3.406.754-3.472 4.256-3.382 3.035.078 3.505-.137 3.14-1.442-.876-3.124 1.428-8.946 5.19-13.11 2.067-2.29 3.746-4.91 3.73-5.82-.035-2.003 3.77-8.013 6.483-10.238 1.31-1.074 1.95-2.528 1.92-4.36-.08-5.07 1.41-8.75 4.202-10.395 1.456-.858 3.192-1.57 3.858-1.582.666-.01 1.46-1.096 1.76-2.41.97-4.22 4.22-9.353 6.46-10.208 3.603-1.376 6.35 1.033 7.627 6.694.665 2.945 1.524 4.757 2.248 4.744.644-.01 2.767 1.6 4.718 3.58 4.138 4.198 5.146 7.918 3.76 13.864-.742 3.174-.705 4.63.17 6.638.614 1.415 1.42 2.568 1.787 2.562.923-.016 4.79 3.943 4.942 5.06.067.5.184 1.625.26 2.5.074.876 1.473 2.284 3.11 3.128 1.893.978 3.264 2.487 3.774 4.156.608 1.986 1.532 2.814 3.82 3.422 3.624.964 8.73 5.91 8.776 8.503.026 1.48.846 2.065 3.992 2.847 3.28.817 4.185 1.502 5.28 4 .727 1.657 1.58 4.68 1.895 6.715.4 2.587 1.114 3.937 2.37 4.483.986.43 2.228 1.553 2.76 2.496.53.942 1.236 1.91 1.566 2.15.33.242.774 1.588.987 2.992.32 2.105.903 2.648 3.335 3.1 1.62.303 3.656 1.394 4.52 2.426 1.4 1.666 1.852 1.754 4.064.792 1.368-.595 3.403-.97 4.522-.83 2.015.25 2.18.6 2.453 5.23.134 2.264.31 2.358 3.38 1.812 2.484-.442 3.76-.18 5.49 1.133 2.202 1.672 4.38 6.703 4.44 10.27.023 1.26.932 2.098 3.068 2.828 3.5 1.197 5.113 4.593 5.097 10.727-.01 3.375.227 3.82 2.287 4.298 3.964.922 7.05 5.45 7.78 11.422.088.713.873 2.6 1.746 4.192 1.164 2.126 1.45 3.848 1.07 6.472-.284 1.966-.537 6.234-.563 9.484-.044 5.366-.264 6.073-2.397 7.686-1.442 1.09-2.334 2.583-2.312 3.866.056 3.168 1.45 2.496 3.918-1.89 3.928-6.978 14.72-11.348 16.318-6.605.396 1.176.196 2.226-.54 2.83-2.736 2.247-8.32 12.907-8.27 15.787.04 2.304 3.87 2.093 7.35-.406 4.456-3.202 10.186-3.4 12.67-.437 2.915 3.47 3.074 6.06.65 10.582-1.216 2.272-1.853 4.344-1.414 4.605 1.266.752 3.594 5.673 3.625 7.662.016.997-.764 3.165-1.732 4.817-1.562 2.666-1.635 3.363-.643 6.2 1.63 4.667.966 12.94-1.278 15.897-1.106 1.458-1.77 3.52-1.676 5.213.194 3.526-2.028 7.513-5.266 9.447-4.04 2.414-3.41 3.255 3.362 4.494 3.985.73 8.315 5.715 8.034 9.25l-.217 2.732-4.814-.203c-4.746-.2-13.756 2.142-13.73 3.57.005.375 1.186 1.068 2.622 1.54 2.393.79 2.617 1.194 2.68 4.855.075 4.255-.782 6.638-3.498 9.73-1.685 1.917-1.685 1.923.175 4.44 1.232 1.67 2.967 2.725 5.13 3.122 3.96.73 38.39.448 42.622-.347 1.66-.312 4.386-.312 6.057 0 2.412.45 29.404 1.126 39.824.996 1.19-.015 3.142.303 4.34.705 1.86.626 31.064 1.143 49.462.876 7.9-.114 8.303 1.336 2.638 9.484-2.243 3.226-3.76 5.742-4.752 7.877-1.074 2.314-8.17 12.68-8.89 12.99-.385.166-.69.776-.68 1.357.01.58-1.118 2.657-2.507 4.616-1.814 2.558-3.326 3.706-5.368 4.074-3.28.59-10.025 7.03-9.98 9.527.047 2.785-7.206 8.7-10.752 8.77-1.037.02-3.477 1.83-5.68 4.212-5.28 5.71-12.178 11.792-14.99 13.215-1.283.65-4.43 2.99-6.996 5.203-2.566 2.213-6.782 5.448-9.37 7.19-2.586 1.743-7.317 5.5-10.512 8.35-3.195 2.85-6.94 5.792-8.323 6.538-1.384.746-2.508 1.735-2.5 2.2.008.462-.667.854-1.5.868-.832.015-3.794 2.21-6.583 4.875-2.788 2.667-5.397 4.854-5.798 4.86-.402.008-3.116 1.688-6.03 3.734-9.674 6.79-12.105 8.4-16.64 11.018-2.474 1.43-4.492 2.89-4.487 3.246.006.357-.56.66-1.26.67-1.51.028-7.99 3.447-8.657 4.57-.257.433-2.142 1.586-4.19 2.562-2.046.976-4.816 2.706-6.153 3.845-1.338 1.14-4.85 3.01-7.805 4.155-2.954 1.146-5.367 2.382-5.36 2.748.006.365-1.63 1.524-3.633 2.574-2.004 1.05-4.8 2.684-6.21 3.63-1.412.947-5.46 3.267-8.996 5.156-3.538 1.89-9.17 5.292-12.516 7.562-8.354 5.666-15.945 9.584-18.66 9.632-1.25.02-2.268.343-2.26.715.005.37-1.237 1.17-2.76 1.777-2.658 1.056-2.7 1.15-1.043 2.26.952.637 4.658 1.597 8.237 2.133 9.506 1.423 12.402 2.48 16.44 6.004 1.993 1.74 3.626 3.35 3.63 3.582.004.232 1.178 2.257 2.61 4.5 1.43 2.243 3.435 6.102 4.457 8.575 1.02 2.473 4.456 8.45 7.632 13.28 8.157 12.405 16.89 21.014 22.677 22.35 3.82.883 4.283 2.085 2.824 7.344-.72 2.6-2.102 6.42-3.068 8.49-1.715 3.67-1.847 3.753-5.228 3.36-5.665-.66-35.542-.222-36.724.537-.64.41-1.405.213-1.853-.48-.606-.936-1.1-.96-2.408-.12-.905.584-1.85.863-2.1.622zm46.082-8.51c.976-2.178 1.626-4.094 1.443-4.26-.376-.34-38.068-.78-64.81-.76-9.755.01-25.527-.054-35.048-.14l-31.59-.286c-7.854-.07-21.684-.422-30.733-.78-24.038-.947-31.8-1.207-42.427-1.417-5.237-.103-12.15-.4-15.364-.66-6.88-.558-7.226-.166-5.45 6.188.914 3.262 1.61 4.308 2.876 4.316.918.007 4.984.256 9.035.554 16.927 1.247 19.194 1.307 35.42.933 4.952-.114 9.628.09 10.39.453.764.363 5.667.418 10.897.122 11.913-.674 3.593-.546 66.18-1.016 56.66-.426 78.72-.312 79.47.41.245.238 2.13.403 4.19.367 3.595-.063 3.816-.224 5.522-4.024zm-46.56-9.11c.286-.482 1.376-.69 2.422-.464 2.973.647 39.598.344 40-.33.196-.332-1.166-1.573-3.028-2.76-3.79-2.414-7.392-2.592-54.534-2.693-12.073-.026-22.362-.29-22.863-.588-.5-.298-3.09-.623-5.752-.722-2.663-.1-8.74-.32-13.5-.49-7.02-.25-30.376.054-55.803.725-9.492.25-35.952-1.486-39.27-2.578-1.997-.657-3.9-1.195-4.227-1.197-.328 0-2.323 1.546-4.433 3.438-2.11 1.893-4.343 3.63-4.96 3.863-3.136 1.178 2.19 1.45 27.926 1.43 25.972-.02 35.544.193 44.538.988 1.907.17 17.634.262 34.95.206 17.314-.056 31.92.202 32.46.573.537.37 5.453.535 10.924.368 5.47-.168 10.73-.007 11.688.358 2.384.908 2.858.89 3.46-.125zm24.04-10.77c3.638-.44 4.76-.76 2.815-.808-6.74-.167-25.51-7.22-28.27-10.622-1.227-1.515-2.866-.75-2.884 1.345-.01 1.31-1.14 4.973-2.77 8.986-.513 1.26.403 1.424 7.867 1.406 4.647-.012 8.633.158 8.86.376.54.522 6.854.222 14.382-.683zm-39.697-.497c.547-.66-4.03-7.856-4.985-7.84-.684.013-2.287 1.598-3.563 3.524-2.01 3.038-2.144 3.63-1.003 4.47 1.02.753 8.905.625 9.55-.154zm-18.227-.367c.542-.91-5.354-6.605-6.89-6.656-.356-.01-1.15 1.254-1.765 2.81-1.03 2.613-.975 2.912.715 3.852 2.327 1.295 7.17 1.29 7.94-.006zm-65.18.478c1.26-.2.59-1.938-1.544-3.998-1.188-1.147-2.48-2.08-2.874-2.074-.392.007-1.3-.793-2.017-1.778-.716-.985-1.76-2.414-2.318-3.176-.86-1.175-1.17-.833-2.036 2.25-.56 2-1.92 4.513-3.022 5.584-2.59 2.52-2.51 3.21.405 3.494 2.07.2 11.57-.013 13.407-.302zm48.498-.72c.562-1.032-2.535-5.776-3.902-5.98-.678-.1-1.957.857-2.843 2.126-1.566 2.24-1.565 2.34.01 3.45 1.733 1.222 6.143 1.486 6.734.403zm-70.388-.07c-.026-.595-.603-1.79-1.282-2.654-.68-.865-1.52-3.088-1.865-4.94-.347-1.85-.952-3.556-1.346-3.79-.394-.234-3.713 1.2-7.376 3.19-3.664 1.99-8.338 3.875-10.387 4.193-3.848.596-7.16 2.43-6.148 3.405.316.306 6.136.632 12.934.725 6.797.093 12.55.355 12.784.58.86.832 2.73.338 2.686-.71zm36.907-.856c.433-1.19-3.776-7.084-5.15-7.208-1.098-.1-4.24 6.116-3.73 7.38.716 1.77 8.226 1.626 8.88-.172zm13.817.043c.533-.897-3.584-4.97-5.012-4.956-.452.004-2.45 3.926-2.435 4.78.005.29 2.132.687 5.81 1.084.567.062 1.304-.347 1.637-.907zm63.498-9.795c.754-2.685.658-3.548-.577-5.182-.814-1.078-2.597-3.447-3.96-5.263-2.525-3.36-3.844-4.006-4.118-2.014-.084.61-.777 3.12-1.54 5.577-1.292 4.168-1.284 4.75.116 8.652.826 2.3 2.163 4.888 2.972 5.752 1.415 1.51 1.558 1.46 3.836-1.365 1.302-1.614 2.774-4.385 3.272-6.157zm-54.17 4.016c6.745-8.086 10.315-16.756 10.93-26.54.32-5.116.142-6.753-.8-7.326-.668-.405-6.173-.683-12.235-.616l-11.022.12-1.954 3.12c-4.393 7.008-4.403 20.142-.018 25.07 2.584 2.907 10.68 10.283 11.26 10.258.247-.01 1.977-1.85 3.84-4.085zm-8.09-3.232c-2.623-3.07-4.652-8.02-4.713-11.49-.06-3.492 2.652-10.898 4.88-13.32 2.695-2.93 4.373-3.073 6.742-.574 2.128 2.245 2.752 3.955 3.383 9.268.716 6.028-4.083 19.085-7.035 19.136-.367.007-1.833-1.353-3.257-3.02zm4.404-9.115c.796-2.63 1.71-5.556 2.03-6.5.783-2.294-.898-8.23-2.322-8.205-.624.01-2.014 1.3-3.09 2.866-1.584 2.305-1.927 3.917-1.802 8.468.153 5.553 1.823 10.372 3.087 8.91.358-.415 1.302-2.907 2.097-5.54zm90.68 13.748c-.027-1.5-4.592-4-7.223-3.954-3.21.056-12.86-4.448-16.387-7.647-7.14-6.477-9.698-12.636-9.894-23.832l-.085-4.82-2.092 2.335c-1.584 1.77-1.993 3.035-1.685 5.213.224 1.582.66 4.748.968 7.036.308 2.288 1.277 5.5 2.152 7.134 1.904 3.558 12.34 13.97 13.974 13.942.633-.01 1.157.343 1.165.787.008.444.895 1.06 1.97 1.37 1.077.31 2.477.964 3.11 1.454.634.49 2.578 1.01 4.32 1.16 1.74.147 3.343.44 3.56.65.948.915 6.162.21 6.144-.83zm-139.816-1.02c.672-1.067 1.418-3.5 1.66-5.408.543-4.287-.797-14.292-1.923-14.367-.456-.03-1.486 1.225-2.29 2.79-.804 1.563-2.435 3.894-3.625 5.18-2.288 2.474-2.812 6.648-1.176 9.38.49.816 1.296 2.565 1.79 3.884.776 2.068 1.137 2.266 2.622 1.438.947-.53 2.27-1.833 2.942-2.9zm68.797-1.332c.485-1.56.627-3.572.316-4.472-2.493-7.205-3.215-7.73-5.18-3.763-1.614 3.262-1.565 6.39.153 9.573 1.664 3.085 3.498 2.564 4.71-1.338zm16.642 1.385c.52-1.2 1.274-2.186 1.674-2.193.398-.007.718-.41.71-.896-.01-.486.896-2.352 2.01-4.146 1.116-1.794 2.268-4.53 2.56-6.083.292-1.552.935-2.83 1.43-2.838.492-.008.69-.995.44-2.19-.25-1.198-.123-2.39.284-2.652s.48-3.807.166-7.88c-.514-6.632-.858-7.75-3.31-10.736-1.716-2.093-3.262-3.186-4.148-2.935-9.048 2.564-9.82 2.966-12.243 6.382-6.966 9.814-6.045 24.558 2.09 33.47 2.638 2.888 5.32 4.83 6.72 4.86.367.01 1.094-.966 1.615-2.164zm-2.927-5.02c-2-1.45-5.128-8.234-5.595-12.14-.82-6.848 3.777-17.773 7.515-17.86 3.17-.072 4.83 4.23 5.116 13.257.21 6.608-.066 8.554-1.755 12.38-2.185 4.947-3.254 5.83-5.282 4.362zm2.12-9.306c1.47-2.974 1.664-12.852.295-15.2-.736-1.264-1.02-1.148-2.352.966-1.927 3.057-2.48 10.95-1.004 14.345.617 1.42 1.26 2.578 1.428 2.575.168-.003.902-1.212 1.633-2.686zm-62.522 6.583c3.95-8.568 5.713-14.744 6.912-24.21.534-4.217-.648-5.195-9.112-7.544-5.214-1.446-5.5-1.443-7.11.066-2.315 2.17-6.436 11.33-7.543 16.764-1.02 5.01.404 13.305 2.583 15.05.646.518 1.184 1.48 1.195 2.135.027 1.47 6.127 7.142 7.653 7.115.61-.01 3.05-4.23 5.423-9.375zm-9.317-1.59c-1.095-1.6-1.754-4.49-2.06-9.035-.4-5.918-.19-7.244 1.833-11.567 5.214-11.145 11.905-9.447 11.37 2.884-.333 7.663-.77 9.957-2.39 12.523-.76 1.206-1.372 2.77-1.36 3.472.024 1.367-3.112 4.028-4.78 4.057-.554.01-1.73-1.04-2.614-2.334zm5.147-8.31c1.52-3.423 2.01-6.054 1.94-10.42-.05-3.21-.45-5.832-.887-5.824-1.36.024-4.216 5.644-5.186 10.207-.967 4.55-.26 10.656 1.232 10.63.476-.008 1.78-2.075 2.9-4.594zm16.103 14.65c.147-1.182-.34-3.31-1.08-4.733-.74-1.42-1.588-3.286-1.884-4.144-.296-.858-.896-1.33-1.333-1.05-1.232.792-1.956 5.65-1.016 6.806.463.566 1.122 2.122 1.466 3.457.78 3.026 3.46 2.79 3.847-.338zm-62.92 1.208c10.14-3.687 13.857-6.293 21.91-15.36 3.23-3.633 7.2-12.436 8.393-18.6.99-5.112.245-6.342-3.08-5.09-1.833.69-2.705 2.14-4.49 7.456-1.22 3.63-2.538 7.14-2.932 7.802-3.67 6.18-12.574 14.334-17.324 15.868-8.018 2.59-11.277 5.167-11.212 8.868.022 1.298 3.65.906 8.737-.944zm162.754-4.353c.287-.298-.63-2.613-2.038-5.144-1.408-2.53-2.853-5.868-3.21-7.415-.73-3.162-5.01-10.956-6.007-10.94-.358.006-.66-.476-.675-1.07-.013-.595-1.302-1.913-2.863-2.93-6.086-3.96-10.63-4.265-9.734-.654.253 1.017 1.114 4.53 1.913 7.807.8 3.277 2.326 7.092 3.393 8.478 3.16 4.104 7.915 8.303 10.714 9.46 7.974 3.293 7.722 3.222 8.507 2.41zm-154.456-11.09c6.737-5.74 14.673-21.417 10.808-21.35-3.247.058-10.443 4.888-14.777 9.92-2.637 3.062-4.788 5.958-4.782 6.438.007.48-.93 2.717-2.08 4.972-1.15 2.256-2.082 4.68-2.07 5.385.037 2.092 8.07-1.25 12.9-5.364zm89.158-17.163c1.056-2.904.327-3.674-2.018-2.13-1.24.815-.685 3.546.717 3.522.44-.008 1.025-.634 1.3-1.392zm30.176-2.968c.244-.672-.118-1.93-.806-2.798-1.06-1.337-1.37-1.384-2.05-.31-.504.8-.48 1.832.064 2.81 1.033 1.85 2.182 1.974 2.792.298zm-89.95-3.22c1.575-1.8 1.13-3.534-.898-3.5-1.452.027-3.25 3.2-2.487 4.39.803 1.25 1.73 1.006 3.385-.89zm37.1-.802c-.09-.657-1.007-3.3-2.037-5.874-1.792-4.482-3.508-11.323-4.228-16.847-.185-1.423-1.008-7.056-1.828-12.514-.82-5.46-1.513-10.51-1.54-11.223-.346-9.578-1.79-24.007-2.486-24.835-.96-1.144-8.97-1.36-9.624-.26-.216.364.218 4.737.963 9.72.746 4.98 2.098 17.22 3.004 27.2.907 9.978 2.078 20.74 2.602 23.916 1.222 7.406 1.216 7.602-.235 7.627-1.355.025-2.467-5.308-4.407-21.123-.64-5.224-1.328-10.275-1.528-11.223-.2-.948-.868-6.972-1.486-13.387-1.478-15.33-3.045-23.404-4.694-24.18-2.937-1.38-10.316-2.993-11.174-2.442-1.203.773.15 19.018 3.212 43.285 1.086 8.612 1.027 13.298-.173 13.66-.82.248-2.494-9.875-3.677-22.247-1.496-15.642-4.06-34.23-4.848-35.155-.49-.574-2.315-1.275-4.057-1.557-1.742-.282-3.826-.84-4.63-1.236-.806-.398-2.122-.458-2.925-.134-1.242.502-1.362 1.375-.81 5.853.36 2.894.915 8.957 1.236 13.473.32 4.516 1.064 12.096 1.65 16.845 1.11 8.956 1.662 14.378 2.394 23.48.236 2.938.684 5.738.995 6.223.312.485 2.018 1.117 3.79 1.405 1.774.287 3.62.806 4.1 1.154.483.347 1.856.913 3.052 1.258 1.195.345 5.388 2.072 9.316 3.837 3.93 1.766 7.702 3.2 8.385 3.19.683-.013 2.956.565 5.05 1.284 2.096.72 4.982 1.485 6.413 1.7 1.432.217 2.78.562 2.998.767.217.205 1.97.19 3.894-.035 2.333-.27 3.443-.804 3.332-1.6zm20.85-1.204c.444-.442 1.788-.82 2.987-.84 1.198-.022 4.815-.962 8.036-2.09 4.294-1.5 5.94-2.51 6.17-3.784.17-.955 1.26-6.036 2.416-11.292 1.157-5.255 2.266-10.397 2.463-11.426.197-1.03 1.485-6.308 2.86-11.732 1.377-5.424 3.01-12.596 3.63-15.94.62-3.34 1.49-7.278 1.93-8.747.443-1.47.778-4.142.747-5.94l-.057-3.267-5.396.708c-6.334.832-7.848 1.815-7.095 4.61.3 1.11.206 2.698-.21 3.53-.414.83-.94 4.432-1.17 8.006-.47 7.337-2.273 17.263-3.607 19.864-.49.954-.87 2.933-.843 4.398.026 1.465-.31 3.346-.744 4.18-.434.834-1.578 4.252-2.54 7.596-2.52 8.74-7.165 18.74-8.72 18.766-1.624.028-1.638.39.278-7.293 2.08-8.34 4.076-14.6 5.057-15.856 1.025-1.314 3.978-12.776 3.94-15.295-.015-1.076.453-2.94 1.04-4.14.586-1.2 1.133-3.35 1.215-4.78.082-1.43.513-3.774.96-5.21.866-2.8 1.61-8.426 1.796-13.608l.115-3.197-5.636.6c-6.534.694-8.985 1.747-8.26 3.546.865 2.14-4.958 39.12-7.837 49.784-2.812 10.41-4.528 16.156-5.26 17.603-1.594 3.156-.96 3.5 5.098 2.76 3.205-.39 6.192-1.072 6.636-1.515zm-16.01-2.532c-.02-1.055.486-2.696 1.12-3.646.636-.95 1.323-3.093 1.527-4.762.202-1.67 1.11-6.163 2.015-9.987.906-3.822 2.616-11.445 3.802-16.94 1.185-5.493 2.48-10.773 2.88-11.732.398-.96 1.094-4.67 1.545-8.248.45-3.577 1.01-7.71 1.245-9.186l.424-2.68-12.368-.348c-9.397-.263-12.54-.085-13.076.74-1.156 1.774.627 26.048 3.19 43.42 1.486 10.085 2.68 15.578 4.83 22.204 1.334 4.107 2.928 4.757 2.866 1.166zm44.88-6.81c.708-.265 2.306-.723 3.55-1.016 2.713-.64 3.318-2.183 5.666-14.46.96-5.014 2.643-12.832 3.74-17.373 5.62-23.238 7.92-34.982 7.2-36.766-.413-1.023-1.058-1.127-2.943-.47l-7.145 2.48c-3.993 1.383-4.738 1.974-4.778 3.785-.135 6.152-1.197 15.76-2.294 20.762-.682 3.106-1.707 7.99-2.28 10.857-.57 2.865-2.52 11.466-4.33 19.113-1.812 7.647-3.29 14.154-3.285 14.46.008.52 3.933-.26 6.898-1.37zM340.786 575.5c-1.725-8.98-3.458-24.728-4.316-39.223-.378-6.395-.983-13.188-1.343-15.097-.62-3.29-.854-3.505-4.54-4.15-2.138-.376-4.263-1.03-4.722-1.456-.46-.426-1.78-.758-2.936-.738-2.338.04-2.337-.148-.04 14.712.55 3.56 1.79 15.22 2.758 25.912.967 10.692 2.13 20.31 2.58 21.372.453 1.063 1.512 1.924 2.355 1.913.843-.01 3.5 1.076 5.902 2.415 2.403 1.34 4.65 2.16 4.995 1.822.344-.337.032-3.704-.693-7.482zm121.16 4.99c1.42-.584 4.124-2.235 6.013-3.67 2.988-2.268 3.437-3.062 3.46-6.117.034-4.67 1.823-14.715 5.29-29.72 2.567-11.1 5.308-25.287 5.274-27.288-.018-.994-2.216-.95-4.12.083-.82.444-3.097 1.312-5.062 1.93-3.877 1.217-3.704.74-4.874 13.47-.13 1.43-.933 5.534-1.782 9.118-.848 3.585-1.997 9.25-2.553 12.593-.555 3.34-1.498 7.555-2.095 9.365-.597 1.81-1.26 4.937-1.476 6.948-.45 4.24-.79 5.988-1.975 10.17-1.384 4.892-1.054 5.156 3.9 3.116zm20.162-11.72c4.26-2.2 8.336-4.607 9.054-5.35.72-.745 1.83-1.362 2.47-1.374.64-.01 1.288-.314 1.44-.674.153-.36 2.786-1.984 5.85-3.61 3.066-1.626 6.923-3.784 8.57-4.796 1.65-1.012 5.504-3.264 8.567-5.005 7.282-4.136 29.296-19.2 30.793-21.067 2.026-2.53-.083-4.233-6.136-4.95-6.16-.73-6.448-.527-7.216 5.094-.75 5.49-2.087 9.22-3.313 9.24-.638.013-1.037-.81-.937-1.93 1.307-14.568 1.31-14.517-.6-14.483-.992.017-3.573-.41-5.733-.946-5.358-1.334-6.035-.363-7.086 10.155-.47 4.712-1.124 9.007-1.45 9.544-.33.537-.637 2.053-.687 3.368-.13 3.448-1.944 7.595-3.333 7.62-1.397.024-1.52-2.795-.397-9.08.427-2.387 1.27-8.194 1.87-12.905.603-4.71 1.51-9.083 2.018-9.716.71-.884.31-1.455-1.714-2.458-1.45-.718-3.193-1.296-3.872-1.284-.68.012-1.73-.554-2.334-1.257-1.337-1.555-5.934-1.647-5.77-.116.232 2.183-1.087 14.256-2.202 20.157-.632 3.343-1.688 9.202-2.346 13.02-1.79 10.38-3.495 15.206-5.386 15.24-1.338.022-.927-6.478.744-11.78.89-2.825 1.612-6.158 1.6-7.405-.01-1.248.893-6.13 2.005-10.852 1.112-4.72 2.217-11.85 2.456-15.84.412-6.876.33-7.333-1.572-8.716-1.456-1.06-1.802-1.84-1.26-2.848.643-1.197 1.517-.918 6.318 2.018 5.194 3.177 15.81 6.875 27.088 9.436 2.628.597 10.91 1.415 18.407 1.82l13.63.732 3.866-2.357c2.126-1.297 3.86-2.73 3.852-3.186-.014-.795-11.56-1.167-18.45-.595-1.81.15-3.76-.086-4.336-.525-.574-.438-3.778-1.204-7.118-1.7-15.397-2.295-21.285-3.616-29.972-6.728-9.924-3.556-15.57-6.867-15.71-9.217-.08-1.34 3.336-.626 7.885 1.648 2.588 1.293 6.466 2.825 8.618 3.404 2.152.578 5.284 1.558 6.96 2.177 3.324 1.227 8.23 2.162 20.744 3.956 4.48.642 8.778 1.49 9.55 1.885.773.395 7.394.84 14.715.99 12.468.252 13.464.155 15.765-1.545 1.35-.998 2.45-2.157 2.443-2.575-.007-.42-3.857-.628-8.556-.464-5.948.208-8.963-.038-9.924-.808-.76-.608-2.114-.86-3.01-.558-.896.302-4.52.164-8.05-.307-3.534-.47-7.008-.85-7.722-.84-1.41.015-8.312-1.287-10.417-1.966-.718-.23-2.865-.532-4.77-.67-3.976-.284-18.483-4.853-20.45-6.44-.723-.584-2.602-1.546-4.174-2.137-3.518-1.32-9.084-5.492-8.348-6.254.882-.914 4.427-.702 5.072.302 1.128 1.757 1.98-.548 2.125-5.737.135-4.944.04-5.204-1.98-5.39-6.042-.56-8.135-1.235-10.065-3.245-1.164-1.213-2.21-2.046-2.323-1.85-.113.195-.017 3.797.215 8.004.388 7.07.546 7.612 2.088 7.18 1.065-.298 1.99.112 2.562 1.136.765 1.37.215 2.053-3.817 4.733-9.686 6.437-21.615 11.406-30.516 12.71-2.61.383-5.145 1.027-5.63 1.432-.488.406-3.978 1.214-7.758 1.796-3.78.584-9.397 1.46-12.482 1.945-3.085.486-5.943.566-6.35.177-.41-.39-1.652-.215-2.764.387-1.91 1.032-25.596 1.542-38.023.82-10.933-.638-24.383-1.89-25.57-2.382-.718-.297-3.258-.788-5.643-1.09-12.313-1.558-35.557-8.922-36.837-11.67-.165-.354-.754-.637-1.31-.63-.554.01-3.325-1.467-6.157-3.28l-5.15-3.294-7.865 4.204c-4.546 2.43-10.754 4.91-14.71 5.88-3.762.92-8.07 2.066-9.57 2.546-8.12 2.6-40.144 6.978-47.467 6.49-5.71-.38-6.51-.126-5.727 1.81.802 1.983 4.612 3.43 11.693 4.443 5.53.79 8.622.677 19.025-.7 12.883-1.702 20.063-3.012 24.488-4.465l9.894-3.243c4.023-1.32 10.21-3.815 13.75-5.55 3.538-1.732 6.85-3.168 7.355-3.19.507-.022 3.84 1.313 7.407 2.965 9.317 4.316 13.22 5.872 15.193 6.055 1.58.146 9.825 1.985 24.76 5.52 8.692 2.057 17.783 3.53 27.768 4.496 9.573.927 43.856.69 49.752-.342 1.898-.332 5.587-.9 8.2-1.258 2.61-.36 6.295-1.19 8.187-1.846 1.892-.655 5.96-1.913 9.037-2.795 3.078-.882 6.177-1.818 6.886-2.08.71-.262 1.872-.584 2.583-.716 1.973-.366 12.298-4.43 13.75-5.413 1.32-.893 5.485-2.637 9.665-4.046 1.715-.577 2.37-.5 2.384.278.02 1.192-4.495 4.94-5.985 4.966-.52.01-3.167 1.166-5.878 2.57-9.646 4.998-34.798 12.858-41.503 12.97-1.705.03-3.368.33-3.696.67-2.294 2.375-60.88 2.31-64.837-.074-.58-.35-1.445-.657-1.92-.683-4.276-.23-11.767-1.55-14.117-2.484-1.593-.633-6.69-1.858-11.324-2.722-4.636-.862-10.386-2.19-12.78-2.95-2.392-.758-4.74-1.415-5.216-1.46-.942-.086-9.36-3.7-14.596-6.266l-3.266-1.6-4.442 2.725c-7.304 4.48-15.375 7.167-32.76 10.91-10.73 2.31-31.033 4.164-35.428 3.234-4.062-.86-4.94.315-1.714 2.29 1.338.82 2.68 1.823 2.98 2.23 1.287 1.744 26.046.544 36.645-1.776 2.37-.52 5.15-1.096 6.173-1.282 4.82-.878 19.117-6.09 25.576-9.324 3.155-1.58 3.24-1.577 7.67.258 6.9 2.86 17.922 6.817 19.95 7.165 5.495.94 7.54 1.403 11.128 2.516 2.144.665 6.248 1.505 9.12 1.865 2.87.36 8.148 1.16 11.73 1.774 3.58.614 7.093 1.137 7.807 1.162.714.025 5.703.508 11.087 1.074 14.382 1.512 47.827.104 49.117-2.067.244-.41 2.338-.778 4.654-.82 3.7-.063 15.037-2.25 25.454-4.91 6.423-1.64 11.19-2.745 14.22-3.297 1.66-.303 3.78-1.097 4.706-1.765.927-.668 2.28-1.228 3.007-1.243.727-.016 2.378-.603 3.67-1.306 3.147-1.713 7.71-2.193 8.195-.862.227.618-1.55 1.953-4.28 3.22l-4.67 2.162-.88 8.12c-.486 4.466-1.24 9.684-1.68 11.596-.437 1.91-.9 4.255-1.028 5.21-.375 2.785-2.172 10.833-3.784 16.94a359.71 359.71 0 0 0-2.66 10.863c-.642 2.866-1.424 6.092-1.738 7.17-.314 1.075-.33 1.95-.038 1.946.293-.005 4.02-1.808 8.282-4.007zm-158.975 4.75c.177-.564-.017-3.223-.432-5.908-.415-2.686-1.002-8.933-1.303-13.884-.302-4.95-1.328-15.802-2.282-24.115-1.923-16.76-1.89-16.69-9.543-20.55-3.177-1.6-3.182-1.6-4.906.313-2.658 2.948-2.897 5.676-1.548 17.644.686 6.09 1.408 14.184 1.603 17.988.196 3.804.706 10.15 1.134 14.1l.777 7.184 4.662 2.87c2.563 1.577 5.65 3.098 6.856 3.378 1.207.28 2.415.853 2.684 1.272.69 1.076 1.914.92 2.295-.292zm-20.846-17.87c-.35-4.395-1.134-13.19-1.74-19.54-1.073-11.212-1.747-18.83-1.942-21.93-.132-2.088-1.87-1.87-7.314.92-4.506 2.307-4.67 2.518-4.947 6.36-.157 2.183.15 8.442.685 13.906.534 5.464 1.09 11.684 1.236 13.823.145 2.14.347 4.734.448 5.767.134 1.368 1.9 2.798 6.516 5.274 3.483 1.868 6.64 3.4 7.014 3.406.374.004.393-3.59.043-7.985zm-17.412-8.78c-.39-3.683-1.11-9.025-1.6-11.872-.492-2.847-.933-7.188-.98-9.647-.133-7.056-.17-7.09-6.717-5.74-3.107.64-5.966 1.502-6.353 1.915-.388.413-.09 5.218.665 10.678.753 5.46 1.4 10.752 1.438 11.76.044 1.165 1.42 2.702 3.79 4.235 4.817 3.116 8.767 5.282 9.713 5.328.413.02.433-2.975.045-6.657zm-17.814-6.18c.202-3.568-.932-15.673-1.676-17.88-.437-1.3-1.11-1.527-3.316-1.112-1.52.286-4.322.596-6.224.69l-3.46.17.362 4.752c.246 3.236.86 5.16 1.922 6.024 6.116 4.98 10.875 8.464 11.543 8.452.433-.007.815-.5.85-1.096zm-17.628-13.81c-.052-2.986-1.83-4.672-4.87-4.62-3.86.07-3.774 1.194.298 3.86 3.797 2.483 4.604 2.617 4.572.76zm165.497-24.223c.582-.49.83-1.246.55-1.68-.44-.686-.95-3.204-2.773-13.732-.212-1.22-1.213-4.062-2.225-6.313-2.636-5.866-1.088-8.01 2.11-2.924 2.6 4.135 4.068 8.817 5.325 16.998l1.128 7.335 6.462-.384c3.554-.21 6.95-.806 7.55-1.32 1.234-1.062.542-12.328-1.4-22.744-.975-5.237-1.347-5.996-2.802-5.722-.923.174-2.872.534-4.332.802-4.282.784-9.154-1.927-11.51-6.404L411 462.742l.064 3.603c.125 7.156-3.137 10.5-11.777 12.073-5.447.99-5.588 1.085-6.714 4.488-1.514 4.575-3.462 14.69-3.41 17.698.04 2.266.317 2.423 5.463 3.094 6.474.843 18.823.21 20.307-1.04zm-30.35-.363c.368-.6.88-3.433 1.137-6.294.258-2.86 1.203-8.297 2.1-12.082 1.553-6.562 1.554-9.182 0-9.155-.962.017-2.923-5.763-3.21-9.463-.248-3.218 1.114-8.673 2.17-8.69.983-.018 1.58 2.626 1.56 6.894-.012 2.403.702 5.247 1.865 7.427 1.618 3.035 2.47 3.67 6.04 4.502l4.154.97 3.155-3.504c2.462-2.734 3.267-4.475 3.663-7.916.33-2.875.92-4.42 1.693-4.433.653-.012 1.194.368 1.202.844.01.475.36.86.784.85.423-.006.704-.65.624-1.43-.336-3.292 1.81-1.73 4.058 2.95 2.343 4.878 2.55 5.056 6.37 5.512 7.15.853 10.84-3.98 10.17-13.318-.28-3.92-.087-5.33.735-5.346.966-.016 2.03 1.415 2.696 3.63.105.356.292 2.105.412 3.888.2 2.94.292 3.05.997 1.2.426-1.122.577-2.348.335-2.726-.243-.377.113-2.08.79-3.78.966-2.433.997-3.24.144-3.76-2.095-1.28-11.675-1.56-38.737-1.13-10.23.162-20.996.287-23.925.276-4.803-.017-5.5.21-7.1 2.32-3.27 4.312-1.447 15.41 2.9 17.64 3.586 1.838 6.267-.074 7.975-5.688.78-2.562 3.095-.115 3.155 3.335.052 2.96-2.386 5.55-6.5 6.906-1.017.336-2.07 1.563-2.342 2.727-.62 2.67-.017 24.23.71 25.362.563.876 5.55 2.432 8.087 2.523.806.03 1.765-.44 2.13-1.04zm197.747-4.06c.896-.833 1.258-3.064 2.528-15.612.6-5.933 1.293-11.464 1.54-12.29.322-1.08-.682-2.254-3.547-4.152-2.196-1.456-3.774-3.016-3.507-3.468.268-.45.075-.812-.428-.804-.54.01-.953-2.066-1.005-5.068-.06-3.5-.506-5.42-1.427-6.156-1.988-1.592-2.615-.27-1.39 2.937 1.506 3.953 1.398 5.72-.594 9.697-1.327 2.646-1.71 5.083-1.63 10.38.055 3.806-.376 10.988-.958 15.96-.583 4.97-1.058 9.136-1.056 9.256.02 1.147 10.155.547 11.474-.68zm-14.973-1.84c.646-1.708 1.627-9.923 2.707-22.683l.443-5.233-3.292.167c-4.553.23-8.13-1.22-8.76-3.552-1.074-3.985-2.17-1.75-1.92 3.914.35 7.965-.245 19.736-1.24 24.467-.45 2.15-.543 4.17-.205 4.49.768.722 6.86 1.132 9.558.64 1.106-.2 2.325-1.195 2.71-2.21zm25.108-.13c.923-.956 1.97-1.756 2.327-1.778.357-.022 1.505-.78 2.55-1.685 1.476-1.274 2.18-3.472 3.13-9.76.672-4.464 1.38-9.093 1.568-10.286.486-3.057-1.63-10.355-2.995-10.332-.624.01-1.128.38-1.12.822.007.44-2.054 1.792-4.58 3.002l-4.593 2.2-.36 9.416c-.34 8.808-.51 10.944-1.474 18.385-.353 2.722-.246 2.864 1.746 2.327 1.168-.315 2.878-1.354 3.8-2.31zm-222.335-2.37c-.01-4.403.02-11.108.063-14.9.077-6.586-.032-7-2.428-9.16-1.38-1.244-2.914-3.274-3.41-4.512-1.205-3.013-1.904-2.83-4.246 1.11-1.09 1.836-2.805 3.716-3.81 4.178-1.748.804-1.82 1.442-1.687 14.684.078 7.614.452 14.227.833 14.697.38.47 2.96.94 5.733 1.044 2.772.103 5.21.352 5.418.553.208.2 1.092.353 1.964.338 1.415-.025 1.584-.892 1.568-8.032zm77.407 4.608l4.308-1.09-.187-5.606c-.284-8.475-.88-16.668-1.332-18.314-.223-.808-1.832-1.903-3.575-2.43-3.32-1.01-8.884-6.058-8.92-8.098-.03-1.838-1.36-1.382-2.327.8-2.326 5.246-2.688 6.85-1.87 8.276 1.904 3.32 4.79 18.208 4.28 22.075-.283 2.14-.25 4.302.075 4.806.73 1.14 3.942.998 9.55-.418zm104.024-1.72c.462-.602.878-2.46.924-4.125.047-1.667.146-5.563.22-8.657.073-3.095.252-6.02.397-6.497.634-2.088-.103-4.758-1.305-4.737-.714.012-1.29.412-1.283.888.008.476-1.322.888-2.956.917-1.635.03-3.916.43-5.07.892-1.927.772-2.073 1.247-1.81 5.873.157 2.768.046 6.614-.247 8.546-.837 5.51.038 6.8 4.95 7.308 2.34.24 4.498.496 4.798.565.3.07.922-.367 1.383-.97zm-320.013 3.424c.48-.937.432-4.367-.123-8.868-.498-4.037-1.013-11.718-1.144-17.07-.224-9.084-.353-9.73-1.945-9.702-2.093.037-6.653-2.108-9.137-4.297-1.67-1.473-1.95-1.495-2.957-.24-.92 1.15-.748 4.667 1.002 20.51 2.387 21.59 2.3 21.39 9.392 21.266 3.048-.053 4.335-.472 4.913-1.6zm119.89-10.314c-1.047-13.64-1.67-17.06-3.107-17.036-1.605.028-4.56-1.597-7.54-4.146-4.067-3.48-4.594-1.785-4.126 13.263.224 7.23.43 13.393.455 13.696.025.3 1.12.735 2.433.962 1.313.228 4.343.963 6.735 1.634 2.39.672 4.696 1.25 5.12 1.285.444.037.456-4.09.03-9.658zm-105.935 9.924c1.457-.447 2.078-1.2 1.922-2.327-.127-.918-.518-7.114-.87-13.77-.62-11.74-.71-12.163-2.943-14.045-1.504-1.268-2.485-3.136-2.827-5.392-.29-1.898-.76-3.305-1.05-3.126-.288.178-1.767.883-3.286 1.566-3.54 1.592-3.883 3.46-2.624 14.295.552 4.75 1.064 11.575 1.14 15.167.08 3.898.562 6.942 1.192 7.55 1.142 1.103 5.883 1.144 9.347.08zm290.478-5.357c.48-.604 1.077-5.502 1.324-10.885.42-9.14.33-9.91-1.36-11.658-3.237-3.35-1.764-17.88 1.82-17.944 1.108-.02.868 5.63-.31 7.307-1.69 2.404.308 8.465 3.21 9.733 3.944 1.726 6.855 1.2 9.705-1.75 2.57-2.662 2.944-3.993 2.52-8.97-.18-2.1.06-2.43 1.514-2.076 1.372.333 1.825-.112 2.197-2.155.694-3.81 2.55-2.557 3.32 2.24.714 4.427 3.56 8.203 6.15 8.157.844-.015 2.565-1.428 3.824-3.14 1.754-2.385 2.26-4.04 2.16-7.08-.07-2.18-.613-4.252-1.205-4.604-.593-.352-11.046-.476-23.23-.275-12.184.2-23.81.318-25.837.26-2.026-.057-4.238.373-4.915.954-1.855 1.595-3.16 6.685-2.465 9.607.908 3.815 2.733 5.134 7.003 5.06 3.05-.054 4.26-.58 6.38-2.775 1.44-1.49 2.61-3.068 2.602-3.507-.008-.44.388-.805.88-.814.492-.008.78.983.637 2.203-.293 2.523-4.354 7.38-6.196 7.413-1.156.02-1.674 3.352-1.283 8.243.076.95-.196 4.427-.606 7.725-.443 3.58-.422 6.308.053 6.767.745.72 8.085 2.867 10.257 3 .537.034 1.37-.432 1.85-1.036zm-321.17 1.28c-.36-2.494-.99-9.98-1.4-16.635-.41-6.656-1.084-12.967-1.496-14.024-.65-1.67-1.046-1.802-3.027-1.01-1.522.61-2.63.63-3.338.065-.583-.466-1.953-.97-3.045-1.116-1.092-.148-2.678-1.154-3.525-2.237-.847-1.084-1.748-1.62-2.003-1.19-.254.427.058 7.192.693 15.032 1.075 13.27 1.307 14.43 3.367 16.81 2.755 3.184 11.345 8.723 13.657 8.808.426.015.478-1.998.117-4.504zm249.03-1.398c1.858-.52 3.738-1.62 4.18-2.44.44-.82.92-4.523 1.067-8.23.244-6.147.108-6.824-1.543-7.67-2.588-1.328-4.728-4.808-5.485-8.92-.518-2.81-.772-3.18-1.213-1.768-.307.984-2.11 2.767-4.004 3.964l-3.445 2.177.782 4.313c.43 2.372.778 7.955.772 12.407l-.01 8.094 2.76-.49c1.518-.27 4.28-.917 6.138-1.438zm-202.632 1.937c1.283-.42 1.447-1.656 1.226-9.234-.383-13.164-.325-13.06-7.268-12.97l-5.785.075.105 5.623c.058 3.093.402 8.28.767 11.53.744 6.64 2.12 7.903 6.886 6.32a975.34 975.34 0 0 1 4.07-1.344zm258.645-9.18c.343-2.11.79-6.622.996-10.028l.372-6.19-2.695-.544c-1.483-.3-2.702-.902-2.71-1.34-.008-.438-.455-.788-.994-.78-1.087.02-4.268-3.232-4.288-4.383-.007-.403-.384-.726-.837-.718-1.795.03-3.977 7.653-4.31 15.046-.318 7.092-.22 7.638 1.53 8.577 3.494 1.873 10.583 4.593 11.45 4.393.473-.11 1.14-1.925 1.485-4.034zm-186.745 1.953c-.15-5.704-.817-12.727-1.287-13.576-.21-.38-1.337-.038-2.507.757-1.515 1.032-3.078 1.303-5.445.946-3.13-.473-3.343-.362-3.726 1.947-.914 5.518-.446 9.847 1.12 10.348.833.267 3.48 1.36 5.877 2.43 2.398 1.07 4.747 1.822 5.22 1.67.474-.15.81-2.186.748-4.522zm144.745.118c2.728-1.253 5.436-2.932 6.017-3.73.58-.8 1.02-3.52.976-6.046-.067-3.846-.333-4.588-1.637-4.566-.858.015-1.922.358-2.368.76-.445.405-2.455 1.234-4.467 1.845-3.12.947-3.66 1.454-3.676 3.455-.01 1.29-.152 4.197-.315 6.46-.164 2.264-.116 4.113.105 4.11.22-.005 2.635-1.034 5.363-2.287zm-198.962 2.414c2.152-1.46 2.306-3.758 1.098-16.418l-.677-7.092-4.865-.906c-2.677-.498-5.56-1.5-6.41-2.225-1.977-1.693-2.388-1.198-2.455 2.95-.107 6.577.74 25.006 1.18 25.69.662 1.034 9.91-.49 12.13-2zm330.078-7.302c3.32-3.34 4.237-5.722 3.717-9.662-.244-1.846-.728-2.403-1.9-2.182-.866.163-2.154-.168-2.862-.735-.867-.695-1.57-.742-2.147-.144-1.168 1.21-1.87 15.873-.76 15.853.47-.008 2.247-1.417 3.952-3.13zM292 486.592l5.574-2.907.11-7.964.11-7.962-2.87-1.42c-3.195-1.58-4.675-3.106-6.102-6.29l-.962-2.145-.785 2.16c-.43 1.187-1.31 2.762-1.956 3.5-1.272 1.454-1.722 23.118-.52 24.99.88 1.37 1.146 1.3 7.4-1.96zm24.288-1.278c.126-5.34-.466-9.818-1.402-10.6-3.01-2.52-4.97-5.403-5.49-8.077-.32-1.645-.732-3.136-.917-3.314-.186-.18-1.722.77-3.415 2.11-3.07 2.427-3.077 2.45-2.722 8.42l.356 5.99 4.802 2.515c2.642 1.384 5.383 3.06 6.092 3.722 1.828 1.71 2.64 1.48 2.694-.766zm304.834-10.5c4.762-3.856 6.662-8.133 4.844-10.906-1.12-1.707-2.48-1.42-2.76.583-.248 1.777-3.11 5.385-5.372 6.77-1.206.74-2.813 7.325-1.783 7.307.245-.004 2.527-1.693 5.072-3.754zM194.4 475.7c-.365-4.6-.81-8.822-.99-9.38-.37-1.144-8.962 1.326-10.116 2.91-1.682 2.307.554 6.98 5.428 11.338 2.71 2.424 5.245 4.203 5.634 3.953.39-.25.41-4.22.044-8.82zm284.974-2.796c.937-.77 3.338-5.517 3.954-7.813.097-.357.196-2.25.222-4.206.037-2.904.305-3.46 1.463-3.04.842.308 1.88-.112 2.56-1.033.98-1.322 1.27-1.367 1.992-.306.466.683 1.122 3.017 1.46 5.187.5 3.224 1.16 4.307 3.602 5.92 3.8 2.507 6.287 1.874 8.834-2.25 1.613-2.61 1.873-4.08 1.576-8.915l-.356-5.788-3.46.008c-4.853.012-28.12-.895-30.742-1.198-1.192-.138-7.66-.427-14.375-.643-14.178-.455-13.922-.592-14.384 7.69-.2 3.586.956 6.458 3.895 9.668 2.55 2.785 3.464 2.85 7.767.56 2.664-1.418 3.463-2.476 4.305-5.7 1.146-4.385 1.99-4.956 3.027-2.046.66 1.852.704 1.83 1.02-.502.55-4.06 3.01-2.68 3.45 1.938.73 7.637 1.46 9.785 4.146 12.21 2.288 2.063 3.142 2.328 5.806 1.8 1.717-.34 3.625-1.032 4.238-1.538zm135.756-3.828c1.313-.037 4.433-5.12 4.4-7.17-.01-.803.357-2.507.818-3.787.66-1.834 1.093-2.126 2.034-1.373.934.748 1.293.554 1.644-.89.71-2.93 2.775-1.554 2.5 1.667-.53 6.242 8.275 9.276 13.558 4.67 2.04-1.778 2.49-2.9 2.59-6.46.066-2.37-.192-4.49-.575-4.71-.383-.22-12.378-.47-26.655-.555-14.278-.086-26.216-.31-26.53-.495-.313-.186-1.773-.076-3.244.245-1.888.413-2.665 1.077-2.644 2.263.016.923-.365 2.447-.847 3.386-.482.938-.57 2.18-.193 2.758.376.578.768 1.556.873 2.173.7 4.132 6.537 4.794 10.65 1.21 1.442-1.258 2.61-2.983 2.595-3.834-.042-2.405 1.877-3.548 4.762-2.837 1.992.49 2.624 1.19 2.868 3.164.987 7.987 4.222 12.152 8.578 11.042.947-.24 2.215-.453 2.817-.47zm-286.697 3.046c.817-.847 1.774-1.546 2.126-1.552.79-.014 2.347-7.202 2.436-11.246.082-3.7.496-4.158 2.615-2.885.922.552 2.22.785 2.886.516 1.303-.526 2.312 1.873 2.4 5.706.066 2.92 3.813 6.01 7.858 6.482 2.527.294 3.705-.094 5.784-1.906 2.475-2.158 2.634-2.706 3.076-10.614.256-4.587.26-8.538.008-8.78-1.03-.996-60.193-.85-62.166.153-3.484 1.77-4.333 8.03-1.74 12.837 1.268 2.35 2.95 3.405 5.36 3.363 2.04-.036 5.44-4.155 5.4-6.545-.044-2.45 2.253-3.133 3.14-.934.304.75 1.142 1.11 1.955.836 1.154-.388 1.63.516 2.516 4.77.6 2.887 1.816 6.035 2.7 6.995 4.2 4.566 10.664 5.893 13.647 2.802zm-68.348-5.234c1.005-2.216 1.22-4.152.763-6.875-.61-3.64-.55-3.793 1.58-3.83 1.218-.02 2.208-.428 2.2-.903-.01-.476.553-.875 1.247-.888.728-.012 1.736 1.463 2.38 3.48 1.314 4.124 4.44 6.785 7.9 6.725 2.815-.05 5.66-2.57 6.204-5.495 1.375-7.39.764-10.143-2.606-11.732-1.027-.484-8.683-.962-17.014-1.062-8.33-.1-21.734-.34-29.785-.535-12.495-.3-14.526-.175-13.863.857.427.664 1.087 3.496 1.466 6.293.565 4.162 1.142 5.434 3.183 7.012 5.276 4.077 10.957 2.265 11.99-3.825.618-3.644 1.995-4.397 5.51-3.012 2.437.96 2.604 1.32 2.682 5.76.103 5.935 2.016 9.187 6.62 11.257 4.557 2.048 7.622 1.012 9.543-3.227zm-82.628 1.516c-.005-.28-1.378-2.054-3.05-3.94-1.673-1.888-3.175-4.26-3.338-5.273-.407-2.53-2.028-1.884-1.98.792.04 2.275 5.377 8.77 7.293 8.875.596.032 1.08-.17 1.074-.453zm12.653-6.016c1.432-1.483 2.36-3.732 2.782-6.75.35-2.49.79-4.687.976-4.882.188-.194 1.387.024 2.665.484 1.504.542 2.91 2.13 3.98 4.498.912 2.013 2.475 4.366 3.475 5.23 1.753 1.513 1.938 1.512 5.294-.04 3.722-1.72 3.78-1.865 4.525-11.37l.348-4.452-14.44.093c-7.942.05-18.727-.06-23.965-.243-5.24-.185-12.832-.316-16.873-.293l-7.348.042-.694 3.58c-.93 4.813.756 8.053 5.243 10.07 2.658 1.197 4.16 1.372 6.455.755 2.682-.72 3.155-1.323 4.578-5.84 1.187-3.77 1.958-4.98 3.064-4.812.813.123 2.14-.347 2.953-1.045 1.276-1.097 1.58-1.104 2.26-.046.43.672.525 2.203.21 3.402-1.148 4.35-.463 8.53 1.78 10.86 4.078 4.24 9.08 4.537 12.73.758zm320.238-9.234c-.023-1.346-.527-2.154-1.335-2.14-1.297.022-1.763 2.692-.655 3.76 1.196 1.157 2.027.48 1.99-1.62zm-145.45-4.117c-.02-1.224-.715-1.553-3.188-1.51-2.93.052-3.065.165-1.836 1.547.73.82 1.622 2.265 1.983 3.21.648 1.698.67 1.698 1.862.02.663-.937 1.194-2.406 1.18-3.267zm250.727-8.352c-.44-1.76-.875-5.146-.964-7.524-.088-2.377-.674-5.677-1.3-7.332-2.268-5.99-10.463-5.954-15.354.068-1.114 1.372-2.694 2.765-3.51 3.095-1.513.61-1.57 1.03-1.617 11.69-.02 4.435.166 4.973 1.708 4.946 1.455-.025 1.72-.607 1.667-3.66-.08-4.51 1.442-6.503 2.93-3.836.564 1.01.83 2.51.59 3.328-.24.82-.07 2.046.373 2.728.638.978.894.79 1.22-.887.336-1.74 1.065-10.248 1.137-13.278.01-.415.645-.253 1.412.36 1.153.924 1.318 2.297.954 7.967-.348 5.44-.207 6.77.687 6.458.62-.216 1.23-1.435 1.358-2.71.235-2.332 1.72-3.272 2-1.265.082.593.247 1.467.366 1.94.12.474.27 1.322.335 1.884.168 1.463 4.704 1.762 5.85.385.648-.78.7-2.203.16-4.357zm6.166 1.747c-.07-4.118 2.014-3.44 2.447.796.548 5.374 1.68 3.494 2.084-3.463.403-6.928 1.555-9.582 3.164-7.288.512.73.72 3.59.49 6.69-.337 4.5-.182 5.412.916 5.393.9-.016 1.307-.875 1.275-2.69-.057-3.257 2.067-3.076 2.252.19.165 2.904 1.154 4.302 2.795 3.952 1.856-.397 2.203-6.412.802-13.916-1.36-7.287-3.06-9.24-7.967-9.155-4.012.07-6.28 1.14-9.517 4.494-2.116 2.19-2.263 2.874-2.158 10.045.072 4.847.482 7.913 1.11 8.286 1.628.967 2.365-.097 2.31-3.334zm23.744 2.234c.276-.758.485-2.32.465-3.47-.06-3.298 1.526-2.47 2.634 1.38 1.593 5.53 2.98 3.66 3.79-5.106.4-4.338.983-8.146 1.295-8.464.892-.907 2.01 8.785 1.505 13.034-.256 2.14-.106 3.827.34 3.82 1.375-.024 2.01-1.92 1.81-5.416-.17-3.025.01-3.35 1.743-3.137 1.576.193 2.134-.406 3.025-3.244.668-2.128.852-4.933.473-7.218-.542-3.275-1.01-3.894-3.78-4.995-4.97-1.975-8.67-.864-12.89 3.865-1.985 2.224-3.632 4.31-3.662 4.638-.08.874.127 13.387.24 14.653.14 1.55 2.416 1.293 3.01-.34zm-356.782 4.568c-.02-1.19-.427-2.156-.903-2.148-.477.008-.85.988-.828 2.178.02 1.19.427 2.156.902 2.148.476-.01.85-.99.828-2.178zm242.335-5.312c.042-1.785.16-3.637.26-4.115.104-.478.226-1.21.274-1.625.05-.416.68-.282 1.404.298.756.605 1.34 2.482 1.375 4.41.084 4.846 1.784 4.107 1.808-.788.01-2.26.097-4.696.19-5.412.094-.715.215-2.567.27-4.115.064-1.858.54-2.822 1.395-2.837 1.067-.018 1.325 1.513 1.45 8.6.13 7.543.32 8.556 1.52 8.07.992-.4 1.224-1.235.835-3.015-.687-3.15.886-3.258 2.132-.147.927 2.317 2.287 3.617 3.784 3.616.99 0-.22-15.845-1.528-20.024-.67-2.14-1.99-3.765-4.055-4.992-2.923-1.737-3.19-1.752-6.017-.35-1.626.806-4.15 3.266-5.606 5.465-2.36 3.564-2.673 4.81-2.863 11.426-.155 5.36.094 7.615.893 8.103 1.963 1.197 2.404.74 2.48-2.568zm23.486 1.753c.214-.598.21-2.545-.007-4.326-.414-3.383 1.032-4.664 1.572-1.394.17 1.03.798 2.025 1.396 2.21.803.25 1.062-1.322.99-6.006-.054-3.49.235-6.89.64-7.556 1.328-2.18 2.59 1.683 2.37 7.246-.113 2.84-.018 4.674.212 4.076.9-2.345 2.868-1.138 2.92 1.79.048 2.793 2.135 5.676 3.263 4.508 2.065-2.14 1.064-18.237-1.358-21.795-.78-1.15-1.12-2.132-.752-2.187.367-.056-.666-.39-2.296-.745-4.008-.87-8.037 1.222-10.152 5.276-1.244 2.383-1.65 5.03-1.655 10.785-.003 4.193.226 7.986.51 8.427.725 1.13 1.887.975 2.346-.312zm20.506-3.046c-.037-2.845 1.12-5.624 1.814-4.36.22.405.504 2.053.627 3.663.268 3.474.88 4.632 2.05 3.88.492-.316.596-1.94.244-3.823-.337-1.8-.258-3.5.175-3.78.432-.277.634-2.268.448-4.422-.258-2.986-.038-3.923.927-3.94.9-.016 1.283.978 1.326 3.438.05 2.82.365 3.455 1.7 3.432 1.923-.034 2.715 1.57 2.786 5.647.036 2.052.45 2.95 1.35 2.934 2.017-.036 1.55-16.686-.58-20.715-2.637-4.984-7.457-5.117-12.918-.357-2.54 2.214-2.606 2.475-2.556 10.114.028 4.312-.152 8.184-.402 8.603-.778 1.31.547 3.41 1.825 2.895.69-.278 1.203-1.673 1.184-3.21zm-58.422-.865c-.168-1.524-.025-3.245.318-3.823 1.148-1.93 3.517 1.473 3.58 5.144.05 2.822.354 3.393 1.79 3.368 1.962-.034 1.985-.146 1.61-7.816-.398-8.098-.708-9.818-2.38-13.19-2.91-5.86-12.795-6.44-18.312-1.073-1.904 1.852-2.026 2.59-1.874 11.295.09 5.123.52 9.527.958 9.787 1.326.788 3.66-.59 3.148-1.858-.803-1.988.377-6.377 1.72-6.4.93-.017 1.206.876 1.066 3.432-.196 3.596 1.093 5.815 2.756 4.746.53-.34.845-2.24.697-4.22-.58-7.762-.13-12.688 1.163-12.71.98-.018 1.218 1.133 1.103 5.357-.168 6.22 1.257 13.604 2.292 11.863.37-.623.535-2.38.366-3.903zm-19.14-4.91c-.228-12.973-1.868-15.895-8.857-15.773-3.53.062-4.883.526-6.747 2.316-1.283 1.232-2.335 2.516-2.34 2.853-.004.34-.174 4.61-.378 9.492-.355 8.528-.3 8.875 1.395 8.845 1.548-.027 1.738-.535 1.553-4.137-.157-3.048.107-4.113 1.024-4.13 1.424-.023 2.936 4.418 2.27 6.668-.298 1.007.008 1.514.905 1.5.892-.017 1.356-.84 1.357-2.405.004-7.055.406-13.31.89-13.808 1.305-1.353 1.87 1.25 1.92 8.86.044 6.483.305 8.14 1.28 8.122.672-.012 1.14-.7 1.042-1.533-.407-3.404-.02-5.492.91-4.937.532.315.77 1.637.532 2.944-.442 2.43.905 4.597 2.5 4.02.536-.194.832-3.747.743-8.894zm61.14 7.72c-.004-.21-.4-.617-.88-.902-.482-.286-.868-.108-.86.396.01.503.406.908.882.9.475-.008.862-.187.858-.396zm-83.527-1.853c-.006-.758.178-1.576.41-1.817 1.04-1.074-.877-15.14-2.358-17.317-3.63-5.334-10.608-4.916-14.376.862-1.957 3-2.126 3.985-1.77 10.336.413 7.327 2.023 12.506 2.088 6.714.04-3.53 1.066-6.753 1.782-5.598.273.44.8 2.45 1.17 4.465.912 4.975 2.267 4.615 2.176-.58-.1-5.713.72-9.774 1.898-9.404.57.18.96 2.17.945 4.8-.024 3.99.15 4.434 1.552 3.963 1.212-.41 1.896.193 2.95 2.597 1.36 3.098 3.56 3.708 3.534.98zm-44.56-4.4c-.005-8.525-.283-10.362-2.138-14.1-2.224-4.48-4.806-5.835-9.464-4.964-5.633 1.053-8.086 4.89-8.533 13.347-.413 7.817.526 12.226 1.464 6.87.626-3.585 2.438-3.974 2.71-.583.092 1.147.214 2.57.272 3.164.057.594.83 1.068 1.72 1.052 1.893-.033 2.757-4.773 1.9-10.417-.413-2.71-.244-3.456.785-3.474 1-.018 1.492 1.556 2.082 6.67l.77 6.693 1.246-3.052 1.245-3.05 1.184 2.575c.65 1.417 1.208 3.062 1.24 3.656.032.594.837 1.066 1.788 1.05 1.536-.027 1.73-.638 1.728-5.44zm6.406.473c-.057-3.276.254-4.293 1.386-4.538 1.067-.23 1.622.474 2.063 2.617.332 1.612.486 3.638.344 4.5-.143.864.24 1.735.853 1.937.853.282 1.052-1.373.854-7.105-.142-4.11-.014-7.724.283-8.032 1.246-1.29 2.254 1.447 2.538 6.888.293 5.642 1.296 7.794 1.788 3.838.37-2.97 1.938-1.98 2.3 1.456.29 2.72.588 3.037 2.838 2.998 1.638-.03 2.377-.42 2.12-1.12-.22-.59-.605-2.665-.856-4.61-1.133-8.77-3.094-14.523-5.467-16.034-2.616-1.666-11.016 1.294-12.637 4.453-.533 1.04-.894 5.136-.803 9.104.21 9.168.134 8.722 1.395 8.264.663-.24 1.047-2.01 1-4.613zm-51.203 1.26c.03-1.12-.513-5.21-1.207-9.09-.97-5.432-1.75-7.502-3.384-8.984-2.12-1.922-2.13-1.922-6.643-.3-6.2 2.23-7.442 4.654-7.275 14.202.114 6.534.295 7.31 1.637 7.022 1.21-.26 1.44-1.047 1.154-3.978-.27-2.77-.047-3.658.917-3.675 1.32-.022 2.35 2.437 2.428 5.8.075 3.143 2.335 2.28 2.372-.907.11-9.567.42-13.47 1.032-13.106.384.228.74 2.9.794 5.935.053 3.037.49 5.755.97 6.04.482.286.865-.087.852-.83-.042-2.428 1.244-1.42 2.858 2.24 1.684 3.817 3.387 3.64 3.495-.367zm11.61-3.998c-.1-4.06.032-7.606.296-7.88 1.084-1.122 2.15.723 2.76 4.773.494 3.282.944 4.178 1.904 3.79 1.29-.52 1.563-.07 2.676 4.407.633 2.542.656 2.55 1.38.553.403-1.117.535-2.872.29-3.9-.243-1.026-.68-4.33-.97-7.344-.33-3.435-1.225-6.566-2.4-8.395-1.583-2.463-2.37-2.908-5.048-2.858-3.767.07-8.723 2.96-8.77 5.112-.017.84-.117 5.12-.22 9.513-.114 4.826.162 8.193.698 8.51 1.433.853 1.915-.293 1.703-4.047-.166-2.924.057-3.478 1.315-3.263 1.034.178 1.61 1.217 1.817 3.276.387 3.853.877 5.17 1.918 5.152.473-.008.754-3.203.65-7.398zm-52.733 4.346c.557-7.314 2.12-8.615 3.13-2.604.794 4.73 2.148 5.78 2.804 2.173.74-4.064 1.97-4.096 2.04-.054.086 4.872 2.093 4.095 2.58-1 .407-4.273 2.748-5.515 3.24-1.72.676 5.21 1.183 6.155 3.136 5.843 1.693-.27 1.932-.898 2.097-5.5.314-8.762-2.34-14.376-8.17-17.28-2.17-1.082-2.792-1.027-6.048.53-4.083 1.952-8.588 6.05-7.873 7.163.26.403.145 3.366-.254 6.584-.48 3.882-.42 6.398.183 7.477 1.26 2.26 2.903 1.416 3.134-1.614zm6.154-5.665a.868.868 0 0 1 .85-.88.868.868 0 0 1 .88.85.868.868 0 0 1-.85.88.868.868 0 0 1-.88-.85zm-58.693 7.49c.77-.96.896-3.24.443-8.02-1.345-14.206-6.513-18.428-15.973-13.05l-4.285 2.438.344 8.596c.188 4.727.554 9.12.812 9.758.838 2.074 2.193.14 2.2-3.14.005-4.105 1.123-7.246 1.918-5.39.303.71.676 2.947.83 4.974.516 6.885 2.01 4.277 2.13-3.72.064-4.282.47-8.15.903-8.6 1.115-1.154 1.524.468 2.346 9.31.46 4.967.976 7.253 1.456 6.464.41-.67.727-2.485.707-4.03-.042-3.314 1.448-3.79 2.148-.688.27 1.186.707 3.125.975 4.31.557 2.468 1.505 2.713 3.046.788zm8.46-4.017c.413-.007 1.007 1.15 1.317 2.574 1.09 4.994 2.27 2.513 2.39-5.018.122-7.945 1.613-10.51 2.16-3.715.452 5.65.954 6.667 2.325 4.72 1.545-2.19 2.79-1.15 3.517 2.948.34 1.908.96 3.464 1.38 3.456 2.168-.038 2.276-7.757.21-15.156-2.22-7.954-4.75-9.798-10.974-8.005-6.29 1.812-7.245 3.597-7.014 13.127.23 9.55 1.18 12.18 2.846 7.884.597-1.54 1.426-2.806 1.84-2.813zm-1.24-2.574c.287-.48.692-.877.902-.88.21-.005.39.382.397.858.007.475-.398.872-.902.88-.504.01-.682-.377-.397-.858zm22.12 2.952c-.08-4.452 1.908-4.154 2.602.39.89 5.823 2.22 3.786 2.352-3.598.123-6.958 1.018-9.143 2.14-5.23.306 1.066.58 2.968.608 4.228.046 2.03.37 2.27 2.855 2.113 2.563-.16 2.846.078 3.294 2.776.535 3.218 2.356 4.477 3.184 2.2.286-.785.067-4.923-.485-9.196-1.16-8.97-2.854-11.498-8.24-12.31-2.694-.408-3.93-.067-6.73 1.86-4.15 2.85-4.242 3.08-4.754 11.812-.283 4.83-.083 7.32.655 8.178 1.617 1.88 2.586.64 2.52-3.222zm-52.586 2.556c.488-3.932-1.18-14.57-2.775-17.695-1.527-2.99-1.938-3.227-5.914-3.41-5.344-.244-7.845.414-9.985 2.63-1.445 1.498-1.657 2.93-1.527 10.338.154 8.83 1.114 11.286 3.238 8.273.64-.906.86-2.713.543-4.467-.42-2.336-.24-2.95.87-2.97.964-.016 1.59 1.047 2.012 3.41.972 5.464 2.12 3.083 1.993-4.136-.15-8.645 1.43-7.36 2.442 1.983.722 6.668 2.218 8.89 2.705 4.02.502-5.025 3.49-4.503 3.61.63.085 3.66 2.366 4.798 2.79 1.394zm-23.372-4.368c-.888-7.327-2.95-14.26-4.763-16.01-2.458-2.372-8.954-2.112-13.256.533-1.766 1.084-3.227 2.42-3.246 2.97-.02.547-.027 4.5-.017 8.783.016 6.273.263 7.784 1.27 7.766.856-.016 1.263-1.056 1.285-3.285.017-1.795.254-3.493.525-3.774.958-.99 2.36.626 2.397 2.767.05 2.886 1.592 5.525 2.916 4.99.74-.3 1.067-3.234 1.07-9.603.005-5.046.225-9.4.492-9.675 1.197-1.24 2.63 1.954 2.716 6.057.082 3.8.365 4.543 1.833 4.8 2.245.395 3.027 1.628 3.1 4.884.07 3.157 1.656 5.047 3.152 3.76.65-.56.843-2.362.527-4.964zm-48.215 4.16c.478-.803-1.137-15.066-2.12-18.706-.296-1.1-1.89-2.47-3.867-3.32-3.882-1.67-7.09-1.225-12.89 1.782l-3.816 1.978-.19 7.295c-.103 4.013.055 8.196.352 9.297.853 3.165 2.96 2.387 3.506-1.296.728-4.908.994-5.44 2.45-4.91.928.337 1.36 1.672 1.406 4.358.047 2.716.39 3.758 1.143 3.49.755-.27 1.035-2.726.94-8.233-.077-4.316.155-8.154.513-8.527 1.594-1.663 2.828 1.73 2.94 8.078.067 3.865.48 6.655.98 6.647.476-.01.85-.99.83-2.178-.04-2.54 1.027-4.565 2.077-3.94.406.24 1.043 2.085 1.416 4.1.787 4.25 2.996 6.334 4.33 4.087zm6.63-3.842c.14-3.508.525-4.61 1.69-4.853 1.292-.268 1.522.384 1.594 4.508.048 2.652.45 4.815.892 4.808 1.347-.024 1.68-2.715 1.256-10.19-.37-6.535.116-8.522 1.543-6.3.303.47.758 3.48 1.013 6.687.682 8.62.678 8.598 1.273 6.317.85-3.267 2.54-3.174 4.028.222 1.304 2.973 2.504 3.813 3.37 2.356.228-.384.045-4.852-.407-9.93-1.062-11.938-1.902-13.025-9.578-12.402-4.175.34-5.86.906-7.532 2.533-2.032 1.975-2.146 2.598-2 10.884.083 4.833.416 9.043.74 9.355 1.38 1.333 1.948.265 2.12-3.996zm-38.72 2.976c.276-.757.486-2.296.466-3.418-.02-1.123.352-2.29.826-2.595.89-.57 1.212.034 2.172 4.077.31 1.303.914 2.363 1.343 2.356 1.412-.025 1.738-4.686.787-11.258-.8-5.526-1.295-6.753-3.404-8.424-2.195-1.74-3.218-1.913-9.245-1.565-5.37.31-7.012.725-7.91 2-1.287 1.825-2.246 10.565-1.726 15.728.305 3.03.613 3.452 2.502 3.42 1.93-.035 2.22-.512 2.8-4.603.69-4.897 2.225-5.425 2.305-.794.05 2.76 2.11 6.593 3.032 5.638.258-.267.59-3.776.738-7.8.315-8.594.178-7.743 1.25-7.762.51-.008.92 3.11.998 7.627.073 4.203.397 7.896.72 8.208.964.93 1.813.63 2.345-.833zm-24.7-6.71c-.072-5.202 2.017-4.367 2.46.984.59 7.144 1.956 3.332 1.81-5.05-.155-8.848-1.24-11.293-5.405-12.16-1.194-.25-3.08-.65-4.188-.888-2.35-.505-5.963 1.283-7.11 3.517-.878 1.714.77 5.567 3.224 7.532 1.217.974 1.53.76 2.382-1.62.686-1.916 1.547-2.75 2.86-2.773 2.52-.044 2.782.994 2.177 8.615-.285 3.575-.312 6.83-.06 7.233.862 1.385 1.903-1.644 1.85-5.39zm454.57-8.894c.912-1.414 2.348-2.764 3.192-3 3.213-.902 1.312-2.106-3.035-1.923-4.502.19-4.538.213-4.248 2.782.62 5.5 1.595 6.01 4.09 2.14zm48.61-.525c1.11-1.24 1.79-2.616 1.508-3.054-.552-.858-8.202-1-8.187-.15.01.585 3.815 5.358 4.322 5.422.184.023 1.244-.975 2.356-2.217zm26.59-2.657c-.694-1.082-4.718-.885-4.7.23.01.507.474 1.74 1.033 2.742l1.015 1.82 1.573-2.012c.865-1.107 1.35-2.358 1.08-2.78zm-48.49 1.74c3.03-2.47 2.857-3.727-.402-2.952-1.575.376-3.116.228-3.863-.37-2.15-1.722-3.157-.102-1.66 2.672 1.61 2.986 2.89 3.126 5.926.65zm-92.937.01c1.202-2.344 1.172-2.384-1.74-2.333-1.847.032-2.59.46-2.57 1.487.05 2.975 2.928 3.54 4.31.847zm23.357-.407c1.165-2.27 1.205-2.217-1.743-2.37-2.647-.14-2.995.332-2.02 2.74.752 1.866 2.715 1.673 3.763-.37zm21.97-1.805c.338-.924-.31-1.225-2.55-1.186-3.33.058-3.72.638-1.483 2.214 1.71 1.205 3.376.78 4.034-1.027zm-115.306-2.853c-.393-.38-2.557-.406-4.808-.058l-4.093.633 2.413 2.434 2.415 2.434 2.395-2.375c1.317-1.307 2.072-2.687 1.678-3.068zm43.99 3.336c.844-1.054.636-1.37-1.174-1.792-2.905-.674-4.45.29-3.057 1.908 1.33 1.546 2.935 1.503 4.23-.115zm-22.332-.646c2.29-2.146 1.93-2.63-2.018-2.714-2.914-.064-3.456.167-3.006 1.28.3.745.554 1.713.56 2.15.024 1.298 2.788.855 4.464-.716zm-111.576-.056l2.78-2.618-4.975.06c-5.348.068-5.693.387-3.57 3.307 1.796 2.47 2.435 2.388 5.765-.75zm68.24-.104c1.368-.84 2.482-1.797 2.476-2.125-.005-.328-1.998-.835-4.427-1.126-5.356-.64-7.074.506-4.642 3.1 1.973 2.105 3.364 2.137 6.594.152zm239.216-5.107c.604-.824 1.104-1.79 1.113-2.147.017-.63-4.728-1.005-6.47-.513-2.85.805-7.74.858-8.693.094-.673-.538-1.312-.57-1.604-.08-.266.45-2.34.707-4.61.574-2.27-.134-10.9-.316-19.178-.405-8.28-.088-16.322-.555-17.873-1.037-1.55-.482-3.156-.784-3.566-.67-.41.113-7.565.005-15.898-.24-24.198-.714-84.69-.183-87.034.763-.677.272-1.835.012-2.574-.58-.964-.772-1.602-.805-2.264-.12-.57.59-1.653.692-2.838.265-1.724-.62-16.687-.974-24.89-.587-1.764.084-3.436-.205-3.716-.64-.28-.437-7.993-.722-17.14-.634-9.145.087-19.16.063-22.257-.054-3.095-.118-11.47-.34-18.613-.494-7.142-.154-14.027-.665-15.3-1.135-1.576-.58-2.84-.562-3.945.055-1.04.58-11.29.96-28.4 1.056-35.085.195-75.15-.045-75.572-.45-.185-.18-1.024.06-1.865.53-.966.538-3.12.58-5.838.113-2.37-.407-16.915-.774-32.322-.815-15.406-.04-30.155-.177-32.775-.302-2.62-.125-15.67-.428-29-.673-13.332-.245-28.525-.597-33.763-.78-5.24-.186-10.497-.252-11.685-.147-2.563.226-3.51.207-12.552-.246-15.96-.8-19.488-.827-19.89-.15-.235.395.267 1.5 1.114 2.458 1.306 1.478 2.913 1.792 10.63 2.08 5.002.184 12.21.49 16.022.678 10.732.528 36.123.91 77.47 1.168 16.23.1 25.446.43 33.768 1.208 3.388.317 11.403.278 23.795-.115 5.543-.175 52.328-.048 67.933.186 15.694.234 35.868.31 84.377.318 36.12.006 45.4.152 61.456.968 19.46.988 58.674 1.93 63.198 1.516 11.77-1.075 50.917-1.647 58.828-.86.954.095 2.857-.17 4.23-.587 1.477-.45 3.07-.42 3.896.07.77.456 6.448.833 12.62.837 6.172.004 11.522.186 11.89.404.366.218 4.562.342 9.322.276 4.76-.066 9.737.15 11.058.483 3.52.884 8.15.078 9.406-1.638zm-333.44 5.856c2.854-3.445 2.672-3.725-2.37-3.637l-4.835.084 1.964 2.56c2.252 2.938 3.44 3.163 5.24.992zm68.41-1.42c2.002-2.423 1.88-2.62-1.583-2.56-3.31.06-3.452.242-2.086 2.69 1.168 2.096 1.848 2.072 3.668-.13zm-90.272-2.027c-.017-1.01-4.994-.806-5.61.23-.28.47-.053 1.67.503 2.668l1.01 1.813 2.054-1.998c1.13-1.1 2.05-2.32 2.042-2.713zm67.845 1.994c.324-.888-.07-1.297-1.227-1.277-1.7.03-2.2.967-1.09 2.04.95.917 1.81.634 2.318-.763zm-92.466.316c.286-.48.283-1.243-.006-1.693-.732-1.14-3.053-.06-3.028 1.406.025 1.383 2.257 1.594 3.034.287zm-23.338-.515c.684-1.15.402-1.435-1.765-1.777-1.082-.17-1.807.285-1.988 1.25-.32 1.705 2.795 2.14 3.754.527zm-24.71-.665c-.01-.635-.597-1.144-1.303-1.13-.972.016-1.046.297-.307 1.158.538.625 1.125 1.134 1.304 1.13.18-.002.318-.524.307-1.158zm-22.516-1.05c-.033-1.878-.676-2.11-2.507-.905-1.38.91-.516 2.69 1.29 2.657.686-.012 1.233-.8 1.217-1.752zm-49.348.467c1.56-1.95.24-3.07-3.534-3.005-3.778.066-4.073.49-1.93 2.778 1.757 1.874 4.067 1.97 5.464.227zm23.388-.446c.863-1.077.8-1.31-.35-1.29-.772.012-1.393.607-1.38 1.32.012.715.17 1.296.35 1.293.178-.003.8-.598 1.38-1.322zm-48.493-1.913c-.03-1.73-2.954-1.003-3.27.812-.19 1.074.198 1.314 1.52.944.974-.273 1.762-1.064 1.75-1.757zm-24.394-.07c.204-1.168-.335-1.497-2.395-1.462-2.836.05-3.3.79-1.553 2.476 1.455 1.406 3.623.85 3.948-1.012zm392.66-8.818c4.855-.653 6.234-2.245 1.878-2.17-2.316.04-2.524-.15-1.77-1.62.472-.92 2.254-2.567 3.96-3.664 3.22-2.068 5.43-6.173 5.364-9.963-.036-2.05-.313-2.185-4.353-2.115-4.092.072-4.423.255-6.438 3.574-1.168 1.924-2.512 3.505-2.986 3.513-.474.01-2.104-1.13-3.623-2.532-3.143-2.9-4.172-3.053-7.715-1.14-2.82 1.52-2.997 2.777-1.094 7.784.72 1.89 1.328 4.326 1.355 5.412.073 3.077 5.95 4.19 15.422 2.92zm-18.868-2.643c-.112-6.43-6.383-12.292-9.593-8.97-1.024 1.062-1.062 1.544-.187 2.39.603.58 1.57 1.092 2.146 1.134l2.493.184c1.97.145.85 4.76-1.263 5.206-2.63.554-5.585-.568-6.185-2.35-.74-2.2-1.67-2.15-4.316.233-4.315 3.885-2.87 4.45 11.973 4.667 4.976.073 4.977.073 4.932-2.493zm-26.29 1.462c2.564-.283 8.808-8.988 14.418-20.102 10.277-20.36 10.434-20.823 11.553-34.17 1.126-13.416-.43-28.062-4.357-41.03-3.06-10.097-3.366-11.207-3.502-12.7-.075-.833-.417-1.508-.76-1.502-.34.006-.9-.86-1.244-1.926-.344-1.065-1.348-2.702-2.233-3.638-.884-.937-1.55-1.9-1.477-2.138.208-.694-5.194-7.97-7.235-9.743-1.023-.888-1.87-2.14-1.88-2.778-.01-.64-.33-1.16-.708-1.152-.377.007-3.2-3.26-6.272-7.26s-7.42-8.695-9.663-10.432c-2.242-1.738-4.473-3.564-4.958-4.06-.484-.494-2.458-2.003-4.385-3.352-1.927-1.35-4.027-2.946-4.667-3.547-.64-.602-1.427-1.12-1.75-1.15-2.076-.197-3.884-.813-8.892-3.03-7.034-3.112-7.41-3.216-16.926-4.707-14.744-2.31-29.367-.807-46.645 4.79-3.313 1.074-6.9 2.172-7.975 2.44-1.073.268-2.157.834-2.408 1.257-.253.424-1.06.78-1.794.794-1.822.03-17.394 8.236-22.382 11.793-5.148 3.67-16.386 15.607-21.865 23.224-9.664 13.434-14.25 23.753-16.384 36.857-1.037 6.372-.956 31.712.116 36.486.373 1.66 1.114 5.197 1.646 7.863 1.274 6.375 7.79 24.178 10.475 28.62a173.815 173.815 0 0 1 4.07 7.195c1.07 2.03 2.79 4.217 3.817 4.862 1.998 1.253 22.275 1.647 69.8 1.355 31.68-.195 65.954.27 67.26.912.957.47 12.833.448 17.205-.03zm-160.816-2.772c.148-.837-.364-1.752-1.14-2.034-.773-.282-2.258-2.104-3.3-4.05l-1.89-3.538-.72 2.267c-.702 2.21-3.738 4.3-6.31 4.346-1.49.025-3.326-3.996-2.66-5.826.34-.938.75-1.018 1.623-.32.642.515 1.42.675 1.727.356 1.204-1.246.407-2.897-1.965-4.072-2.314-1.145-2.7-1.078-5.608.972-2.6 1.833-3.114 2.713-3.07 5.243.07 4.08 2.256 7.92 4.677 8.22 1.08.133 5.652.18 10.163.1 7.128-.125 8.238-.343 8.472-1.665zm-33.79.16c.21-.682-.496-1.073-1.898-1.05-1.23.023-2.24-.27-2.246-.652-.025-1.414 2.1-2.806 4.344-2.845 2.525-.043 3.917 1.145 4.46 3.807.19.944 1.056 1.84 1.922 1.99 1.39.242 1.5-.165.96-3.468-.636-3.864 1.07-10.91 2.93-12.106 1.46-.937-2.806-5.93-5.034-5.89-1.036.018-2.86.828-4.053 1.8-2.965 2.42-4.643 2.255-6.185-.603-1.78-3.296-3.107-4.208-6.553-4.5-4.25-.357-5.18 1.613-3.02 6.387.926 2.048 2.602 4.6 3.725 5.67 2.385 2.274 2.538 3.246.798 5.05-1.572 1.626-2.437 5.086-1.717 6.87.423 1.044 1.688 1.255 5.883.98 3.31-.218 5.474-.765 5.683-1.44zm220.422-13.534c1.055-.912 1.91-1.985 1.9-2.384-.018-.63-2.193-1.88-5.835-3.358-.966-.392-3.67 3.86-3.637 5.72.015.84 1.878 1.537 4.355 1.63.715.028 2.162-.696 3.217-1.608zm-197.5-3.74a87.744 87.744 0 0 1-1.156-4.338c-.617-2.607-3.943-5.02-4.496-3.26-.17.547-.96 1.012-1.754 1.033-.792.02-1.998.404-2.678.85-1.058.696-.992 1.25.458 3.832 1.44 2.564 2.223 3.058 5.202 3.28 1.93.144 3.846.324 4.26.4.414.076.488-.733.164-1.8zm215.59-3.4a156.707 156.707 0 0 0 6.172-3.403c2.856-1.678 4.926-2.617 10.732-4.87l2.58-1-3.053-1.314c-1.678-.722-3.44-1.2-3.913-1.062-.473.14-2.8.756-5.168 1.373-2.37.617-5.586 1.82-7.15 2.673-3.897 2.124-6.62 1.69-6.667-1.063-.035-2-.295-2.12-3.926-1.815-4.57.384-9.158 3.29-9.843 6.234-.265 1.14-.364 2.145-.22 2.236 5.24 3.324 6.77 3.806 11.83 3.73 3.565-.05 6.548-.647 8.625-1.72zm-227.163-5.25c2.79-.72 5.485-1.73 5.984-2.247 1.248-1.292.81-6.947-.908-11.73-.785-2.186-1.2-4.356-.92-4.824.278-.47.236-1.51-.093-2.314-1.98-4.84-1.546-35.58.633-44.92.745-3.194.69-4.052-.297-4.64-1.843-1.093-2.675.408-1.648 2.973 1.252 3.128-.33 6.81-2.79 6.5-1.527-.193-1.75-.75-1.576-3.906.195-3.5.087-3.68-2.16-3.64-1.3.022-3.62 1.036-5.16 2.253-4.368 3.454-5.364 2.495-1.682-1.62 2.468-2.758 2.703-6.547.598-9.64-1.676-2.463-4.452-2.697-6.086-.513-1.068 1.427-1.3 1.355-3.322-1.024-4.644-5.466-6.708-6.987-8.864-6.536-2.652.555-2.71 3.804-.19 10.588 2.3 6.19 2.27 6.59-.52 7.335-3.36.896-6.21 3.95-6.13 6.56.182 5.773 8.56 9.76 13.476 6.413 2.59-1.763 2.77-3.17.397-3.127-1.977.034-2.085-.29-.88-2.638.958-1.87 4.648-2.353 5.682-.742.36.56.6 2.622.533 4.582-.12 3.494-.038 3.6 4.27 5.456 4.765 2.054 5.686 3.658 5.674 9.883-.008 4.363-2 6.034-6.46 5.42-3.157-.432-3.25-.368-3.206 2.193.065 3.724 6.808 10.035 11.043 10.335 3.926.278 3.935 1.85.01 2.266-2.394.254-3.033.696-3.01 2.083.04 2.218 2.786 6.77 3.978 6.59 1.586-.238 6.555 1.885 6.57 2.808.027 1.49-6.606.257-9.575-1.78-1.99-1.364-2.99-1.612-3.67-.91-.68.704-.508 1.424.63 2.638 1.693 1.806 1.27 3.514-.882 3.552-.737.013-3.556-1.09-6.264-2.448-4.775-2.396-14.07-5.97-14.062-5.406.003.153-.196.832-.442 1.508-.31.854.67 1.542 3.222 2.258 3.862 1.084 7.003 2.725 9.924 5.184 1.833 1.544 11.56 6.646 12.534 6.575.308-.02 2.845-.627 5.637-1.346zm-10.22-57.88c-2.566-1.335-3.3-3.775-1.15-3.812.714-.013 1.306.41 1.315.936.01.606.86.732 2.304.342 2.596-.7 4.233.882 2.785 2.69-1.147 1.434-2.263 1.4-5.256-.156zm232.215 47.857c1.5-.963.654-2.967-1.25-2.96-1.072.002-2.713-.553-3.65-1.235-3.513-2.563-5.694-1.095-5.61 3.776.04 2.18.113 2.202 4.905 1.554 2.676-.362 5.198-.872 5.605-1.133zm14.268-4.793c.75-1.362 2.744-3.247 4.43-4.19 2.51-1.4 3.15-2.336 3.54-5.18.26-1.906 1.226-5.038 2.146-6.958 1.423-2.97 1.746-6.57.988-10.99-.278-1.62-2.86-2.993-4.846-2.577-2.615.547-2.8 2.034-.502 4.042 2.49 2.174 2.83 6.296 1.006 12.18-1.834 5.912-3.246 7.748-9.21 11.968-2.315 1.637-4.204 3.268-4.2 3.625.007.357 1.197.628 2.646.603 1.987-.034 2.972-.655 4-2.523zm-5.744-4.184c.15-.376 1.525-1.595 3.052-2.708 1.528-1.113 2.768-2.58 2.756-3.262-.012-.68.523-1.248 1.19-1.26 1.457-.025 2.21-7.36 1.02-9.97-3.733-8.205-9.114-10.007-12.995-4.35-1.587 2.312-1.666 2.972-.712 5.966.59 1.85 1.325 3.36 1.632 3.354.307-.005 1.476-.902 2.596-1.992 1.98-1.927 2.073-1.937 3.26-.37.878 1.156.987 2.075.385 3.248-.46.9-.72 2.117-.573 2.706.347 1.4-3.185 7.614-4.34 7.635-.492.01-.887.406-.88.88.02 1.018 3.204 1.126 3.61.123zm-7.763-2.613c2.24-1.158 4.068-2.402 4.062-2.764-.007-.362.21-1.273.484-2.024.34-.93-.212-1.62-1.723-2.166-3.078-1.11-4.948-4.197-4.87-8.044.05-2.536.793-4.006 3.373-6.677 1.82-1.884 4.154-3.562 5.19-3.728 1.403-.226 1.996-1.076 2.33-3.34.58-3.934 2.176-6.96 3.687-6.987 3.905-.068 5.244 2.565 2.282 4.488-2.232 1.448-2.14 2.8.29 4.32 1.48.923 2.61 1.007 4.55.34 4.097-1.412 5.57-3.235 5.506-6.82-.053-3.027-.316-3.343-3.974-4.773-4.336-1.695-5.044-3.214-1.894-4.064 2.66-.716 5.302-5.42 5.17-9.208-.086-2.53-.475-3.054-2.674-3.605-3.69-.924-7.827 1.705-7.644 4.86.106 1.84-.258 2.324-1.774 2.35-1.05.02-2.82-.73-3.933-1.66-2.67-2.236-4.487-2.106-7.22.516-2.687 2.58-2.736 3.114-.525 5.825 4.44 5.446 3.52 16.23-1.392 16.316-1.342.024-1.443-.407-.81-3.472.818-3.96.155-7.485-1.82-9.678-2.708-3.01-7.062-.563-4.434 2.493.84.977.887 1.81.193 3.406-.532 1.226-.834 7.436-.717 14.8.11 6.977-.015 14.558-.278 16.846-.448 3.893-.347 4.178 1.576 4.458 2.57.373 2.155.492 6.99-2.008zm-240.63 1.898c1.452-1.362 1.39-1.518-1.287-3.223-6.31-4.018-10.002-16.766-6.594-22.772 1.92-3.383 1.07-5.365-2.276-5.306-1.442.025-2.915.027-3.272.005-1.248-.078-2.128 6.985-1.118 8.973 1.66 3.268 1.756 4.398.613 7.285-1.518 3.838-1.306 8.5.465 10.21 1.374 1.328 1.55 1.258 2.692-1.065 1.66-3.38 1.82-3.5 2.742-2.063.442.688.594 2.156.337 3.262-.325 1.392.154 2.65 1.555 4.09 2.362 2.428 4.02 2.59 6.14.604zm-.244-8.918c-1.19-2.135-1.283-7.458-.166-9.635.715-1.394 1.46-1.61 4.216-1.218 3.164.45 3.374.336 3.86-2.076.597-2.964-.672-6.685-2.64-7.742-.755-.405-2.76-.55-4.457-.322-5.755.774-7.857 8.178-4.733 16.672.782 2.124 1.836 4.345 2.343 4.935 1.447 1.683 2.606 1.232 1.577-.613zm231.983-39.636c-1.9-.443-1.695-.68 2.192-2.51 7.3-3.44 8.506-4.332 9.288-6.874.416-1.354 1.84-4.108 3.16-6.12 1.323-2.013 2.395-4.198 2.384-4.855-.012-.657.743-2.044 1.677-3.082.933-1.038 1.69-2.293 1.682-2.79-.06-3.428-8.017 3.566-10.518 9.246-2.84 6.447-9.68 10.09-10.9 5.803l-.614-2.153-.924 2.396c-.508 1.318-1.464 2.405-2.124 2.417-1.393.024-1.32 1.54.332 6.917 1.623 5.285 1.69 5.343 4.228 3.616l2.237-1.52-2.1-.492zm-206.042-7.546c2.116-4.125.063-6.98-4.955-6.893-3.657.064-8.017-3.273-10.228-7.826-3.74-7.702-4.55-3.98-.964 4.422 2.533 5.935 4.253 7.91 9.022 10.36 4.1 2.106 6.02 2.088 7.124-.064zm199.85-4.293c-.007-.41 1.15-2.087 2.57-3.723 1.42-1.636 3.288-4.37 4.15-6.076.864-1.706 2.515-3.553 3.67-4.104 2.444-1.165 3.383-4.853 1.983-7.788-.522-1.095-1.184-1.986-1.47-1.98-.288.004-1.392 1.924-2.454 4.266-2.234 4.925-7.39 10.982-10.137 11.907-2.084.7-2.495 3.746-.893 6.617.938 1.68 2.605 2.25 2.58.88zm-195.168-5.76c.273-1.174.34-2.577.15-3.117-.44-1.247-5.784-3.425-6.295-2.565-.702 1.182 2.984 7.864 4.327 7.84.727-.012 1.546-.983 1.82-2.158zm191.874-11.157c.563-6.29-.023-8.917-1.686-7.56-2.305 1.88-5.586 2.06-7.682.418-1.795-1.404-2.063-2.323-2.058-7.036.005-5.16.17-5.58 3.42-8.72l3.415-3.3-2.98-2.393c-2.703-2.17-2.935-2.698-2.478-5.648.45-2.897.784-3.26 3.05-3.3 1.973-.034 2.477.298 2.24 1.476-.167.836-.78 1.427-1.362 1.314-1.558-.304-2.113 2.02-.972 4.067 1.23 2.205 4.15 2.215 6.898.025 1.69-1.348 2.125-2.62 2.36-6.917.275-5.007.176-5.315-2-6.26-1.82-.792-2.734-.75-4.444.204-1.695.945-2.38.98-3.227.162s-.84-1.19.035-1.752c1.564-1.004 2.186-9.767.862-12.14-2.495-4.473-8.39-.037-9.2 6.926-.36 3.086-.882 3.91-3.225 5.077-1.95.972-2.94 2.178-3.268 3.986-.887 4.865-.53 5.878 2.487 7.077 4.47 1.777 5.524 3.72 5.208 9.592-.137 2.552-2.943 3.35-5.69 1.617-2.703-1.703-2.9-3.422-.47-4.102 1.177-.33 1.676-1.046 1.445-2.074-.495-2.197-5.025-1.67-6.98.812-1.865 2.37-1.526 3.497 1.477 4.896 1.284.6 2.345 1.702 2.36 2.453.023 1.38 2.937 6.484 5.043 8.837 4.537 5.068 6.492 7.603 6.507 8.438.01.532.31.97.666.973.357.003 1.834 1.925 3.282 4.27 1.894 3.067 3.17 4.254 4.548 4.23 1.718-.03 1.966-.612 2.417-5.65zm6.078 1.656c4.758-6.468 5.323-17.617 1.1-21.695-1.67-1.613-3.11-2.116-5.915-2.067-6.828.12-10.945 6.055-7.94 11.445 1.31 2.344 2.764 2.03 4.713-1.02.926-1.452 2.253-2.542 2.948-2.425 2.485.418 3.226 8.9 1.474 16.857-.633 2.877 1.08 2.358 3.62-1.096zm-211.166-.623c2.107-2.02 2.166-2.32 1.107-5.643-1.11-3.477-2.748-4.464-3.976-2.397-1.366 2.3-1.19 10.21.227 10.184.23-.004 1.418-.968 2.642-2.143zm21.875-2.725c1.47-1.754 2.67-3.446 2.664-3.76-.017-1.01 6.858-9.293 12.185-14.68 2.293-2.318 3.152-3.844 2.824-5.016-.306-1.09.246-2.334 1.56-3.516 3.198-2.882 2.362-4.75-2.487-5.555-5.17-.858-9.297 1.938-6.645 4.5 1.13 1.09.818 4.616-.422 4.76-1.883.22-3.217-4.25-2.327-7.802.888-3.547 3.627-5.355 8.232-5.435 2.523-.044 4.625-3.126 4.563-6.692-.067-3.81-.88-5.486-2.645-5.455-1.52.026-3.564-3.212-3.608-5.717-.04-2.36-3.636-7.117-5.748-7.608-4.155-.966-7.076 2.653-8.385 10.39-.35 2.055-1.033 3.262-1.86 3.277-.718.012-2.43 1.297-3.804 2.855-1.906 2.162-2.48 3.658-2.424 6.316.154 7.314 4.722 11.114 5.686 4.73.293-1.934.887-3.523 1.32-3.53.435-.008.685-.45.556-.984-.485-2.02 1.852-1.652 4.072.64 2.704 2.79 2.5 5.468-.682 8.934-2.005 2.185-2.01 2.23-.385 4.767.9 1.408 1.92 4.33 2.264 6.49.52 3.26.292 4.447-1.33 6.947-1.56 2.41-2.68 3.126-5.572 3.567-3.104.473-3.888.252-5.51-1.55-1.546-1.716-2.02-1.87-2.575-.832-1.78 3.313 4.104 15.44 6.707 13.828.605-.375 2.303-2.116 3.773-3.87zm200.677-12.405c-.01-.57-.588-1.782-1.284-2.694-1.048-1.373-1.34-1.434-1.695-.352-.568 1.72-.71 3.432-.504 6.066l.17 2.16 1.666-2.07c.916-1.14 1.658-2.54 1.648-3.11zm-215.192-.424c2.197-5.524 5.628-6.298 7.34-1.654.49 1.336 1.728 2.678 2.75 2.982 5.984 1.786 5.548-9.972-.444-11.963-1.498-.497-6.217 1.61-9.317 4.158-1.335 1.1-3.08 9.34-1.973 9.32.286-.006 1.026-1.284 1.645-2.842zm-6.943-.744c2.002-5.07 2.34-7.612 1.008-7.59-1.972.035-3.276 2.38-3.402 6.118-.105 3.146.167 4.323.998 4.31.152-.004.78-1.28 1.395-2.838zm215.298-13.165c-2.227-2.377-4.62-2.764-6.455-1.043-1.758 1.648-1.456 3.016.658 2.98.73-.013 2.36.76 3.62 1.716l2.293 1.74.672-1.92c.47-1.344.236-2.382-.787-3.473zm-208.008.707c1.097-1.21 2.51-2.207 3.14-2.218 1.63-.03 1.368-3.145-.432-5.175-1.928-2.172-2.722-2.137-5.157.232-1.47 1.43-1.95 2.865-1.903 5.658.077 4.372 1.352 4.812 4.353 1.504zm170.165-4.268c.573-.724.838-2.48.59-3.905-.47-2.696 1.03-10.834 2.002-10.85.306-.006.547-.594.534-1.308-.01-.714-.268-1.293-.57-1.288-1.184.02-2.585 2.218-2.554 4.006.018 1.036-.543 2.378-1.246 2.983-.704.605-1.266 1.844-1.25 2.753.017.973-1.205 2.41-2.968 3.493-3.613 2.216-3.708 3.19-.55 5.624 2.51 1.935 3.48 1.69 6.013-1.508zm-125.483-1.072c.43-1.183-2.103-6.912-3.507-7.93-1.18-.856-2.406-9.678-1.77-12.748.358-1.728.485-3.4.28-3.718-.573-.894 7.493-9.24 10.5-10.862 2.12-1.144 3.46-1.29 6.376-.686 2.032.42 3.81.64 3.952.493.143-.148-.12-1.216-.583-2.373-.724-1.806-1.284-2.046-3.95-1.687-1.915.257-3.11.05-3.12-.542-.01-.527-.504-.954-1.1-.948-.594.006-2.02-1.137-3.17-2.54-3.422-4.182-7.086-2.592-6.988 3.03.06 3.376-.81 4.9-2.82 4.94-2.874.055-7.314 3.292-7.885 5.75-.835 3.588 1.342 9.917 4.34 12.62 2.534 2.287 2.68 2.74 2.377 7.372-.42 6.442 2.042 12.405 4.804 11.63.985-.275 2.004-1.085 2.264-1.8zm115.746-3.302c.315-1.076 1.578-3.337 2.807-5.024 3.033-4.165 4.72-8.273 5.922-14.422 1.186-6.066 1.14-7.63-.33-11.01-1.006-2.312-1.355-2.467-4.35-1.934-3.54.63-4.444-.05-4.955-3.722-.804-5.782-3.545-8.75-5.863-6.35-.682.705-1.657 1.29-2.167 1.298-.51.01-.92.38-.912.823.008.445-.856 1.113-1.92 1.485-3.263 1.142-7.754.418-10.66-1.72-1.52-1.118-3.156-2.027-3.633-2.02-.478.01-2.066 2.403-3.53 5.32-1.466 2.917-3.706 6.242-4.98 7.388-2.023 1.82-2.175 2.306-1.204 3.838.612.966 1.184 3.61 1.27 5.875.264 6.86.99 8.185 5.303 9.658 2.14.73 5.262 1.9 6.94 2.602 1.678.7 4.514 1.727 6.302 2.28 1.788.556 3.48 1.367 3.76 1.803 1.002 1.56 2.98.708 4.234-1.825 2.04-4.12 1.725-4.423-3.902-3.736-6.677.816-10.024-.45-11.513-4.355-.612-1.602-1.423-2.907-1.803-2.9-1.122.02-.878-4.996.4-8.213 1.506-3.786 6.016-8.074 9.675-9.197 2.868-.88 8.843.623 8.87 2.232.007.39.897 1.17 1.978 1.737 2.15 1.126 5.533 7.253 4.74 8.587-.27.456-.103 1.063.374 1.346.477.284.75 1.57.606 2.862-.914 8.225-2.42 12.743-4.984 14.947-1.238 1.064-1.227 1.305.125 2.747 1.938 2.07 2.702 1.98 3.398-.4zm-144.993.533c-.012-.685-.41-1.24-.887-1.23-.476.007-.85.815-.834 1.795.017.98.416 1.534.887 1.232.472-.303.847-1.11.835-1.797zm42.78-3.11c2.835-1.214 10.387-3.58 16.783-5.26 6.396-1.68 11.81-3.21 12.03-3.4.22-.19-.17-.686-.868-1.1-5.388-3.202-10.66-8.266-12.792-12.286-1.143-2.158-2.585-3.57-3.948-3.866-2.628-.572-2.91-3.252-.49-4.65.944-.545 1.78-.992 1.86-.994.08-.002.383-1.023.673-2.267.36-1.545.064-2.71-.93-3.668-1.352-1.306-1.625-1.3-3.9.098-3.317 2.04-4.683 7.065-2.794 10.287 3.01 5.134 3.475 18.774.737 21.575-.684.7-3.113 1.804-5.396 2.453-3.676 1.045-4.46 1.01-6.852-.307-2.153-1.185-2.838-1.257-3.385-.353-1.247 2.064 1.32 7.202 3.183 6.367.515-.23 3.255-1.413 6.09-2.628zm2.177-5.844c1.258-.02 3.146-5.395 3.08-8.767-.156-7.89-2.38-10.1-6.846-6.8-4.045 2.986-7.503 2.445-7.122-1.116.265-2.466-5.7 6.19-6.082 8.825-.76 5.272 1.487 7.9 2.492 2.912.527-2.62 2.527-4.363 5.056-4.408.986-.017 1.374.86 1.425 3.22.038 1.785.363 3.662.722 4.172 1.058 1.506 4.056 2.87 5.29 2.407.63-.236 1.523-.436 1.985-.444zm39.166-5.66c-1.725-4.072-1.68-8.097.12-10.622 2.456-3.448 2.256-4.574-1.062-5.973-6.004-2.534-8.957-8.256-8.39-16.257.437-6.164 2.385-9.926 6.746-13.027 4.457-3.17 7.473-3.387 10.693-.772 3.723 3.023 3.678 5.737-.17 10.15-2.46 2.82-2.925 3.92-2.43 5.77.93 3.46 3.077 5.272 6.184 5.218 3.384-.06 4.287-1.087 5.49-6.248 1.234-5.283-.21-10.268-4.4-15.203-8.545-10.065-19.587-9.587-26.542 1.15-2.116 3.266-2.57 4.956-2.747 10.195-.202 6.07 1.446 14.034 2.9 14.01.372-.008.683.412.693.932.01.52.812 1.92 1.785 3.114 2.01 2.466 2.382 5.387.69 5.416-2.694.047-7.28-6.78-9.342-13.907-2.39-8.26 2.13-24.553 7.67-27.644 1.134-.63 2.056-1.44 2.05-1.798-.02-1.072 7.967-3.41 10.762-3.152 4.998.462 8.616 2.025 11.94 5.16 1.84 1.736 3.357 3.62 3.367 4.187.01.566.546 1.22 1.19 1.456.646.235 2.095 2.587 3.22 5.227 2.913 6.83 2.214 13.175-1.922 17.458-3.64 3.77-6.66 4.217-12.084 1.786-3.247-1.455-4.397-3.74-4.363-8.664.016-2.49.62-4.322 1.882-5.713 3.092-3.41 1.833-6.722-2.506-6.592-5.87.176-9.48 7.88-7.49 15.992.91 3.725 1.74 4.923 5.215 7.547 2.27 1.716 5.146 3.356 6.388 3.645 3.556.825 3.565 2.626.024 4.542-3.43 1.855-4.024 3.28-3.118 7.47.847 3.915 2.684 5.847 5.71 6.003l2.647.137-.582-4.365c-.665-4.986.306-6.35 7.275-10.218 4.05-2.25 6.306-4.61 8.665-9.08 2.646-5.01 3.208-6.812 3.923-12.572.883-7.093-.26-11.317-4.327-15.985-1.605-1.842-2.922-3.59-2.927-3.885-.005-.295 1.308-1.038 2.917-1.652 3.09-1.18 4.2-2.83 3.338-4.965-.58-1.434-2.725-1.63-4.568-.42-2.353 1.55-3.36.143-3.355-4.688.006-5.63-.904-6.838-4.168-5.53-1.288.514-2.164 1.225-1.947 1.58.736 1.2-1 4.562-2.37 4.586-.747.013-2.898-.73-4.78-1.648-2.526-1.233-5.13-1.64-9.944-1.557-7.228.126-8.27-.823-3.334-3.037 2.467-1.107 4.776-1.35 9.878-1.034 6.33.39 6.767.3 8.836-1.844l2.178-2.255-1.742-3.272c-1.727-3.242-1.727-3.3-.11-6.446.896-1.747 1.61-4.382 1.583-5.857-.064-3.6-3.076-7.47-6.446-8.282-2.246-.54-2.785-1.127-2.946-3.205-.24-3.112-1.883-7.274-2.864-7.257-2.31.04-6.98 6.97-6.927 10.278.022 1.393-.813 2.305-2.98 3.256-8.46 3.71-3.813 19.385 5.116 17.26 2.577-.614 3.52-2.214 1.28-2.175-1.932.035-4.933-5.29-4.37-7.755.893-3.926 4.592-6.66 7.553-5.583 3.66 1.33 5.37 12.308 2.46 15.784-.908 1.085-1.77 2.346-1.912 2.804-.144.457-2.4 1.09-5.014 1.406-4.443.537-4.944.402-7.686-2.07-1.613-1.456-3.248-2.64-3.634-2.634-.386.007-.857-.428-1.046-.965-.5-1.42-3.777.888-4.887 3.442-1.377 3.167-1.04 4.536 1.33 5.39 4.368 1.574 2.257 4.288-3.414 4.387-2.475.043-3.304.636-5.485 3.93-2.86 4.313-3.246 7.244-1.06 8.04.957.347 2.052-.265 3.245-1.816 2.17-2.82 3.47-3.01 3.7-.54.25 2.683-2.21 6.06-5.44 7.478-1.558.683-2.83 1.405-2.825 1.606.03 1.747 2.058 4.73 3.51 5.162 1.742.52 1.79.955 1.587 14.11-.115 7.463-.202 14.387-.192 15.386.02 2.217 5.44 10.59 6.855 10.593.56 0 1.802.96 2.758 2.134.956 1.172 2.267 2.137 2.913 2.142.644.006 2.155.55 3.357 1.21 1.2.658 3.686 1.185 5.52 1.17 2.84-.023 3.243-.25 2.7-1.53zm51.633-.9c.148-.835.1-2.772-.103-4.303-.322-2.414-.78-2.853-3.437-3.304-2.318-.393-3.305-1.12-4.044-2.98-1.245-3.13-1.977-3.082-3.93.26-1.56 2.667-1.52 3.25.57 8.69 1.228 3.196 10.427 4.573 10.945 1.637zm26.66-1.17c1.044-2.898.957-6.602-.224-9.553-.795-1.986-1.108-2.158-2.007-1.103-.71.832-.92 3.205-.633 7.084.45 6.082 1.49 7.38 2.863 3.57zm-61.19-2.332c.265-.732 1.338-1.224 2.45-1.125 1.448.13 2.04-.324 2.212-1.7.27-2.148-2.27-3.306-5.402-2.46-2.168.583-4.433 4.266-3.51 5.704.88 1.37 3.7 1.093 4.25-.42zm40.63-1.8c.608-1.025-2.823-7.34-4.887-8.997-2.01-1.612-5.575-1.922-6.387-.555-.28.47-.08 1.625.443 2.564.743 1.332 1.513 1.583 3.52 1.145 2.406-.525 2.573-.39 2.616 2.1.053 3.06 3.478 5.79 4.694 3.742zm-103.386-6.196c-.008-.476-.6-.855-1.313-.843-.712.012-1.29.41-1.28.887.007.476.598.855 1.31.842.715-.013 1.292-.412 1.284-.888zm7.752-15.054c1.298-.933 2.137-2.044 1.864-2.47-.273-.424-.11-1.525.36-2.445.628-1.22.546-1.923-.3-2.6-1.525-1.222-2.288-.325-2.236 2.63.023 1.32-.377 2.668-.888 2.997-1.513.97-2.746-.93-3.02-4.658-.2-2.705.19-3.923 1.752-5.442 1.95-1.898 2.103-1.914 5.087-.555 1.692.77 3.257 1.4 3.48 1.395.22-.004.374-1.64.34-3.637-.063-3.53-3.653-10.15-5.487-10.12-.695.013-1.062 3.786-.686 7.058.11.97-1.128 1.883-3.908 2.885-5.374 1.936-8.02 4.583-7.945 7.952.1 4.53.944 6.082 4.285 7.864 3.416 1.823 3.61 1.8 7.3-.852zm88.5-3.515c1-1.59 1.25-3.407.894-6.535-.568-4.998-2.324-6.77-6.675-6.735-1.575.012-2.678-.29-2.45-.672.805-1.355-3.002-7.925-5.13-8.85-2.385-1.036-6.602-.274-6.577 1.188.01.513.76 1.952 1.667 3.2.908 1.247 1.942 3.723 2.3 5.502.634 3.17 1.683 4.07 2.716 2.332.84-1.413 5.363-1.11 5.973.4 1.025 2.538.64 6.19-.784 7.408-1.106.945-1.503.975-1.802.137-.694-1.95-2.102-1.1-1.473.89.89 2.82 2.963 4.06 6.676 3.995 2.546-.044 3.586-.548 4.665-2.26zm-77.43-2.964c.52-1.202.72-2.406.44-2.675-.973-.94-4.082 1.517-4.052 3.203.042 2.424 2.482 2.066 3.61-.53z" fill="#FFF"/>
    </g>
</svg>
