<svg width="790" height="790" viewBox="0 0 790 790" xmlns="http://www.w3.org/2000/svg">
    <title>
        vimillion
    </title>
    <g fill="none" fill-rule="evenodd">
        <circle fill="#7B0303" cx="395" cy="395" r="395"/>
        <circle stroke="#FFF" stroke-width="23" cx="394.5" cy="394.5" r="355.5"/>
        <path d="M490.452 639.906c-.15-.146-10.06-.35-22.018-.455-30.932-.27-41.955-.465-47.427-.84-2.636-.182-10.174-.287-16.75-.233-6.578.053-12.196-.27-12.485-.72-.29-.45-1.96-.757-3.715-.684-1.755.074-9.65.193-17.547.264-7.896.072-19.556.27-25.91.44-6.356.17-11.946.076-12.423-.208-1.45-.863-9.876-.896-11.485-.046-.9.476-2.15.47-3.098-.018-.875-.45-11.266-.793-23.092-.765-24.596.06-22.808.66-25.326-8.485-.787-2.858-1.702-5.836-2.035-6.618-.653-1.54 2.605-4.58 4.013-3.743.43.256 3.114.153 5.964-.228 4.63-.62 5.592-1.117 9.027-4.675 3.517-3.64 5.133-6.52 8.534-15.203 3.14-8.022 9.76-20.864 11.868-23.024 8.24-8.447 17.15-12.788 28.32-13.798 2.61-.236 5.128-.673 5.592-.972 1.488-.956.86-3.05-.905-3.02-.938.017-2.488-.78-3.445-1.773-.957-.99-2.16-1.532-2.674-1.202-.515.33-2.806-.224-5.092-1.233-9.935-4.382-15.125-7.014-15.137-7.675-.007-.39-.632-.7-1.388-.686-1.564.027-11.313-5.253-13.985-7.574-.972-.845-3.743-2.55-6.158-3.787-6.703-3.44-9.51-5.1-13.858-8.197a327.714 327.714 0 0 0-8.263-5.655c-3.675-2.418-16.348-10.928-32.455-21.792a680.935 680.935 0 0 1-9.25-6.382 374.584 374.584 0 0 0-9.686-6.554c-2.663-1.728-5.612-3.82-6.554-4.65-.943-.828-2.038-1.5-2.435-1.494-.397.007-2.01-1.264-3.584-2.825-1.575-1.56-3.51-3.19-4.3-3.623-3.783-2.072-35.925-32.022-42.848-39.928-2.694-3.075-4.37-4.215-6.602-4.492-1.646-.204-4.06-.768-5.368-1.253-2.515-.933-6.875-5.812-6.917-7.74-.13-5.936-5.73-13.664-9.85-13.592-3.068.054-6.245-3.683-8.386-9.86-1.3-3.748-10.634-22.22-13.323-26.363-.514-.793-.688-2.12-.385-2.95.47-1.29 1.283-1.438 5.558-1.01 13.54 1.356 13.173 1.377 16.103-.906 1.522-1.186 3.365-2.387 4.095-2.67.73-.28 2.36-2.14 3.626-4.132l4.63-7.287c3.685-5.805 9.56-12.167 11.787-12.768 2.678-.722 5.923-5.226 8.01-11.113 1.19-3.364 3.143-6.2 6.756-9.82 2.794-2.798 5.497-6.427 6.005-8.063.51-1.636 1.644-3.216 2.523-3.512.878-.296 1.8-1.096 2.048-1.778.25-.683 1.958-2.043 3.798-3.022 3.855-2.053 7.198-6.245 8.6-10.786.905-2.94 7.463-11.347 8.867-11.37 1.87-.034 5.983-5.386 7.487-9.745 1.78-5.16 4.175-8.313 9.527-12.537 2.618-2.068 3.274-3.304 4.113-7.754 1.007-5.35 2.795-8 7.864-11.655 1.24-.896 2.85-3.186 3.572-5.09 1.613-4.245 9.054-11.186 12.823-11.962 3.37-.693 8.604 1.49 10.6 4.422.773 1.136 1.89 4.29 2.483 7.006.87 3.982 1.526 5.146 3.393 6.004 2.638 1.214 6.873 5.76 6.9 7.41.035 1.946 3 3.702 7.136 4.223 4.642.584 6.96 2.59 9.202 7.96.844 2.02 2.025 3.663 2.626 3.652.6-.01 2.102-1.534 3.337-3.384 2.398-3.59 6.586-7.214 8.432-7.294 2.057-.09 4.96-3.337 6.005-6.72.843-2.724 2.067-3.988 6.63-6.842 3.077-1.926 5.73-3.88 5.898-4.34.872-2.416 6.11-7.362 9.42-8.895 3.617-1.677 3.906-1.69 7.142-.297l3.372 1.45 3.058-2.78c1.683-1.53 3.614-2.793 4.293-2.805 2.835-.05 5.625-2.235 6.516-5.103 1.492-4.8 5.413-8.798 9.35-9.535 3.72-.695 7.74-4.65 7.69-7.56-.033-1.877 2.878-4.903 7.714-8.018 2.263-1.458 3.505-2.996 3.853-4.77.645-3.288 3.808-8.32 5.25-8.354 1.383-.032 1.4-.146-.584 3.92-.925 1.894-1.67 4.07-1.657 4.836.028 1.62-2.974 5.205-4.51 5.382-.577.067-1.547.065-2.154-.004-.608-.07-.995.185-.86.565.132.38-.147.866-.62 1.08-1.458.662-3.554 3.914-4.108 6.373-.688 3.05-4.352 7.518-6.772 8.258-5.436 1.663-7.332 3.21-9.04 7.385-2.03 4.954-2.758 5.67-7.417 7.288-4.47 1.554-6.46 3.89-6.396 7.512.043 2.457.65 3.305 3.923 5.473 2.925 1.938 4.232 3.56 5.338 6.63.805 2.236 1.475 4.71 1.49 5.498.027 1.61 3.574 5.157 5.128 5.13 1.5-.026 3.908 3.918 5.13 8.406.84 3.076 1.522 4.014 3.074 4.223 4.733.637 7.456 2.743 9.452 7.31 1.087 2.485 2.238 5.385 2.557 6.444.32 1.06 1.635 2.725 2.925 3.704 2.104 1.597 4.79 5.853 5.136 8.143.485 3.2 2.516 7.906 4.124 9.56l1.9 1.953 2.953-1.726c1.624-.95 3.718-1.74 4.655-1.756 1.02-.017 2.512-1.354 3.718-3.328 2.756-4.51 4.685-6.07 8.403-6.803 3.798-.75 4.408-1.465 6.184-7.255 1.386-4.514 1.494-4.614 9.02-8.296 1.37-.67 1.977-1.72 3.51-6.07 1.252-3.557 4.447-6.887 8.287-8.638 1.56-.71 3.293-2.352 3.852-3.647 1.264-2.925 4.3-6.392 5.615-6.415 1.58-.028 1.18 2.075-.617 3.24-.904.587-1.904 2.363-2.223 3.947-.537 2.665-3.027 5.41-5.084 5.602-2.357.22-3.89 1.85-5.548 5.898-2.235 5.454-3.687 7.114-8.587 9.814-2.624 1.446-4.057 2.914-4.554 4.665-1.616 5.69-2.358 7.226-3.736 7.726-5.58 2.025-7.23 3.234-9.767 7.155-2.407 3.718-3.46 4.53-7.55 5.818-3.212 1.01-4.844 2.01-5.03 3.08-.63 3.61 1.095 7.806 4.79 11.65 3.933 4.093 6.73 8.537 6.77 10.752.012.697 1.994 2.633 4.405 4.302 2.88 1.994 4.57 3.857 4.925 5.434 1.548 6.864 1.922 7.6 3.995 7.86 3.896.488 6.045 2.627 7.563 7.528 1.166 3.763 2.084 5.088 4.456 6.432 1.807 1.025 3.376 2.805 3.97 4.51.543 1.55 2.272 4.01 3.844 5.466l2.858 2.65 16.102.18c8.857.098 30.983.153 49.17.12 41.152-.074 46.683-.003 52.66.67 9.864 1.112 40.32 1.227 41.98.158.362-.23 1.108-.153 1.66.174 1.07.637 49.388-.12 50.03-.785 1.075-1.113-5.564-8.56-9.01-10.107-3.926-1.762-5.18-3.657-6.305-9.53-.37-1.938-1.463-3.8-2.776-4.737-3.088-2.2-5.348-6.097-6.155-10.61-.89-4.983-2.713-8.39-4.824-9.02-2.053-.61-5.775-5.82-7.202-10.078-.588-1.755-1.876-4.18-2.863-5.392-1.56-1.913-1.618-2.272-.448-2.744 2.17-.878 6.55 3.832 8.24 8.86 1.087 3.23 2.343 5.078 4.364 6.41 4.6 3.036 6.17 6.244 6.576 13.438.116 2.048 1.216 3.95 3.928 6.786 2.833 2.963 4.003 5.044 4.715 8.383.9 4.22 1.173 4.545 5.45 6.503 2.935 1.342 5.048 3.027 6.062 4.832.856 1.525 2.656 3.79 4 5.034 2.295 2.123 3.026 2.267 11.905 2.348 12.935.12 12.505.052 12.54 1.962.015.93-.346 1.93-.804 2.223-.457.293-1.804 2.556-2.992 5.028-1.187 2.473-3.763 7.07-5.723 10.215-1.96 3.146-4.707 7.6-6.103 9.896-6.272 10.32-9.11 14.02-10.78 14.05-2.155.037-11 7.973-10.982 9.854.03 3.185-7.596 8.744-12.103 8.823-.875.015-2.66 1.5-3.97 3.298-3.19 4.382-12.64 13.643-15.634 15.32-1.323.74-4.283 3.042-6.577 5.115-6.05 5.468-10.675 9.09-13.624 10.67-1.422.764-4.76 3.33-7.415 5.703-2.655 2.372-5.08 4.318-5.386 4.324-.796.013-18.737 12.173-20.334 13.78-.73.736-2.74 1.957-4.462 2.712-1.722.754-3.38 1.79-3.683 2.3-.304.51-2.165 1.98-4.136 3.262-1.973 1.283-3.847 2.75-4.166 3.26-.558.893-2.747 2.137-17.607 10.008-3.738 1.98-6.988 3.842-7.222 4.138-.66.835-5.836 3.487-6.84 3.504-.492.01-2.93 1.616-5.42 3.572-2.488 1.956-5.16 3.57-5.94 3.585-.778.014-1.858.58-2.4 1.256-.54.676-2.234 1.748-3.763 2.382-1.53.634-3.55 1.83-4.493 2.656-.944.826-4.048 2.463-6.9 3.637-2.85 1.175-5.763 2.593-6.47 3.152-.71.56-2.844 1.654-4.745 2.435-1.9.78-5.758 2.866-8.57 4.636-2.813 1.77-5.604 3.225-6.203 3.235-.6.01-2.564.926-4.367 2.035-3.692 2.27-11.36 5.772-15.59 7.12-3.836 1.224-3.688 3.44.225 3.373 1.647-.03 3.226.31 3.51.75.283.442 1.584.754 2.89.695 7.37-.336 20 6.065 24.423 12.377 2.503 3.57 10.294 20.556 10.33 22.515.022 1.36 5.49 11.674 6.817 12.865.523.47 2.278 2.522 3.9 4.562 1.62 2.038 5.01 4.825 7.533 6.19 6.714 3.637 7.91 5.155 6.776 8.6-.507 1.537-.906 3.668-.887 4.734.018 1.066-.45 2.353-1.038 2.86-.984.846-10.63 2.243-11.263 1.632zm7.616-5.29c.26-.714.51-2.538.554-4.052.07-2.337-.248-2.782-2.097-2.943-3.567-.31-25.58-.983-26.99-.824-7.17.806-63.31.504-64.745-.348-.49-.292-6.98-.535-14.422-.54-20.435-.01-48.572-.27-62.707-.577-6.942-.15-19.474-.177-27.848-.06-8.373.12-15.817-.06-16.54-.4-.725-.34-3.572-.83-6.33-1.09-4.58-.434-5.01-.328-4.982 1.222.017.933.445 1.942.95 2.243.508.3.82 1.38.696 2.396-.43 3.51 2.633 3.978 21.694 3.313 14.425-.503 17.8-.394 18.656.603.74.86 1.36.948 2.115.3.737-.633 1.817-.65 3.47-.053 1.642.59 2.74.577 3.462-.044.634-.547 6.346-.955 14.26-1.02 7.263-.06 13.414-.327 13.67-.592.257-.266 1.58-.185 2.94.18 1.36.364 4.86.338 7.778-.057 2.918-.395 5.515-.518 5.77-.27.255.245 3.875.46 8.045.476 4.17.016 10.717.234 14.55.484 7.058.46 15.2.73 35.7 1.174 6.225.135 12.3.422 13.5.638 1.2.217 12.17.46 24.376.544 12.207.082 22.36.295 22.562.472.203.177 2.86.278 5.906.225 4.092-.072 5.66-.436 6.01-1.397zm-10.373-12.767c-.08-1.756-4.367-4.084-8.135-4.42-6.2-.55-53.17-.085-54.807.543-.847.325-3.98.28-6.964-.097-2.984-.38-13.843-.648-24.132-.6-10.29.05-21.258-.106-24.373-.345-5.667-.435-15.656-.724-40.872-1.183-7.394-.134-13.738-.42-14.097-.633-.36-.214-3.434-.392-6.83-.395-3.398-.005-6.396-.348-6.664-.764-1.28-1.993-12.957 2.833-12.185 5.036.617 1.763 21.503 2.346 51.992 1.45 10.762-.315 23.488-.402 28.278-.192 4.79.21 14.115.463 20.722.563 6.608.1 13.27.357 14.804.572 1.535.215 9.62.5 17.968.636s15.46.415 15.808.62c.592.353 8.246.36 26.465.026 4.307-.08 10.184.093 13.06.383 6.206.624 10.02.165 9.96-1.2zm-11.666-9.638c-.642-.62-2.33-1.235-3.755-1.367-1.424-.133-5.29-1.44-8.59-2.9-3.3-1.464-6.36-2.654-6.798-2.647-.438.008-2.44-1.132-4.445-2.533-2.007-1.4-3.936-2.542-4.287-2.536-.35.006-1.478 2.187-2.504 4.847-1.024 2.66-2.452 5.178-3.17 5.597-.718.42-1.02 1.206-.67 1.75.348.542.906.81 1.24.597.334-.214 1.894-.15 3.467.144 1.572.293 9.118.452 16.77.353 11.504-.148 13.707-.374 12.742-1.305zm-78.317.6c1.275-.416 1.428-3.025.177-3.003-.472.007-1.49-1.43-2.265-3.193l-1.406-3.208-3.272 3.934c-1.8 2.164-3.082 4.4-2.852 4.97.686 1.7 5.232 1.934 9.617.5zm20.97-.358c.168-.162-1.197-1.566-3.032-3.12-1.835-1.552-3.8-3.268-4.367-3.813-.567-.544-1.384-.726-1.815-.403-.697.523-3.723 6.698-3.707 7.566.02 1.03 11.845.82 12.924-.23zm17.9.277c.25-.418-.374-1.483-1.385-2.366-1.01-.883-2.413-2.673-3.117-3.978-1.762-3.268-3.192-2.948-5.44 1.22-2.723 5.05-1.978 6.087 4.294 5.978 2.858-.05 5.4-.434 5.65-.853zm-72.258-.445c.238-.4-.604-2.133-1.872-3.85l-2.305-3.124-2.472 2.742c-2.75 3.05-2.757 2.962.245 4.1 2.705 1.025 5.837 1.09 6.405.133zm17.41-.32c.243-.41-.713-1.814-2.125-3.12l-2.568-2.375-2.157 2.542c-1.187 1.398-2.165 2.836-2.174 3.195-.02.905 8.478.677 9.024-.242zm-56.26-.756l1.972-.17-1.818-3.416c-1.567-2.94-2.4-5.414-2.705-8.037-.145-1.243-2.1-.605-4.878 1.59-2.97 2.35-8.468 4.59-15.43 6.292-6.024 1.47-6.188 3.212-.303 3.24 2.553.012 5.816.25 7.25.526 2.33.45 10.55.436 15.91-.027zm23.675-.332c-.035-.858-6.985-7.464-7.347-6.983-1.894 2.518-3.967 6.125-3.954 6.88.01.592 2.152.915 5.67.854 3.11-.056 5.644-.394 5.63-.752zm127.29-2.222c.196-.363-.2-1.916-.875-3.452-.89-2.022-2.623-3.482-6.28-5.292-4.583-2.268-11.97-8.405-16.56-13.758-2.798-3.264-3.854-6.173-4.613-12.705l-.706-6.074-3.587-.418c-1.973-.23-3.7-.302-3.835-.16-.137.14-.24 2.565-.23 5.387.023 6.106 2.336 14.094 5.302 18.304 1.177 1.67 2.145 3.3 2.15 3.62.006.32 1.623 1.705 3.593 3.078 1.97 1.374 4.082 2.937 4.693 3.474 1.023.9 4 2.282 13.257 6.156 6.295 2.635 7.153 2.84 7.69 1.838zm-105.845-1.204c1.023-1.57 2.098-3.518 2.387-4.327.513-1.43-3.2-11.932-4.222-11.94-.944-.007-4.985 9.216-4.948 11.297.036 2.065 3.25 7.87 4.34 7.84.32-.01 1.42-1.3 2.443-2.87zm33.8-.44c1.58-3.19 1.765-7.074.468-9.75a114.626 114.626 0 0 1-1.963-4.36c-.568-1.344-1.513-2.275-2.1-2.068-2.38.84-3.24 13.148-1.177 16.847 1.566 2.808 3.16 2.585 4.77-.668zm36.694-.423c.978-1.374 2.17-4.014 2.646-5.866.82-3.182.638-3.742-3.265-10.095-2.272-3.7-4.398-6.724-4.724-6.718-.326.005-1.057 2.466-1.624 5.467-1.934 10.23-1.913 11.953.188 15.983 2.313 4.437 4.242 4.786 6.78 1.226zm-107.432 1.947c.722-.85 2.172-3.323 3.223-5.495 1.803-3.725 1.848-4.34.797-10.806-.613-3.77-1.288-7.024-1.5-7.23-.38-.367-4.93 4.553-8.22 8.89-1.45 1.912-1.547 2.76-.746 6.616.977 4.7 3.24 9.604 4.423 9.583.393-.006 1.304-.708 2.025-1.558zm91.546-7.907c3.792-7.922 5.33-14.834 5.168-23.222-.16-8.24-1.056-11.614-3.493-13.15-2.015-1.27-2.49-1.258-6.3.17-2.266.85-5.272 1.566-6.68 1.59-3.25.057-5.703 2.772-7.418 8.21-3.164 10.036.708 23.134 9.29 31.42 1.72 1.662 3.743 2.89 4.495 2.732.752-.16 2.974-3.647 4.937-7.75zm-7.685-4.434c-3.925-3.455-5.29-6.407-5.208-11.255.08-4.602 2.21-11.25 3.97-12.38 1.748-1.123 2.08 2.023.612 5.81-1.627 4.197-1.63 9.174-.01 13.423 1.24 3.248 1.78 3.467 3.44 1.392.802-1 1.21-4.702 1.3-11.77.112-9.016-.047-10.31-1.268-10.288-.768.013-1.407-.563-1.42-1.28-.042-2.41 4.01-1.622 5.138.998 2.93 6.807 1.968 23.43-1.5 25.95-2.322 1.687-2.478 1.67-5.055-.6zm-29.793 9.877c1.866-2.085 4.14-5.437 7.763-11.45 3.85-6.39 5.208-22.476 2.156-25.555-.698-.705-4.288-1.264-9.525-1.485-9.803-.413-10.546-.017-13.508 7.215-1.583 3.864-1.765 5.535-1.247 11.49.545 6.277 1.916 11.513 3.633 13.878 2.02 2.782 7.257 8.14 7.943 8.13.447-.01 1.7-1.01 2.787-2.223zm-5.85-7.95c-3.648-4.218-4.56-11.662-2.29-18.72 1.312-4.09 5.648-8.893 7.5-8.312 1.716.54 1.633 3.03-.12 3.62-5.243 1.765-7.32 21.494-2.253 21.406 1.57-.028 5.13-14.006 4.174-16.376-.243-.602-.188-1.784.122-2.627.496-1.346.717-1.27 1.814.62 2.683 4.627 1.088 15.12-3.016 19.85-2.07 2.386-4.167 2.577-5.93.54zm-27.52 7.442c3.226-2.792 8.892-11.148 10.897-16.07 2.408-5.914 3.014-14.038 1.488-19.943-1.144-4.424-1.156-4.436-6.085-5.716-2.717-.706-6.212-1.652-7.768-2.102-4.217-1.22-6.015-.16-8.29 4.887-3.57 7.915-4.35 19.213-1.903 27.618 1.328 4.563 6.955 12.932 8.674 12.902.655-.01 1.998-.72 2.986-1.575zm-4.54-6.475c-2.606-2.026-3.77-6.11-3.757-13.17.014-7.258.67-9.112 4.88-13.8 2.73-3.042 4.413-3.064 6.684-.088 2.676 3.508 2.672 15.4-.007 21.763-2.458 5.84-4.935 7.52-7.8 5.295zm4.847-7.284c1.715-5.247 2.176-15.372.812-17.817-1.11-1.992-1.214-1.898-3.925 3.61-3.093 6.282-3.486 10.564-1.406 15.307 1.652 3.77 3.04 3.43 4.52-1.1zm-42.64 8.404c4.735-2.493 8.64-5.43 12.33-9.266 6.497-6.757 7.784-8.243 7.77-8.97-.004-.307.88-2.64 1.966-5.184 4.38-10.266 4.755-12.072 2.5-12.033-.73.013-1.698 1.107-2.152 2.43-3.736 10.91-7.74 17.734-13.473 22.97-5.823 5.315-7.723 6.343-15.416 8.338-3.026.785-5.088 1.895-5.895 3.175-2.973 4.714 1.688 4.164 12.37-1.46zm158.815-6.99c-.452-3.452-6.588-14.883-9.703-18.073-1.407-1.44-3.84-3.34-5.406-4.22-4.072-2.293-5.094-.915-3.363 4.537 2.054 6.473 4.715 10.77 9.337 15.08 6.857 6.39 9.73 7.233 9.135 2.677zm-161.87-.24c4.672-1.565 6.778-2.917 10.663-6.845 7.076-7.155 12.428-19.558 8.41-19.488-1.48.026-13.227 6.02-13.587 6.93-.167.425-1.463 1.616-2.88 2.648-3.955 2.878-11.637 18.76-9.054 18.714.345-.007 3.247-.89 6.448-1.96zm64.738-23.73c.89-2.262.862-2.834-.173-3.464-1.773-1.08-2.533-.942-3.078.557-.597 1.64.426 5.648 1.435 5.63.412-.007 1.228-1.233 1.816-2.723zm30.273.133c.152-.862-.302-1.446-1.112-1.432-.807.015-1.356.77-1.337 1.838.038 2.12 2.066 1.785 2.45-.405zm31-2.717c-.027-1.574-1.725-1.257-2.034.38-.172.91.16 1.302.888 1.045.64-.225 1.156-.866 1.146-1.424zm-32.297-7.064c.667-2.837 1.56-5.946 1.986-6.91.424-.966 1.343-4.506 2.04-7.87.7-3.36 1.628-7.49 2.064-9.172.436-1.683 1.334-6.006 1.995-9.608.66-3.6 1.557-8.12 1.992-10.042.435-1.922 1.347-7.03 2.027-11.348.678-4.32 1.432-8.732 1.674-9.805.43-1.91.303-1.94-5.916-1.463-5.426.416-6.447.75-6.984 2.284-.346.987-.428 2.295-.18 2.905.62 1.537-2.22 26.982-3.24 29.042-.458.92-1.114 3.245-1.46 5.165-.345 1.92-.75 3.886-.9 4.367-.148.48-1.007 4.354-1.908 8.606-.9 4.252-2.14 8.777-2.757 10.055-1.716 3.562-2.27 6.958-1.233 7.574.885.526 8.878 1.827 9.354 1.522.127-.08.776-2.466 1.443-5.302zm12.783 3.36c3.655-.64 5.25-2.268 5.484-5.595.32-4.566 1.842-11.262 3.826-16.832 3.13-8.79 10.235-42.322 10.197-48.136-.008-1.275-.8-1.384-6.308-.867-3.464.325-6.936.935-7.715 1.355-1.005.542-1.693 2.99-2.365 8.415-.522 4.207-1.442 10.596-2.046 14.196-.605 3.6-1.477 8.9-1.94 11.78-.46 2.88-1.135 5.634-1.497 6.12-.363.484-.91 2.843-1.214 5.24-.306 2.4-.937 5.106-1.404 6.016-1.506 2.937-4.87 17.304-4.352 18.587.35.867 1.363 1.097 3.334.76 1.557-.267 4.256-.735 5.998-1.04zm-31.48-1.235c-.013-.733-.857-3.672-1.876-6.53-3.718-10.43-7.276-30.72-8.205-46.786-.484-8.366-1.285-15.695-1.78-16.285-1.088-1.297-8.192-1.313-8.96-.02-1.088 1.832 2.506 33.043 4.996 43.383 2.97 12.332 3.393 14.35 3.27 15.607-.07.72.226 3.318.655 5.775.895 5.113 2.344 6.204 8.226 6.195 2.767-.004 3.693-.34 3.676-1.338zm-13.965-2.375c-.01-.636-.47-2.25-1.024-3.59-.552-1.336-1.58-6.14-2.283-10.676-.703-4.534-2.148-11.558-3.21-15.608-1.062-4.05-2.216-10.687-2.566-14.75-.35-4.06-1.057-10.5-1.572-14.307-.515-3.807-.944-7.36-.954-7.893-.024-1.452-3.862-2.845-9.347-3.392l-4.88-.488.58 4.692c.318 2.58.79 5.863 1.047 7.294.258 1.432.78 5.73 1.158 9.553.38 3.822 1.38 11.05 2.228 16.06.847 5.01 1.672 10.675 1.834 12.586.162 1.912.733 4.57 1.27 5.91.535 1.337.987 3.217 1.004 4.177.026 1.478-.155 1.566-1.183.574-1.585-1.532-3.772-8.697-5.618-18.414-.816-4.293-2.295-12.1-3.287-17.347-.992-5.248-2.144-13.06-2.56-17.36-.483-5-1.24-8.344-2.1-9.277-1.47-1.594-10.11-3.563-12.103-2.758-1.345.543-1.655 3.654-.436 4.378.412.245 1.08 4.662 1.488 9.816.952 12.07 5.31 40.272 7.34 47.502 1.093 3.895 3.586 6.095 8.29 7.318 1.79.465 6.123 1.957 9.63 3.315 3.506 1.358 7.354 2.46 8.55 2.447 1.196-.01 2.634.258 3.194.6 1.81 1.105 5.534.86 5.513-.362zm18.256-1.134c-.013-.707.888-3.366 2-5.91 1.83-4.176 3.307-9.828 6.69-25.59 1.506-7.016 3.406-23.316 3.317-28.45-.074-4.194-1.267-6.016-2.86-4.368-.55.57-1.73.636-3.183.178-1.27-.4-4.91-.837-8.09-.973-3.18-.135-6.176-.48-6.66-.77-2.315-1.375-2.65 1.947-1.613 16.03.58 7.874 1.26 15.293 1.515 16.485.254 1.192.708 4.708 1.01 7.814.73 7.52 4.247 23.122 5.91 26.22.61 1.135 1.987.667 1.964-.666zm40.69-.198c.825-.44 2.932-1.533 4.684-2.43 2.965-1.515 3.355-2.206 5.64-9.984 1.35-4.596 3.04-11.303 3.756-14.906.716-3.602 1.823-8.712 2.46-11.356.636-2.643 1.75-7.558 2.477-10.92.726-3.364 1.664-6.805 2.084-7.648 1.04-2.087 2.478-10.99 1.917-11.863-.4-.625-12.56 1.52-13.46 2.375-.198.186-.623 2.4-.945 4.917-1.068 8.337-3.856 24.583-4.982 29.02-1.123 4.43-3.158 14.075-4.146 19.654-.298 1.68-1.206 4.632-2.02 6.56-2.07 4.916-2.443 6.322-1.835 6.91.762.735 2.64.594 4.37-.33zm16.536-7.697c.545-.68 2.023-1.515 3.284-1.856 4.856-1.31 6.868-3.73 8.273-9.955 2.722-12.063 3.663-15.76 6.616-26.01 3.668-12.73 6.876-25.7 6.852-27.7-.028-2.376-1.112-2.425-7.186-.326-6.654 2.3-6.95 2.75-8.204 12.51-.494 3.837-1.808 10.517-2.92 14.844-4.022 15.645-7.826 29.243-9.415 33.655-.892 2.477-1.39 4.866-1.104 5.31.76 1.182 2.666.946 3.802-.472zm-113.456-5.306c-.284-1.802-.923-4.29-1.42-5.53-.495-1.238-1.37-5.13-1.94-8.646-.573-3.515-1.67-9.514-2.437-13.33-.768-3.816-1.965-13.193-2.66-20.84-.695-7.645-1.622-14.34-2.06-14.878-.437-.537-2.553-1.387-4.7-1.888-2.15-.502-3.914-1.297-3.922-1.77-.008-.47-.798-.843-1.755-.826-.957.017-1.736.218-1.732.446.005.23.824 5.208 1.822 11.064.997 5.856 1.844 11.626 1.882 12.822.195 6.213 1.498 18.136 2.23 20.41.938 2.915 2.03 9.4 2.527 15.012.413 4.65 1.336 5.732 7.458 8.73 6.712 3.29 7.337 3.216 6.708-.775zm133.042-4.766c11.868-5.092 14.08-6.737 14.55-10.815.676-5.852 3.237-18.402 6.02-29.5 1.505-6.004 4.66-25.09 4.65-28.14 0-.608-1.974.27-4.517 2.013-2.482 1.7-6.075 3.938-7.982 4.973l-3.47 1.883-1.297 9.45c-1.11 8.097-3.614 17.753-9.3 35.875-2.677 8.534-3.987 15.734-2.86 15.714.476-.008 2.37-.66 4.208-1.45zM315.7 538.43c-.003-.22-.388-1.085-.855-1.922-.467-.837-.965-3.446-1.107-5.797-.14-2.35-.558-4.857-.926-5.568-.368-.712-.96-4.813-1.32-9.115-.358-4.3-1.28-11.334-2.05-15.628-.77-4.295-1.89-11.716-2.493-16.492l-1.096-8.683-4.093-3.49c-2.25-1.92-3.725-3.728-3.276-4.017.45-.288 2.974.593 5.61 1.958 4.398 2.278 7.197 3.568 15.742 7.254 2.994 1.292 5.232 1.915 13.117 3.647 2.156.474 4.716 1.35 5.69 1.945 1.674 1.022 7.273 2.08 19.222 3.626 2.878.373 5.82.71 6.54.746.718.038 3.66.366 6.54.73 17.475 2.202 47.765 1.91 62.21-.6 13.86-2.408 23.542-4.43 25.025-5.227.777-.418 2.924-1.06 4.77-1.427 1.85-.368 3.99-1.02 4.762-1.45.77-.43 3.733-1.844 6.583-3.145 2.85-1.3 6.536-3.174 8.194-4.163 1.657-.99 4.327-2.413 5.932-3.164 2.842-1.33 2.993-1.3 5.677 1.16 1.516 1.39 5.52 3.73 8.895 5.2 3.376 1.47 7.142 3.184 8.37 3.807 2.218 1.128 15.97 3.652 21.79 4 1.676.1 4.817.567 6.98 1.04 2.16.472 7.65.794 12.195.715 6.8-.116 8.642-.443 10.398-1.84 1.173-.935 1.88-1.942 1.574-2.24-.308-.296-5.594-.617-11.748-.713-11.987-.187-19.77-1.298-29.534-4.218-3.368-1.008-7.3-1.998-8.74-2.2-1.44-.203-3.8-.855-5.247-1.45a5762.61 5762.61 0 0 0-8.327-3.41c-3.133-1.28-6.096-2.745-6.584-3.254-2.906-3.03-3.574-3.086-8.355-.684-2.568 1.29-6.413 3.408-8.544 4.706-5.713 3.48-12.56 6.38-23.755 10.058-1.428.47-4.55 1.147-6.936 1.506-2.387.36-6.392 1.267-8.9 2.018-5.63 1.685-24.7 2.237-29.177.845-2.285-.71-3.616-.71-4.887-.002-2.04 1.138-28.53.94-32.7-.244-1.443-.41-5.172-.896-8.286-1.08-8.774-.517-24.488-3.23-30.114-5.2-.963-.336-4.317-1.8-7.454-3.254-3.136-1.454-6.178-2.634-6.76-2.624-1.943.035-7.644-2.853-12.435-6.298-2.61-1.875-5.24-3.762-5.85-4.193-.748-.53-2.604.208-5.73 2.276-7.145 4.73-7.786 5.113-11.93 7.143-5.984 2.927-16.18 6.154-23.368 7.396-8.242 1.423-35.23 1.324-36.74-.135-1.442-1.392-4.185-1.225-4.16.255.035 1.93 5.575 3.323 17.92 4.508 3.355.322 6.494.678 6.975.79.48.115 1.068.145 1.306.068.238-.077 4.344-.42 9.124-.76 4.78-.343 10.444-1.19 12.586-1.88 2.142-.693 6.73-2.174 10.197-3.29 3.467-1.118 6.503-2.37 6.747-2.78.244-.41 1.045-.758 1.778-.77.734-.014 2.316-.825 3.516-1.803 2.353-1.918 4.99-2.355 5.877-.974.303.472-.863 2.2-2.592 3.84l-3.143 2.982 1.027 5.977c.563 3.287 1.747 11.25 2.63 17.697.882 6.445 2.064 13.864 2.626 16.487.563 2.623 1.234 6.24 1.492 8.042.363 2.532 1.295 3.923 4.124 6.15 6.877 5.413 15.513 9.103 15.47 6.61zm172.136-9.778c.707-.596 3.893-2.372 7.08-3.948 6.462-3.196 5.57-1.494 9.478-18.116 1.127-4.795 2.025-10.14 1.994-11.88-.03-1.74.313-5.28.763-7.867.704-4.042.618-4.82-.62-5.545-.79-.465-3.98-2.466-7.09-4.445-3.107-1.98-5.78-3.598-5.94-3.595-.382.006-1.46 12.03-1.327 14.817.056 1.195-.45 4.14-1.124 6.546-.676 2.405-1.545 6.14-1.932 8.3-.387 2.162-1.07 5.502-1.518 7.425a982.052 982.052 0 0 0-1.594 6.99c-.43 1.92-1.355 5.07-2.055 6.997-1.894 5.208-1.72 6.805.652 6.036 1.07-.347 2.526-1.118 3.234-1.714zm-194.777-4.13c-.308-3.494-3.685-21.388-5.557-29.447-.726-3.126-1.432-7.91-1.568-10.633-.137-2.722-.636-4.942-1.11-4.934-.472.008-3.556.943-6.853 2.078l-5.994 2.062.642 6.08c.353 3.345 1.03 8.228 1.502 10.852.472 2.624 1.17 7.616 1.55 11.094.764 6.963 1.7 8.114 9.91 12.176 2.02 1 4.158 2.383 4.753 3.075 1.7 1.977 3.01.823 2.724-2.404zm218.75-10.033c.153-.363.81-.668 1.46-.68 2.89-.05 7.286-3.82 8.117-6.96 1.55-5.845 3.437-19.097 2.91-20.406-.51-1.26-5.505-2.46-10.676-2.565l-2.585-.053-.947 9.432c-.522 5.186-1.69 11.83-2.596 14.764-.907 2.933-1.63 6.465-1.604 7.85l.043 2.514 2.8-1.62c1.54-.892 2.927-1.918 3.08-2.28zm-239.82-7.08c-3.74-22.424-4.132-23.58-7.714-22.824-1.424.3-3.812.807-5.308 1.125l-2.718.578.757 8.812c.796 9.28 1.966 12.223 5.352 13.464 1.058.388 3.71 2.042 5.892 3.676 2.182 1.634 4.186 2.837 4.453 2.674.267-.163-.055-3.54-.716-7.504zm259.902-4.15c6.35-3.586 6.665-4.098 6.877-11.215.12-4.06-.018-4.37-2.05-4.576-1.2-.123-2.77-.45-3.494-.726-4.015-1.537-6.09-.13-6.03 4.086.038 2.68-.99 7.67-2.946 14.304-.674 2.285 1.006 1.873 7.642-1.874zm-277.535-8.278c-.875-7.907-1.51-8.65-6.882-8.06l-4.227.465.494 4.337c.392 3.448 1.014 4.748 3.04 6.346 1.4 1.106 2.99 2.017 3.53 2.024.54.008 1.492.61 2.117 1.337 1.966 2.288 2.642.024 1.927-6.448zm291.473-.81c7.243-3.855 7.814-6.303 1.443-6.192-4.505.08-5.264.95-5.207 5.965.027 2.357-.216 2.343 3.764.226zM240.882 490.5c-.074-3.046-1.04-3.805-5.5-4.322-5.477-.635-5.45.918.07 3.957 5.098 2.805 5.49 2.832 5.43.365zm193.8-11.385c.347-.223 4.118-.895 8.38-1.492 7.36-1.03 17.18-3.967 18.94-5.66.446-.43 1.48-.795 2.296-.81.816-.013 2.976-.812 4.8-1.773 1.822-.96 5.643-2.912 8.49-4.334 2.847-1.423 6.49-3.438 8.094-4.478l2.918-1.89 5.36 2.565c9.623 4.605 10.495 4.968 15.84 6.594 2.907.885 6.66 2.025 8.343 2.535 1.682.51 4.468 1.02 6.192 1.137 1.724.115 4.952.79 7.174 1.503 5.166 1.654 25.804 3.478 34.46 3.045 4.716-.236 7.35-.81 9.024-1.965 4.44-3.064 3.016-3.62-8.76-3.413-15.627.273-35.157-2.035-48.175-5.692-6.65-1.868-17.294-6.804-20.09-9.316-4.027-3.618-4.94-3.576-12.04.567-13.81 8.057-20.717 10.974-28.734 12.135-2.15.31-5.087 1.263-6.53 2.115-2.922 1.726-18.39 3.608-32.96 4.01-11.9.328-41.965-.79-45.715-1.7-1.682-.41-7.764-1.12-13.515-1.58-16.122-1.287-26.317-3.534-34.796-7.67-1.368-.666-3.19-1.2-4.05-1.184-.86.015-2.06-.55-2.668-1.26-.608-.706-1.59-1.276-2.184-1.266-1.515.026-13.815-8.114-14.79-9.79-1.06-1.813-.178-2.66 1.43-1.37 1.738 1.39 2.056.472 2.015-5.82-.03-4.49-.4-5.848-2.13-7.835-1.154-1.322-2.39-3.835-2.75-5.586l-.656-3.183-3.016 2.127c-2.212 1.56-3.767 2.018-5.843 1.718-2.425-.35-2.9-.114-3.33 1.65-.274 1.13.03 5.498.68 9.703 1.087 7.067 1.308 7.602 2.925 7.06 4.86-1.626 5.647-1.613 5.676.095.018 1.01-1.087 2.293-2.772 3.217-1.54.846-4.546 2.506-6.68 3.69-11.395 6.32-29.612 10.876-43.755 10.946-14.544.072-27.453-.475-28.944-1.226-.85-.43-3.826-1.243-6.61-1.81-2.783-.565-5.268-1.35-5.52-1.743-.62-.966-2.1-.883-2.083.117.035 1.983 4.856 6.114 8.078 6.922 1.922.482 4.753 1.613 6.29 2.514 1.538.9 4.202 1.615 5.92 1.587 1.718-.028 4.982.473 7.253 1.113 4.494 1.268 14.416.95 29.61-.95 12.557-1.57 19.015-3.862 36.166-12.842 2.733-1.432 5.78-2.617 6.773-2.634 1.507-.027 8.972 4.258 10.46 6.003.752.883 8.91 4.1 10.407 4.103.776.002 2.182.565 3.123 1.25.94.687 2.433 1.236 3.315 1.22.882-.015 2.48.51 3.553 1.164 5.17 3.16 32.954 7.772 45.5 7.553 2.614-.046 4.988.282 5.274.728.304.473 5.683.576 12.892.247 6.804-.31 13.746-.287 15.427.05 3.107.628 24.86.03 26.018-.712zm-34.384-10.712c.453-1.243-2.34-22.914-3.238-25.14-.383-.95-1.102-1.27-2-.888-3.406 1.45-8.008 1.56-11.392.273-1.958-.744-3.865-1.348-4.238-1.34-.95.016-2.535 13.327-2.414 20.268.064 3.665.503 6.026 1.2 6.46 1.66 1.033 13.615 2.25 17.91 1.822 2.08-.207 3.956-.862 4.172-1.455zm176.236-2.93c.362-.592.653-2.25.647-3.686-.004-1.436 1.053-8.308 2.35-15.27 1.3-6.963 2.35-13.443 2.334-14.4-.027-1.785-4.77-7.314-6.25-7.288-.455.007-.818.548-.806 1.2.04 2.282-3.294 5.53-6.833 6.658-1.96.625-3.688 1.606-3.838 2.18-.15.574-.847 6.34-1.55 12.814-.703 6.474-1.652 12.825-2.107 14.114-.456 1.29-.584 3.07-.285 3.96.487 1.447 1.346 1.574 8.113 1.205 4.738-.257 7.815-.814 8.226-1.487zm-158.167 1.044c.217-1.56.43-8.61.47-15.667.086-14.082.54-12.95-5.627-14.084-1.663-.306-4.09-1.722-5.495-3.208-1.384-1.464-2.508-2.16-2.497-1.545.01.614-1.29 2.892-2.887 5.064-2.613 3.55-2.813 4.228-1.98 6.726 1.467 4.392 2.65 10.034 3.64 17.334.502 3.715 1.155 7.13 1.45 7.59.295.46 3.235.787 6.535.73l6-.105.392-2.835zm15.766 1.735c.476-.148 1.452-.33 2.168-.408 1.423-.153 1.998-5.05 2.695-22.962l.38-9.75-3.337-1.327c-1.835-.73-4.02-1.924-4.857-2.655-1.38-1.207-1.708-1.183-3.557.263-4.654 3.64-4.796 4.28-4.65 20.96.075 8.57.173 15.78.218 16.017.086.45 9.422.333 10.943-.138zm122.31-2.678c.63-.406 1.802-5.67 2.028-9.117.08-1.198.686-6.496 1.35-11.772.665-5.277 1.206-9.882 1.204-10.235-.002-.353-1.556-1.584-3.453-2.736-1.895-1.15-3.733-2.942-4.082-3.98-.83-2.468 1.106-8.63 2.72-8.658.868-.015 1.065.456.635 1.512-1.122 2.756-1.308 5.857-.478 7.967.7 1.777 1.51 2.11 5.715 2.347 6.13.346 7.873-.612 9.108-5.013.802-2.857.73-4.167-.395-7.225-.756-2.054-1.387-4.073-1.4-4.486-.024-.682 2.78-.543 6.032.297.692.18 1.39-.314 1.547-1.097.397-1.963-3.172-2.448-15.91-2.16-5.742.128-11.03.037-11.753-.203-2.573-.858-36.865-.648-38.447.234-2.094 1.17-4.08 6.374-4.008 10.504.044 2.5.754 4.108 2.812 6.372 4.29 4.716 9.133 3.634 9.965-2.227.678-4.773 1.506-5.953 3.216-4.583 1.112.89 1.864.825 4.137-.36 3.81-1.983 5.002-.7 3.142 3.382-2.81 6.168-.783 11.63 4.986 13.422 4.39 1.365 4.417 2.876.04 2.254l-3.36-.477-.54 8.482c-1.014 15.914-1.184 15.08 3.323 16.35 7.583 2.137 7.687 2.013 8.608-10.26.34-4.552.842-9.79 1.113-11.642l.493-3.364-2.924.568c-1.61.313-2.342.314-1.63.002 4.547-1.988 9.124-10.927 7.576-14.794-.765-1.91-.45-3.04.855-3.063.34-.007 1.128 1.158 1.75 2.59 1.287 2.96.766 8.647-1.063 11.6-.653 1.054-1.378 5.25-1.61 9.32-.233 4.073-.775 10.304-1.206 13.846-.625 5.146-.548 6.58.38 7.132 1.082.643 8.24.09 9.525-.734zm30.956-.88c2.224-1.41 3.062-2.874 4.402-7.688 1.985-7.13 3.744-16.33 4.432-23.182.543-5.403-.188-6.18-3.425-3.64-1.596 1.254-3.117 1.094-3.14-.33-.008-.393.737-.926 1.654-1.183 1.04-.29 2.048-1.82 2.677-4.064.557-1.978 1.476-3.604 2.043-3.614.568-.01 1.728-.814 2.577-1.786 2.075-2.375 4.276-2.454 3.075-.11-.48.934-.84 3.503-.802 5.71.12 6.78 6 10.31 11.647 6.993 3.16-1.857 4.02-3.566 3.974-7.902-.047-4.323.985-5.326 2.564-2.495 1.99 3.566.52 9.997-2.52 11.02-.966.326-1.584 1.36-1.562 2.614.02 1.142-.39 3.056-.91 4.253-.52 1.198-.693 2.808-.382 3.58.47 1.164 1.21.842 4.388-1.91 4.605-3.988 5.985-7.088 5.12-11.503-1.62-8.26-1.765-12.39-.437-12.413 1.613-.028 2.38 1.802 2.45 5.846.06 3.41 2.86 7.115 5.343 7.072.788-.014 3.2-.662 5.358-1.44 4.505-1.623 5.865-3.873 5.766-9.54-.12-6.82.613-6.678-32.417-6.307l-29.038.325-.7 4.966c-.856 6.085.67 8.914 5.85 10.845 3.773 1.408 4.3 2.306 1.765 3.016-1.706.478-3.98 6.923-2.99 8.468.274.424-.56 6.19-1.85 12.813-1.29 6.622-2.15 12.347-1.91 12.72.774 1.208 4.174.656 6.997-1.133zm-213.664-5.448c.11-4.788.47-10.668.797-13.067.733-5.37.69-7.952-.19-11.31-1-3.813-2.178-5.007-3.67-3.724-.666.573-2.528 1.015-4.136.983-1.61-.034-3.293.422-3.742 1.012-1.104 1.453-1.66 18.534-.87 26.853.59 6.236.806 6.798 2.92 7.584 2.76 1.026 7.29 1.5 8.1.846.324-.26.68-4.392.79-9.18zm77.957 6.036c1.77-.988 3.623-1.803 4.12-1.812.946-.017 2.73-9.925 3.35-18.62.355-4.967.292-5.142-2.943-8.088-3.217-2.93-3.298-3.148-3.023-8.16.26-4.77 1.568-7.903 2.8-6.713.287.275.857 3.467 1.267 7.09.835 7.38 2.165 9.115 6.96 9.08 3.8-.03 6.336-1.174 9.212-4.156 2.123-2.202 2.375-3.017 1.947-6.294-.372-2.857-.172-3.893.832-4.3 2.47-.996 3.897 2.286 3.47 7.98-1.02 13.622-1.12 22.892-.252 23.407.5.298 1.127.175 1.392-.27.266-.448 2.62-1.527 5.23-2.398 2.61-.873 5.157-2.1 5.66-2.727.775-.968 1.225-3.88 1.675-10.855.208-3.224-.423-4.126-3.518-5.025-6.374-1.853-7.728-3.855-7.508-11.1.127-4.204 1.814-3.46 1.896.837.094 4.978 2.355 8.016 5.898 7.925 7.542-.193 12.46-11.866 7.66-18.183-1.213-1.597.458-1.535-50.107-1.845-7.687-.048-11.765.253-12.232.9-2.168 3.006-3.414 15.27-1.79 17.612 1.034 1.49 4.29 2.883 6.646 2.842 2.484-.044 5.974-3.898 7.888-8.713.995-2.507 1.433-2.9 2.097-1.89 2.255 3.434-.524 10.294-4.952 12.22l-2.492 1.083-.364 10.6c-.753 21.958-.937 20.086 2.03 20.67 1.442.28 2.916.554 3.278.604.36.05 2.104-.717 3.873-1.705zm-93.58-16.145l.052-17.345-3.06-2.87c-1.682-1.578-3.318-3.828-3.634-5-.844-3.136-1.642-2.602-2.748 1.84-.78 3.137-1.786 4.54-4.87 6.796l-3.887 2.843.57 4.81c.314 2.647.775 9.03 1.025 14.188.25 5.157.718 9.632 1.04 9.943.653.63 12.538 2.534 14.325 2.294.883-.118 1.15-4.04 1.19-17.497zm169.083 6.125c2.08-15.48 2.08-18.567.007-20.368-1.03-.894-1.884-2.324-1.9-3.18-.034-1.998-1.475-2.86-2.363-1.415-.378.614-2.143 1.82-3.923 2.682-3.11 1.505-3.238 1.743-3.275 6.15-.053 6.374-.368 10.44-1.2 15.52-.79 4.82-.82 4.776 4.757 6.983 6.218 2.46 6.768 2.017 7.896-6.373zm-188.893 7.43c.194-.6-.225-7.092-.932-14.423l-1.284-13.33-3.5-1.15c-1.927-.633-3.588-1.155-3.692-1.16-.105-.005-.78-1.077-1.498-2.38-1.212-2.198-1.345-2.244-1.835-.62-.29.96-1.32 3.377-2.287 5.368-1.597 3.283-1.692 4.536-1.024 13.506.813 10.913.88 11.037 7.072 12.753 2.068.573 4.353 1.363 5.078 1.754 1.942 1.05 3.502.923 3.903-.317zm129.462-2.61c2.47-.833 4.935-1.872 5.48-2.308 2.07-1.655 3.443-17.24 1.748-19.82-.706-1.073-1.006-1.068-2.288.04-.812.702-3.408 1.7-5.77 2.22l-4.293.946-.18 7.775c-.1 4.277-.403 8.884-.675 10.237-.587 2.912-.144 2.98 5.978.91zm137.074-8.665c4.29-3.343 4.816-4.362 5.763-11.174.458-3.292.367-4.736-.3-4.766-3.406-.154-6.43-.766-8.15-1.647-1.093-.56-2.165-.837-2.38-.613-.217.225-.79 3.335-1.27 6.913-.484 3.578-1.383 8.62-2 11.207-.615 2.585-.906 5.033-.644 5.44.512.8 2.91-.632 8.98-5.36zm-355.015 9.928c2.33-1.213 2.71-1.887 2.663-4.688-.032-1.8-.312-3.517-.624-3.818-.312-.302-.784-3.277-1.05-6.613-.53-6.637-1.54-11.037-2.456-10.682-.322.126-2.76.266-5.416.312l-4.83.085.28 5.434c.157 2.988.787 8.753 1.402 12.81 1.096 7.232 1.163 7.373 3.398 7.098 1.253-.154 2.534.118 2.846.603.716 1.115.565 1.137 3.787-.542zm260.278-3.39c0-.12.362-2.575.804-5.454.44-2.88.954-6.608 1.14-8.286.184-1.68.524-4.267.754-5.752.462-2.975-2.26-7.276-4.578-7.235-.705.012-1.97-1.138-2.81-2.556-.84-1.417-1.722-2.54-1.96-2.494-.24.046-1.825 1.736-3.525 3.755-3.027 3.594-3.098 3.858-3.382 12.513l-.29 8.843 4.278 2.667c2.352 1.466 4.512 3.032 4.8 3.48.442.688 4.766 1.16 4.77.52zm-287.09-3.65c-1.06-6.16-1.547-9.52-2.684-18.488-.796-6.273-1.21-7.14-3.69-7.716-1.226-.284-3.21-1.542-4.413-2.794-2.11-2.198-2.267-2.226-4.51-.815-3.676 2.315-4 3.47-2.802 9.983.6 3.27 1.64 9.99 2.31 14.934.71 5.236 1.733 9.488 2.452 10.183 1.25 1.206 1.857 1.312 8.005 1.4 1.875.028 3.714.345 4.087.706 1.76 1.7 2.277-1.367 1.242-7.39zm13.726 6.245c.425-.87.4-4.17-.06-7.614-.444-3.343-.88-9.037-.968-12.655-.153-6.3-.272-6.657-2.847-8.493-1.48-1.053-3.063-2.85-3.52-3.995-.82-2.05-.87-2.057-3.442-.534-3.107 1.84-3.192 3.094-1.016 15.006.828 4.533 1.665 10.297 1.86 12.81.194 2.513.85 5.145 1.454 5.85 1.584 1.84 7.583 1.578 8.54-.374zm27.03-1.523c3.93-2.093 4.6-3.52 3.304-7.043-.532-1.446-.783-3.137-.557-3.758.226-.622-.02-4.822-.55-9.335-1.016-8.69-1.708-9.972-6.406-11.86-2.228-.895-2.5-.792-3.225 1.217-.435 1.207-1.608 3.34-2.607 4.743-1.672 2.346-1.735 2.984-.79 8.05.565 3.027 1.34 8.32 1.723 11.764.71 6.364.99 6.763 5.548 7.92.14.035 1.742-.728 3.56-1.697zm55.07-5.864c-.128-2.347-.323-5.93-.435-7.96-.11-2.03-.49-3.864-.845-4.074-.353-.21-2.87-.584-5.592-.83l-4.95-.447.098 5.557c.107 6.12 1.756 8.61 6.415 9.68 1.288.295 2.575 1.117 2.86 1.827 1.142 2.824 2.68.465 2.45-3.754zm-114.933 2.862c-.166-.903-.95-7.418-1.74-14.478-.792-7.06-1.654-13.17-1.915-13.576-.262-.406-1.56-.987-2.886-1.29-1.326-.304-3.473-1.527-4.77-2.72l-2.36-2.166-1.43 2.888c-1.14 2.3-1.286 4.048-.72 8.592.39 3.137.917 8.62 1.17 12.18.537 7.603 1.357 8.683 8.405 11.073 5.537 1.878 6.666 1.787 6.247-.502zm73.676-1.8c6.05-1.894 6.34-2.938 4.476-16.046-1.483-10.418-2.83-14.27-4.984-14.23-.372.005-2.645 1.282-5.05 2.836-3.01 1.945-4.233 3.256-3.92 4.202.25.757.915 6.357 1.48 12.444 1.06 11.467 1.51 13.216 3.2 12.44.55-.252 2.71-.993 4.797-1.647zm-91.034-6.733c-.24-1.785-.87-5.226-1.404-7.647-.532-2.42-.772-4.962-.533-5.647.96-2.753-.957-3.76-5.38-2.826l-4.187.884.077 4.785c.075 4.673.198 4.903 5.2 9.736 2.817 2.723 5.468 4.728 5.89 4.456.424-.272.575-1.955.336-3.74zm207.382-7.4c3.018-1.11 6.952-7.064 6.894-10.43-.02-1.088-.914-3.482-1.99-5.317-1.073-1.836-1.72-3.58-1.437-3.872 1.046-1.084 6.774 1.587 6.8 3.172.037 2.064 1.094 1.968 2.406-.217 1.81-3.012 2.778-1.98 2.866 3.053.047 2.664.494 5.576.994 6.473 1.29 2.314 6.63 3.083 8.6 1.24.842-.79 1.98-1.444 2.527-1.454 1.856-.033 3.87-5.587 3.7-10.198-.115-3.102-.803-5.415-2.246-7.548-2.062-3.048-4.224-3.797-10.795-3.74-5.36.047-20.076-.782-25.92-1.46-3.72-.43-7.19-.51-7.71-.176-.52.335-5.52.633-11.11.662-12.63.066-13.548.566-13.334 7.274.083 2.586.63 5.56 1.214 6.608 1.637 2.935 7.3 6.02 10.006 5.455 3-.628 6.637-4.152 6.598-6.392-.026-1.48.374-1.686 2.507-1.298 1.997.364 2.74.068 3.488-1.388 1.078-2.1 3.487-2.538 3.52-.64.012.69-.76 2.638-1.72 4.327-1.714 3.026-2.245 8.3-1.16 11.524.748 2.222 3.797 3.977 8.024 4.62 1.92.293 3.726.577 4.014.632.29.055 1.758-.354 3.264-.91zm-75.537-4.944c2.588-3.098 3.338-5.897 2.66-9.933-.515-3.068-.38-3.768.72-3.787.745-.013 1.602.363 1.906.837.954 1.482 2.84.9 3.305-1.02.77-3.168 2.756-1.462 2.508 2.153-.368 5.354 1.326 8.09 5.385 8.704 2.925.442 3.82.194 5.626-1.558 4.62-4.483 5.732-13.46 2.293-18.514l-1.458-2.144-12.396.533c-7.612.325-12.813.196-13.478-.336-.693-.555-2.108-.567-3.93-.033-3.026.887-9.744.955-21.167.213-7.71-.5-9.138.208-10.2 5.062-1.208 5.526 1.666 9.6 8.047 11.41 2.033.575 5.546-2.155 6.578-5.114.4-1.144 1.07-1.438 2.388-1.045 1.305.39 2.19.016 3.076-1.3 2.566-3.803 3.795-1.46 1.994 3.806-.552 1.615-.673 4.37-.292 6.64.527 3.14 1.194 4.198 3.48 5.528 5.655 3.287 10.15 3.252 12.953-.1zm-145.92-.666c-.425-2.275-1.596-4.48-3.135-5.903-1.352-1.25-3.05-3.933-3.774-5.962l-1.316-3.688-2.684 3.88-2.684 3.877 1.92 2.355c3.736 4.584 10.852 10.624 11.602 9.848.412-.428.445-2.41.07-4.408zm77.43-4.383c1.054-1.373 2.143-4.202 2.42-6.287.37-2.803.895-3.8 2.013-3.82.832-.013 1.94-.468 2.463-1.01 1.154-1.194 2.856-.34 2.887 1.448.013.714.638 2.437 1.39 3.83 1.053 1.953 1.908 2.486 3.738 2.33 5.655-.484 8.438-5.216 7.023-11.94-.43-2.045-1.065-3.992-1.41-4.326-.347-.334-5.2-.625-10.783-.648a4512.84 4512.84 0 0 1-26.932-.235l-16.777-.193-1.39 3.34c-1.998 4.805-1.815 10.335.396 11.946 4.02 2.93 11.365-.003 11.827-4.722.24-2.458 2.714-3.75 4.28-2.237.458.442 1.04 2.916 1.297 5.498.31 3.126 1 5.124 2.066 5.974.88.703 1.893 2.005 2.25 2.893.565 1.398 1.37 1.55 5.987 1.136 4.578-.412 5.608-.834 7.254-2.974zm-67.39-3.383c.798-.728 1.65-2.46 1.89-3.852 1.467-8.417 1.238-7.946 3.592-7.4 1.64.382 2.517.052 3.423-1.29 2.034-3.016 2.882-2.078 2.734 3.02-.137 4.732-.062 4.9 2.99 6.622l3.13 1.766 2.738-2.1c2.644-2.026 2.734-2.316 2.627-8.46l-.112-6.36-3.265-.082c-5.085-.126-10.594-.382-16.766-.776-10.67-.682-37.867-.727-38.813-.065-3.42 2.392-3.896 11.127-.758 13.886 3.467 3.05 5.23 3.548 8.524 2.41 2.265-.783 3.562-2.083 5.162-5.175 2.815-5.437 3.147-5.704 4.674-3.757 1.094 1.395 1.298 1.432 1.3.238.002-.778.61-1.938 1.354-2.578 1.977-1.7 3.02.38 2.477 4.935-.624 5.228.367 7.93 3.612 9.844 3.113 1.838 6.933 1.507 9.485-.823zm465.422-11.2c.556-1.597-.242-3.26-1.555-3.236-1.57.028-2.233 2.226-1.024 3.394 1.292 1.248 2.108 1.198 2.58-.157zm-142.774-4.484c-.733-1.32-1.968.427-1.916 2.71l.054 2.34 1.115-2.194c.613-1.21.95-2.494.747-2.857zm-74.607 1.897c-.018-1.067-.736-1.755-1.99-1.91-2.21-.276-2.36.117-.985 2.58 1.157 2.07 3.017 1.652 2.976-.67zm-79.23.46c.592-2.542-.345-4.06-1.892-3.067-1.058.68-.46 5.41.682 5.39.37-.008.916-1.053 1.21-2.324zm302.616-8.76c.265-2.225.46-5.373.43-6.996-.03-1.857.444-3.15 1.283-3.49 2.15-.868 2.394.105 1.587 6.374-.42 3.262-.58 6.23-.356 6.6.453.744 4.298-4.813 5.35-7.732 1.086-3.013-.8-10.076-3.384-12.68-2.985-3.01-6.9-2.645-9.672.9-1.06 1.358-2.71 3.298-3.666 4.31-1.49 1.58-1.69 2.803-1.404 8.604.24 4.845.682 6.887 1.563 7.207 1.815.66 2.73-1.476 2.663-6.213-.043-2.985.257-4.1 1.034-3.84.616.207 1.01 1.47.905 2.886-.57 7.575 2.802 11.317 3.667 4.07zm-14.347.74c.436-3.3-1.952-16.65-3.364-18.8-1.02-1.556-2.065-1.923-5.313-1.866-3.66.063-4.395.45-7.74 4.066-3.574 3.862-3.695 4.183-3.6 9.564.053 3.063.345 6.184.65 6.935 1.143 2.834 2.1 1.166 2.02-3.518-.11-6.21 1.91-6.13 2.454.1.206 2.35.706 4.606 1.11 5.012 1.487 1.488 2.608-.57 2.536-4.654-.1-5.703.73-9.78 1.91-9.396.538.175 1.046 2.04 1.13 4.148.22 5.464.305 5.653 1.704 3.752 1.09-1.482 1.38-1.538 2.155-.422.493.71.923 2.497.956 3.972.1 4.356 2.847 5.252 3.395 1.105zm-36.87-3.297c.806-10.832 2.784-11.967 2.963-1.7.12 6.828 1 8.507 2.95 5.62 1.193-1.77 1.205-1.77 2.784-.085.873.93 1.922 1.477 2.332 1.214.985-.632.69-13.79-.406-18.172-1.63-6.508-6.343-7.355-12.837-2.307-6.622 5.15-7.097 6.083-6.986 13.725.078 5.314.365 6.738 1.358 6.72.897-.015 1.313-1.28 1.446-4.388.244-5.7 1.82-6.035 2.27-.48.588 7.304 3.58 7.197 4.127-.147zm29.64 2.05c-.506-1.25-.763-1.313-1.347-.33-.967 1.627-.03 3.948 1.116 2.762.47-.487.574-1.58.23-2.43zm-43.215-3.996c-.105-5.965-.487-7.7-2.468-11.194-3.43-6.05-8.06-6.8-12.885-2.086l-3.01 2.94.65 8.197c.36 4.508.797 8.357.974 8.554.734.812 1.357-.912 1.462-4.043.13-3.855 1.024-5.77 2.332-4.993.52.31.722 1.9.467 3.704-.493 3.505.682 6.283 2.054 4.852.463-.483.924-3.033 1.025-5.667.108-2.823.543-4.617 1.06-4.37.49.235.782 2.638.66 5.428-.218 5.013.377 5.947 2.465 3.873.896-.89 1.315-.81 2.135.4 2.267 3.347 3.206 1.642 3.08-5.593zm-5.113 2.292c.024-1.015.227-1.225.516-.536.263.624.245 1.374-.04 1.67-.283.293-.498-.217-.476-1.135zm-28.856-3.994c-.11-6.44 1.573-6.825 1.82-.415.293 7.544.804 8.256 6.085 8.478l4.673.196-.74-8.033c-.592-6.423-1.18-8.675-2.933-11.24-3.9-5.704-10.355-5.372-15.862.816-3.41 3.832-3.41 3.835-3.167 10.68.2 5.56.512 6.896 1.66 7.096 1.478.257 2.436-2.08 2.392-5.836-.02-1.736.186-1.895 1.3-1.004.728.583 1.345 2.318 1.372 3.854.027 1.536.337 3.07.69 3.41 1.412 1.365 2.803-2.738 2.71-8zm5.893 5.19c-.324-.312-.606-1.515-.627-2.67-.05-2.86 2.06-2.097 2.467.893.3 2.2-.55 3.022-1.84 1.777zm-84.573.226c-.643-2.7.026-6 1.22-6.022.833-.014 1.34 1.4 2.253 6.294 1.035 5.538 2.254 2.626 2.12-5.065-.122-6.962.664-9.583 2.17-7.24.383.597.66 4.123.62 7.837-.08 6.707 1.376 9.66 1.8 3.655.27-3.806 1.83-4.415 2.29-.892.383 2.938 1.93 5.177 2.846 4.12.73-.842-.693-18.698-1.603-20.116-1.45-2.257-5.48-3.458-8.49-2.532-3.492 1.075-4.87 2.177-7.41 5.923-3.193 4.71-2.063 18.46 1.402 17.06 1-.404 1.21-1.214.78-3.023zm27.955-4.098c.104-3.47.368-6.827.586-7.46.836-2.416 2.173.087 2.245 4.2.073 4.2 1.13 5.642 2.127 2.904.814-2.238 2.265-.55 2.322 2.704.055 3.192 2.275 5.02 3.53 2.906.89-1.495-.14-13.512-1.477-17.28-1.532-4.312-3.148-4.963-8.13-3.277-2.826.958-5.008 2.473-6.723 4.67-2.312 2.96-2.53 3.842-2.454 9.876.095 7.3 1.742 9.75 2.452 3.646.66-5.66 1.948-6.067 2.58-.815.394 3.28 1.482 5.554 2.267 4.74.267-.276.57-3.342.675-6.813zm23.784.675c.196-3.213.777-5.68 1.387-5.893 1.18-.412 2.248 2.712 2.014 5.9-.266 3.637.135 5.31 1.186 4.94.558-.198 1.018-1.903 1.022-3.79.01-4.884 1.642-4.733 2.247.207.418 3.422.81 4.14 2.247 4.116 1.634-.03 1.713-.508 1.296-7.855-.526-9.288-1.95-13.166-5.105-13.9-3.683-.856-7.95.508-11.098 3.546-2.652 2.562-3.002 3.467-3.38 8.75-.232 3.24-.188 6.47.097 7.178.995 2.462 2.072 1.233 2.01-2.295-.067-3.91 1.904-4.542 2.407-.77 1.056 7.932 3.18 7.855 3.67-.134zm-83.054 5.037c.58-1.942-1.19-13.397-2.605-16.854-.543-1.33-2.04-2.94-3.33-3.577-2.007-.994-2.904-.962-6.316.228-6.103 2.127-7.577 3.998-7.48 9.488.043 2.553-.107 5.77-.335 7.15-.416 2.507.842 5.537 1.86 4.483.53-.55 1.042-2.742 1.135-4.86.102-2.326 1.694-.967 2 1.705.205 1.81.79 2.814 1.626 2.8 1.006-.018 1.38-1.523 1.627-6.555.363-7.392 1.884-8.793 2.407-2.218.35 4.39 2.042 7.804 1.975 3.983-.052-2.9 2.09-1.828 2.45 1.228.166 1.396.475 3.025.69 3.62.602 1.672 3.747 1.218 4.296-.62zm11.825.774c.19-6.652.78-14.638 1.11-14.98 1.158-1.198 1.97 2.617 1.6 7.507-.29 3.83-.115 5.47.58 5.46.55-.01.98-.997.96-2.193-.022-1.197.31-2.18.738-2.19 1.005-.016 1.87 2.162 1.918 4.825.03 1.663.49 2.095 2.21 2.065 2.57-.045 2.68-1.31 1.036-11.92-1.188-7.674-2.76-10.67-5.582-10.64-1.066.012-2.484-.312-3.152-.72-.782-.476-2.22-.12-4.044 1-4.673 2.867-5.417 4.844-5.096 13.523.297 8.004 1.86 10.774 2.232 3.953.245-4.502 2.134-4.605 2.59-.14.166 1.636.48 3.46.695 4.055.423 1.162 2.176 1.477 2.206.396zm-52.258-8.44c.29.472.807 2.284 1.153 4.025.345 1.74 1.16 3.59 1.81 4.112.944.756 1.282.283 1.668-2.335.266-1.805.452-5.337.413-7.85-.068-4.438.916-6 2.036-3.227.304.752.6 4.153.66 7.56.066 3.768.414 5.863.89 5.352.43-.463.897-1.79 1.036-2.953.325-2.692 2.406-3.538 2.45-.996.045 2.606 1.645 5.208 3.184 5.18 2.207-.038.49-16.08-2.147-20.044-1.9-2.858-2.372-3.08-6.618-3.1-4.413-.025-8.75 1.518-9.95 3.538-.738 1.242-.176 18.2.644 19.426.34.507.982-1.435 1.43-4.315.45-2.88 1.052-4.848 1.34-4.374h.002zm-68.973 4.41c.22-5.55 2.103-5.857 2.602-.425.18 1.957.9 4.018 1.603 4.58 1.09.872 1.276.21 1.28-4.523.004-7.008.03-7.198 1.07-7.74.498-.26 1.004 1.292 1.2 3.677.318 3.907 2.014 6 1.95 2.41-.015-.93.32-1.91.742-2.184 1.04-.668 1.86 1.576 1.924 5.267.043 2.43.357 2.97 1.57 2.7 1.296-.29 1.472-1.225 1.205-6.394-.494-9.547-2.05-13.55-5.986-15.4-3.883-1.825-6.375-1.364-10.076 1.862-2.456 2.14-2.632 2.698-2.548 8.095.19 12.358-2.513 13.26-3.58 1.197-.465-5.234-1.23-8.758-2.22-10.213-1.42-2.086-1.857-2.193-7.2-1.76-7.876.64-9.325 2.554-9.97 13.16-.652 10.76-2.335 10.516-3.708-.54-1.18-9.495-2.795-12.408-7.52-13.56-2.43-.59-3.69-.344-6.71 1.318-2.046 1.125-4.274 3.168-4.953 4.54-1.673 3.377-2.414 15.94-.99 16.786 1.518.903 1.87.228 1.96-3.748.044-1.938.392-3.338.774-3.11.38.227.704.958.715 1.625.043 2.42 2.165 5.674 3.513 5.388 1.088-.23 1.34-1.55 1.254-6.537-.104-5.952 1.06-9.34 2.677-7.78.373.36.874 3.947 1.112 7.97.24 4.022.782 7.09 1.207 6.817.424-.273.75-1.82.72-3.44-.095-5.478 3.012-4.417 3.65 1.246l.34 3.037 4.786-.084 4.785-.083.352-4.793c.193-2.635.743-4.8 1.222-4.807.478-.01 1.103 2.134 1.388 4.762.752 6.93 2.25 5.858 2.306-1.65.045-6.056.445-7.953 1.467-6.966.248.24.615 3.306.817 6.817.228 3.986.76 6.506 1.414 6.712 1.053.33 1.346-1.536.963-6.125-.14-1.662.217-2.397 1.17-2.413.89-.016 1.384.755 1.41 2.194.02 1.22.637 3.33 1.37 4.686 1.173 2.174 1.77 2.443 5.043 2.262l3.712-.206.184-4.63zm61.065-1.185c-.12-6.918-1.79-13.745-3.848-15.73-2.257-2.18-7.65-2.006-12.058.39-1.912 1.038-3.518 2.24-3.57 2.672-.434 3.572-.04 13.827.594 15.536 1.15 3.096 2.378.657 2.303-4.58-.033-2.272.333-4.14.81-4.147.91-.016 1.242 1.54 1.105 5.202-.044 1.198.53 2.948 1.277 3.89 2.026 2.556 2.974.31 2.866-6.79-.087-5.786.915-7.76 2.007-3.95.307 1.07.6 4.002.65 6.514.107 5.345 1.363 6.195 1.47.995.04-1.946.322-3.798.627-4.114.852-.882 2.213 1.68 2.273 4.277.075 3.22.94 5.058 2.37 5.033.9-.015 1.19-1.353 1.122-5.198zm-37.583.396c.217-4.653 1.586-5.517 2.452-1.547 1.066 4.886 2.104 3.555 1.997-2.56-.11-6.34 1.094-8.926 2.21-4.746.357 1.33 1.437 3.452 2.403 4.718 1.01 1.325 1.573 3.05 1.325 4.07-.55 2.258 1.396 4.937 2.888 3.98 1.235-.795.71-7.91-1.176-15.955-.94-4.01-1.47-4.784-3.944-5.768-3.45-1.37-8.08-.287-10.473 2.452-1.29 1.478-1.59 3.477-1.637 10.957-.058 8.987-.025 9.144 1.852 8.844 1.617-.26 1.94-.942 2.104-4.443zm-125.28.597c.12-2.12-.084-6.31-.454-9.316-.906-7.354-3.146-9.926-8.665-9.95-3.333-.013-4.46.432-6.69 2.64-2.007 1.99-2.565 3.203-2.22 4.826.253 1.192.144 4.034-.244 6.315-.755 4.445.547 9.894 1.842 7.714.368-.62.49-1.98.272-3.024-.48-2.287.985-6.702 2.23-6.724.51-.01.93 2.24.982 5.268.08 4.565.3 5.24 1.61 4.96 1.602-.343 1.62-.44 1.66-9.65.02-4.584.313-5.88 1.332-5.897 1.007-.018 1.324 1.108 1.39 4.936.07 3.857.316 4.723 1.114 3.897 1.988-2.06 2.66-1.09 2.226 3.21-.296 2.94-.102 4.43.614 4.704 2.08.796 2.783-.122 3-3.907zm7.11.015c-.147-8.384 1.924-9.653 2.95-1.807 1.05 8.014 2.727 6.225 2.873-3.062.104-6.637.31-7.568 1.613-7.328 1.18.218 1.448 1.044 1.283 3.928-.115 2.01.208 4.34.717 5.182.837 1.38.926 1.34.92-.428-.005-1.077.375-1.965.845-1.973.47-.008 1.047.863 1.284 1.935 1.303 5.892 1.61 6.716 2.506 6.7.69-.012.795-2.632.356-8.926-.652-9.343-1.977-13.586-4.297-13.758-4.058-.3-7.564.68-10.97 3.067l-3.8 2.662.148 8.493c.15 8.618.417 9.65 2.488 9.613.81-.013 1.137-1.313 1.085-4.298zm23.313-.704c.245-5.226 1.53-5.356 2.39-.24.68 4.062 1.958 5.714 3.026 3.916.34-.572.615-3.808.61-7.19-.012-6.474.224-7.344 1.745-6.44.53.315.988 3.385 1.05 7.03.067 3.737.482 6.468.984 6.46.787-.014 1.214-2.406.876-4.903-.073-.533.447-1.467 1.155-2.076 1.47-1.263 1.934-.544 2.445 3.79.164 1.395.74 2.672 1.276 2.838 1.497.462 2.01-5.643 1.007-11.95-1.597-10.028-7.004-11.938-15.928-5.625-3.984 2.818-4.143 3.097-4.167 7.28-.014 2.395-.15 5.53-.3 6.97-.373 3.524.293 4.967 2.12 4.587 1.145-.24 1.567-1.33 1.712-4.446zm-51.36-6.267c.02-9.23-1.35-12.26-5.893-13.03-4.025-.683-9.02.918-11.543 3.698-3.512 3.87-3.79 19.745-.325 18.54.562-.195 1.123-1.888 1.245-3.76.237-3.623 1.48-5.922 2.782-5.148.434.258.712 1.913.618 3.678-.094 1.765.224 3.398.707 3.63.54.257.926-2.343 1.005-6.763.07-3.96.51-7.188.983-7.197 1.563-.027 2.673 4.446 2.177 8.765-.32 2.786-.17 4.254.437 4.243.51-.01 1.026-1.29 1.15-2.848.31-3.947 1.855-3.57 2.49.61 1.382 9.124 4.14 6.2 4.165-4.417zm15.904 9.34c-.004-.21-.403-.62-.887-.907-.483-.287-.872-.107-.863.4.01.506.408.914.886.905.48-.008.867-.187.863-.398zm-39.972-.66c.44-.007.738-3.44.663-7.625-.11-6.218-.483-8.164-2.034-10.625-1.045-1.657-2.345-3.293-2.89-3.635-2.133-1.342-7.656-.46-11.828 1.887l-4.303 2.422-.026 6.79c-.016 3.736-.048 7.478-.074 8.316-.03.967.59 1.513 1.694 1.493 1.425-.025 1.777-.7 1.943-3.732.274-5 2.686-5.277 2.773-.316.06 3.387 1.49 5.558 2.195 3.33.2-.63.49-4.012.64-7.513.15-3.5.515-6.613.81-6.917.89-.924 2.12.89 2.468 3.648.243 1.92.73 2.532 1.848 2.324 1.302-.242 1.53.444 1.607 4.83.095 5.434.6 6.6 2.52 5.824.658-.266 1.556-.49 1.995-.497zm-42.803-5.237c-.06-3.34.33-5.474 1.12-6.154 1.843-1.585 2.58.27 2.444 6.136-.07 2.95.246 5.065.754 5.056 1.325-.023 1.74-2.378 1.817-10.308.067-6.74.722-9.027 2.182-7.615.333.32.675 4.14.76 8.49.107 5.474.486 8.01 1.232 8.245.768.242 1.052-1.075.99-4.59-.112-6.477 1.952-6.234 2.446.287.236 3.116.77 4.695 1.7 5.033 2.153.784 2.856-1.47 2.743-8.79-.168-10.838-2.993-14.44-11.215-14.295-3.217.056-8.928 2.582-9.083 4.018-.055.51-.142 2.69-.193 4.846-.05 2.154-.38 5.777-.73 8.05-.454 2.944-.316 4.506.48 5.43 2 2.328 2.643 1.36 2.553-3.84zm35.45.362c-.373-1.444-.422-1.443-1.028.018-.35.844-.326 2.214.053 3.045.656 1.44.705 1.438 1.027-.018.186-.84.162-2.21-.053-3.045zM140.4 397.48c.804-5.622-.156-13.527-1.922-15.815-.687-.892-3.068-1.914-5.353-2.3-3.627-.612-4.558-.425-7.85 1.583-2.658 1.62-3.725 2.844-3.7 4.242.05 2.882 2.122 6.69 3.37 6.197.733-.29 1.098.528 1.133 2.534.057 3.28 1.453 7.402 2.5 7.384.37-.007.627-2.72.57-6.03-.102-5.77.488-8.01 1.78-6.76.334.322.69 3.024.79 6.006.265 7.884 1.817 9.503 2.243 2.34.253-4.26.66-5.67 1.64-5.686 1.008-.018 1.39 1.33 1.668 5.903.445 7.263 2.12 7.48 3.132.404zm530.028-10.774c1.127-2.09 1.816-4.025 1.533-4.3-.556-.535-8.318-.096-9.288.527-.88.565 3.825 8.238 4.834 7.88.48-.168 1.794-2.017 2.92-4.107zm-72.53-4.35c-.497-1.223-10.827-1.458-10.805-.244.008.474 1.054 2.176 2.325 3.783l2.31 2.92 3.286-2.735c1.807-1.505 3.106-3.18 2.885-3.723zm47.064 3.383c.772-1.224 1.16-2.602.866-3.062-.553-.86-7.4-1.09-7.386-.246.014.81 3.874 5.553 4.51 5.542.335-.006 1.24-1.01 2.01-2.235zm-22.18-3.05c-.02-1.19-5.913-1.384-6.607-.216-.272.458.178 1.82 1 3.025l1.49 2.192 2.068-2.01c1.136-1.106 2.06-2.452 2.05-2.99zm-73.26-.44c.156-.82-.37-1.358-1.33-1.368-.873-.01-3.448-.078-5.723-.153-2.273-.076-4.13.074-4.122.333.007.258 1.242 1.737 2.746 3.287l2.733 2.816 2.72-1.783c1.495-.98 2.835-2.39 2.976-3.134zm24.9-.126c-.608-.947-8.23-.915-8.214.034.006.372.623 1.518 1.37 2.546l1.358 1.87 2.993-1.838c1.646-1.01 2.768-2.186 2.494-2.612zm-76.973 3.594c.746-.736 2.32-2.12 3.5-3.078l2.146-1.74-4.857.057c-2.673.03-5.1.305-5.395.61-.593.614 1.808 5.515 2.694 5.5.305-.006 1.166-.612 1.91-1.35zm-69.28-2.18c1.58-2.506 1.135-2.96-2.523-2.58-1.433.15-3.095.31-3.692.36-1.48.123-1.334 1.92.343 4.226 1.625 2.236 3.628 1.55 5.872-2.007zm21.496 1.227c1.266-3.513.99-3.947-2.257-3.557-4.143.498-4.54 1.195-2.11 3.693 2.617 2.69 3.356 2.668 4.366-.135zm24.07-.08c2.834-2.757 2.468-3.373-1.96-3.295-4.042.07-4.562.703-2.952 3.59 1.204 2.158 2.468 2.082 4.912-.295zm48.718-.85c2.877-2.8 2.467-3.373-2.35-3.29l-4.304.076.956 2.595c1.13 3.07 2.974 3.27 5.698.62zm-142.076-.935c1.684-1.034 2.837-2.23 2.563-2.656-.274-.426-2.445-.742-4.824-.7-4.88.085-6.666 2.045-3.74 4.107 2.127 1.5 2.39 1.467 6.002-.75zm20.89.612c3.317-1.327 2.647-2.678-1.294-2.61-2.422.043-3.473.436-3.458 1.294.012.678.514 1.42 1.117 1.652.602.23 1.168.45 1.257.486.09.036 1.16-.334 2.38-.822zm-135.703-.263c1.78-1.468 3.576-2.674 3.99-2.682.412-.007.742-.404.734-.883-.01-.507-2.916-.82-6.976-.748-3.828.067-6.957.295-6.953.507.023 1.265 3.953 6.507 4.867 6.49.605-.01 2.557-1.218 4.338-2.685zm90.51-.73c2.268-2.598.633-3.663-3.382-2.204l-3.28 1.192 2.03 1.363c2.638 1.77 2.788 1.76 4.632-.35zm-68.82-1.187c.23-.63-.067-1.288-.66-1.46-2.353-.688-9.357-.927-9.346-.32.005.355 1.495 1.594 3.31 2.753 3.387 2.164 5.675 1.83 6.696-.973zm46.724.75l2.023-1.746-3.698.035c-2.516.024-3.692.407-3.678 1.196.05 2.77 2.468 3.004 5.352.515zm343.28-5.952c.57-.96.707-1.942.302-2.183-.985-.585-34.9-.794-74.954-.462-17.946.148-35.96.048-40.034-.224-15.747-1.05-40.297-1.31-90.956-.966-39.454.267-50.487.22-73.975-.318-3.352-.076-7.233.183-8.624.578-1.393.394-2.96.387-3.483-.015-.523-.403-14.07-.752-30.104-.778-16.034-.026-34.246-.147-40.47-.27-6.224-.12-23.457-.23-38.294-.24-14.84-.012-32.784-.075-39.878-.142-9.84-.092-12.812.128-12.528.927.204.577 2.1 1.113 4.215 1.192 9.704.363 24.113 1.442 26.347 1.973 1.508.357 3.263.14 4.517-.56 1.585-.884 2.905-.938 5.807-.238 2.067.498 9.634 1.026 16.815 1.174 26.597.547 32.574.647 48.748.818 9.095.095 26.132.227 37.86.293 11.727.066 25.437.255 30.465.42 16.745.554 29.6.553 88.763-.003 58.292-.548 76.816-.44 78.327.458.432.257 9.544.32 20.247.138 10.704-.18 20.52-.068 21.813.25 1.294.32 17.13.432 35.192.252 31.96-.32 32.867-.374 33.88-2.074zm-438.302 7.228c.548-.683 2.346-1.912 3.996-2.73 3.523-1.748 3.213-2.94-.762-2.934-1.557.002-5.11-.152-7.9-.342-3.704-.252-4.973-.066-4.717.694.193.57 1.187 1.4 2.21 1.84 1.022.442 2.283 1.692 2.8 2.78 1.07 2.24 2.902 2.53 4.373.692zm72.892-2.383c.204-.658-.653-.992-2.34-.915-2.62.12-3.25.72-2.015 1.913.93.898 3.985.197 4.355-.998zm-116.39.8c3.615-1.967 4.722-4.016 1.712-3.172-.952.267-1.957.134-2.232-.295-.57-.888-5.047-.986-5.876-.13-.456.474 2.016 5.5 2.7 5.49.12-.003 1.784-.855 3.695-1.894zm-24.833-.436c4.05-2.487 3.846-3.463-.705-3.384-4.696.082-6.37 1.525-4.314 3.72 1.776 1.893 1.338 1.923 5.02-.337zm48.806-.432c3.184-2.167 2.56-2.99-2.206-2.907-4.77.084-6.266 1.328-3.782 3.143 2.14 1.563 3.42 1.513 5.988-.235zm-98.14-.847c2.94-2.135 2.396-3.907-1.18-3.845-3.088.054-3.642.933-2.45 3.888.69 1.706 1.234 1.7 3.63-.042zm24.32-1.462c.212-.68-.488-1.08-1.856-1.055-2.278.04-3.54 1.12-2.492 2.134.932.9 3.97.146 4.35-1.08zm74.308-5.37c4.367-1.002 4.1-2.293-.474-2.29-2.035 0-7.225-.1-11.535-.223-4.31-.124-16.647-.265-27.417-.314-10.77-.048-24.09-.42-29.602-.824-5.51-.405-13.154-.844-16.985-.975-10.754-.368-20.563-1.06-21.892-1.543-1.668-.607-1.437 1.533.413 3.832 1.848 2.297 5.94 2.68 35.72 3.355 4.43.1 8.24.36 8.465.58.707.68 59.884-.812 63.31-1.597zm215.06-5.096c.28-.47-.49-2.945-1.714-5.5-1.538-3.212-3.193-5.193-5.37-6.427-2.01-1.138-3.16-2.44-3.18-3.595-.053-3.127-2.735-6.99-5.656-8.152-3.67-1.458-5.32-3.426-6.715-8.01-.834-2.738-1.88-4.13-3.88-5.152-3.712-1.903-6.764-5.082-7.466-7.78-.32-1.227-2.923-5.08-5.786-8.562-3.675-4.47-5.217-7.08-5.248-8.886-.055-3.15-1.247-5.397-5.028-9.48-1.697-1.833-3.192-4.55-3.558-6.465-.79-4.14-3.262-9.785-4.276-9.768-1.572.028-3.11-2.353-4.575-7.085-1.59-5.126-3.92-7.582-9.186-9.675-2.705-1.075-3.422-2.113-6.38-9.238-.548-1.32-2.384-3.187-4.08-4.148-3.278-1.858-5.258-5.162-6.237-10.403-.473-2.54-1.522-3.894-4.983-6.44-2.75-2.022-4.602-4.125-4.968-5.64-1.06-4.388-7.74-5.594-10.836-1.954-.93 1.093-3.27 3.877-5.198 6.187-2.08 2.493-4.604 4.503-6.206 4.945-2.2.608-3.014 1.57-4.4 5.206-2.2 5.77-3.22 6.964-7.067 8.29-5.586 1.925-6.025 2.39-10.578 11.2-1.255 2.428-3.777 5.757-5.604 7.398-1.844 1.656-4.266 5.165-5.442 7.886-1.898 4.39-5.922 8.727-8.132 8.765-1.246.02-4.127 3.7-5.25 6.704-.63 1.68-2.388 3.512-4.625 4.812-4.333 2.518-5.46 3.94-6.106 7.708-.598 3.485-4.602 8.387-8.09 9.903-1.828.795-3.16 2.457-4.585 5.72-2.07 4.733-4.88 7.443-11.677 11.26-2.72 1.53-5.016 3.93-7.692 8.047-4.945 7.613-5.65 8.292-12.073 11.625-4.07 2.112-5.855 3.652-7.223 6.232-1 1.885-2.645 4.318-3.657 5.408-3.09 3.324-2.338 3.914 4.936 3.87 3.71-.023 8.507.057 10.663.176 2.156.12 16.45.228 31.768.242 52.454.047 86.42.294 108.357.786 4.07.092 21.89.187 39.6.21 17.71.026 32.365.194 32.567.374.754.672 4.344.23 4.834-.596zm-238.734-3.482c1.758-1.208 4.344-4.055 5.747-6.328 3.196-5.177 5.64-7.568 10.423-10.192 2.612-1.433 5.01-3.928 7.824-8.133 5.184-7.75 7.712-10.304 12.874-13.004 3.352-1.753 4.71-3.2 6.907-7.356 1.954-3.694 4.01-6.066 7.195-8.297 3.492-2.446 4.972-4.265 6.827-8.386 1.663-3.696 3.354-5.928 5.68-7.496 1.822-1.23 4.286-3.977 5.475-6.108 1.31-2.344 3.45-4.57 5.424-5.64 3.126-1.69 7.42-8.366 7.367-11.448-.012-.65 1.522-2.52 3.408-4.16 3.988-3.466 4.142-4.298 1.28-6.894-1.162-1.054-2.633-3.658-3.27-5.786-1.234-4.132-2.91-5.51-6.62-5.444-3.247.056-7.183-2.902-7.907-5.942-.64-2.693-5.027-6.886-7.163-6.85-1.653.03-4.547-4.64-5.29-8.536-.902-4.72-2.65-6.477-6.28-6.31-3.525.16-6.295 2.413-9.607 7.813-2.327 3.793-8.188 10.158-9.373 10.178-.858.016-2.355 4.386-3.036 8.864-.372 2.434-1.75 4.372-5.987 8.42-4.456 4.26-5.705 6.07-6.56 9.512-1.03 4.15-4.12 8.052-12.46 15.738-1.49 1.372-2.7 3.046-2.688 3.72.012.673-.935 3.415-2.104 6.093-2.15 4.93-6.02 8.646-12.186 11.705-1.997.99-3.444 2.757-4.9 5.978-1.27 2.81-3.72 6.016-6.354 8.318-2.358 2.06-4.28 4.407-4.27 5.216.054 4.68-8.734 16.853-12.213 16.913-1.8.032-7.874 7.3-10.33 12.367-1.284 2.647-3.89 6.286-5.792 8.086-3.41 3.23-3.43 3.28-1.336 3.736 2.8.61 9.908 1.02 24.764 1.434 6.704.186 12.283.418 12.397.515.116.097 4.424.115 9.575.04 8.514-.127 9.655-.34 12.56-2.335zm378.904 1.454c-1.126-1.173-4.175-3.034-6.775-4.135-3.6-1.526-5.338-2.94-7.285-5.925-1.757-2.692-3.34-4.078-5.058-4.424-2.867-.577-6.974-4.857-7.017-7.312-.017-.966-1.46-2.572-3.443-3.836-2.755-1.755-3.726-3.127-5.027-7.104-1.8-5.5-3.64-8.04-5.332-7.357-.62.252-1.382.06-1.694-.425-.312-.485-1.158-.643-1.88-.352-1.963.793-5.386-2.804-6.113-6.424-.76-3.79-2.788-7.058-4.36-7.03-1.844.032-4.824-3.6-6.355-7.746-.946-2.565-2.926-5.16-5.878-7.705-3.39-2.924-4.66-4.716-5.33-7.516-1.157-4.835-3.257-7.063-7.184-7.62-4.16-.59-8.42-4.106-9.87-8.143-.632-1.758-3.022-5.16-5.312-7.56-2.29-2.402-4.177-5.15-4.194-6.108-.05-2.928-2.692-7.07-7.096-11.126-2.307-2.126-5.31-5.49-6.675-7.475-2.133-3.103-2.718-3.478-4.162-2.673-.924.516-2.37 2.628-3.213 4.694-.843 2.067-2.22 4.034-3.058 4.373-1.87.755-3.95-.885-2.393-1.886.57-.366 1.607-2.104 2.306-3.862 1.605-4.037 4.25-5.976 8.25-6.046 3.86-.068 6.578 2.476 7.5 7.02.522 2.582 1.288 3.522 3.842 4.72 3.61 1.69 7.182 7.032 7.27 10.872.044 1.834 1.13 3.436 4.14 6.103 3.097 2.747 4.354 4.638 5.224 7.865.855 3.174 1.74 4.527 3.5 5.354 2.236 1.05 2.552.904 6.323-2.946 2.367-2.416 5.307-4.438 7.283-5.007 3.798-1.093 4.437-3.462 1.29-4.778-1.086-.454-3.124-2.885-4.53-5.402-1.616-2.894-3.412-4.885-4.88-5.412-3.424-1.23-6.307-4.102-8.124-8.098-1.16-2.552-2.644-4.053-5.327-5.392-4.65-2.322-6.645-4.644-7.887-9.183-1.11-4.06-1.968-4.9-6.354-6.227-3.998-1.21-6.793-3.725-7.48-6.73-1.097-4.79-3.11-7.837-6.74-10.203-3.002-1.957-4.04-3.35-5.353-7.185-.896-2.617-2.308-5.138-3.14-5.602-3.34-1.867-7.418-5.792-7.442-7.163-.03-1.663-4.763-6.982-6.193-6.957-.52.01-2.116-1.138-3.544-2.548-1.865-1.844-2.776-3.768-3.24-6.842-.708-4.716-3.556-8.074-7.586-8.946-1.492-.323-2.65-1.405-3.317-3.1l-2.08-5.276c-.582-1.47-1.88-2.96-2.887-3.312-2.12-.743-5.724.707-5.696 2.29.01.595-2.028 2.492-4.53 4.216-3.994 2.753-4.674 3.672-5.598 7.557-1.19 5.01-3.44 8.43-6.02 9.152-2.256.63-2.216.15.24-2.874 1.104-1.36 2.243-4.13 2.53-6.153.732-5.146 1.544-6.382 5.51-8.383 1.91-.964 3.95-2.675 4.532-3.803 1.844-3.574 5.585-5.732 9.067-5.23 4.204.608 5.92 2.328 7.73 7.745 1.344 4.03 1.982 4.785 5.218 6.18 4.172 1.8 7.7 7.27 7.785 12.063.04 2.35.626 3.103 3.785 4.88 4.694 2.643 6.33 4.444 7.704 8.48.756 2.22 2.39 4.102 5.334 6.14 3.63 2.513 4.41 3.58 5.39 7.367.957 3.705 1.755 4.835 4.88 6.905 4.428 2.934 6.325 5.502 7.197 9.74.512 2.49 1.34 3.47 4.09 4.843 1.898.947 4.134 1.71 4.97 1.695 2.322-.04 4.728 3.25 5.88 8.04.973 4.05 1.342 4.47 5.86 6.7 5.523 2.723 7.034 4.337 7.09 7.572.04 2.305 3.24 6.02 5.157 5.987.564-.01 1.527.757 2.14 1.703.616.947 1.576 1.713 2.136 1.703.56-.01 1.89 1.705 2.955 3.81 1.065 2.107 2.6 3.963 3.413 4.127.812.164 3.15-.87 5.195-2.3 2.045-1.427 4.37-2.734 5.17-2.903.8-.17 1.647-.396 1.884-.504.238-.11 1.41-.257 2.605-.33 1.675-.102 2.584-1.027 3.962-4.033 2.216-4.832 5.08-7.37 7.65-6.772 1.492.347 2.397-.285 4.138-2.893 1.225-1.836 2.232-3.71 2.237-4.162.014-1.396 5.443-6.948 7.96-8.142 1.947-.924 2.812-.914 4.752.057 3.205 1.603 6.91 5.568 7.673 8.21 1.196 4.142 2.678 6.132 5.53 7.424 2.023.917 3.466 2.567 4.906 5.61 1.493 3.153 2.914 4.74 5.285 5.897 3.683 1.8 6.944 5.734 6.992 8.437.017 1.003.727 2.4 1.577 3.103.85.704 3.134 2.58 5.076 4.168 2.453 2.005 3.92 4.124 4.804 6.937.988 3.143 2.042 4.517 4.707 6.135 3.944 2.394 6.425 5.89 8.273 11.66.712 2.225 1.745 4.85 2.294 5.835.8 1.435.746 1.796-.273 1.814-1.85.032-4.797-3.946-5.968-8.06-.56-1.96-2.08-4.918-3.378-6.57-1.3-1.653-2.275-3.287-2.17-3.63.107-.344-.367-.398-1.053-.12-1.674.675-5.54-3.18-6.254-6.236-1.088-4.667-2.19-6.253-5.675-8.18-2.815-1.555-3.913-2.937-5.62-7.08-1.758-4.265-2.723-5.446-5.617-6.878-2.38-1.178-4.13-2.937-5.49-5.52-2.08-3.952-4.87-6.967-6.422-6.94-1.625.028-4.217-3.133-5.372-6.55-1.304-3.858-4.533-7.2-6.914-7.16-2.02.036-3.842 2.052-6.374 7.05-1.953 3.855-2.358 4.213-7.055 6.238-1.425.615-3.118 1.383-3.762 1.706-.644.324-1.712 2.353-2.374 4.51-1.326 4.316-4.098 7.36-6.057 6.646-2.727-.992-8.144 1.675-10.166 5.006-2.215 3.65-6.29 7-8.565 7.04-.826.013-2.807.863-4.4 1.887-3.37 2.164-3.782 5.04-.995 6.934 1.934 1.31 5.265 6.838 5.3 8.79.018 1.06 1.66 2.89 7.49 8.346 1.246 1.165 2.276 2.753 2.29 3.53.063 3.646 2.177 6.98 5.437 8.57 3.865 1.888 4.926 3.426 5.816 8.434.6 3.37 1.728 4.415 5.227 4.85 3.058.378 6.633 1.523 7.338 2.348.455.533 1.688 3.295 2.74 6.138 1.193 3.218 2.862 5.883 4.422 7.06 1.378 1.04 3.216 3.66 4.085 5.822.87 2.162 2.038 3.952 2.597 3.98 3.624.173 7.585 2.408 7.618 4.298.032 1.875 4.19 6.724 5.774 6.734 2.644.017 5.407 1.778 7.898 5.034 2.55 3.33 2.6 3.465 1.346 3.487-.5.01-1.832-.943-2.958-2.116z" fill="#FFF"/>
    </g>
</svg>
