<svg width="790" height="790" viewBox="0 0 790 790" xmlns="http://www.w3.org/2000/svg">
    <title>
        yogurt
    </title>
    <g fill="none" fill-rule="evenodd">
        <circle fill="#7B0303" cx="395" cy="395" r="395"/>
        <circle stroke="#FFF" stroke-width="23" cx="394.5" cy="394.5" r="355.5"/>
        <path d="M454.608 601.727c-.702-.692-7.995-.7-45.4-.05-24.192.42-47.817.316-67.022-.294-5.748-.182-19.264-.405-30.036-.495-23.532-.196-31.504-.607-32.625-1.685-.53-.51-.294-.82.64-.835.812-.014 1.47-.46 1.46-.99-.01-.576.6-.72 1.518-.36.843.33 13.53.49 28.192.357 14.663-.134 27.033-.022 27.49.25.456.27 23.316.317 50.8.102 27.484-.215 54.477-.28 59.985-.145 22.603.554 38.263.796 44.835.69l6.96-.11 1.427-3.994c.784-2.198 1.076-4.203.65-4.456-.427-.253-4.43-.38-8.898-.28-18.29.407-24.408.283-26.665-.542-1.322-.483-12.03-.856-24.134-.84-61.584.076-83.013-.1-97.93-.8-3.593-.17-12.602-.21-20.02-.09-7.418.122-14.864-.166-16.548-.638-5.04-1.415-26.9-1.96-28.83-.72-1.05.673-.905 3.915.323 7.247 1.208 3.278.753 4.057-1.56 2.668-1.098-.66-2.108-2.868-2.88-6.296-1.135-5.053-1.105-5.346.698-6.86 1.036-.87 2.345-1.588 2.908-1.598 1.508-.026 6.463-2.83 10.775-6.095 4.13-3.13 9.62-13.104 12.837-23.32 3.958-12.575 10.987-22.518 18.163-25.695 1.9-.84 4.128-1.9 4.95-2.353.825-.453 4.146-.892 7.382-.976 7.246-.188 12.665-1.194 12.575-2.333-.037-.47-2.764-1.794-6.06-2.94-5.283-1.837-9.38-3.83-21.355-10.382-6.46-3.535-14.665-7.798-18.884-9.81-2.413-1.153-4.788-2.552-5.276-3.11-.49-.558-2.566-1.422-4.616-1.92-3.3-.8-9.52-3.718-10.737-5.035-.245-.264-3.407-1.94-7.03-3.727-3.62-1.785-6.906-3.778-7.3-4.428-.394-.65-1.224-1.173-1.844-1.162-.62.01-1.85-.75-2.732-1.693-.883-.942-2.07-1.705-2.64-1.695-.57.01-1.796-.797-2.726-1.793-.93-.996-2.478-2.143-3.443-2.55-2.393-1.006-4.825-2.55-6.993-4.44-.998-.87-4.83-3.812-8.516-6.536-3.686-2.723-7.857-6.134-9.27-7.58-1.41-1.444-3.015-2.618-3.564-2.608-.548.01-1.233-.566-1.52-1.28-.288-.712-1.043-1.287-1.677-1.276-.635.01-3.523-2.078-6.42-4.642l-7.71-6.83c-1.346-1.19-2.832-2.157-3.302-2.15-.47.01-.865-.572-.878-1.29-.012-.717-.487-1.296-1.054-1.287-.567.01-3.467-2.404-6.444-5.365-2.977-2.96-6.882-6.465-8.678-7.785-1.795-1.32-3.274-2.943-3.286-3.604-.01-.66-.41-1.195-.885-1.186-1.214.02-12.297-10.903-17.318-17.07-3.368-4.135-4.815-5.243-7.352-5.63-1.737-.267-4.164-.88-5.394-1.367-2.93-1.157-6.73-6.325-7.54-10.255-1.212-5.898-9.195-11.744-14.188-10.39-1.322.357-2.505-1.038-6.038-7.124-2.416-4.162-5.257-8.727-6.312-10.145-2.115-2.84-8.584-15.365-8.607-16.662-.01-.45-.57-1.26-1.248-1.804-2.02-1.62-.742-4.194 2.4-4.84 1.56-.322 3.425-.37 4.14-.11.816.296 2.337-.783 4.065-2.883 4.224-5.13 16.562-16.176 18.125-16.225.763-.024 2.082-.84 2.932-1.81.85-.973 2.225-1.78 3.056-1.795.832-.015 1.72-.596 1.973-1.292.253-.696 1.945-1.547 3.76-1.89 1.814-.345 6.355-2.227 10.09-4.184 3.737-1.955 9.374-4.386 12.527-5.4 3.153-1.014 6.9-2.28 8.327-2.814 1.427-.534 3.765-1.19 5.197-1.46 1.43-.27 2.99-.797 3.46-1.172 3.572-2.83 32.897-6.222 34.398-3.977.682 1.018.92 1.016 1.556-.012.872-1.406 9.705-1.007 21.377.967 7.648 1.294 7.462 1.34 15.75-4.053 5.205-3.39 7.492-7.628 7.452-13.815-.025-3.84-.29-4.417-2.665-5.765-3.22-1.83-8.248-1.938-12.073-.26-3.313 1.452-7.42 5.434-7.39 7.163.075 4.32-9.243-.8-10.914-5.996-2.84-8.83 1.328-17.548 10.863-22.713 3.62-1.96 5.428-2.344 11.504-2.438 8.635-.133 12.838.488 14.225 2.1.565.66 1.58 1.188 2.257 1.176 1.502-.026 5.742 2.494 6.72 3.996.88 1.345 3.626 1.37 5.988.052.97-.54 4.492-1.08 7.83-1.195 5.647-.197 6.187-.388 7.82-2.767.963-1.405 3.344-3.312 5.29-4.237 3.63-1.725 12.19-2.47 13.048-1.134.523.814 8.42 3.098 9.506 2.75.37-.12 2.34.505 4.375 1.386 6.333 2.742 14.25 2.494 17.75-.556 2.377-2.072 4.487-7.896 4.412-12.177-.122-7.008-11.37-10.292-20.39-5.954-5.41 2.6-7.168 2.2-8.13-1.862-1.77-7.49.685-14.59 7.26-20.98 7.77-7.557 11.363-8.653 23.387-7.136 9.807 1.237 20.05 10.015 20.177 17.29.078 4.384.594 4.8 3.804 3.07 6.344-3.423 17.306-3.232 24.695.43 6.696 3.317 13.075 10.94 14.525 17.356.917 4.06 1.386 4.775 3.404 5.178 4.01.8 11.84 3.865 14.923 5.84 3.848 2.466 9.157 9.334 10.76 13.92.698 2 1.502 3.678 1.785 3.73.283.055 2.28.202 4.436.328 18.896 1.105 29.263 5.138 39.434 15.342 4.08 4.093 5.11 5.66 7.56 11.505 1.336 3.184 1.543 3.313 4.22 2.63 4.084-1.04 31.34-1.813 38.493-1.09 17.63 1.78 25.558 3.145 27.937 4.808.485.34 3.242 1.24 6.127 2 2.886.76 8.01 2.605 11.387 4.1 3.378 1.494 7.52 3.22 9.206 3.833 5.1 1.857 14.057 6.648 21.965 11.75 4.116 2.654 9.66 6.1 12.32 7.66 8.132 4.763 17.69 11.938 18.687 14.03 1.188 2.49 3.105 2.914 15.766 3.484 5.622.253 10.67.892 11.216 1.42 1.18 1.14-4.24 12.927-14.44 31.405-2.734 4.953-3.155 5.315-7.21 6.218-2.914.65-5.27 1.913-7.3 3.917-1.646 1.627-5.01 3.973-7.475 5.214-2.465 1.24-5.045 3.15-5.733 4.24-.69 1.093-2.448 2.507-3.91 3.142-1.463.636-2.65 1.655-2.64 2.265.02 1.196-8.797 10.37-10.513 10.94-.573.19-2.058 1.324-3.3 2.522-1.245 1.2-3.997 3.45-6.118 5.003-3.88 2.843-11.974 9.362-14.36 11.568-2.268 2.097-12.856 9.506-13.604 9.52-.397.006-1.625 1.007-2.728 2.223-1.103 1.215-2.732 2.222-3.62 2.238-.89.015-1.825.6-2.08 1.3-.48 1.32-19.347 15.61-20.645 15.636-.405.007-2.086 1.21-3.736 2.674-1.65 1.462-3.34 2.666-3.753 2.674-.413.008-2.977 2.013-5.698 4.454-2.72 2.44-5.19 4.442-5.49 4.447-.3.005-2.766 1.557-5.48 3.45-4.48 3.12-8.79 5.575-18.734 10.665-1.898.972-4.916 2.636-6.707 3.698-1.792 1.063-4.127 1.948-5.19 1.968-1.06.02-4.162 1.435-6.89 3.146a325.26 325.26 0 0 1-10.337 6.155 1026.866 1026.866 0 0 0-9.685 5.56c-2.37 1.383-5.472 3.17-6.894 3.968a76.333 76.333 0 0 0-4.934 3.072c-1.29.892-4.4 2.322-6.907 3.18-4.87 1.665-11.023 5.22-11.003 6.36.017 1.016 2.386 1.707 5.65 1.65 1.578-.027 3.366.53 3.974 1.236.608.71 1.857 1.274 2.774 1.258 2.885-.05 8.31 3.138 11.54 6.78 1.923 2.168 3.9 5.874 5.188 9.73 2.598 7.77 7.648 19.622 9.928 23.298.95 1.53 2.39 3.943 3.202 5.365 2.208 3.864 15.182 14.96 18.115 15.493 4.256.774 4.643 2.074 2.285 7.668-1.165 2.765-2.11 5.522-2.1 6.13.012.607-.66 1.38-1.492 1.72-2.312.94-48.377 2.473-49.225 1.637zm41.783-16.615c-.02-1.236-4.966-6.02-6.935-6.71-.984-.346-6.41-.285-12.056.134-11.6.86-74.813 1.437-76.065.693-.824-.49-19.585-.777-38.593-.59-5.71.057-10.792-.143-11.296-.442-.505-.3-4.256-.392-8.336-.204-4.08.188-9.45-.017-11.93-.456-2.48-.44-10.12-.947-16.977-1.13-6.856-.182-13.138-.676-13.96-1.098-2.435-1.25-6.832-.854-6.807.612.013.707-.965 1.957-2.172 2.778-1.207.822-1.86 1.816-1.453 2.21.41.393 3.932.82 7.83.947 3.9.128 7.427.433 7.84.678 1.175.7 20.613.718 21.662.02 1.065-.706 17.49-.595 19.505.133.722.26 8.17.56 16.548.665 8.38.104 18.958.32 23.508.48 11.816.413 37.416-.07 46.263-.874 4.144-.378 8.256-.407 9.137-.067.882.34 4.738.705 8.57.81 3.83.105 8.645.396 10.696.648 2.05.253 7.627.39 12.39.308 4.765-.083 8.895.21 9.18.653.66 1.03 13.47.84 13.45-.198zm-34.98-9.507c3.112-.046 7.373-.538 9.47-1.094l3.812-1.01-4.725-1.438c-2.6-.79-7.43-2.925-10.735-4.743-3.305-1.82-6.375-3.3-6.822-3.292-.447.008-1.26 1.1-1.81 2.425-.55 1.326-1.93 3.718-3.07 5.316-1.226 1.72-1.744 3.214-1.27 3.665.89.846 8.395 1.434 9.068.71.235-.25 2.972-.495 6.083-.54zm-20.285-.385c.233-.24-1.017-2.26-2.778-4.484-1.76-2.225-3.21-4.442-3.218-4.925-.01-.483-.772-.17-1.696.695-2.017 1.89-5.305 8.244-4.73 9.14.44.686 11.72.3 12.42-.425zm-33.12-.462c.13-.45-1.144-1.775-2.827-2.942-1.683-1.168-3.317-3.017-3.63-4.11-.71-2.468-1.007-2.333-5.006 2.293-3.59 4.152-3.7 4.02 4.37 5.15 5.886.825 6.764.777 7.094-.392zm18.588.672c-.01-.58-9.074-9.13-9.363-8.832-.143.15-1.258 1.797-2.477 3.662-3.24 4.957-2.464 5.783 5.294 5.648 3.604-.063 6.55-.278 6.546-.478zm-54.856-1.378c-.01-.47-.813-1.682-1.788-2.692-.976-1.01-1.783-2.35-1.794-2.98-.036-2.042-2.468-1.16-4.346 1.577-2.465 3.594-1.668 5.056 2.896 5.313 4.19.235 5.052.026 5.03-1.218zm-17.765.398c2.115-.037 3.837-.47 3.83-.963-.018-.982-9.366-11.89-10.435-12.175-.364-.097-1.417 1.425-2.34 3.383-.923 1.958-2.566 4.817-3.65 6.353-1.47 2.083-1.677 2.89-.815 3.17 1.753.574 7.108.962 8.412.61.635-.17 2.884-.34 4.998-.378zm34.628-.472c.757-.145-6.552-6.98-7.448-6.965-.937.016-3.265 6.523-2.497 6.98.685.406 7.807.396 9.945-.015zm-56.895.382c-.004-.263-.618-1.608-1.362-2.988-.745-1.38-1.443-4.073-1.552-5.982-.107-1.91-.444-3.858-.748-4.33-.326-.51-3.82.827-8.534 3.264-4.843 2.503-9.592 4.306-12.08 4.588-4.658.526-8.857 2.005-8.837 3.112.02 1.16 2.976 1.484 16.054 1.76 6.66.143 12.313.453 12.56.692.607.586 4.512.486 4.5-.116zm114.293-7.032c1.18-2.098 2.13-4.692 2.112-5.765-.035-2.043-5.928-11.282-7.182-11.26-.743.013-3.31 8.45-3.27 10.747.026 1.545 2.572 7.546 3.836 9.044 1.465 1.736 2.237 1.262 4.504-2.766zm34.585.995c-.634-3.495-4.074-7.314-6.556-7.277-6.06.09-18.214-6.972-18.278-10.623-.012-.64-.63-1.49-1.375-1.89-2.05-1.1-4.123-9.42-3.983-15.992.202-9.452-3.46-10.33-5.457-1.31-1.137 5.132-.527 11.42 1.74 17.938 2.535 7.29 12.488 14.87 25.415 19.362 6.52 2.264 8.93 2.206 8.493-.207zm-140.083-1.2c2.056-3.124 4.245-11.58 4.032-15.573-.052-.956-.455-4.248-.897-7.314l-.803-5.576-2.943 4.77c-1.62 2.624-3.21 5.42-3.53 6.216-.323.794-1.008 1.714-1.52 2.044-3.386 2.175-4.012 14.07-.975 18.53 1.69 2.486 3.52 1.63 6.635-3.098zm71.176.01c2.046-4.726 2.018-5.95-.232-10.09-1.56-2.872-2.42-6.394-2.724-11.183-.148-2.33-1.807-.907-1.764 1.515.024 1.414-.824 5.1-1.885 8.19-1.73 5.04-1.813 6.043-.81 9.726 1.828 6.705 4.972 7.486 7.416 1.843zm-34.88.173c.466-1.803.837-4.027.824-4.942-.04-2.734-3.064-10.96-3.918-10.657-1.105.39-3.08 6.705-3.043 9.73.016 1.38.51 4.016 1.096 5.856 1.436 4.503 3.875 4.51 5.04.013zm16.798 1.013c1.097-1.098 2.452-2.982 3.012-4.188.56-1.207 1.346-2.787 1.747-3.512 2.154-3.89 3.422-6.98 4.286-10.447 1.13-4.536 1.61-19.89.64-20.466-1.556-.925-19.193-.448-20.354.55-.663.57-1.677 2.714-2.254 4.766-.578 2.05-1.405 4.763-1.84 6.027-1.338 3.896 1.705 15.843 5.6 21.99 2.486 3.92 5.5 7.3 6.494 7.284.37-.007 1.57-.91 2.668-2.005zm-5.488-10.216c-2.935-2.64-3.612-5.08-3.255-11.73.223-4.143.94-7.078 2.336-9.563 2.89-5.143 4.257-6.135 6.88-4.995 6.32 2.748 6.762 19.338.694 26.027-2.26 2.492-4.095 2.564-6.654.262zm5.305-6.32c1.503-4.46 2.314-14.604 1.29-16.153-1.324-2.006-3.2-.165-5.18 5.086-1.89 5.014-1.93 7.742-.185 13.316.833 2.664 2.784 1.59 4.076-2.247zm36.76 9.37c2.015-4.225 4.25-8.866 4.965-10.315 2.752-5.57 2.818-24.058.096-26.882-.655-.68-8.355.786-17.5 3.333-3.393.946-3.37.903-5.634 10.688-.76 3.287.06 10.597 1.784 15.916 1.61 4.963 9.452 14.994 11.694 14.954.513-.01 2.582-3.472 4.597-7.695zm-9-4.196c-4.665-4.357-5.594-8.326-3.86-16.49.92-4.337 5.193-10.87 7.77-11.88 3.36-1.316 6.47 3.16 7.503 10.797.814 6.02-1.873 15.41-5.182 18.107-2.83 2.307-3.225 2.273-6.23-.534zm4.47-3.995c2.765-6.514 3.846-17.833 1.975-20.68-.457-.696-.972-1.08-1.143-.85-6.118 8.157-6.598 9.355-6.234 15.556.5 8.505 3.103 11.385 5.4 5.973zm-62.687 10.135c1-1.758 2.768-4.68 3.93-6.495 3.06-4.775 5.176-13.946 5.038-21.83-.147-8.466-1.043-9.485-9.55-10.853-6.518-1.047-9.797-.6-9.763 1.33.01.627-.492 1.58-1.118 2.12-.627.537-1.81 3.89-2.632 7.45-1.296 5.623-1.347 7.385-.387 13.41 1.313 8.24 3.17 12.496 7.34 16.81 3.457 3.578 4.106 3.402 7.143-1.942zm-7.81-4.802c-3.543-2.39-5.06-11.952-3.124-19.678.857-3.425 5.92-9.496 7.946-9.53 1.498-.028 3.688 2.43 4.582 5.14 1.177 3.568.726 14.57-.757 18.473-1.506 3.967-3.854 6.85-5.603 6.88-.61.01-1.98-.567-3.044-1.284zm4.36-4.614c1.954-3.998 2.87-10.845 2.165-16.165-.366-2.76-1.058-5.055-1.538-5.097-.48-.043-1.757 1.84-2.84 4.185-2.232 4.84-2.677 14.29-.826 17.566 1.394 2.47 1.61 2.435 3.04-.488zm-50.144 11.973c.286-.484 1.244-.892 2.127-.908 2.097-.036 11.86-5.777 14.983-8.81 3.434-3.335 8.826-11.74 11.3-17.613 1.15-2.733 2.62-6.213 3.265-7.733 1.712-4.033 1.462-5.55-.907-5.51-1.718.03-2.618 1.353-5.844 8.59-2.097 4.703-4.99 10.216-6.43 12.25-3.3 4.662-11.96 10.688-17.586 12.233-3.496.96-4.597 1.748-5.84 4.18-.84 1.65-1.54 3.293-1.554 3.653-.038.983 5.883.68 6.485-.33zm164.767-9.523c-.014-.783-1.7-6.442-3.745-12.575l-3.72-11.15-4.65-2.974c-8.384-5.357-10.28-1.202-5.936 13.007 1.395 4.56 6.077 11.402 8.324 12.162 9.87 3.34 9.758 3.322 9.727 1.53zm-159.77-4.403c2.38-1.422 5.946-4.26 7.924-6.308 3.705-3.836 9.533-14.765 9.48-17.777-.026-1.515-.426-1.626-3.683-1.017-5.89 1.1-9.748 3.906-13.448 9.778-3.09 4.903-6.785 14.342-6.776 17.308.004 1.252 2.21.58 6.504-1.985zm95.453-19.898c.538-3.783.434-3.96-1.802-3.056-1.417.573-1.8 4.99-.676 7.776.5 1.236.696 1.264 1.277.183.376-.703.917-2.91 1.2-4.903zm-31.417-1.347c1.144-1.31 1.3-2.042.58-2.737-1.53-1.48-3.694-.088-3.652 2.35.048 2.66.984 2.778 3.073.387zm63.048-3.69c.31-2.65-.13-3.48-1.83-3.45-1.94.033-2.22 1.808-.71 4.514 1.004 1.8 2.268 1.27 2.54-1.066zm-35.224-3.988c1.115-1.224 4.826-12.342 6.93-20.76.78-3.125 2.574-10.206 3.984-15.736 2.243-8.794 5.683-27.71 5.627-30.936-.015-.863-1.514-1.005-6.32-.6-3.466.293-6.577.79-6.914 1.106-.337.316-.91 6.252-1.275 13.193-.474 9.02-1.385 15.608-3.194 23.107-1.393 5.768-2.797 11.864-3.12 13.545-.325 1.68-1.593 5.337-2.82 8.125-1.226 2.79-2.225 5.32-2.22 5.628.006.307-.603 1.26-1.353 2.12-2.303 2.636-.603 3.674 4.824 2.94 2.682-.362 5.315-1.14 5.852-1.73zm-17.086.58c-.008-.46-.858-2.872-1.89-5.358-1.03-2.488-2.273-6.887-2.763-9.777a4863.628 4863.628 0 0 1-4.933-29.856c-.565-3.507-.97-9.71-.9-13.786.11-6.456-.09-7.56-1.55-8.592-2.3-1.62-9.184-1.468-9.155.203.066 3.836 4.186 31.446 5.437 36.44.81 3.235 1.4 6.53 1.314 7.32-.326 2.95 3.042 20.937 4.198 22.418.703.9 2.223 1.197 8.73 1.708.84.066 1.52-.258 1.512-.718zm28.692-1.677c.713-.31 2.066-.492 3.008-.404 1.4.132 1.81-.552 2.248-3.765.465-3.407 6.272-21.584 9.367-29.32.578-1.446 1.686-4.795 2.46-7.44.776-2.647 1.796-5.994 2.267-7.44.47-1.443 1.34-4.787 1.933-7.43a2515.56 2515.56 0 0 1 1.958-8.67c1.293-5.658.28-6.273-7.774-4.72-3.505.677-6.707 1.578-7.118 2.004-.41.425-.89 2.923-1.063 5.55-.885 13.344-2.51 24.932-3.853 27.47-.51.967-1.36 3.92-1.888 6.562-.528 2.642-1.32 6.572-1.762 8.734-.442 2.162-1.987 7-3.433 10.754-1.446 3.753-2.394 7.406-2.106 8.12.507 1.256 2.862 1.255 5.752-.004zm-43.932-2.658c-3.132-10.08-6.046-28.738-7.558-48.39-.707-9.19-1.578-15.615-2.2-16.23-.566-.56-3.185-1.15-5.82-1.31-2.637-.16-5.383-.43-6.104-.598-2.243-.524-1.43 7.24 3.147 30.08 3.54 17.667 5.69 29.478 5.76 31.666.106 3.336 1.056 4.17 6.225 5.462 6.722 1.682 7.266 1.625 6.55-.68zm20.855-3.686c.542-2.132 1.605-6.237 2.363-9.122a326.708 326.708 0 0 0 2.533-10.49c.636-2.882 1.516-6.814 1.956-8.736.44-1.923.97-5.653 1.176-8.29.207-2.636.7-7.666 1.093-11.178.393-3.513.695-7.56.67-8.995l-.046-2.61-5 .22c-2.752.122-5.395.153-5.875.07-.48-.085-1.773-.064-2.874.047-1.1.11-2.55-.24-3.22-.78-.9-.72-1.69-.715-3.003.018-1.636.912-1.737 1.577-1.236 8.132.3 3.927.83 11.247 1.174 16.267.345 5.02 1.21 11.467 1.925 14.327.713 2.86 1.81 8.128 2.44 11.707 1.567 8.92 3.08 13.943 4.092 13.586.467-.164 1.292-2.043 1.833-4.174zm38.416 1.896c2.753-1.062 5.48-2.392 6.063-2.955 1.58-1.528 10.924-29.555 13.456-40.366a322.568 322.568 0 0 0 2.045-9.61c.563-2.88 1.664-7.52 2.447-10.31 1.736-6.183 1.08-7.163-4.14-6.187-4.054.758-7.424 3.63-7.982 6.8-1.802 10.238-2.416 13.314-3.72 18.636l-2.463 10.05c-.53 2.164-1.296 4.62-1.703 5.46-.408.837-.735 1.936-.726 2.44.01.506-1.114 3.452-2.497 6.548-1.38 3.096-2.504 6.07-2.494 6.607.01.537-1.11 3.674-2.49 6.97-3.724 8.904-3.683 8.96 4.205 5.917zm-75.064-2.286c-.364-1.07-.895-3.312-1.18-4.98-.284-1.67-1.017-3.81-1.63-4.76-.61-.948-1.41-4.828-1.773-8.623-.364-3.794-1.27-10.045-2.013-13.89-.743-3.846-2.134-12.387-3.09-18.98l-1.74-11.99-2.708-1.076c-1.49-.592-4.76-1.237-7.272-1.434-5.3-.417-5.283-.462-3.195 8.23.723 3.008 1.85 9.377 2.505 14.153.654 4.775 1.56 9.576 2.013 10.668.453 1.09.837 2.773.854 3.738.017.964.648 3.578 1.403 5.81.755 2.23 2.007 7.906 2.782 12.612.774 4.706 1.654 8.803 1.955 9.105.84.84 9.367 3.258 11.69 3.313 1.754.042 1.962-.24 1.4-1.897zm94.055-5.548c2.94-1.373 5.72-3.287 6.178-4.253 1.236-2.6 9.17-29.563 9.145-31.073-.013-.713 1.047-4.9 2.356-9.306 1.307-4.405 2.605-10.105 2.884-12.667.28-2.563.89-5.974 1.36-7.582.51-1.75.53-3.235.05-3.7-.81-.783-9.323 2.435-11.17 4.224-.52.505-1.193 3.208-1.493 6.006-.3 2.798-1.092 6.714-1.76 8.702-.67 1.99-1.702 5.778-2.294 8.42-2.487 11.105-4.722 18.96-6.22 21.855-.878 1.698-2.206 5.448-2.95 8.334-.745 2.884-1.826 6.232-2.403 7.44-.576 1.205-1.304 3.08-1.617 4.16-.786 2.715 1.23 2.572 7.935-.562zm-111.93-.722c-.508-.91-2.42-8.562-4.252-17-1.83-8.44-3.53-15.662-3.78-16.05-.25-.386-.714-3.193-1.035-6.236-.32-3.043-1.086-9.35-1.703-14.018-1.023-7.743-1.296-8.526-3.13-8.952-1.103-.257-2.452-.985-2.996-1.618-.545-.633-1.527-.934-2.183-.67-.655.266-2.09-.124-3.19-.865-1.1-.742-2.357-1.343-2.794-1.335-1.486.026.146 10.468 5.087 32.55 1.067 4.768 2.685 12.77 3.596 17.78.91 5.01 2.137 10.036 2.724 11.17 1.155 2.227 13.883 9.082 14.32 7.713.144-.446-.155-1.557-.663-2.47zm129.632-8.986c7.687-3.86 9.593-5.342 10.318-8.024 2.48-9.172 4.063-15.544 5.09-20.5.65-3.123 2.274-9.418 3.613-13.99 1.34-4.57 2.847-10.977 3.35-14.237.824-5.326.757-6.1-.654-7.605-1.86-1.984-5.876-2.137-7.363-.28-.58.723-1.324 1.153-1.655.957-1.3-.773-2.896 1.258-3.517 4.477-.36 1.858-1.228 6.132-1.93 9.495a484.98 484.98 0 0 0-2.14 10.917c-.474 2.64-1.188 5.787-1.586 6.99-.4 1.204-1.467 5.727-2.375 10.05-.908 4.325-2.44 10.227-3.406 13.116-1.863 5.576-3.148 10.934-2.62 10.925.174-.003 2.367-1.035 4.872-2.293zm-149.354-2.366c-2.783-19.18-3.923-26.138-5.016-30.592-.7-2.86-1.596-8.328-1.99-12.15-1.334-13-1.498-13.424-6.37-16.563-2.416-1.557-4.788-3.12-5.273-3.476-.486-.355-1.96-1.1-3.277-1.66-2.055-.87-2.493-.798-3.084.496-.987 2.158-.327 9.55 1.878 21.048 1.052 5.486 2.59 13.684 3.42 18.218 4.092 22.38 3.264 19.94 7.606 22.398 2.144 1.213 4.347 2.597 4.896 3.075 1.347 1.17 5.11 2.81 6.564 2.856.886.03 1.046-.88.644-3.652zm169.435-8.73a166.41 166.41 0 0 0 8.384-3.657c4.4-2.1 5.03-3.403 6.53-13.573.36-2.457.874-5.06 1.14-5.782.264-.722 1.182-5.575 2.04-10.783 1.75-10.615 1.45-11.954-3.015-13.524-1.584-.557-3.566-1.36-4.405-1.783-3.098-1.567-4.016-.835-4.836 3.856-2.395 13.716-5.237 25.592-9.82 41.03-.812 2.74-1.257 5.197-.987 5.457.608.588-.045.75 4.97-1.243zm-190.675-2.213c-.324-2.507-1.416-9.44-2.427-15.406-1.01-5.966-2.382-15.342-3.047-20.836-.664-5.493-1.573-10.667-2.02-11.498-.763-1.42-1.03-1.395-4.446.41-9.074 4.79-9.32 5.36-6.927 16.11.743 3.337 1.56 7.322 1.813 8.855.255 1.532 1.09 4.65 1.855 6.93.765 2.28 1.684 6.384 2.04 9.12.703 5.37 2 6.827 8.457 9.505 5.068 2.102 5.36 1.903 4.703-3.19zm-17.66-7.976c-.277-1.78-1.312-6.427-2.3-10.325-.986-3.898-1.84-9.17-1.894-11.717-.093-4.222-1.283-10.803-2.096-11.588-.602-.58-9.768 2.542-10.994 3.746-1.032 1.014-.976 1.895.398 6.21.88 2.764 2.255 8.344 3.054 12.4.8 4.054 1.76 7.908 2.135 8.563.82 1.43 10.776 6.85 11.614 6.322.324-.204.362-1.83.084-3.61zm231.608-2.05c1.894-1.204 4.254-2.575 5.244-3.047 1.82-.87 4.23-7.346 5.413-14.564.315-1.92.83-4.97 1.142-6.776.493-2.842.264-3.56-1.703-5.32-1.25-1.118-2.5-1.8-2.777-1.512-.277.287-2.06.457-3.964.378-1.902-.08-3.462-.03-3.466.11-.023.803-3.258 19.225-3.954 22.515-2.423 11.45-2.087 12.128 4.066 8.216zm-247.434-5.056c-.26-1.072-1.023-3.702-1.7-5.845-.675-2.142-1.768-6.764-2.428-10.27-.66-3.508-1.674-6.55-2.256-6.762-.58-.21-3.348-.025-6.148.414-4.65.728-5.11.998-5.317 3.108-.38 3.878 2.394 12.296 4.608 13.98 4.304 3.273 12.492 8.108 13.087 7.726.343-.22.413-1.278.155-2.35zm267.695-7.994c6.312-4.404 6.956-5.34 7.04-10.25.07-4.056-.005-4.18-2.542-4.314-1.438-.075-3.934-.376-5.548-.67-3.42-.62-4.43.46-4.378 4.668.018 1.524-.288 3.684-.682 4.8-.394 1.114-.957 3.888-1.25 6.163-.634 4.908-.21 4.885 7.36-.396zm14.132-10.26c2.525-2.424 1.987-4.323-1.046-3.693-1.1.23-1.68 1.23-1.833 3.16-.122 1.555-.06 2.823.14 2.82.2-.004 1.433-1.032 2.74-2.286zm-302.383 3.107c-.093-5.325-1.31-6.882-5.32-6.812-4.16.073-4.885 1.093-2.98 4.195 1.346 2.19 6.167 6.012 7.708 6.113.36.024.626-1.55.592-3.495zm161.823-3.676c2.625-.476 7.12-1.063 9.987-1.304 10.335-.87 16.546-1.726 18.668-2.57 3.985-1.588 11.932-3.758 13.993-3.822 1.122-.034 2.79-.65 3.707-1.37.917-.72 2.39-1.32 3.272-1.335.882-.015 2.462-.58 3.51-1.255 1.05-.676 3.854-1.867 6.234-2.648 11.568-3.796 16.6-5.663 18.294-6.79 1.66-1.105 2.572-.915 8.735 1.822 9.756 4.33 9.32 4.17 20.94 7.756 7.784 2.402 13.17 3.463 20.525 4.04 17.193 1.353 21.706 1.143 25.385-1.18 1.774-1.122 3.032-2.343 2.794-2.713-.733-1.14-4.665-1.474-8.444-.714-3.83.77-24.567-1.25-31.387-3.056-2.08-.55-4.176-1.09-4.656-1.2-.48-.11-2.598-.79-4.705-1.512-2.108-.723-4.57-1.3-5.475-1.285-2.226.038-18.082-7.346-18.536-8.633-.356-1.012-1.646-.574-5.827 1.978-5.165 3.15-12.634 6.518-18.135 8.176-3.572 1.076-8.442 2.564-10.822 3.306-2.38.742-6.867 1.79-9.97 2.33-3.1.54-7.59 1.442-9.973 2.004-8.432 1.988-22.908 3.958-28.654 3.9-2.395-.023-10.15.102-17.232.28-7.083.178-13.33.056-13.878-.27-.55-.327-2.2-.69-3.667-.807-7.186-.572-14.484-1.708-18.99-2.955-2.74-.758-5.49-1.275-6.11-1.15-1.854.38-8.5-.923-9.046-1.77-.277-.433-1.527-.77-2.778-.747-2.188.038-12.868-3.59-14.683-4.986-.485-.374-2.657-1.35-4.825-2.17-5.675-2.142-13.344-6.677-16.255-9.612-2.15-2.165-2.306-2.614-1.087-3.106.932-.376 3.523.924 7.49 3.76 3.338 2.385 6.713 4.324 7.502 4.31.79-.013 3.893 1.05 6.898 2.365 5.115 2.236 6.627 2.8 13.34 4.977 8.205 2.66 18.87 4.828 34.397 6.993 4.5.627 8.495 1.326 8.878 1.554.84.5 33.012.004 37.54-.578 1.765-.226 5.673-.717 8.686-1.09 3.014-.373 9.185-1.53 13.715-2.57 4.53-1.04 9.954-2.09 12.054-2.33 2.1-.24 4.244-.78 4.765-1.197.52-.42 2.506-1.206 4.41-1.748 5.66-1.612 17.988-6.577 19.412-7.818 1.722-1.5 8.68-4.192 10.87-4.205.943-.007 2.705.737 3.918 1.652 1.212.915 2.6 1.665 3.085 1.667.484 0 4.948 1.685 9.92 3.74 4.972 2.057 9.304 3.675 9.627 3.596.323-.08 2.204.29 4.18.82 1.976.528 4.53.934 5.673.902 3.265-.093 7.338.41 8.388 1.033 1.785 1.06 34.484 2.037 35.43 1.058.257-.266 1.586-.592 2.952-.724 3.103-.3 7.07-2.926 7.04-4.66-.016-.962-.538-1.133-1.97-.646-1.07.364-7.18.954-13.578 1.313-12.387.694-20.742-.085-30.62-2.856-3.126-.877-7.61-1.93-9.963-2.34-2.354-.412-7.15-2.067-10.66-3.68-3.508-1.613-7.016-2.922-7.795-2.908-2.02.035-6.55-2.323-9.937-5.17-1.596-1.34-3.5-2.43-4.228-2.416-.73.013-3.098 1.425-5.263 3.138-2.164 1.713-4.583 3.126-5.376 3.14-.792.014-1.87.472-2.398 1.018-1.217 1.26-9.477 4.91-16.22 7.167a1538.87 1538.87 0 0 0-11.68 3.982c-8.585 2.97-25.906 6.26-36.797 6.995-14.464.974-17.09.85-43.19-2.045-1.68-.186-5.804-.9-9.167-1.584-3.362-.684-7.683-1.407-9.602-1.604-1.918-.198-4.08-.586-4.802-.863-.723-.276-1.903-.574-2.622-.662-2.342-.284-15.235-4.732-18.376-6.34-1.683-.86-3.495-1.557-4.026-1.548-.53.01-1.688-.754-2.57-1.696-.884-.942-1.99-1.706-2.46-1.697-.922.015-11.933-6.798-14.753-9.128-3.922-3.242-1.02-3.782 3.707-.69 5.698 3.728 6.21 3.2 5.355-5.533-.548-5.596-1.182-8.066-2.4-9.353-.912-.962-2.125-3.02-2.696-4.57-1.013-2.75-1.07-2.776-2.26-1.012-.672.996-2.13 1.826-3.24 1.846-3.506.062-4.178 1.967-3.502 9.92.783 9.21.262 10.022-9.464 14.747-10.913 5.3-12.184 5.875-17.423 7.863-19.054 7.23-37.713 8.655-55.87 4.266-10.08-2.437-9.374-2.38-9.345-.747.012.717.402 1.297.867 1.29.465-.01 2.557 1.147 4.65 2.568 4.345 2.95 14.43 4.93 24.65 4.838 7.95-.072 23.21-2.05 24.268-3.148.455-.47 1.994-.877 3.42-.902 2.683-.046 6.875-1.276 11.36-3.332 4.64-2.126 19.684-7.654 20.888-7.675.645-.012 1.18.362 1.188.83.024 1.312-22.01 11.988-23.958 11.608-.355-.07-1.812.377-3.237.992-2.588 1.117-11.83 3.515-14.297 3.71-.717.057-2.67.32-4.34.587-4.11.653-21.856.874-22.848.285-1.178-.7-7.625-.797-7.613-.115.026 1.46 8.428 6.766 10.653 6.727 1.33-.023 2.67.355 2.983.84.76 1.183 25.997.136 29.993-1.245 1.665-.577 5.95-1.927 9.52-3.002 7.866-2.367 12.866-4.67 18.565-8.553 2.486-1.693 5.403-2.942 6.912-2.96 1.436-.015 6.97 1.974 12.3 4.42 14.46 6.637 22.48 9.29 33.665 11.135 2.16.356 6.362 1.214 9.336 1.906s9.648 1.618 14.832 2.056c10.412.88 11.753 1.013 21.158 2.09 3.576.41 6.73.597 7.012.417.28-.18 1.085.02 1.787.45 1.55.94 4.105.876 10.398-.266zM401.913 433c3.405-.242 3.48-.32 3.68-3.773.112-1.94-.513-6.576-1.388-10.303a755.636 755.636 0 0 1-2.645-11.692c-.58-2.704-1.32-5.173-1.648-5.488-.327-.315-3.366-.093-6.752.493-5.36.928-6.467.88-8.56-.365-4.255-2.532-8.054-6.44-8.635-8.882-.538-2.26-.68-2.32-2.89-1.177a61.468 61.468 0 0 1-4.584 2.1l-2.26.897.623 12.457c.343 6.852.926 15.19 1.295 18.53l.672 6.075 4.144.68c6.23 1.026 6.757.55 6.642-6.006-.137-7.86 3.284-21.382 5.616-22.193 1.3-.453 1.263 1.22-.42 18.986-.717 7.548-.65 8.38.772 9.404.878.633 2.727.92 4.236.657 1.472-.255 3.237-.127 3.92.286.685.413 2.024.482 2.976.155.95-.327 3.295-.706 5.207-.84zm17.178-.673c1.317-.03 3.178-.866 4.136-1.858 1.645-1.705 1.713-2.688 1.215-17.647l-.526-15.842-6.22.11c-5.084.088-6.716-.242-8.92-1.803-3.655-2.592-5.134-2.38-5.78.82-.562 2.798.26 8.428 1.45 9.917.74.924 3.276 13.35 4.373 21.417.706 5.198 1.835 6.17 6.147 5.293.954-.194 2.81-.377 4.127-.406zm18.384-3.928c.447-.425 1.92-.792 3.27-.815 3.507-.06 4.042-2.334 3.918-16.62-.113-13.13-.6-14.77-4.363-14.705-1.344.023-3.484-1.337-5.932-3.77l-3.83-3.805-2.315 2.502c-2.21 2.387-2.263 2.675-1.19 6.287.62 2.08 1.352 9.956 1.63 17.498.278 7.542.734 14.07 1.013 14.503.583.907 6.58.08 7.798-1.076zm124.757-4.036c.46-1.557 1.216-5.97 1.683-9.81.466-3.836 1.408-8.834 2.093-11.104.684-2.27 1.1-5.215.924-6.544-.27-2.027-.812-2.477-3.373-2.798-1.68-.21-4.163-1.106-5.52-1.99-3.22-2.104-3.954-1.232-4.8 5.71-1.307 10.747-3.08 23.423-3.573 25.54-.604 2.597-.088 2.94 5.388 3.573 2.365.274 4.455.64 4.644.812.732.667 1.735-.673 2.535-3.388zm-198.077 3.158c-.155-1.382-.576-9.552-.936-18.156-.42-10.058-.99-15.75-1.595-15.94-1.898-.596-6.174-4.58-6.195-5.772-.032-1.865-1.447-1.447-3.28.97-.905 1.19-2.69 2.665-3.965 3.274-2.662 1.27-2.712.235 1.13 23.28 1.45 8.698 2.478 12.692 3.373 13.113 2.582 1.215 6.474 2.022 9.08 1.884 2.402-.127 2.642-.393 2.388-2.652zm212.997-3.49c.407-1.038 1.493-5.817 2.413-10.62.92-4.803 2.02-10.155 2.445-11.894.97-3.972.93-7.748-.08-7.73-.424.007-2.235-1.43-4.025-3.194l-3.254-3.207-1.606 2.024c-.883 1.114-1.803 3.87-2.046 6.13-.6 5.598-2.698 18.77-3.918 24.617-.552 2.643-.85 5.194-.665 5.67.19.485 2.455.695 5.167.478 3.97-.317 4.96-.722 5.568-2.273zm-30.09-9.006c.95-5.858 1.987-11.753 2.305-13.1l.58-2.447-4.67.613c-7.28.957-8.422 1.34-8.89 2.977-1.118 3.914-2.8 20.605-2.142 21.242.795.767 10.028 2.225 10.69 1.688.22-.178 1.176-5.116 2.126-10.974zm48.828-3.523c1.913-6.036 3.52-11.875 3.57-12.976.097-2.102-1.837-9.365-2.49-9.354-.21.004-1.65.81-3.2 1.793-1.55.983-3.48 1.8-4.29 1.816-1.88.037-2.61 1.31-3.268 5.686-.29 1.937-.916 5.292-1.39 7.454-2.906 13.254-3.577 17.58-2.83 18.265 1.587 1.454 4.346 1.4 7.365-.146 2.862-1.465 3.273-2.252 6.533-12.537zM347.07 426.2c.26-.706-.206-5.104-1.032-9.772-.826-4.668-1.81-11.714-2.187-15.656-.647-6.774-.797-7.167-2.718-7.133-1.12.018-2.282-.353-2.587-.826-.304-.474-1.325-.848-2.27-.83-.943.015-1.95-.555-2.238-1.268-.898-2.22-2.916-1.386-4.37 1.808-1.26 2.762-1.268 4.22-.088 14.934 1.356 12.323 2.244 15.936 3.906 15.907.538-.01 2.22.49 3.74 1.11 3.13 1.278 7.677 2.81 8.696 2.932.375.044.892-.498 1.15-1.206zm110.463-3.83c2.493-1.21 2.732-1.733 3.267-7.147.674-6.818.505-16.206-.404-22.36-.667-4.52.38-9.146 2.076-9.176.616-.01.932 1.656.863 4.555-.195 8.212-.136 8.36 4.138 10.345 4.298 1.996 4.717 3.487 1.12 3.978-2.493.34-3.507 2.422-3.287 6.745.073 1.437-.22 4.045-.65 5.797-.433 1.75-.534 3.807-.227 4.568.502 1.245.785 1.22 2.832-.24 1.25-.892 3.51-2.14 5.02-2.773 3.887-1.627 5.158-3.488 5.57-8.16.398-4.485-.463-5.927-3.505-5.874-2.84.05-1.702-2.333 1.475-3.09 3.02-.717 6.77-6.69 6.7-10.67-.025-1.423.5-3.356 1.164-4.297 1.14-1.61 1.323-1.46 3.147 2.59 2.22 4.933 3.027 5.604 6.635 5.516 5.165-.126 9.043-5.493 8.923-12.353-.07-4.033 2-4.813 2.993-1.13.494 1.834.797 2.063 1.405 1.064.426-.7.763-2.32.748-3.598-.027-2.292-.12-2.327-6.648-2.496-3.642-.093-6.996.072-7.454.37-.457.295-2.468.268-4.468-.06-2-.33-4.26-.252-5.024.174-.764.426-1.748.454-2.187.063-.44-.39-10.887-.8-23.216-.908l-22.42-.198-.992 2.46c-.546 1.354-.977 4.615-.96 7.247.03 4.195.377 5.14 2.798 7.635 1.964 2.025 3.79 2.968 6.314 3.262 5.886.685 7.722-.285 10.6-5.6 2.592-4.784 4.17-5.545 4.23-2.038.064 3.594-2.563 8.174-5.367 9.357-4.363 1.84-5.324 2.584-4.934 3.82.2.64.565 6.446.808 12.904.243 6.46.475 11.872.516 12.03.137.53 5.69-.998 8.4-2.31zm72.248-5.478c.576-3.36 1.584-8.82 2.24-12.13 1.105-5.587 1.078-6.184-.386-8.263-.867-1.234-2.084-3.348-2.704-4.7l-1.127-2.457-2.794 2.416c-3.655 3.16-4.077 4.017-4.88 9.906-.37 2.73-1.232 7.713-1.913 11.076-.68 3.363-1.036 6.617-.79 7.23.655 1.643 5.782 3.567 8.74 3.28 2.456-.238 2.613-.514 3.614-6.36zm-287.15 7.732c.752-.756.69-2.32-.262-6.478-.69-3.014-1.507-6.106-1.815-6.87-.31-.764-.635-5.317-.724-10.118-.136-7.244-.473-9.21-1.982-11.56-2.183-3.398-3.956-3.53-7.084-.525-2.628 2.523-2.877 5.055-1.252 12.705.545 2.57 1.25 8.752 1.57 13.74.316 4.987 1.003 9.564 1.525 10.17 1.116 1.3 8.445.52 10.023-1.064zm-16.334.938c3.12-.68 3.383-2.217 1.328-7.797-.71-1.93-1.64-8.572-2.066-14.76-.8-11.6-1.727-14.54-4.884-15.483-.902-.27-2.1-1.453-2.66-2.63-1.27-2.66-3.06-2.695-5.402-.107-1.66 1.835-1.745 2.632-1.104 10.246.726 8.626 2.763 20.83 4.35 26.07.714 2.355 1.59 3.27 3.783 3.947 3.887 1.2 3.617 1.178 6.656.515zm26.615-2.047c3.1-.8 4.918-2.21 4.23-3.283-.275-.427-.687-1.844-.916-3.15-.23-1.303-.714-3.736-1.077-5.406-.364-1.67-.724-4.6-.8-6.513a430.615 430.615 0 0 0-.396-7.652l-.256-4.173-4.998.35c-4.2.29-4.974.598-4.843 1.914.086.863.714 7.497 1.396 14.744 1.21 12.888 2.145 16.21 4.107 14.62.528-.428 2.127-1.08 3.554-1.45zm262.047-12.094c.55-4.516 1.04-10.14 1.087-12.498.082-4.03-.06-4.322-2.41-4.912-3.386-.85-5.624-2.958-6.34-5.973-.33-1.38-.86-2.5-1.182-2.487-1.694.07-4.287 8.88-4.632 15.734-.205 4.073-.574 8.84-.82 10.595-.423 3.032-.28 3.26 2.93 4.617 1.855.786 4.558 1.94 6.005 2.567 1.447.626 3.02 1.01 3.496.855.477-.157 1.317-3.98 1.867-8.5zM211.42 422.114c.954-.63.823-1.673-.733-5.85-2.122-5.692-3.873-16.075-4.007-23.758-.072-4.147-.373-5.15-1.617-5.392-1.2-.235-.97-.608 1.06-1.734 3.496-1.94 5.243-4.176 5.794-7.416.68-4.005-.165-5.934-3.286-7.503-2.36-1.185-5.774-1.356-21.937-1.096-10.528.17-22.956.135-27.617-.076l-8.475-.383-.846 2.35c-.466 1.295-.815 4.238-.775 6.543.062 3.565.494 4.59 2.895 6.856 5.616 5.302 13.333 2.066 13.82-5.795.173-2.814.55-3.493 1.954-3.517.956-.017 2.223-.356 2.815-.753 1.74-1.17 2.962.19 2.815 3.135-.253 5.075.168 6.32 2.76 8.167 1.42 1.012 4.16 2.064 6.094 2.338 3.126.444 3.803.2 6.117-2.195 2.194-2.27 2.592-3.366 2.53-6.967-.042-2.35.17-4.528.472-4.84.885-.916 5.573 2.16 5.6 3.673.012.763.612 2.137 1.33 3.054.72.916 1.333 2.42 1.364 3.34.053 1.556-.097 1.535-2.127-.307l-2.185-1.98-.886 2.458c-.488 1.353-.658 4.057-.377 6.01.28 1.95.77 6.285 1.09 9.63.32 3.345 1.34 9 2.268 12.565l1.688 6.482 4.18 1.414c2.3.778 4.406 1.63 4.678 1.893.71.684 2.196.54 3.543-.347zM201.067 386.8c-1.018-.984-.67-2.02.69-2.043a1.31 1.31 0 0 1 1.328 1.282c.024 1.358-1 1.743-2.018.76zm125.704 31.362c-.86-2.552-1.422-6.66-1.798-13.12-.186-3.214-.515-5.966-.73-6.114-.216-.15-2.893-.075-5.948.163l-5.556.434.654 7.52c.503 5.788 1 7.715 2.15 8.365.825.464 2.15 1.438 2.945 2.165 1.6 1.462 7.097 3.245 8.167 2.65.374-.21.426-1.138.115-2.063zm-63.46 2.06c.29-.49.898-.674 1.347-.407.448.267 2.078-.202 3.62-1.043 1.542-.84 3.36-1.802 4.04-2.137 2.265-1.115 3.043-3.3 1.94-5.453-1.43-2.794-1.97-7.434-1.26-10.86.332-1.597.248-3.113-.185-3.37-.434-.258-.8-1.187-.816-2.065-.03-1.713-2.264-2.963-3.676-2.056-.473.305-2.445-.932-4.382-2.75l-3.522-3.3-1.72 2.183c-1.536 1.946-1.646 2.94-1.018 9.156.387 3.834.97 10.59 1.296 15.013.52 7.072.786 8.037 2.197 8.012.883-.015 1.844-.43 2.136-.922zm342.438-8.214c4.22-3.212 4.866-4.457 5.165-9.966.15-2.773-.06-3.036-2.894-3.595-2.02-.398-3.37-.246-3.986.448-.89 1.005-4.474 13.433-4.44 15.398.03 1.667 1.855.99 6.156-2.285zm-411.725 4.434c-.168-3.728-3.108-26.614-3.464-26.958-.258-.25-1.46.018-2.672.596-1.212.577-3.804 1.078-5.762 1.112l-3.56.062.745 7.535c.763 7.712 2.608 11.618 6.035 12.774.772.26 2.558 1.61 3.97 2.997 2.42 2.382 4.774 3.323 4.71 1.882zm302.346-6.147c.32-.844.744-4.572.944-8.285l.364-6.752-3.12.054c-1.716.03-4.46-.704-6.097-1.632l-2.977-1.688-1.8 4.164c-1.77 4.097-3.132 15.097-1.86 15.014.36-.023 1.62-.618 2.806-1.323 3.02-1.797 5.528-1.694 7.402.306 1.978 2.11 3.575 2.163 4.34.142zm-208.737.435c4.246-2.262 5.062-3.71 3.91-6.927-.544-1.514-1.026-4.674-1.07-7.022-.074-3.73-.428-4.526-2.808-6.323-1.498-1.13-2.734-2.615-2.746-3.298-.036-2.053-2.09-1.365-3.788 1.266-.874 1.356-2.704 3.13-4.065 3.944-2.87 1.715-3.14 4.266-1.083 10.302.717 2.107 1.577 5.31 1.91 7.12.592 3.207.684 3.275 3.817 2.834 1.766-.248 4.43-1.1 5.923-1.896zm330.927-8.566c2.79-1.917 3.674-3.245 4.72-7.086 1.01-3.717 1.055-4.992.21-5.973-1.593-1.854-2.328-1.512-2.845 1.328-.446 2.455-1.022 3.247-4.076 5.608-1.287.995-2.973 8.51-1.907 8.49.256-.004 2.01-1.07 3.897-2.366zm-71.754-5.37c2.432-2.765 3.356-4.9 3.997-9.24.473-3.2.802-3.668 2.262-3.233.94.282 2.337-.022 3.104-.673 1.222-1.04 1.337-.95.94.715-.263 1.096.253 3.018 1.22 4.548 2.32 3.67 6.855 3.648 10.424-.048 2.078-2.15 2.485-3.296 2.413-6.787-.048-2.31-.407-4.686-.8-5.28-.498-.756-4.714-1.14-14.083-1.28-7.354-.11-16.146-.32-19.537-.468-3.39-.146-10.275-.318-15.296-.382l-9.13-.116-1.577 4.64c-2.706 7.96.395 13.222 7.72 13.094 2.45-.043 6.682-4.793 6.636-7.447-.04-2.32 2.066-3.214 2.843-1.204.334.864.645.86 1.552-.027 2.017-1.972 2.518-1.223 2.49 3.727-.032 5.764 1.845 8.78 6.442 10.35 4.477 1.53 6.435 1.322 8.38-.89zm-150.72 1.18c2.192-1.432 4.544-6.64 4.79-10.6.18-2.932.333-3.063 3.962-3.387l3.774-.338-.528 2.617c-.363 1.803-.043 3.33 1.027 4.903 2.247 3.3 5.158 4.09 10.226 2.78 3.642-.94 4.594-1.667 6.7-5.118 1.588-2.604 2.432-5.177 2.395-7.3-.04-2.39.412-3.542 1.668-4.242 2.334-1.303 2.16-3.506-.28-3.533-1.077-.012-7.247-.102-13.71-.2-21.498-.325-50.89-.04-53.002.514-1.146.302-2.35 1.132-2.673 1.844-.324.713-1.247 2.608-2.052 4.212-2.326 4.634-1.102 8.463 3.363 10.525 4.5 2.08 7.018 1.048 9.68-3.962 2.165-4.08 3.342-4.404 3.987-1.098l.478 2.452 2.117-3.36c4.005-6.354 5.983-4.136 2.475 2.776-1.8 3.547-1.812 3.785-.343 6.734 2.74 5.496 10.51 7.338 15.95 3.782zm216.807-2.676c2.887-1.432 3.61-2.596 7.017-11.31l1.027-2.626 1.732 2.065c.952 1.135 2.05 2.61 2.437 3.276.39.666 2.228 1.527 4.088 1.912 3.934.816 7.785-.99 8.538-4.004 1.244-4.975-.977-10.486-3.39-8.41-.647.556-1.46.74-1.804.406-.346-.333-12.213-.433-26.373-.223l-25.745.383-1.136 2.858c-2.36 5.94-.497 10.27 5.144 11.953 2.71.808 6.965-2.124 8.308-5.724 1.092-2.93 1.49-3.234 3.835-2.93 1.44.185 2.752.775 2.916 1.31.163.536.816 2.845 1.45 5.132.943 3.4 1.73 4.45 4.32 5.76 3.918 1.985 3.978 1.987 7.633.173zm15.914-2.764c-.013-.718-.415-1.298-.893-1.29-.48.008-.86.603-.848 1.32.013.718.415 1.3.893 1.29.478-.008.86-.602.847-1.32zm-309.07 3.844c3.824-1.687 5.98-5.04 6.577-10.218.512-4.458.577-4.545 3.235-4.333 2.164.173 3.03.867 4.29 3.43 2.066 4.212 4.995 5.994 9.168 5.577 2.664-.267 3.544-.828 4.465-2.848 1.868-4.1 2.054-8.72.47-11.66-1.623-3.006-3.053-3.25-22.372-3.802-5.507-.157-12.56-.414-15.675-.57-3.115-.156-6.246-.023-6.958.295-.713.317-3.88.532-7.038.477-7.365-.13-8.604.98-8.49 7.608.12 6.775 1.093 8.13 5.78 8.048 4.053-.07 6.51-2.186 6.45-5.556-.036-2.09 2.17-2.886 4.812-1.737 1.692.736 2.148 1.586 2.192 4.08.085 4.895 2.42 8.677 6.57 10.64 4.33 2.052 3.352 1.967 6.524.568zm-145.227-1.94c-.063-3.658-.547-5.264-2.152-7.143-1.14-1.333-2.35-3.15-2.692-4.034-.508-1.315-.855-1.41-1.898-.512-.702.603-1.27 1.507-1.26 2.01.01.5-.62 1.64-1.397 2.53-1.317 1.507-1.305 1.81.17 4.417 1.513 2.677 7.05 7.49 8.583 7.465.4-.008.693-2.137.647-4.732zm79.936-7.99c.443-1.683.79-4.15.768-5.48-.044-2.86 2.35-4.275 3.6-2.13.457.785 1.413 1.417 2.124 1.404.717-.012 2.104 1.806 3.114 4.08 1 2.257 2.473 4.58 3.27 5.165 2.423 1.774 5.78 1.147 8.712-1.626 2.607-2.465 2.754-2.946 2.653-8.718-.145-8.303.813-7.925-19.28-7.606-4.07.065-11.12-.08-15.673-.32-4.552-.24-11.77-.4-16.042-.352l-7.765.085-.664 2.622c-.976 3.855.18 8.087 3.08 11.277 3.827 4.206 7.323 2.543 9.663-4.596 1.056-3.223 1.342-3.442 4.467-3.432l3.338.01-.137 4.813c-.13 4.52.04 4.95 2.786 7.07a356.11 356.11 0 0 1 3.788 2.957c.475.384 2.333.054 4.13-.733 2.516-1.104 3.448-2.132 4.068-4.492zm391.9-7.14c2.71-2.246 2.602-5.06-.17-4.482-.864.18-2.06.365-2.658.413-1.156.09-1.48 6.187-.327 6.16.36-.01 1.78-.95 3.157-2.093zm-290.27-4.4c-.017-.93-2.555-1.884-3.21-1.205-.27.28-.2 1.6.16 2.932.627 2.327.7 2.355 1.857.712.663-.94 1.2-2.038 1.192-2.44zm258.76-10.635c-.565-6.065-1.222-8.724-2.676-10.834-3.022-4.386-7.855-5.138-12.944-2.014l-2.976 1.826.474 8.167c.555 9.547.97 11.365 2.155 9.418.432-.712.774-2.35.76-3.637-.042-3.498 1.49-3.804 2.89-.575l1.234 2.846.544-4.952c.502-4.578 2.25-7.883 3.3-6.245.247.382.18 2.314-.146 4.293-.652 3.957-.097 9.02.987 9 .38-.007.924-1.975 1.212-4.374.637-5.32 1.84-4.94 2.712.86.446 2.96 1.05 4.297 1.934 4.282 1.084-.02 1.168-1.276.537-8.06zm8.7 2.93c.038-2.26.456-3.307 1.325-3.322.945-.016 1.23.904 1.11 3.585-.113 2.56.223 3.746 1.16 4.087.725.264 1.346.198 1.38-.146.034-.345.21-1.61.393-2.81.182-1.2.427-4.14.544-6.536.148-3.032.586-4.362 1.44-4.377.846-.015 1.257 1.06 1.324 3.458.186 6.704.567 9.13 1.43 9.115.478-.008.853-.994.832-2.19-.054-3.09 2.297-2.795 3.053.382.627 2.636 2.752 3.44 4.45 1.682 1.14-1.184-.22-14.752-1.793-17.88-.925-1.837-2.135-2.64-4.735-3.14-5.266-1.013-8.426.004-12.09 3.89-3.174 3.366-3.307 3.758-3.583 10.593-.22 5.43-.002 7.266.924 7.816 1.766 1.05 2.772-.442 2.837-4.207zm38.253-.456c0-2.548.43-4.382 1.083-4.614.595-.212 1.092.235 1.105.993.042 2.394 1.526 1.463 2.023-1.27.502-2.75-.174-7.28-1.44-9.662-.412-.774-2.302-2.142-4.2-3.04-3.1-1.468-3.693-1.502-5.822-.34-1.304.713-3.663 2.743-5.243 4.512-2.818 3.155-2.865 3.346-2.516 10.172.28 5.5.627 6.952 1.66 6.934.776-.013 1.4-.993 1.538-2.42.128-1.32.622-2.404 1.097-2.413.475-.01.576-.463.225-1.01-.398-.62-.25-.764.392-.38.566.335.83.946.587 1.355-.608 1.02 1.148 5.215 2.174 5.197.457-.008 1.226-2.273 1.71-5.034 1.592-9.102 1.642-9.26 2.625-8.312.62.6.698 2.91.235 7.066-.474 4.26-.398 6.288.247 6.54 1.957.766 2.515-.182 2.517-4.275zm-86.128 1.22c-.486-3.232-.32-4.424.737-5.334 1.85-1.592 2.684.492 2.032 5.085-.293 2.06-.113 3.625.456 3.963 1.352.804 1.726.125 1.77-3.21.056-4.47 1.476-11.24 2.36-11.257.43-.007.838 3.12.905 6.947.07 4.06.484 6.955.99 6.946.48-.008.848-1.386.818-3.06-.074-4.343 2.342-4.196 2.78.168.26 2.59.685 3.252 2.068 3.228 1.593-.028 1.73-.616 1.636-6.99-.076-5.067-.57-7.902-1.82-10.414-2.066-4.163-3.533-5.12-7.86-5.13-2.545-.005-4.072.68-6.692 3.004l-3.395 3.01.15 8.633c.142 8.102.26 8.632 1.92 8.603 1.612-.028 1.715-.406 1.145-4.192zm-7.07 1.215c-.118-.937-.537-4.755-.93-8.484-1.326-12.604-7.346-15.613-16.802-8.397l-2.792 2.13.144 8.222c.117 6.728.38 8.218 1.448 8.2.926-.017 1.293-.973 1.262-3.287-.05-3.83.996-5.948 2.5-5.054.647.385.887 1.618.61 3.138-.476 2.618.138 5.124 1.25 5.105.36-.007.834-2.757 1.056-6.113.438-6.608.954-8.19 2.394-7.333.605.36.766 2.79.46 6.97-.4 5.48-.27 6.412.89 6.392 1-.018 1.21-.574.796-2.11-.524-1.943.917-6.38 1.796-5.53.218.21.615 1.883.882 3.718.268 1.834.974 3.638 1.57 4.01 1.786 1.11 3.697.242 3.467-1.576zm-25.69.7c1.143-1.484-1.29-17.87-2.876-19.37-2.195-2.07-5.413-2.066-9.433.016l-3.882 2.01-.568 6.973c-.583 7.143-.14 10.883 1.282 10.86.442-.01.895-1.678 1.007-3.71.15-2.696.614-3.78 1.722-4.01 1.244-.26 1.528.322 1.58 3.228.033 1.95.452 3.537.93 3.53.48-.01.838-1.916.797-4.237-.088-4.985 1.356-9.946 2.76-9.49.562.182 1.028 2.183 1.07 4.587.05 2.893.435 4.258 1.194 4.247 1.66-.023 2.833 2.278 2.31 4.526-.496 2.135.732 2.625 2.108.84zm-33.734-2.34c.453-1.257.737-2.73.63-3.274-.108-.542.082-2.676.42-4.74.984-5.997 2.62-4.052 2.746 3.265.072 4.13.476 6.48 1.15 6.695.643.206 1.12-.853 1.256-2.79.244-3.48 1.774-4.28 2.294-1.198.385 2.276 1.758 4.138 3.035 4.116 1.098-.02-.056-14.145-1.346-16.457-.5-.895-2.31-2.46-4.024-3.48-2.853-1.694-3.434-1.75-6.863-.674-4.132 1.3-6.71 3.148-8.04 5.768-1.278 2.513-.08 14.327 1.45 14.3 1.12-.02 1.595-3.183 1.093-7.277-.137-1.118.282-1.514 1.4-1.32 1.26.216 1.668 1.23 1.938 4.83.372 4.94 1.553 5.864 2.86 2.236zm-57.934 1.62c.72-1.215-1.568-14.07-2.983-16.75-1.685-3.193-4.328-4.37-8.42-3.748-5.64.857-7.25 3.183-7.815 11.286-.35 5.03-.18 7.328.612 8.25 1.513 1.758 2.504.008 2.446-4.322-.057-4.202 1.287-3.51 2.104 1.084 1.148 6.458 3.216 3.76 3.08-4.023-.063-3.61.223-4.72 1.223-4.738.717-.012 1.345.662 1.395 1.5.05.836.19 3.376.316 5.644.285 5.18 1.906 5.804 2.178.84.193-3.518 1.808-5.422 1.875-2.21.017.838.464 2.984.994 4.77.94 3.165 2.03 4.044 2.997 2.415zm6.71-4.158c-.412-3.165-.248-3.863.916-3.883 1.098-.018 1.433.85 1.485 3.84.07 3.976 1.255 5.865 2.145 3.42.276-.76.476-2.866.444-4.68-.077-4.428.76-8.756 1.697-8.772.42-.008.81 2.704.868 6.026.057 3.32.5 6.274.984 6.562.524.31.858-.73.826-2.574-.082-4.69 2.36-4.206 2.788.552.272 3.025.647 3.688 2.072 3.663 1.246-.022 1.66-.523 1.454-1.766-.158-.954-.648-4.47-1.09-7.813-1.363-10.35-4.223-13.48-11.036-12.078-4.608.947-6.255 4.16-6.65 12.965-.337 7.517.296 9.732 2.522 8.833.734-.297.92-1.67.576-4.294zm22.608 3.354c.06-.6.18-1.678.264-2.398.085-.72.197-2.19.25-3.268.166-3.444 1.59-2.127 2.123 1.964.957 7.34 3.245 5.798 3.037-2.047-.068-2.582.3-5.132.816-5.667 1.354-1.402 2.24 1.25 1.69 5.06-.5 3.458.823 7.675 2.14 6.83.475-.306.836-2.098.803-3.984-.08-4.67 1.42-4.368 2.23.446 1.077 6.416 2.39 4.558 1.697-2.398-1.482-14.86-5.198-18.203-14.635-13.166-3.523 1.88-3.863 2.346-3.687 5.045.107 1.635.274 5.615.373 8.845.14 4.605.46 5.867 1.484 5.85.718-.014 1.354-.514 1.415-1.114zm-122.875-1.394c-.08-4.672-2-12.88-3.798-16.26-2.906-5.457-8.433-6.344-13.188-2.117-2.124 1.887-2.29 2.614-2.58 11.378-.262 7.8-.104 9.358.942 9.34.883-.016 1.24-1.042 1.197-3.45-.063-3.628 1.328-5.46 2.635-3.474.43.653.805 2.264.836 3.58.03 1.315.447 2.385.926 2.377.478-.008.85-1.484.823-3.278-.133-9.036 2.702-13.673 3.04-4.976.3 7.725.493 9.047 1.317 9.033.448-.008.916-1.26 1.04-2.78.254-3.138 2.368-4.577 2.42-1.648.044 2.595 1.642 5.208 3.166 5.18.863-.014 1.26-.952 1.224-2.906zm6.797-1.222c-.038-2.193.13-4.194.372-4.445 1.158-1.2 2.325 1.045 2.387 4.594.113 6.472 2.158 4.185 2.68-2.998.248-3.397.71-6.61 1.024-7.142 1.212-2.04 2.22.223 2.398 5.392.167 4.83.28 5.135 1.095 2.96 1.205-3.213 2.632-2.614 3.24 1.362.85 5.557 2.23 3.92 2.383-2.828.118-5.14-.237-7.15-1.812-10.262-3.48-6.882-10.87-8.09-16.668-2.725-2.284 2.112-2.507 2.7-1.628 4.276.56 1.004 1.07 4.756 1.133 8.337.107 6.127.513 7.17 2.885 7.41.32.03.55-1.737.512-3.93zm44.907 1.83c.28-.763.49-2.333.47-3.49-.02-1.158.312-2.11.74-2.118.953-.017 1.87 2.124 1.91 4.462.018 1.004.49 1.582 1.113 1.364.66-.23 1.21-2.65 1.415-6.203.31-5.43 1.816-8.437 2.266-4.527 1.024 8.888 1.586 11.672 2.267 11.235.44-.282.774-1.86.746-3.506-.037-2.082.345-3.002 1.252-3.018.718-.012 1.343.466 1.39 1.064.15 1.958.93 5.31 1.322 5.69.21.203.984.128 1.718-.17 1.064-.43 1.3-2.078 1.174-8.177-.15-7.178-.313-7.806-2.7-10.34-1.4-1.482-3.354-2.938-4.345-3.233-2.553-.762-8.834 1.335-11.47 3.83-2.07 1.958-2.223 2.658-2.136 9.682.053 4.163.28 7.86.506 8.216.683 1.075 1.83.703 2.365-.765zm-85.7-3.656c-.08-4.664.963-6.903 2.01-4.31.302.748.576 2.872.608 4.72.062 3.553 1.292 5.23 2.136 2.912.276-.76.482-2.546.457-3.97-.025-1.506.324-2.372.835-2.07.484.29.907 2.08.94 3.98.04 2.313.508 3.62 1.412 3.948 2.14.78 2.372-.09 2.127-7.992-.28-8.962-1.625-11.895-6.568-14.31l-3.574-1.744-3.69 1.814c-4.01 1.97-5.136 4.284-3.76 7.72.468 1.17.898 4.867.957 8.218.096 5.608.237 6.048 1.763 5.535.91-.307 1.92-.15 2.242.35 1.22 1.902 2.184-.294 2.105-4.8zm-3.785.924c-.834-2.065-.744-3.89.193-3.908.446-.008 1.087.804 1.423 1.804.75 2.222-.77 4.2-1.615 2.104zm67.318-1.11c-.082-4.708.958-6.966 2.01-4.363.3.75.58 3.092.616 5.206.045 2.65.432 3.838 1.242 3.824.848-.015 1.295-2.006 1.6-7.12.232-3.903.632-7.313.887-7.578.255-.266 1.003.072 1.662.75.893.92 1.06 2.563.658 6.465-.297 2.877-.354 5.715-.126 6.307.717 1.858 1.958.203 1.91-2.546-.06-3.463 1.807-2.886 2.854.882 1.253 4.51 1.964 2.257 1.54-4.886-.657-11.12-3.605-14.78-10.86-13.49-6.115 1.088-8.06 6.923-6.02 18.054.885 4.832 2.12 3.913 2.025-1.507zm-108.607-3.457c.212-3.644.604-6.852.872-7.13 1.17-1.213 1.64 1.107 1.63 8.077-.005 4.834.3 7.27.86 6.91.478-.307.845-1.905.817-3.552-.037-2.08.345-3 1.252-3.016.718-.013 1.347.66 1.397 1.498.14 2.333.895 5.704 1.383 6.175.24.233.858-.014 1.373-.547 1.097-1.135-.083-14.752-1.343-15.5-.434-.258-.8-1.208-.817-2.113-.042-2.41-5.374-5.99-8.827-5.93-4.412.076-8.555 5.118-8.617 10.486-.064 5.5.41 11.698.96 12.57.845 1.34 2.277-1.146 2.714-4.707.59-4.813 2.097-4.83 2.482-.03.74 9.225 3.264 7.14 3.864-3.19zm33.844 1.004c-.617-10.274-2.034-14.163-5.866-16.105-3.797-1.923-7.78-1.317-11.474 1.745-2.554 2.12-2.56 2.145-2.41 11.493.107 6.728.458 9.467 1.244 9.718.78.25 1.072-.92 1.017-4.074-.055-3.2.258-4.428 1.135-4.444 1.527-.026 2.302 1.858 2.37 5.76.036 2.062.402 2.917 1.134 2.644.594-.22.987-1.142.873-2.046-.325-2.588 1.487-12.553 2.285-12.567.927-.015 1.073.925 1.25 8.008.083 3.29.528 5.845 1.017 5.838.48-.007.845-1.472.814-3.256-.078-4.397 2.42-4.614 2.857-.248.44 4.406.955 5.372 2.662 5 1.33-.292 1.466-1.22 1.09-7.465zm-64.344 1.782c.27-5.183 1.854-5.06 2.282.177.218 2.67.736 4.12 1.467 4.108.78-.013 1.27-2.094 1.577-6.7.246-3.676.614-6.855.817-7.065 1.14-1.183 2.258 1.308 2.354 5.248.103 4.247.177 4.39 1.24 2.392 1.126-2.12 1.13-2.12 2.138-.312.556.996 1.028 2.793 1.05 3.993.04 2.404 1.515 3.768 2.72 2.52 1.1-1.14-1.073-15.92-2.7-18.365-.734-1.102-2.57-2.5-4.08-3.102-3.063-1.226-5.338-.632-9.89 2.583-2.73 1.927-2.75 2-2.625 9.273.126 7.185 1.29 11.434 2.724 9.928.397-.417.814-2.523.926-4.68zm-23.26 3.38c.276-.762.487-2.31.467-3.438-.06-3.46 1.558-3.302 1.908.186.415 4.125 2.01 4.264 2.25.196.508-8.504 2.443-9.533 2.96-1.574.404 6.18 1.99 7.316 2.3 1.645.25-4.59 2.022-4.535 2.857.086.68 3.77 1.422 4.7 2.7 3.377.652-.676.653-1.836.003-3.86-.51-1.59-.98-5.116-1.042-7.834-.187-8.197-4.458-12.316-10.15-9.79-3.89 1.73-6.2 4.692-5.855 7.513.16 1.297-.067 4.85-.504 7.898-.437 3.046-.582 5.87-.322 6.273.74 1.154 1.876.838 2.427-.677zm-6.134-5.995c-.284-12.797-2.23-15.982-9.687-15.852-3.583.063-5.152.54-6.84 2.078-1.96 1.788-2.202 2.73-2.296 8.962-.06 3.83-.027 7.878.07 8.993.295 3.387 2.204 1.558 2.212-2.12.01-4.582 1.533-4.867 2.577-.482.46 1.935 1.107 3.514 1.44 3.508.33-.004.903-3.246 1.272-7.2.51-5.458.987-7.2 1.977-7.216.963-.017 1.395 1.19 1.65 4.607.29 3.857.548 4.46 1.548 3.598 1.99-1.71 3.275-.13 2.85 3.51-.374 3.218.416 4.444 2.49 3.868.478-.132.808-2.945.734-6.25zm-41.89 5.164c.344-.486.604-2.38.58-4.21-.064-4.74 2.512-4.12 3.873.93.555 2.06 1.402 3.81 1.882 3.885.48.076 1.1-2.967 1.376-6.76.482-6.6 1.493-9.423 2.89-8.074.356.345.592 2.665.524 5.156-.14 5.138.64 9.303 1.742 9.283.407-.008.848-1.062.977-2.344.34-3.372 2.293-3.628 2.998-.394.324 1.482.906 2.883 1.293 3.113 1.62.963 1.802-2.016.577-9.49-1.08-6.59-1.71-8.336-3.702-10.29-3.6-3.523-8.594-3.205-13.376.856-3.23 2.743-3.67 3.58-4.03 7.687-.223 2.534-.584 5.395-.803 6.356-.22.96-.423 2.042-.454 2.4-.03.36-.587.664-1.237.676-.868.014-1.34-1.95-1.774-7.375-.624-7.802-1.927-10.826-5.445-12.64-2.968-1.532-8.48-.774-12.59 1.73-3.557 2.167-3.658 2.358-3.602 6.76.033 2.494-.284 6.106-.703 8.028-.623 2.858-.502 3.683.663 4.53 2.125 1.544 2.9.523 2.827-3.72-.07-3.963 1.265-5.91 2.642-3.857.438.652.753 2.165.7 3.363-.182 4.196.195 5.35 1.65 5.038 1.176-.252 1.45-1.732 1.563-8.475.144-8.548.446-9.754 2.052-8.203.59.57.98 4.14.986 9.048.008 5.22.306 7.798.837 7.24.454-.48.922-2.44 1.04-4.356.148-2.394.624-3.492 1.52-3.508.937-.016 1.4 1.126 1.64 4.05.236 2.88.74 4.147 1.717 4.323 2.995.537 8.575.076 9.166-.758zm-38.132-1.73c.218-1.08.483-3.14.59-4.58.298-4.044 1.836-3.118 2.808 1.693 1.025 5.07 1.31 5.564 2.28 3.933 1.316-2.214-.957-20.176-2.775-21.93-1.28-1.236-8.46-2.197-9.935-1.33-2.815 1.652-8.414 7.787-8.39 9.192.016.855.928 2.955 2.028 4.668 1.68 2.614 2.04 2.834 2.25 1.37.14-.96.42-2.283.625-2.94.615-1.957 2.993.532 3.055 3.2.042 1.794.23 2.002.874.965.45-.725.793-3.18.76-5.452-.042-3.025.28-4.14 1.204-4.155 2.207-.04 2.872 2.53 2.6 10.047-.18 4.935.044 7.314.682 7.303.52-.01 1.126-.9 1.344-1.982zm-5.638-1.04c-.012-.69-.414-1.247-.892-1.24-.48.01-.856.823-.84 1.808.018.986.42 1.543.893 1.24.473-.305.85-1.118.84-1.808zm538.94-11.477c1.818-2.08 1.06-3.555-1.804-3.505-2.14.038-2.603 1.213-1.53 3.872.727 1.798 1.518 1.71 3.334-.367zm-50.008-2.01l2.972-2.88-3.725-.205c-2.048-.112-5.137-.058-6.863.12l-3.14.324 2.54 2.784c1.397 1.53 3.148 2.774 3.892 2.76.743-.012 2.69-1.32 4.324-2.903zm24.938.13c.588-1.616-1.546-3.25-2.692-2.064-.933.965-.017 3.503 1.257 3.48.51-.008 1.154-.647 1.435-1.418zm-95.43-2.6c-.046-.477-1.693-.865-3.658-.86-4.143.008-5.218 1.536-2.855 4.058 1.567 1.674 1.597 1.67 4.09-.32 1.38-1.104 2.47-2.398 2.423-2.876zm22.15 1.79l1.306-2.634-3.938.068c-4.38.076-4.845.9-1.974 3.482 2.557 2.3 3.064 2.2 4.607-.917zm26.49-.917c1.113-1.154.727-1.3-3.275-1.23-4.355.077-5.756 1.184-3.84 3.036.95.917 5.632-.27 7.114-1.806zm-99.052 1.698c3.466-1.87 2.737-3.332-1.737-3.483-3.25-.11-3.643.088-3.612 1.825.06 3.428 1.337 3.823 5.35 1.66zm25.282-.526c2.303-2.158 1.907-2.944-1.454-2.886-3.398.06-4.59 1.3-3.01 3.137 1.393 1.62 2.536 1.556 4.464-.252zm-71.184-.434c1.126-3.096.523-3.855-3.02-3.793-2.645.047-3.474.404-3.455 1.49.053 3.035 5.503 4.976 6.475 2.304zm23.955-.668c1.06-2.066.38-2.732-2.742-2.677-2.595.044-3.21 1.545-1.362 3.33 1.537 1.484 3.14 1.23 4.105-.654zm-46.59.185c.665-1.826-.128-2.964-2.043-2.93-2.212.038-2.756.907-1.725 2.755 1.1 1.97 3.08 2.063 3.768.176zm-25.106-.28c1.935-1.468 1.626-1.99-1.396-2.356-1.71-.208-2.232.158-2.424 1.698-.282 2.276 1.322 2.552 3.82.657zm270.424-5.927c1.534-2.58-3.837-2.87-59.134-3.198-8.138-.048-21.065-.167-28.726-.265-7.66-.098-22.35-.208-32.643-.245-43.428-.156-63.692-.3-73.12-.52-16.93-.398-37.608-.805-43.097-.85-2.873-.023-5.72-.344-6.328-.714-.608-.368-2.445-.158-4.083.466-2.19.835-3.53.897-5.052.236-1.278-.556-2.604-.592-3.46-.094-.83.485-3.07.494-5.6.022-2.318-.43-11.07-.876-19.45-.988-8.38-.112-16.804-.333-18.722-.493-1.917-.16-15.237-.346-29.6-.413-14.362-.068-27.684-.423-29.605-.788-1.92-.367-8.388-.637-14.37-.6-50.432.298-64.827.052-79.228-1.355-4.075-.398-15.83-.72-26.123-.715-32.398.017-54.293-.49-55.857-1.292-.912-.468-2.33-.446-3.58.055-1.14.456-4.477.588-7.417.293-2.94-.295-5.844-.255-6.456.087-.61.343-3.758.282-6.994-.137-3.235-.418-6.482-.518-7.215-.222-1.186.48-1.186.807.008 3.02 1.294 2.4 1.62 2.497 9.874 2.967 17.084.975 43.05 1.156 44.39.31.38-.24 2.845-.353 5.48-.252 2.634.102 10.472.326 17.416.5 11.697.29 19.718.47 44.84.998 5.268.11 12.52.36 16.112.554 3.594.194 15.543.38 26.553.412 11.01.032 22.96.213 26.554.4 3.593.19 14.564.417 24.38.507 9.813.09 20.59.35 23.944.58 3.356.23 11.78.446 18.722.48 6.942.035 15.56.218 19.155.408 20.38 1.075 33.928 1.235 50.71.6.836-.032 2.6-.027 3.916.01 1.317.04 5.916-.107 10.22-.323 7.946-.4 26.154-.064 39.615.73 4.073.24 7.796.325 8.272.19 2.122-.602 68.242-.545 69.26.06.49.29 1.436.06 2.102-.513.666-.572 1.6-.81 2.072-.53 1.467.872 14.594 1.26 32.142.953 9.236-.162 17.855-.023 19.153.31 1.297.332 3.333.324 4.523-.017 1.19-.34 2.806-.314 3.59.06.783.374 9.794.77 20.023.882 10.23.11 18.756.353 18.948.537.43.415 3.32-1.15 3.887-2.104zm-293.735 4.406c.194-1.55-.122-1.768-1.983-1.38-1.217.256-2.205.94-2.195 1.523.05 2.86 3.817 2.73 4.178-.144zm-46.134-1.107c.186-1.432-.2-1.887-1.582-1.863-2.207.04-3.337 2.54-1.62 3.584 1.766 1.075 2.92.454 3.203-1.72zm22.795.468c-.018-1.05-.613-1.54-1.748-1.437-2.157.197-2.954.987-2.19 2.174 1.005 1.566 3.97 1.012 3.938-.736zm-91.94-.155c1.18-1.35 1.226-1.81.264-2.58-1.41-1.127-4.988-.29-4.962 1.16.02 1.097 1.77 3.087 2.704 3.07.308-.005 1.206-.748 1.994-1.65zm24.617-.157c.614-1.688.47-1.807-3.007-2.49-2.458-.48-2.835-.322-2.808 1.182.047 2.716 4.905 3.81 5.815 1.308zm22.48-.79c-.304-.474-.92-.855-1.37-.847-.45.01-.813.407-.805.886.01.478.626.86 1.372.846.745-.013 1.107-.41.803-.884zm-90.312-3.24c-.288-.278-2.168-.355-4.177-.17l-3.652.336 1.992 2.434 1.992 2.434L223.97 344c1.202-1.246 1.95-2.492 1.66-2.77zm19.172 3.933c1.194-.34 1.937-1.23 1.92-2.29-.023-1.22-.434-1.57-1.4-1.18-.75.304-2.326.57-3.5.59-1.865.033-2.014.255-1.173 1.76 1.05 1.884 1.278 1.945 4.152 1.12zm-121.74-.867c1.06-1.487 1.717-3.222 1.46-3.855-.472-1.17-7.298-2.642-8.152-1.757-.58.6 3.266 8.344 4.134 8.33.346-.007 1.497-1.23 2.557-2.717zm53.266-.06c3.746-2.766 3.223-4.347-1.41-4.267-4.45.078-5.175.8-3.93 3.913 1.082 2.7 2.076 2.766 5.34.354zm24.684-2.217c-.026-1.466-4.67-2.053-5.93-.75-.632.655-.413 1.455.732 2.677 1.444 1.54 1.842 1.6 3.426.508.986-.68 1.783-1.775 1.772-2.434zm445.715-7.325c3.712-.627 3.55-2.276-.53-5.373-4.61-3.5-17.982-11.95-21.78-13.76-.966-.46-4.527-2.523-7.914-4.582-3.386-2.06-7.342-4.296-8.79-4.97-7.305-3.407-14.957-6.54-23.67-9.693-5.298-1.917-10.422-3.795-11.386-4.173-9.193-3.602-20.35-4.847-40.987-4.572-13.678.183-12.947.122-22.557 1.878-4.272.78-9.35 1.59-11.283 1.8-7.07.763-18.603 3.39-19.185 4.37-.248.418-1.212.774-2.14.79-.93.016-1.683.395-1.675.842.008.447-1.06.955-2.374 1.13-1.71.226-2.457.874-2.632 2.28-.134 1.078.102 1.956.525 1.948 1.068-.018 12.49 7.355 15.237 9.838 2.743 2.48 4.204 2.513 9.025.215 8.972-4.28 27.36-6.962 44.578-6.507 17.702.468 18.445.527 27.188 2.132 17.08 3.136 50.992 16.362 53.75 20.962.396.657 1.273 1.185 1.95 1.173.677-.01 2.557 1.103 4.177 2.476 3.77 3.195 9.32 3.68 20.472 1.795zm-30.907-.533c3.286-.373 1.126-2.535-6.645-6.65-4.468-2.367-11.08-5.334-14.692-6.592-3.613-1.26-7.356-2.583-8.32-2.94-8.488-3.16-11.845-4.256-13.647-4.46-1.156-.133-2.693-.445-3.415-.695-.722-.25-6.218-.996-12.213-1.66-15.005-1.657-33.667-1.763-42.217-.237-3.818.68-7.89 1.29-9.05 1.35-1.16.063-3.304.585-4.766 1.16-7.306 2.88-8.193 4.457-4.174 7.426 1.266.935 5.18 4.302 8.694 7.483l6.392 5.783 13.842.143c7.613.078 27.936.132 45.16.12 17.226-.012 31.452.106 31.614.262.27.262 9.905-.093 13.438-.495zm-113.393-1.6c-.014-.81-.92-2.293-2.015-3.295-1.095-1-2.39-2.223-2.876-2.715-1.253-1.266-10.643-8.093-15.868-11.538a818.572 818.572 0 0 1-8.367-5.6c-18.097-12.322-50.45-23.382-67.52-23.084-1.803.032-3.5-.288-3.77-.71-.272-.423-2.75-.778-5.506-.79-2.756-.01-6.188-.16-7.627-.33-3.872-.46-27.4 1.53-32.275 2.73-2.318.57-5.974 1.244-8.124 1.496-3.81.446-9.33 1.716-20.805 4.785-3.097.828-7.548 2.46-9.89 3.625-2.344 1.165-4.987 2.132-5.874 2.147-.888.015-2.855.93-4.372 2.03a291.29 291.29 0 0 1-3.16 2.277c-.222.15 1.085 1.695 2.904 3.433 1.82 1.74 4.715 4.606 6.435 6.37 3.438 3.528 4.58 3.792 8.124 1.88 2.132-1.15 6.757-2.407 19.178-5.215 2.145-.485 6.032-1.147 8.638-1.47 2.605-.325 5.032-.78 5.39-1.01 1.65-1.06 40.54-2.076 45.527-1.19 2.88.513 6.327 1.068 7.658 1.235 1.33.166 2.733.49 3.116.716.382.227 2.63.463 4.993.523 2.363.06 4.693.39 5.178.733.485.344 3.216 1.06 6.07 1.595 2.85.533 5.802 1.257 6.554 1.607 4.963 2.31 9.932 4.196 11.01 4.177.697-.012 4.637 1.486 8.756 3.328 4.12 1.843 7.874 3.344 8.344 3.336.47-.008.86.39.87.886.008.496 1.888 1.666 4.178 2.6 2.29.935 5.552 2.724 7.25 3.977 3.325 2.453 7.027 2.98 20.723 2.948 6.21-.014 7.177-.215 7.154-1.49zm-36.237-.74c-.127-.882-3.798-3.212-7.375-4.68-1.206-.496-3.77-1.612-5.7-2.482-13.85-6.24-28.184-10.777-39.385-12.467-2.4-.363-5.542-.856-6.982-1.098-2.74-.458-6.073-.856-12.647-1.507-6.12-.607-22.866-.14-30.716.854-3.912.496-8.09.944-9.287.997-9.184.403-31.14 5.54-31.836 7.45-.52 1.433 4.28 10.482 6.064 11.425.73.384 12.486.778 26.126.874 42.41.3 46.908.355 66.38.822 10.422.25 19.112.61 19.31.802.795.76 26.163-.206 26.05-.99zm-146.37-2.136c3.99-.27.6-4.536-14.437-18.166-4.7-4.26-32.878-17.736-41.276-19.74-3.125-.745-6.865-1.843-8.312-2.44-6.147-2.536-20.392-4.327-33.748-4.242-12.98.082-19.104.862-29.796 3.797-2.857.784-5.92 1.58-6.802 1.77-.883.19-2.05.71-2.59 1.16-.543.448-3.323 1.52-6.18 2.383-12.528 3.78-34.644 13.933-41.322 18.97-4.47 3.37-12.957 11.914-12.386 12.466.31.297 6.696.587 14.193.644l13.63.102 4.135-3.08c2.274-1.695 4.48-3.09 4.9-3.098.42-.01 2.122-.9 3.778-1.98 3.31-2.16 8.668-4.398 17.28-7.218 3.095-1.013 6.404-2.192 7.354-2.62 3.518-1.585 13.39-3.743 19.185-4.192 3.286-.255 6.59-.715 7.343-1.023 2.217-.905 18.96-.217 26.056 1.07 6.16 1.12 7.668 1.576 14.57 4.412 1.52.624 3.23 1.126 3.8 1.116.57-.01 2.044.748 3.278 1.684 1.233.936 2.815 1.692 3.514 1.68 1.238-.022 21.08 9.696 29.382 14.39 3.023 1.71 4.9 2.21 6.996 1.867 1.574-.258 4.044-.13 5.487.284 1.444.415 4.385.608 6.536.43 2.15-.178 4.596-.37 5.433-.427zm-53.76.015c.296-.498 3.13-.71 6.787-.507 11.413.634 16.564.523 16.835-.364.147-.48-1.8-1.783-4.323-2.894a1993.69 1993.69 0 0 1-12.048-5.376c-17.28-7.778-21.674-9.692-24.995-10.89-4.256-1.538-22.102-3.776-24.966-3.132-1.133.254-5.192.554-9.02.665-6.882.2-22.814 3.126-25.657 4.712-.808.45-2.71.935-4.223 1.077-1.515.142-3.162.767-3.66 1.39-.5.623-1.573 1.144-2.387 1.158-.814.015-3.78 1.18-6.594 2.59-2.813 1.41-6.766 3.318-8.784 4.238-2.376 1.083-3.66 2.228-3.643 3.246.032 1.826-.684 1.8 32.223 1.135 11.724-.238 23.672-.108 26.552.288 11.79 1.622 21.57 2.384 33.095 2.578 6.69.113 12.34.376 12.558.585.66.637 1.713.403 2.25-.5zm35.303-28.882c.978-.71 4.852-2.573 8.608-4.137 3.756-1.565 7.995-3.383 9.42-4.04 4.972-2.298 30.75-8.33 40.74-9.532 1.91-.23 9.638-.618 17.17-.863 7.534-.243 13.694-.76 13.69-1.147-.006-.387.485-.41 1.09-.05.604.358 2.165.52 3.468.36 1.303-.158 2.833-.013 3.4.324 1.055.627 3.358.882 12.534 1.392 6.172.34 10.73 1.114 12.927 2.19 2.524 1.238 6.334-.15 10.728-3.914 2.24-1.918 4.49-3.494 4.997-3.503 1.708-.03 6.973-8.35 7.904-12.49 1.395-6.205 1.038-9.943-1.428-14.927-2.664-5.387-4.646-7.28-11.08-10.58-8.81-4.52-18.94-4.905-26.118-.99-7.322 3.993-10.507 7.94-11.902 14.75-.763 3.726-.625 4.66 1.236 8.38 2.573 5.145 6.035 8.004 11.32 9.35 3.645.93 4.37.847 7.572-.857 1.947-1.038 3.932-2.65 4.41-3.582 2.33-4.542-.665-10.33-4.772-9.224-2.918.787-3.103 4.177-.326 5.952 1.277.816 1.733 1.724 1.37 2.724-.497 1.363-.777 1.386-3.073.25-4.98-2.466-5.746-9.18-1.45-12.68 8.053-6.567 17.808 7.25 11.334 16.053-1.193 1.622-3.27 3.543-4.613 4.268-3.325 1.795-10.57 1.02-16.106-1.723-16.99-8.418-16.93-28.393.11-36.822 2.87-1.418 6.116-2.595 7.217-2.614 1.1-.02 3.192-.677 4.646-1.462 2.354-1.27 2.587-1.75 2.115-4.366-.607-3.37-1.804-5.624-5.554-10.45-2.087-2.686-3.892-3.833-8.36-5.314-9.95-3.295-15.95-2.828-24.965 1.946-1.522.806-3.072 1.172-3.443.814-.372-.36-.806-3.467-.966-6.908l-.29-6.256-4.41-3.847c-8.307-7.248-21.516-8.48-29.05-2.713-5.644 4.32-9.993 14.19-8.213 18.636.766 1.913.878 1.928 4.514.595 8.984-3.293 20 .023 23.08 6.947 2.928 6.585-.666 16.828-7.43 21.173-5.23 3.36-15.34 2.294-26.25-2.77-7.695-3.57-15.912-4.042-20.154-1.155-3.474 2.364-2.334 4.816 3.644 7.836 10.596 5.35 15.93 18.417 11.595 28.4a375.25 375.25 0 0 0-3.08 7.355c-1.54 3.82-4 6.318-6.252 6.357-1.706.03-.778-4.58 1.627-8.087 1.587-2.313 1.895-4.17 2.052-12.365l.184-9.643-3.333-4.094c-3.78-4.642-12.312-9.105-18.032-9.432-3.21-.183-8.713 1.243-10.02 2.598-1.333 1.38-6.334.693-7.278-1-1.38-2.47-9.722-4.548-17.493-4.352-5.284.133-7.375.618-10.986 2.55-7.812 4.176-10.763 9.4-8.796 15.57 1.03 3.234 3.644 4.76 3.597 2.102-.03-1.717 6.54-7.378 9.335-8.042 3.515-.837 13.686.705 16.174 2.453 3.766 2.645 5.088 6.282 4.188 11.524-1.165 6.787-3.73 10.877-8.365 13.337-2.193 1.163-3.977 2.662-3.965 3.33.012.68 1.953 1.846 4.398 2.64 7.93 2.58 10.476 3.572 13.145 5.128 1.45.846 3.323 1.527 4.16 1.514.838-.014 1.528.282 1.535.655.006.374 1.097 1.13 2.423 1.677 1.326.55 4.39 2.122 6.806 3.496 5.248 2.983 4.878 2.915 7.093 1.305zm169.782-5.572c5.055-2.714 16.02-6.168 23.972-7.55 6.53-1.134 6.71-1.24 6.076-3.59-.635-2.356-3.328-6.275-6.39-9.303-1.025-1.013-2.026-2.265-2.225-2.783-.2-.518-2.74-2.435-5.643-4.26-7.855-4.938-18.532-8.224-28.665-8.822-3.89-.23-4.17-.102-4.565 2.063-1.12 6.142-4.04 13.937-6.075 16.205-1.245 1.387-4.296 3.884-6.78 5.547-4.744 3.176-5.495 4.528-2.953 5.315.842.26 2.774.998 4.294 1.638 1.52.64 3.488 1.167 4.373 1.17.885.002 4.968 1.69 9.073 3.747 4.105 2.058 7.975 3.738 8.6 3.733.625-.005 3.734-1.404 6.91-3.11z" fill="#FFF"/>
    </g>
</svg>
